G04 #@! TF.GenerationSoftware,KiCad,Pcbnew,5.1.7-a382d34a8~88~ubuntu18.04.1*
G04 #@! TF.CreationDate,2021-06-16T01:22:41+03:00*
G04 #@! TF.ProjectId,controller,636f6e74-726f-46c6-9c65-722e6b696361,rev?*
G04 #@! TF.SameCoordinates,Original*
G04 #@! TF.FileFunction,Legend,Bot*
G04 #@! TF.FilePolarity,Positive*
%FSLAX46Y46*%
G04 Gerber Fmt 4.6, Leading zero omitted, Abs format (unit mm)*
G04 Created by KiCad (PCBNEW 5.1.7-a382d34a8~88~ubuntu18.04.1) date 2021-06-16 01:22:41*
%MOMM*%
%LPD*%
G01*
G04 APERTURE LIST*
%ADD10C,0.120000*%
%ADD11C,0.300000*%
%ADD12C,0.150000*%
%ADD13R,0.800000X0.900000*%
%ADD14C,2.000000*%
%ADD15R,1.700000X1.700000*%
%ADD16O,1.700000X1.700000*%
%ADD17C,1.700000*%
%ADD18C,3.000000*%
%ADD19C,2.700000*%
%ADD20R,2.500000X2.500000*%
%ADD21C,1.500000*%
%ADD22R,1.905000X2.000000*%
%ADD23O,1.905000X2.000000*%
%ADD24O,2.400000X2.400000*%
%ADD25C,2.400000*%
%ADD26O,1.000000X1.000000*%
%ADD27R,1.000000X1.000000*%
%ADD28C,1.450000*%
%ADD29O,1.200000X1.900000*%
%ADD30R,0.900000X0.800000*%
%ADD31C,1.524000*%
%ADD32C,1.600000*%
G04 APERTURE END LIST*
D10*
X190500000Y-72390000D02*
X238760000Y-72390000D01*
X186690000Y-76200000D02*
X190500000Y-72390000D01*
X186690000Y-110490000D02*
X186690000Y-76200000D01*
X186690000Y-111760000D02*
X186690000Y-110490000D01*
X194310000Y-119380000D02*
X186690000Y-111760000D01*
X194310000Y-133350000D02*
X194310000Y-119380000D01*
X115570000Y-100330000D02*
X115570000Y-133350000D01*
X116840000Y-100330000D02*
X115570000Y-100330000D01*
X146050000Y-100330000D02*
X116840000Y-100330000D01*
X146050000Y-72390000D02*
X146050000Y-100330000D01*
X114300000Y-72390000D02*
X146050000Y-72390000D01*
X109220000Y-77470000D02*
X114300000Y-72390000D01*
X74930000Y-77470000D02*
X109220000Y-77470000D01*
X20320000Y-100330000D02*
X20320000Y-45720000D01*
X60960000Y-100330000D02*
X20320000Y-100330000D01*
X69850000Y-91440000D02*
X60960000Y-100330000D01*
X69850000Y-73660000D02*
X69850000Y-91440000D01*
X67310000Y-71120000D02*
X69850000Y-73660000D01*
X67310000Y-45720000D02*
X67310000Y-71120000D01*
X64770000Y-45720000D02*
X67310000Y-45720000D01*
X64770000Y-71120000D02*
X64770000Y-45720000D01*
X67310000Y-73660000D02*
X64770000Y-71120000D01*
X67310000Y-90170000D02*
X67310000Y-73660000D01*
X59690000Y-97790000D02*
X67310000Y-90170000D01*
X34290000Y-97790000D02*
X59690000Y-97790000D01*
X29210000Y-92710000D02*
X34290000Y-97790000D01*
X21590000Y-92710000D02*
X29210000Y-92710000D01*
X21590000Y-45720000D02*
X21590000Y-92710000D01*
X20320000Y-45720000D02*
X21590000Y-45720000D01*
D11*
X58513809Y-97424761D02*
X58513809Y-95424761D01*
X58513809Y-96377142D02*
X57370952Y-96377142D01*
X57370952Y-97424761D02*
X57370952Y-95424761D01*
X56418571Y-97424761D02*
X56418571Y-95424761D01*
X54418571Y-95520000D02*
X54609047Y-95424761D01*
X54894761Y-95424761D01*
X55180476Y-95520000D01*
X55370952Y-95710476D01*
X55466190Y-95900952D01*
X55561428Y-96281904D01*
X55561428Y-96567619D01*
X55466190Y-96948571D01*
X55370952Y-97139047D01*
X55180476Y-97329523D01*
X54894761Y-97424761D01*
X54704285Y-97424761D01*
X54418571Y-97329523D01*
X54323333Y-97234285D01*
X54323333Y-96567619D01*
X54704285Y-96567619D01*
X53466190Y-97424761D02*
X53466190Y-95424761D01*
X53466190Y-96377142D02*
X52323333Y-96377142D01*
X52323333Y-97424761D02*
X52323333Y-95424761D01*
X50132857Y-95424761D02*
X49466190Y-97424761D01*
X48799523Y-95424761D01*
X47751904Y-95424761D02*
X47370952Y-95424761D01*
X47180476Y-95520000D01*
X46990000Y-95710476D01*
X46894761Y-96091428D01*
X46894761Y-96758095D01*
X46990000Y-97139047D01*
X47180476Y-97329523D01*
X47370952Y-97424761D01*
X47751904Y-97424761D01*
X47942380Y-97329523D01*
X48132857Y-97139047D01*
X48228095Y-96758095D01*
X48228095Y-96091428D01*
X48132857Y-95710476D01*
X47942380Y-95520000D01*
X47751904Y-95424761D01*
X45085238Y-97424761D02*
X46037619Y-97424761D01*
X46037619Y-95424761D01*
X44704285Y-95424761D02*
X43561428Y-95424761D01*
X44132857Y-97424761D02*
X44132857Y-95424761D01*
X42990000Y-96853333D02*
X42037619Y-96853333D01*
X43180476Y-97424761D02*
X42513809Y-95424761D01*
X41847142Y-97424761D01*
X40132857Y-95520000D02*
X40323333Y-95424761D01*
X40609047Y-95424761D01*
X40894761Y-95520000D01*
X41085238Y-95710476D01*
X41180476Y-95900952D01*
X41275714Y-96281904D01*
X41275714Y-96567619D01*
X41180476Y-96948571D01*
X41085238Y-97139047D01*
X40894761Y-97329523D01*
X40609047Y-97424761D01*
X40418571Y-97424761D01*
X40132857Y-97329523D01*
X40037619Y-97234285D01*
X40037619Y-96567619D01*
X40418571Y-96567619D01*
X39180476Y-96377142D02*
X38513809Y-96377142D01*
X38228095Y-97424761D02*
X39180476Y-97424761D01*
X39180476Y-95424761D01*
X38228095Y-95424761D01*
X37370952Y-97234285D02*
X37275714Y-97329523D01*
X37370952Y-97424761D01*
X37466190Y-97329523D01*
X37370952Y-97234285D01*
X37370952Y-97424761D01*
X37370952Y-96662857D02*
X37466190Y-95520000D01*
X37370952Y-95424761D01*
X37275714Y-95520000D01*
X37370952Y-96662857D01*
X37370952Y-95424761D01*
X36418571Y-97234285D02*
X36323333Y-97329523D01*
X36418571Y-97424761D01*
X36513809Y-97329523D01*
X36418571Y-97234285D01*
X36418571Y-97424761D01*
X36418571Y-96662857D02*
X36513809Y-95520000D01*
X36418571Y-95424761D01*
X36323333Y-95520000D01*
X36418571Y-96662857D01*
X36418571Y-95424761D01*
X35466190Y-97234285D02*
X35370952Y-97329523D01*
X35466190Y-97424761D01*
X35561428Y-97329523D01*
X35466190Y-97234285D01*
X35466190Y-97424761D01*
X35466190Y-96662857D02*
X35561428Y-95520000D01*
X35466190Y-95424761D01*
X35370952Y-95520000D01*
X35466190Y-96662857D01*
X35466190Y-95424761D01*
D10*
X236418000Y-95252000D02*
X237348000Y-95252000D01*
X239578000Y-95252000D02*
X238648000Y-95252000D01*
X239578000Y-95252000D02*
X239578000Y-97412000D01*
X236418000Y-95252000D02*
X236418000Y-96712000D01*
X72912500Y-101196224D02*
X72912500Y-100686776D01*
X71867500Y-101196224D02*
X71867500Y-100686776D01*
X71014000Y-69561064D02*
X71014000Y-68106936D01*
X69194000Y-69561064D02*
X69194000Y-68106936D01*
X104450000Y-126998000D02*
X103520000Y-126998000D01*
X101290000Y-126998000D02*
X102220000Y-126998000D01*
X101290000Y-126998000D02*
X101290000Y-124838000D01*
X104450000Y-126998000D02*
X104450000Y-125538000D01*
X81128776Y-109234500D02*
X81638224Y-109234500D01*
X81128776Y-108189500D02*
X81638224Y-108189500D01*
X77215276Y-121397500D02*
X77724724Y-121397500D01*
X77215276Y-122442500D02*
X77724724Y-122442500D01*
X77215276Y-127776500D02*
X77724724Y-127776500D01*
X77215276Y-126731500D02*
X77724724Y-126731500D01*
X159006000Y-112629733D02*
X159006000Y-112922267D01*
X157986000Y-112629733D02*
X157986000Y-112922267D01*
X188729233Y-111250000D02*
X189021767Y-111250000D01*
X188729233Y-112270000D02*
X189021767Y-112270000D01*
X238491500Y-76707276D02*
X238491500Y-77216724D01*
X239536500Y-76707276D02*
X239536500Y-77216724D01*
X30990000Y-125483233D02*
X30990000Y-125775767D01*
X29970000Y-125483233D02*
X29970000Y-125775767D01*
X101092724Y-123712500D02*
X100583276Y-123712500D01*
X101092724Y-122667500D02*
X100583276Y-122667500D01*
X65785276Y-126477500D02*
X66294724Y-126477500D01*
X65785276Y-127522500D02*
X66294724Y-127522500D01*
X66562500Y-121666724D02*
X66562500Y-121157276D01*
X65517500Y-121666724D02*
X65517500Y-121157276D01*
X62977500Y-121666724D02*
X62977500Y-121157276D01*
X64022500Y-121666724D02*
X64022500Y-121157276D01*
X74674000Y-103524267D02*
X74674000Y-103231733D01*
X75694000Y-103524267D02*
X75694000Y-103231733D01*
X201568267Y-102614000D02*
X201275733Y-102614000D01*
X201568267Y-103634000D02*
X201275733Y-103634000D01*
X220325733Y-97534000D02*
X220618267Y-97534000D01*
X220325733Y-98554000D02*
X220618267Y-98554000D01*
X219563733Y-92708000D02*
X219856267Y-92708000D01*
X219563733Y-93728000D02*
X219856267Y-93728000D01*
X220579733Y-103888000D02*
X220872267Y-103888000D01*
X220579733Y-102868000D02*
X220872267Y-102868000D01*
X205484000Y-91586267D02*
X205484000Y-91293733D01*
X206504000Y-91586267D02*
X206504000Y-91293733D01*
X88646724Y-94473500D02*
X88137276Y-94473500D01*
X88646724Y-95518500D02*
X88137276Y-95518500D01*
X84073276Y-94473500D02*
X84582724Y-94473500D01*
X84073276Y-95518500D02*
X84582724Y-95518500D01*
X86614724Y-91962500D02*
X86105276Y-91962500D01*
X86614724Y-90917500D02*
X86105276Y-90917500D01*
X75186000Y-116339233D02*
X75186000Y-116631767D01*
X74166000Y-116339233D02*
X74166000Y-116631767D01*
X107803733Y-119382000D02*
X108096267Y-119382000D01*
X107803733Y-118362000D02*
X108096267Y-118362000D01*
X81934267Y-105158000D02*
X81641733Y-105158000D01*
X81934267Y-104138000D02*
X81641733Y-104138000D01*
X88792267Y-102868000D02*
X88499733Y-102868000D01*
X88792267Y-103888000D02*
X88499733Y-103888000D01*
X92436733Y-102169500D02*
X92729267Y-102169500D01*
X92436733Y-103189500D02*
X92729267Y-103189500D01*
X70222000Y-104929000D02*
X72682000Y-104929000D01*
X70222000Y-106399000D02*
X70222000Y-104929000D01*
X72682000Y-106399000D02*
X70222000Y-106399000D01*
X71122000Y-110038000D02*
X72582000Y-110038000D01*
X71122000Y-106878000D02*
X73282000Y-106878000D01*
X71122000Y-106878000D02*
X71122000Y-107808000D01*
X71122000Y-110038000D02*
X71122000Y-109108000D01*
X75183276Y-108472500D02*
X75692724Y-108472500D01*
X75183276Y-107427500D02*
X75692724Y-107427500D01*
X77230500Y-104647276D02*
X77230500Y-105156724D01*
X76185500Y-104647276D02*
X76185500Y-105156724D01*
X115569276Y-128763500D02*
X116078724Y-128763500D01*
X115569276Y-129808500D02*
X116078724Y-129808500D01*
X117108500Y-132334724D02*
X117108500Y-131825276D01*
X116063500Y-132334724D02*
X116063500Y-131825276D01*
X208426267Y-104646000D02*
X208133733Y-104646000D01*
X208426267Y-105666000D02*
X208133733Y-105666000D01*
X73858000Y-97538000D02*
X73858000Y-98998000D01*
X77018000Y-97538000D02*
X77018000Y-99698000D01*
X77018000Y-97538000D02*
X76088000Y-97538000D01*
X73858000Y-97538000D02*
X74788000Y-97538000D01*
X75692724Y-100315500D02*
X75183276Y-100315500D01*
X75692724Y-101360500D02*
X75183276Y-101360500D01*
X203854267Y-119890000D02*
X203561733Y-119890000D01*
X203854267Y-118870000D02*
X203561733Y-118870000D01*
X200159233Y-119890000D02*
X200451767Y-119890000D01*
X200159233Y-118870000D02*
X200451767Y-118870000D01*
X69957733Y-133098000D02*
X70250267Y-133098000D01*
X69957733Y-132078000D02*
X70250267Y-132078000D01*
X233680000Y-121686000D02*
X230230000Y-121686000D01*
X233680000Y-121686000D02*
X235630000Y-121686000D01*
X233680000Y-116566000D02*
X231730000Y-116566000D01*
X233680000Y-116566000D02*
X235630000Y-116566000D01*
X191662267Y-86870000D02*
X191369733Y-86870000D01*
X191662267Y-85850000D02*
X191369733Y-85850000D01*
X221232000Y-74874000D02*
X219772000Y-74874000D01*
X221232000Y-78034000D02*
X219072000Y-78034000D01*
X221232000Y-78034000D02*
X221232000Y-77104000D01*
X221232000Y-74874000D02*
X221232000Y-75804000D01*
X183788267Y-96522000D02*
X183495733Y-96522000D01*
X183788267Y-95502000D02*
X183495733Y-95502000D01*
X181209733Y-77218000D02*
X181502267Y-77218000D01*
X181209733Y-76198000D02*
X181502267Y-76198000D01*
D12*
X234656380Y-93249904D02*
X235465904Y-93249904D01*
X235561142Y-93297523D01*
X235608761Y-93345142D01*
X235656380Y-93440380D01*
X235656380Y-93630857D01*
X235608761Y-93726095D01*
X235561142Y-93773714D01*
X235465904Y-93821333D01*
X234656380Y-93821333D01*
X235656380Y-94821333D02*
X235656380Y-94249904D01*
X235656380Y-94535619D02*
X234656380Y-94535619D01*
X234799238Y-94440380D01*
X234894476Y-94345142D01*
X234942095Y-94249904D01*
X235656380Y-95297523D02*
X235656380Y-95488000D01*
X235608761Y-95583238D01*
X235561142Y-95630857D01*
X235418285Y-95726095D01*
X235227809Y-95773714D01*
X234846857Y-95773714D01*
X234751619Y-95726095D01*
X234704000Y-95678476D01*
X234656380Y-95583238D01*
X234656380Y-95392761D01*
X234704000Y-95297523D01*
X234751619Y-95249904D01*
X234846857Y-95202285D01*
X235084952Y-95202285D01*
X235180190Y-95249904D01*
X235227809Y-95297523D01*
X235275428Y-95392761D01*
X235275428Y-95583238D01*
X235227809Y-95678476D01*
X235180190Y-95726095D01*
X235084952Y-95773714D01*
X72842380Y-96162952D02*
X72366190Y-95829619D01*
X72842380Y-95591523D02*
X71842380Y-95591523D01*
X71842380Y-95972476D01*
X71890000Y-96067714D01*
X71937619Y-96115333D01*
X72032857Y-96162952D01*
X72175714Y-96162952D01*
X72270952Y-96115333D01*
X72318571Y-96067714D01*
X72366190Y-95972476D01*
X72366190Y-95591523D01*
X72842380Y-97115333D02*
X72842380Y-96543904D01*
X72842380Y-96829619D02*
X71842380Y-96829619D01*
X71985238Y-96734380D01*
X72080476Y-96639142D01*
X72128095Y-96543904D01*
X71842380Y-97972476D02*
X71842380Y-97782000D01*
X71890000Y-97686761D01*
X71937619Y-97639142D01*
X72080476Y-97543904D01*
X72270952Y-97496285D01*
X72651904Y-97496285D01*
X72747142Y-97543904D01*
X72794761Y-97591523D01*
X72842380Y-97686761D01*
X72842380Y-97877238D01*
X72794761Y-97972476D01*
X72747142Y-98020095D01*
X72651904Y-98067714D01*
X72413809Y-98067714D01*
X72318571Y-98020095D01*
X72270952Y-97972476D01*
X72223333Y-97877238D01*
X72223333Y-97686761D01*
X72270952Y-97591523D01*
X72318571Y-97543904D01*
X72413809Y-97496285D01*
X72175714Y-98924857D02*
X72842380Y-98924857D01*
X71794761Y-98686761D02*
X72509047Y-98448666D01*
X72509047Y-99067714D01*
X72376380Y-67714952D02*
X71900190Y-67381619D01*
X72376380Y-67143523D02*
X71376380Y-67143523D01*
X71376380Y-67524476D01*
X71424000Y-67619714D01*
X71471619Y-67667333D01*
X71566857Y-67714952D01*
X71709714Y-67714952D01*
X71804952Y-67667333D01*
X71852571Y-67619714D01*
X71900190Y-67524476D01*
X71900190Y-67143523D01*
X72376380Y-68667333D02*
X72376380Y-68095904D01*
X72376380Y-68381619D02*
X71376380Y-68381619D01*
X71519238Y-68286380D01*
X71614476Y-68191142D01*
X71662095Y-68095904D01*
X71376380Y-69524476D02*
X71376380Y-69334000D01*
X71424000Y-69238761D01*
X71471619Y-69191142D01*
X71614476Y-69095904D01*
X71804952Y-69048285D01*
X72185904Y-69048285D01*
X72281142Y-69095904D01*
X72328761Y-69143523D01*
X72376380Y-69238761D01*
X72376380Y-69429238D01*
X72328761Y-69524476D01*
X72281142Y-69572095D01*
X72185904Y-69619714D01*
X71947809Y-69619714D01*
X71852571Y-69572095D01*
X71804952Y-69524476D01*
X71757333Y-69429238D01*
X71757333Y-69238761D01*
X71804952Y-69143523D01*
X71852571Y-69095904D01*
X71947809Y-69048285D01*
X71376380Y-70476857D02*
X71376380Y-70286380D01*
X71424000Y-70191142D01*
X71471619Y-70143523D01*
X71614476Y-70048285D01*
X71804952Y-70000666D01*
X72185904Y-70000666D01*
X72281142Y-70048285D01*
X72328761Y-70095904D01*
X72376380Y-70191142D01*
X72376380Y-70381619D01*
X72328761Y-70476857D01*
X72281142Y-70524476D01*
X72185904Y-70572095D01*
X71947809Y-70572095D01*
X71852571Y-70524476D01*
X71804952Y-70476857D01*
X71757333Y-70381619D01*
X71757333Y-70191142D01*
X71804952Y-70095904D01*
X71852571Y-70048285D01*
X71947809Y-70000666D01*
X100917619Y-126142761D02*
X100870000Y-126047523D01*
X100774761Y-125952285D01*
X100631904Y-125809428D01*
X100584285Y-125714190D01*
X100584285Y-125618952D01*
X100822380Y-125666571D02*
X100774761Y-125571333D01*
X100679523Y-125476095D01*
X100489047Y-125428476D01*
X100155714Y-125428476D01*
X99965238Y-125476095D01*
X99870000Y-125571333D01*
X99822380Y-125666571D01*
X99822380Y-125857047D01*
X99870000Y-125952285D01*
X99965238Y-126047523D01*
X100155714Y-126095142D01*
X100489047Y-126095142D01*
X100679523Y-126047523D01*
X100774761Y-125952285D01*
X100822380Y-125857047D01*
X100822380Y-125666571D01*
X99822380Y-126428476D02*
X99822380Y-127047523D01*
X100203333Y-126714190D01*
X100203333Y-126857047D01*
X100250952Y-126952285D01*
X100298571Y-126999904D01*
X100393809Y-127047523D01*
X100631904Y-127047523D01*
X100727142Y-126999904D01*
X100774761Y-126952285D01*
X100822380Y-126857047D01*
X100822380Y-126571333D01*
X100774761Y-126476095D01*
X100727142Y-126428476D01*
X82399047Y-111704380D02*
X82732380Y-111228190D01*
X82970476Y-111704380D02*
X82970476Y-110704380D01*
X82589523Y-110704380D01*
X82494285Y-110752000D01*
X82446666Y-110799619D01*
X82399047Y-110894857D01*
X82399047Y-111037714D01*
X82446666Y-111132952D01*
X82494285Y-111180571D01*
X82589523Y-111228190D01*
X82970476Y-111228190D01*
X81446666Y-111704380D02*
X82018095Y-111704380D01*
X81732380Y-111704380D02*
X81732380Y-110704380D01*
X81827619Y-110847238D01*
X81922857Y-110942476D01*
X82018095Y-110990095D01*
X80494285Y-111704380D02*
X81065714Y-111704380D01*
X80780000Y-111704380D02*
X80780000Y-110704380D01*
X80875238Y-110847238D01*
X80970476Y-110942476D01*
X81065714Y-110990095D01*
X80113333Y-110799619D02*
X80065714Y-110752000D01*
X79970476Y-110704380D01*
X79732380Y-110704380D01*
X79637142Y-110752000D01*
X79589523Y-110799619D01*
X79541904Y-110894857D01*
X79541904Y-110990095D01*
X79589523Y-111132952D01*
X80160952Y-111704380D01*
X79541904Y-111704380D01*
X78335047Y-120848380D02*
X78668380Y-120372190D01*
X78906476Y-120848380D02*
X78906476Y-119848380D01*
X78525523Y-119848380D01*
X78430285Y-119896000D01*
X78382666Y-119943619D01*
X78335047Y-120038857D01*
X78335047Y-120181714D01*
X78382666Y-120276952D01*
X78430285Y-120324571D01*
X78525523Y-120372190D01*
X78906476Y-120372190D01*
X77382666Y-120848380D02*
X77954095Y-120848380D01*
X77668380Y-120848380D02*
X77668380Y-119848380D01*
X77763619Y-119991238D01*
X77858857Y-120086476D01*
X77954095Y-120134095D01*
X76430285Y-120848380D02*
X77001714Y-120848380D01*
X76716000Y-120848380D02*
X76716000Y-119848380D01*
X76811238Y-119991238D01*
X76906476Y-120086476D01*
X77001714Y-120134095D01*
X75573142Y-120181714D02*
X75573142Y-120848380D01*
X75811238Y-119800761D02*
X76049333Y-120515047D01*
X75430285Y-120515047D01*
X74779047Y-127706380D02*
X75112380Y-127230190D01*
X75350476Y-127706380D02*
X75350476Y-126706380D01*
X74969523Y-126706380D01*
X74874285Y-126754000D01*
X74826666Y-126801619D01*
X74779047Y-126896857D01*
X74779047Y-127039714D01*
X74826666Y-127134952D01*
X74874285Y-127182571D01*
X74969523Y-127230190D01*
X75350476Y-127230190D01*
X73826666Y-127706380D02*
X74398095Y-127706380D01*
X74112380Y-127706380D02*
X74112380Y-126706380D01*
X74207619Y-126849238D01*
X74302857Y-126944476D01*
X74398095Y-126992095D01*
X72874285Y-127706380D02*
X73445714Y-127706380D01*
X73160000Y-127706380D02*
X73160000Y-126706380D01*
X73255238Y-126849238D01*
X73350476Y-126944476D01*
X73445714Y-126992095D01*
X72540952Y-126706380D02*
X71921904Y-126706380D01*
X72255238Y-127087333D01*
X72112380Y-127087333D01*
X72017142Y-127134952D01*
X71969523Y-127182571D01*
X71921904Y-127277809D01*
X71921904Y-127515904D01*
X71969523Y-127611142D01*
X72017142Y-127658761D01*
X72112380Y-127706380D01*
X72398095Y-127706380D01*
X72493333Y-127658761D01*
X72540952Y-127611142D01*
X157075142Y-112387142D02*
X157122761Y-112339523D01*
X157170380Y-112196666D01*
X157170380Y-112101428D01*
X157122761Y-111958571D01*
X157027523Y-111863333D01*
X156932285Y-111815714D01*
X156741809Y-111768095D01*
X156598952Y-111768095D01*
X156408476Y-111815714D01*
X156313238Y-111863333D01*
X156218000Y-111958571D01*
X156170380Y-112101428D01*
X156170380Y-112196666D01*
X156218000Y-112339523D01*
X156265619Y-112387142D01*
X156598952Y-112958571D02*
X156551333Y-112863333D01*
X156503714Y-112815714D01*
X156408476Y-112768095D01*
X156360857Y-112768095D01*
X156265619Y-112815714D01*
X156218000Y-112863333D01*
X156170380Y-112958571D01*
X156170380Y-113149047D01*
X156218000Y-113244285D01*
X156265619Y-113291904D01*
X156360857Y-113339523D01*
X156408476Y-113339523D01*
X156503714Y-113291904D01*
X156551333Y-113244285D01*
X156598952Y-113149047D01*
X156598952Y-112958571D01*
X156646571Y-112863333D01*
X156694190Y-112815714D01*
X156789428Y-112768095D01*
X156979904Y-112768095D01*
X157075142Y-112815714D01*
X157122761Y-112863333D01*
X157170380Y-112958571D01*
X157170380Y-113149047D01*
X157122761Y-113244285D01*
X157075142Y-113291904D01*
X156979904Y-113339523D01*
X156789428Y-113339523D01*
X156694190Y-113291904D01*
X156646571Y-113244285D01*
X156598952Y-113149047D01*
X156170380Y-113958571D02*
X156170380Y-114053809D01*
X156218000Y-114149047D01*
X156265619Y-114196666D01*
X156360857Y-114244285D01*
X156551333Y-114291904D01*
X156789428Y-114291904D01*
X156979904Y-114244285D01*
X157075142Y-114196666D01*
X157122761Y-114149047D01*
X157170380Y-114053809D01*
X157170380Y-113958571D01*
X157122761Y-113863333D01*
X157075142Y-113815714D01*
X156979904Y-113768095D01*
X156789428Y-113720476D01*
X156551333Y-113720476D01*
X156360857Y-113768095D01*
X156265619Y-113815714D01*
X156218000Y-113863333D01*
X156170380Y-113958571D01*
X189518357Y-110339142D02*
X189565976Y-110386761D01*
X189708833Y-110434380D01*
X189804071Y-110434380D01*
X189946928Y-110386761D01*
X190042166Y-110291523D01*
X190089785Y-110196285D01*
X190137404Y-110005809D01*
X190137404Y-109862952D01*
X190089785Y-109672476D01*
X190042166Y-109577238D01*
X189946928Y-109482000D01*
X189804071Y-109434380D01*
X189708833Y-109434380D01*
X189565976Y-109482000D01*
X189518357Y-109529619D01*
X188661214Y-109434380D02*
X188851690Y-109434380D01*
X188946928Y-109482000D01*
X188994547Y-109529619D01*
X189089785Y-109672476D01*
X189137404Y-109862952D01*
X189137404Y-110243904D01*
X189089785Y-110339142D01*
X189042166Y-110386761D01*
X188946928Y-110434380D01*
X188756452Y-110434380D01*
X188661214Y-110386761D01*
X188613595Y-110339142D01*
X188565976Y-110243904D01*
X188565976Y-110005809D01*
X188613595Y-109910571D01*
X188661214Y-109862952D01*
X188756452Y-109815333D01*
X188946928Y-109815333D01*
X189042166Y-109862952D01*
X189089785Y-109910571D01*
X189137404Y-110005809D01*
X187661214Y-109434380D02*
X188137404Y-109434380D01*
X188185023Y-109910571D01*
X188137404Y-109862952D01*
X188042166Y-109815333D01*
X187804071Y-109815333D01*
X187708833Y-109862952D01*
X187661214Y-109910571D01*
X187613595Y-110005809D01*
X187613595Y-110243904D01*
X187661214Y-110339142D01*
X187708833Y-110386761D01*
X187804071Y-110434380D01*
X188042166Y-110434380D01*
X188137404Y-110386761D01*
X188185023Y-110339142D01*
X238036380Y-76319142D02*
X237560190Y-75985809D01*
X238036380Y-75747714D02*
X237036380Y-75747714D01*
X237036380Y-76128666D01*
X237084000Y-76223904D01*
X237131619Y-76271523D01*
X237226857Y-76319142D01*
X237369714Y-76319142D01*
X237464952Y-76271523D01*
X237512571Y-76223904D01*
X237560190Y-76128666D01*
X237560190Y-75747714D01*
X237131619Y-76700095D02*
X237084000Y-76747714D01*
X237036380Y-76842952D01*
X237036380Y-77081047D01*
X237084000Y-77176285D01*
X237131619Y-77223904D01*
X237226857Y-77271523D01*
X237322095Y-77271523D01*
X237464952Y-77223904D01*
X238036380Y-76652476D01*
X238036380Y-77271523D01*
X237036380Y-77604857D02*
X237036380Y-78223904D01*
X237417333Y-77890571D01*
X237417333Y-78033428D01*
X237464952Y-78128666D01*
X237512571Y-78176285D01*
X237607809Y-78223904D01*
X237845904Y-78223904D01*
X237941142Y-78176285D01*
X237988761Y-78128666D01*
X238036380Y-78033428D01*
X238036380Y-77747714D01*
X237988761Y-77652476D01*
X237941142Y-77604857D01*
X29407142Y-125462833D02*
X29454761Y-125415214D01*
X29502380Y-125272357D01*
X29502380Y-125177119D01*
X29454761Y-125034261D01*
X29359523Y-124939023D01*
X29264285Y-124891404D01*
X29073809Y-124843785D01*
X28930952Y-124843785D01*
X28740476Y-124891404D01*
X28645238Y-124939023D01*
X28550000Y-125034261D01*
X28502380Y-125177119D01*
X28502380Y-125272357D01*
X28550000Y-125415214D01*
X28597619Y-125462833D01*
X28502380Y-126367595D02*
X28502380Y-125891404D01*
X28978571Y-125843785D01*
X28930952Y-125891404D01*
X28883333Y-125986642D01*
X28883333Y-126224738D01*
X28930952Y-126319976D01*
X28978571Y-126367595D01*
X29073809Y-126415214D01*
X29311904Y-126415214D01*
X29407142Y-126367595D01*
X29454761Y-126319976D01*
X29502380Y-126224738D01*
X29502380Y-125986642D01*
X29454761Y-125891404D01*
X29407142Y-125843785D01*
X101480857Y-122212380D02*
X101814190Y-121736190D01*
X102052285Y-122212380D02*
X102052285Y-121212380D01*
X101671333Y-121212380D01*
X101576095Y-121260000D01*
X101528476Y-121307619D01*
X101480857Y-121402857D01*
X101480857Y-121545714D01*
X101528476Y-121640952D01*
X101576095Y-121688571D01*
X101671333Y-121736190D01*
X102052285Y-121736190D01*
X101004666Y-122212380D02*
X100814190Y-122212380D01*
X100718952Y-122164761D01*
X100671333Y-122117142D01*
X100576095Y-121974285D01*
X100528476Y-121783809D01*
X100528476Y-121402857D01*
X100576095Y-121307619D01*
X100623714Y-121260000D01*
X100718952Y-121212380D01*
X100909428Y-121212380D01*
X101004666Y-121260000D01*
X101052285Y-121307619D01*
X101099904Y-121402857D01*
X101099904Y-121640952D01*
X101052285Y-121736190D01*
X101004666Y-121783809D01*
X100909428Y-121831428D01*
X100718952Y-121831428D01*
X100623714Y-121783809D01*
X100576095Y-121736190D01*
X100528476Y-121640952D01*
X100195142Y-121212380D02*
X99576095Y-121212380D01*
X99909428Y-121593333D01*
X99766571Y-121593333D01*
X99671333Y-121640952D01*
X99623714Y-121688571D01*
X99576095Y-121783809D01*
X99576095Y-122021904D01*
X99623714Y-122117142D01*
X99671333Y-122164761D01*
X99766571Y-122212380D01*
X100052285Y-122212380D01*
X100147523Y-122164761D01*
X100195142Y-122117142D01*
X63380857Y-127706380D02*
X63714190Y-127230190D01*
X63952285Y-127706380D02*
X63952285Y-126706380D01*
X63571333Y-126706380D01*
X63476095Y-126754000D01*
X63428476Y-126801619D01*
X63380857Y-126896857D01*
X63380857Y-127039714D01*
X63428476Y-127134952D01*
X63476095Y-127182571D01*
X63571333Y-127230190D01*
X63952285Y-127230190D01*
X62904666Y-127706380D02*
X62714190Y-127706380D01*
X62618952Y-127658761D01*
X62571333Y-127611142D01*
X62476095Y-127468285D01*
X62428476Y-127277809D01*
X62428476Y-126896857D01*
X62476095Y-126801619D01*
X62523714Y-126754000D01*
X62618952Y-126706380D01*
X62809428Y-126706380D01*
X62904666Y-126754000D01*
X62952285Y-126801619D01*
X62999904Y-126896857D01*
X62999904Y-127134952D01*
X62952285Y-127230190D01*
X62904666Y-127277809D01*
X62809428Y-127325428D01*
X62618952Y-127325428D01*
X62523714Y-127277809D01*
X62476095Y-127230190D01*
X62428476Y-127134952D01*
X61571333Y-126706380D02*
X61761809Y-126706380D01*
X61857047Y-126754000D01*
X61904666Y-126801619D01*
X61999904Y-126944476D01*
X62047523Y-127134952D01*
X62047523Y-127515904D01*
X61999904Y-127611142D01*
X61952285Y-127658761D01*
X61857047Y-127706380D01*
X61666571Y-127706380D01*
X61571333Y-127658761D01*
X61523714Y-127611142D01*
X61476095Y-127515904D01*
X61476095Y-127277809D01*
X61523714Y-127182571D01*
X61571333Y-127134952D01*
X61666571Y-127087333D01*
X61857047Y-127087333D01*
X61952285Y-127134952D01*
X61999904Y-127182571D01*
X62047523Y-127277809D01*
X66936857Y-119578380D02*
X67270190Y-119102190D01*
X67508285Y-119578380D02*
X67508285Y-118578380D01*
X67127333Y-118578380D01*
X67032095Y-118626000D01*
X66984476Y-118673619D01*
X66936857Y-118768857D01*
X66936857Y-118911714D01*
X66984476Y-119006952D01*
X67032095Y-119054571D01*
X67127333Y-119102190D01*
X67508285Y-119102190D01*
X66460666Y-119578380D02*
X66270190Y-119578380D01*
X66174952Y-119530761D01*
X66127333Y-119483142D01*
X66032095Y-119340285D01*
X65984476Y-119149809D01*
X65984476Y-118768857D01*
X66032095Y-118673619D01*
X66079714Y-118626000D01*
X66174952Y-118578380D01*
X66365428Y-118578380D01*
X66460666Y-118626000D01*
X66508285Y-118673619D01*
X66555904Y-118768857D01*
X66555904Y-119006952D01*
X66508285Y-119102190D01*
X66460666Y-119149809D01*
X66365428Y-119197428D01*
X66174952Y-119197428D01*
X66079714Y-119149809D01*
X66032095Y-119102190D01*
X65984476Y-119006952D01*
X65413047Y-119006952D02*
X65508285Y-118959333D01*
X65555904Y-118911714D01*
X65603523Y-118816476D01*
X65603523Y-118768857D01*
X65555904Y-118673619D01*
X65508285Y-118626000D01*
X65413047Y-118578380D01*
X65222571Y-118578380D01*
X65127333Y-118626000D01*
X65079714Y-118673619D01*
X65032095Y-118768857D01*
X65032095Y-118816476D01*
X65079714Y-118911714D01*
X65127333Y-118959333D01*
X65222571Y-119006952D01*
X65413047Y-119006952D01*
X65508285Y-119054571D01*
X65555904Y-119102190D01*
X65603523Y-119197428D01*
X65603523Y-119387904D01*
X65555904Y-119483142D01*
X65508285Y-119530761D01*
X65413047Y-119578380D01*
X65222571Y-119578380D01*
X65127333Y-119530761D01*
X65079714Y-119483142D01*
X65032095Y-119387904D01*
X65032095Y-119197428D01*
X65079714Y-119102190D01*
X65127333Y-119054571D01*
X65222571Y-119006952D01*
X62428380Y-120769142D02*
X61952190Y-120435809D01*
X62428380Y-120197714D02*
X61428380Y-120197714D01*
X61428380Y-120578666D01*
X61476000Y-120673904D01*
X61523619Y-120721523D01*
X61618857Y-120769142D01*
X61761714Y-120769142D01*
X61856952Y-120721523D01*
X61904571Y-120673904D01*
X61952190Y-120578666D01*
X61952190Y-120197714D01*
X62428380Y-121245333D02*
X62428380Y-121435809D01*
X62380761Y-121531047D01*
X62333142Y-121578666D01*
X62190285Y-121673904D01*
X61999809Y-121721523D01*
X61618857Y-121721523D01*
X61523619Y-121673904D01*
X61476000Y-121626285D01*
X61428380Y-121531047D01*
X61428380Y-121340571D01*
X61476000Y-121245333D01*
X61523619Y-121197714D01*
X61618857Y-121150095D01*
X61856952Y-121150095D01*
X61952190Y-121197714D01*
X61999809Y-121245333D01*
X62047428Y-121340571D01*
X62047428Y-121531047D01*
X61999809Y-121626285D01*
X61952190Y-121673904D01*
X61856952Y-121721523D01*
X62428380Y-122197714D02*
X62428380Y-122388190D01*
X62380761Y-122483428D01*
X62333142Y-122531047D01*
X62190285Y-122626285D01*
X61999809Y-122673904D01*
X61618857Y-122673904D01*
X61523619Y-122626285D01*
X61476000Y-122578666D01*
X61428380Y-122483428D01*
X61428380Y-122292952D01*
X61476000Y-122197714D01*
X61523619Y-122150095D01*
X61618857Y-122102476D01*
X61856952Y-122102476D01*
X61952190Y-122150095D01*
X61999809Y-122197714D01*
X62047428Y-122292952D01*
X62047428Y-122483428D01*
X61999809Y-122578666D01*
X61952190Y-122626285D01*
X61856952Y-122673904D01*
X78112857Y-102719142D02*
X78160476Y-102766761D01*
X78303333Y-102814380D01*
X78398571Y-102814380D01*
X78541428Y-102766761D01*
X78636666Y-102671523D01*
X78684285Y-102576285D01*
X78731904Y-102385809D01*
X78731904Y-102242952D01*
X78684285Y-102052476D01*
X78636666Y-101957238D01*
X78541428Y-101862000D01*
X78398571Y-101814380D01*
X78303333Y-101814380D01*
X78160476Y-101862000D01*
X78112857Y-101909619D01*
X77541428Y-102242952D02*
X77636666Y-102195333D01*
X77684285Y-102147714D01*
X77731904Y-102052476D01*
X77731904Y-102004857D01*
X77684285Y-101909619D01*
X77636666Y-101862000D01*
X77541428Y-101814380D01*
X77350952Y-101814380D01*
X77255714Y-101862000D01*
X77208095Y-101909619D01*
X77160476Y-102004857D01*
X77160476Y-102052476D01*
X77208095Y-102147714D01*
X77255714Y-102195333D01*
X77350952Y-102242952D01*
X77541428Y-102242952D01*
X77636666Y-102290571D01*
X77684285Y-102338190D01*
X77731904Y-102433428D01*
X77731904Y-102623904D01*
X77684285Y-102719142D01*
X77636666Y-102766761D01*
X77541428Y-102814380D01*
X77350952Y-102814380D01*
X77255714Y-102766761D01*
X77208095Y-102719142D01*
X77160476Y-102623904D01*
X77160476Y-102433428D01*
X77208095Y-102338190D01*
X77255714Y-102290571D01*
X77350952Y-102242952D01*
X76684285Y-102814380D02*
X76493809Y-102814380D01*
X76398571Y-102766761D01*
X76350952Y-102719142D01*
X76255714Y-102576285D01*
X76208095Y-102385809D01*
X76208095Y-102004857D01*
X76255714Y-101909619D01*
X76303333Y-101862000D01*
X76398571Y-101814380D01*
X76589047Y-101814380D01*
X76684285Y-101862000D01*
X76731904Y-101909619D01*
X76779523Y-102004857D01*
X76779523Y-102242952D01*
X76731904Y-102338190D01*
X76684285Y-102385809D01*
X76589047Y-102433428D01*
X76398571Y-102433428D01*
X76303333Y-102385809D01*
X76255714Y-102338190D01*
X76208095Y-102242952D01*
X202064857Y-102051142D02*
X202112476Y-102098761D01*
X202255333Y-102146380D01*
X202350571Y-102146380D01*
X202493428Y-102098761D01*
X202588666Y-102003523D01*
X202636285Y-101908285D01*
X202683904Y-101717809D01*
X202683904Y-101574952D01*
X202636285Y-101384476D01*
X202588666Y-101289238D01*
X202493428Y-101194000D01*
X202350571Y-101146380D01*
X202255333Y-101146380D01*
X202112476Y-101194000D01*
X202064857Y-101241619D01*
X201588666Y-102146380D02*
X201398190Y-102146380D01*
X201302952Y-102098761D01*
X201255333Y-102051142D01*
X201160095Y-101908285D01*
X201112476Y-101717809D01*
X201112476Y-101336857D01*
X201160095Y-101241619D01*
X201207714Y-101194000D01*
X201302952Y-101146380D01*
X201493428Y-101146380D01*
X201588666Y-101194000D01*
X201636285Y-101241619D01*
X201683904Y-101336857D01*
X201683904Y-101574952D01*
X201636285Y-101670190D01*
X201588666Y-101717809D01*
X201493428Y-101765428D01*
X201302952Y-101765428D01*
X201207714Y-101717809D01*
X201160095Y-101670190D01*
X201112476Y-101574952D01*
X200160095Y-102146380D02*
X200731523Y-102146380D01*
X200445809Y-102146380D02*
X200445809Y-101146380D01*
X200541047Y-101289238D01*
X200636285Y-101384476D01*
X200731523Y-101432095D01*
X221114857Y-99831142D02*
X221162476Y-99878761D01*
X221305333Y-99926380D01*
X221400571Y-99926380D01*
X221543428Y-99878761D01*
X221638666Y-99783523D01*
X221686285Y-99688285D01*
X221733904Y-99497809D01*
X221733904Y-99354952D01*
X221686285Y-99164476D01*
X221638666Y-99069238D01*
X221543428Y-98974000D01*
X221400571Y-98926380D01*
X221305333Y-98926380D01*
X221162476Y-98974000D01*
X221114857Y-99021619D01*
X220638666Y-99926380D02*
X220448190Y-99926380D01*
X220352952Y-99878761D01*
X220305333Y-99831142D01*
X220210095Y-99688285D01*
X220162476Y-99497809D01*
X220162476Y-99116857D01*
X220210095Y-99021619D01*
X220257714Y-98974000D01*
X220352952Y-98926380D01*
X220543428Y-98926380D01*
X220638666Y-98974000D01*
X220686285Y-99021619D01*
X220733904Y-99116857D01*
X220733904Y-99354952D01*
X220686285Y-99450190D01*
X220638666Y-99497809D01*
X220543428Y-99545428D01*
X220352952Y-99545428D01*
X220257714Y-99497809D01*
X220210095Y-99450190D01*
X220162476Y-99354952D01*
X219305333Y-99259714D02*
X219305333Y-99926380D01*
X219543428Y-98878761D02*
X219781523Y-99593047D01*
X219162476Y-99593047D01*
X222607142Y-95115142D02*
X222654761Y-95067523D01*
X222702380Y-94924666D01*
X222702380Y-94829428D01*
X222654761Y-94686571D01*
X222559523Y-94591333D01*
X222464285Y-94543714D01*
X222273809Y-94496095D01*
X222130952Y-94496095D01*
X221940476Y-94543714D01*
X221845238Y-94591333D01*
X221750000Y-94686571D01*
X221702380Y-94829428D01*
X221702380Y-94924666D01*
X221750000Y-95067523D01*
X221797619Y-95115142D01*
X222702380Y-95591333D02*
X222702380Y-95781809D01*
X222654761Y-95877047D01*
X222607142Y-95924666D01*
X222464285Y-96019904D01*
X222273809Y-96067523D01*
X221892857Y-96067523D01*
X221797619Y-96019904D01*
X221750000Y-95972285D01*
X221702380Y-95877047D01*
X221702380Y-95686571D01*
X221750000Y-95591333D01*
X221797619Y-95543714D01*
X221892857Y-95496095D01*
X222130952Y-95496095D01*
X222226190Y-95543714D01*
X222273809Y-95591333D01*
X222321428Y-95686571D01*
X222321428Y-95877047D01*
X222273809Y-95972285D01*
X222226190Y-96019904D01*
X222130952Y-96067523D01*
X221702380Y-96972285D02*
X221702380Y-96496095D01*
X222178571Y-96448476D01*
X222130952Y-96496095D01*
X222083333Y-96591333D01*
X222083333Y-96829428D01*
X222130952Y-96924666D01*
X222178571Y-96972285D01*
X222273809Y-97019904D01*
X222511904Y-97019904D01*
X222607142Y-96972285D01*
X222654761Y-96924666D01*
X222702380Y-96829428D01*
X222702380Y-96591333D01*
X222654761Y-96496095D01*
X222607142Y-96448476D01*
X221368857Y-105165142D02*
X221416476Y-105212761D01*
X221559333Y-105260380D01*
X221654571Y-105260380D01*
X221797428Y-105212761D01*
X221892666Y-105117523D01*
X221940285Y-105022285D01*
X221987904Y-104831809D01*
X221987904Y-104688952D01*
X221940285Y-104498476D01*
X221892666Y-104403238D01*
X221797428Y-104308000D01*
X221654571Y-104260380D01*
X221559333Y-104260380D01*
X221416476Y-104308000D01*
X221368857Y-104355619D01*
X220892666Y-105260380D02*
X220702190Y-105260380D01*
X220606952Y-105212761D01*
X220559333Y-105165142D01*
X220464095Y-105022285D01*
X220416476Y-104831809D01*
X220416476Y-104450857D01*
X220464095Y-104355619D01*
X220511714Y-104308000D01*
X220606952Y-104260380D01*
X220797428Y-104260380D01*
X220892666Y-104308000D01*
X220940285Y-104355619D01*
X220987904Y-104450857D01*
X220987904Y-104688952D01*
X220940285Y-104784190D01*
X220892666Y-104831809D01*
X220797428Y-104879428D01*
X220606952Y-104879428D01*
X220511714Y-104831809D01*
X220464095Y-104784190D01*
X220416476Y-104688952D01*
X219559333Y-104260380D02*
X219749809Y-104260380D01*
X219845047Y-104308000D01*
X219892666Y-104355619D01*
X219987904Y-104498476D01*
X220035523Y-104688952D01*
X220035523Y-105069904D01*
X219987904Y-105165142D01*
X219940285Y-105212761D01*
X219845047Y-105260380D01*
X219654571Y-105260380D01*
X219559333Y-105212761D01*
X219511714Y-105165142D01*
X219464095Y-105069904D01*
X219464095Y-104831809D01*
X219511714Y-104736571D01*
X219559333Y-104688952D01*
X219654571Y-104641333D01*
X219845047Y-104641333D01*
X219940285Y-104688952D01*
X219987904Y-104736571D01*
X220035523Y-104831809D01*
X206636857Y-89257142D02*
X206684476Y-89304761D01*
X206827333Y-89352380D01*
X206922571Y-89352380D01*
X207065428Y-89304761D01*
X207160666Y-89209523D01*
X207208285Y-89114285D01*
X207255904Y-88923809D01*
X207255904Y-88780952D01*
X207208285Y-88590476D01*
X207160666Y-88495238D01*
X207065428Y-88400000D01*
X206922571Y-88352380D01*
X206827333Y-88352380D01*
X206684476Y-88400000D01*
X206636857Y-88447619D01*
X206160666Y-89352380D02*
X205970190Y-89352380D01*
X205874952Y-89304761D01*
X205827333Y-89257142D01*
X205732095Y-89114285D01*
X205684476Y-88923809D01*
X205684476Y-88542857D01*
X205732095Y-88447619D01*
X205779714Y-88400000D01*
X205874952Y-88352380D01*
X206065428Y-88352380D01*
X206160666Y-88400000D01*
X206208285Y-88447619D01*
X206255904Y-88542857D01*
X206255904Y-88780952D01*
X206208285Y-88876190D01*
X206160666Y-88923809D01*
X206065428Y-88971428D01*
X205874952Y-88971428D01*
X205779714Y-88923809D01*
X205732095Y-88876190D01*
X205684476Y-88780952D01*
X205113047Y-88780952D02*
X205208285Y-88733333D01*
X205255904Y-88685714D01*
X205303523Y-88590476D01*
X205303523Y-88542857D01*
X205255904Y-88447619D01*
X205208285Y-88400000D01*
X205113047Y-88352380D01*
X204922571Y-88352380D01*
X204827333Y-88400000D01*
X204779714Y-88447619D01*
X204732095Y-88542857D01*
X204732095Y-88590476D01*
X204779714Y-88685714D01*
X204827333Y-88733333D01*
X204922571Y-88780952D01*
X205113047Y-88780952D01*
X205208285Y-88828571D01*
X205255904Y-88876190D01*
X205303523Y-88971428D01*
X205303523Y-89161904D01*
X205255904Y-89257142D01*
X205208285Y-89304761D01*
X205113047Y-89352380D01*
X204922571Y-89352380D01*
X204827333Y-89304761D01*
X204779714Y-89257142D01*
X204732095Y-89161904D01*
X204732095Y-88971428D01*
X204779714Y-88876190D01*
X204827333Y-88828571D01*
X204922571Y-88780952D01*
X93321047Y-95353142D02*
X93368666Y-95400761D01*
X93511523Y-95448380D01*
X93606761Y-95448380D01*
X93749619Y-95400761D01*
X93844857Y-95305523D01*
X93892476Y-95210285D01*
X93940095Y-95019809D01*
X93940095Y-94876952D01*
X93892476Y-94686476D01*
X93844857Y-94591238D01*
X93749619Y-94496000D01*
X93606761Y-94448380D01*
X93511523Y-94448380D01*
X93368666Y-94496000D01*
X93321047Y-94543619D01*
X92368666Y-95448380D02*
X92940095Y-95448380D01*
X92654380Y-95448380D02*
X92654380Y-94448380D01*
X92749619Y-94591238D01*
X92844857Y-94686476D01*
X92940095Y-94734095D01*
X91749619Y-94448380D02*
X91654380Y-94448380D01*
X91559142Y-94496000D01*
X91511523Y-94543619D01*
X91463904Y-94638857D01*
X91416285Y-94829333D01*
X91416285Y-95067428D01*
X91463904Y-95257904D01*
X91511523Y-95353142D01*
X91559142Y-95400761D01*
X91654380Y-95448380D01*
X91749619Y-95448380D01*
X91844857Y-95400761D01*
X91892476Y-95353142D01*
X91940095Y-95257904D01*
X91987714Y-95067428D01*
X91987714Y-94829333D01*
X91940095Y-94638857D01*
X91892476Y-94543619D01*
X91844857Y-94496000D01*
X91749619Y-94448380D01*
X91082952Y-94448380D02*
X90463904Y-94448380D01*
X90797238Y-94829333D01*
X90654380Y-94829333D01*
X90559142Y-94876952D01*
X90511523Y-94924571D01*
X90463904Y-95019809D01*
X90463904Y-95257904D01*
X90511523Y-95353142D01*
X90559142Y-95400761D01*
X90654380Y-95448380D01*
X90940095Y-95448380D01*
X91035333Y-95400761D01*
X91082952Y-95353142D01*
X81637047Y-95353142D02*
X81684666Y-95400761D01*
X81827523Y-95448380D01*
X81922761Y-95448380D01*
X82065619Y-95400761D01*
X82160857Y-95305523D01*
X82208476Y-95210285D01*
X82256095Y-95019809D01*
X82256095Y-94876952D01*
X82208476Y-94686476D01*
X82160857Y-94591238D01*
X82065619Y-94496000D01*
X81922761Y-94448380D01*
X81827523Y-94448380D01*
X81684666Y-94496000D01*
X81637047Y-94543619D01*
X80684666Y-95448380D02*
X81256095Y-95448380D01*
X80970380Y-95448380D02*
X80970380Y-94448380D01*
X81065619Y-94591238D01*
X81160857Y-94686476D01*
X81256095Y-94734095D01*
X80065619Y-94448380D02*
X79970380Y-94448380D01*
X79875142Y-94496000D01*
X79827523Y-94543619D01*
X79779904Y-94638857D01*
X79732285Y-94829333D01*
X79732285Y-95067428D01*
X79779904Y-95257904D01*
X79827523Y-95353142D01*
X79875142Y-95400761D01*
X79970380Y-95448380D01*
X80065619Y-95448380D01*
X80160857Y-95400761D01*
X80208476Y-95353142D01*
X80256095Y-95257904D01*
X80303714Y-95067428D01*
X80303714Y-94829333D01*
X80256095Y-94638857D01*
X80208476Y-94543619D01*
X80160857Y-94496000D01*
X80065619Y-94448380D01*
X78875142Y-94781714D02*
X78875142Y-95448380D01*
X79113238Y-94400761D02*
X79351333Y-95115047D01*
X78732285Y-95115047D01*
X87479047Y-90368380D02*
X87812380Y-89892190D01*
X88050476Y-90368380D02*
X88050476Y-89368380D01*
X87669523Y-89368380D01*
X87574285Y-89416000D01*
X87526666Y-89463619D01*
X87479047Y-89558857D01*
X87479047Y-89701714D01*
X87526666Y-89796952D01*
X87574285Y-89844571D01*
X87669523Y-89892190D01*
X88050476Y-89892190D01*
X86526666Y-90368380D02*
X87098095Y-90368380D01*
X86812380Y-90368380D02*
X86812380Y-89368380D01*
X86907619Y-89511238D01*
X87002857Y-89606476D01*
X87098095Y-89654095D01*
X85574285Y-90368380D02*
X86145714Y-90368380D01*
X85860000Y-90368380D02*
X85860000Y-89368380D01*
X85955238Y-89511238D01*
X86050476Y-89606476D01*
X86145714Y-89654095D01*
X84955238Y-89368380D02*
X84860000Y-89368380D01*
X84764761Y-89416000D01*
X84717142Y-89463619D01*
X84669523Y-89558857D01*
X84621904Y-89749333D01*
X84621904Y-89987428D01*
X84669523Y-90177904D01*
X84717142Y-90273142D01*
X84764761Y-90320761D01*
X84860000Y-90368380D01*
X84955238Y-90368380D01*
X85050476Y-90320761D01*
X85098095Y-90273142D01*
X85145714Y-90177904D01*
X85193333Y-89987428D01*
X85193333Y-89749333D01*
X85145714Y-89558857D01*
X85098095Y-89463619D01*
X85050476Y-89416000D01*
X84955238Y-89368380D01*
X75795047Y-114403142D02*
X75842666Y-114450761D01*
X75985523Y-114498380D01*
X76080761Y-114498380D01*
X76223619Y-114450761D01*
X76318857Y-114355523D01*
X76366476Y-114260285D01*
X76414095Y-114069809D01*
X76414095Y-113926952D01*
X76366476Y-113736476D01*
X76318857Y-113641238D01*
X76223619Y-113546000D01*
X76080761Y-113498380D01*
X75985523Y-113498380D01*
X75842666Y-113546000D01*
X75795047Y-113593619D01*
X74842666Y-114498380D02*
X75414095Y-114498380D01*
X75128380Y-114498380D02*
X75128380Y-113498380D01*
X75223619Y-113641238D01*
X75318857Y-113736476D01*
X75414095Y-113784095D01*
X74223619Y-113498380D02*
X74128380Y-113498380D01*
X74033142Y-113546000D01*
X73985523Y-113593619D01*
X73937904Y-113688857D01*
X73890285Y-113879333D01*
X73890285Y-114117428D01*
X73937904Y-114307904D01*
X73985523Y-114403142D01*
X74033142Y-114450761D01*
X74128380Y-114498380D01*
X74223619Y-114498380D01*
X74318857Y-114450761D01*
X74366476Y-114403142D01*
X74414095Y-114307904D01*
X74461714Y-114117428D01*
X74461714Y-113879333D01*
X74414095Y-113688857D01*
X74366476Y-113593619D01*
X74318857Y-113546000D01*
X74223619Y-113498380D01*
X73318857Y-113926952D02*
X73414095Y-113879333D01*
X73461714Y-113831714D01*
X73509333Y-113736476D01*
X73509333Y-113688857D01*
X73461714Y-113593619D01*
X73414095Y-113546000D01*
X73318857Y-113498380D01*
X73128380Y-113498380D01*
X73033142Y-113546000D01*
X72985523Y-113593619D01*
X72937904Y-113688857D01*
X72937904Y-113736476D01*
X72985523Y-113831714D01*
X73033142Y-113879333D01*
X73128380Y-113926952D01*
X73318857Y-113926952D01*
X73414095Y-113974571D01*
X73461714Y-114022190D01*
X73509333Y-114117428D01*
X73509333Y-114307904D01*
X73461714Y-114403142D01*
X73414095Y-114450761D01*
X73318857Y-114498380D01*
X73128380Y-114498380D01*
X73033142Y-114450761D01*
X72985523Y-114403142D01*
X72937904Y-114307904D01*
X72937904Y-114117428D01*
X72985523Y-114022190D01*
X73033142Y-113974571D01*
X73128380Y-113926952D01*
X109069047Y-121007142D02*
X109116666Y-121054761D01*
X109259523Y-121102380D01*
X109354761Y-121102380D01*
X109497619Y-121054761D01*
X109592857Y-120959523D01*
X109640476Y-120864285D01*
X109688095Y-120673809D01*
X109688095Y-120530952D01*
X109640476Y-120340476D01*
X109592857Y-120245238D01*
X109497619Y-120150000D01*
X109354761Y-120102380D01*
X109259523Y-120102380D01*
X109116666Y-120150000D01*
X109069047Y-120197619D01*
X108116666Y-121102380D02*
X108688095Y-121102380D01*
X108402380Y-121102380D02*
X108402380Y-120102380D01*
X108497619Y-120245238D01*
X108592857Y-120340476D01*
X108688095Y-120388095D01*
X107497619Y-120102380D02*
X107402380Y-120102380D01*
X107307142Y-120150000D01*
X107259523Y-120197619D01*
X107211904Y-120292857D01*
X107164285Y-120483333D01*
X107164285Y-120721428D01*
X107211904Y-120911904D01*
X107259523Y-121007142D01*
X107307142Y-121054761D01*
X107402380Y-121102380D01*
X107497619Y-121102380D01*
X107592857Y-121054761D01*
X107640476Y-121007142D01*
X107688095Y-120911904D01*
X107735714Y-120721428D01*
X107735714Y-120483333D01*
X107688095Y-120292857D01*
X107640476Y-120197619D01*
X107592857Y-120150000D01*
X107497619Y-120102380D01*
X106688095Y-121102380D02*
X106497619Y-121102380D01*
X106402380Y-121054761D01*
X106354761Y-121007142D01*
X106259523Y-120864285D01*
X106211904Y-120673809D01*
X106211904Y-120292857D01*
X106259523Y-120197619D01*
X106307142Y-120150000D01*
X106402380Y-120102380D01*
X106592857Y-120102380D01*
X106688095Y-120150000D01*
X106735714Y-120197619D01*
X106783333Y-120292857D01*
X106783333Y-120530952D01*
X106735714Y-120626190D01*
X106688095Y-120673809D01*
X106592857Y-120721428D01*
X106402380Y-120721428D01*
X106307142Y-120673809D01*
X106259523Y-120626190D01*
X106211904Y-120530952D01*
X82907047Y-103575142D02*
X82954666Y-103622761D01*
X83097523Y-103670380D01*
X83192761Y-103670380D01*
X83335619Y-103622761D01*
X83430857Y-103527523D01*
X83478476Y-103432285D01*
X83526095Y-103241809D01*
X83526095Y-103098952D01*
X83478476Y-102908476D01*
X83430857Y-102813238D01*
X83335619Y-102718000D01*
X83192761Y-102670380D01*
X83097523Y-102670380D01*
X82954666Y-102718000D01*
X82907047Y-102765619D01*
X81954666Y-103670380D02*
X82526095Y-103670380D01*
X82240380Y-103670380D02*
X82240380Y-102670380D01*
X82335619Y-102813238D01*
X82430857Y-102908476D01*
X82526095Y-102956095D01*
X81002285Y-103670380D02*
X81573714Y-103670380D01*
X81288000Y-103670380D02*
X81288000Y-102670380D01*
X81383238Y-102813238D01*
X81478476Y-102908476D01*
X81573714Y-102956095D01*
X80383238Y-102670380D02*
X80288000Y-102670380D01*
X80192761Y-102718000D01*
X80145142Y-102765619D01*
X80097523Y-102860857D01*
X80049904Y-103051333D01*
X80049904Y-103289428D01*
X80097523Y-103479904D01*
X80145142Y-103575142D01*
X80192761Y-103622761D01*
X80288000Y-103670380D01*
X80383238Y-103670380D01*
X80478476Y-103622761D01*
X80526095Y-103575142D01*
X80573714Y-103479904D01*
X80621333Y-103289428D01*
X80621333Y-103051333D01*
X80573714Y-102860857D01*
X80526095Y-102765619D01*
X80478476Y-102718000D01*
X80383238Y-102670380D01*
X89765047Y-105259142D02*
X89812666Y-105306761D01*
X89955523Y-105354380D01*
X90050761Y-105354380D01*
X90193619Y-105306761D01*
X90288857Y-105211523D01*
X90336476Y-105116285D01*
X90384095Y-104925809D01*
X90384095Y-104782952D01*
X90336476Y-104592476D01*
X90288857Y-104497238D01*
X90193619Y-104402000D01*
X90050761Y-104354380D01*
X89955523Y-104354380D01*
X89812666Y-104402000D01*
X89765047Y-104449619D01*
X88812666Y-105354380D02*
X89384095Y-105354380D01*
X89098380Y-105354380D02*
X89098380Y-104354380D01*
X89193619Y-104497238D01*
X89288857Y-104592476D01*
X89384095Y-104640095D01*
X87860285Y-105354380D02*
X88431714Y-105354380D01*
X88146000Y-105354380D02*
X88146000Y-104354380D01*
X88241238Y-104497238D01*
X88336476Y-104592476D01*
X88431714Y-104640095D01*
X86907904Y-105354380D02*
X87479333Y-105354380D01*
X87193619Y-105354380D02*
X87193619Y-104354380D01*
X87288857Y-104497238D01*
X87384095Y-104592476D01*
X87479333Y-104640095D01*
X93702047Y-101512642D02*
X93749666Y-101560261D01*
X93892523Y-101607880D01*
X93987761Y-101607880D01*
X94130619Y-101560261D01*
X94225857Y-101465023D01*
X94273476Y-101369785D01*
X94321095Y-101179309D01*
X94321095Y-101036452D01*
X94273476Y-100845976D01*
X94225857Y-100750738D01*
X94130619Y-100655500D01*
X93987761Y-100607880D01*
X93892523Y-100607880D01*
X93749666Y-100655500D01*
X93702047Y-100703119D01*
X92749666Y-101607880D02*
X93321095Y-101607880D01*
X93035380Y-101607880D02*
X93035380Y-100607880D01*
X93130619Y-100750738D01*
X93225857Y-100845976D01*
X93321095Y-100893595D01*
X91797285Y-101607880D02*
X92368714Y-101607880D01*
X92083000Y-101607880D02*
X92083000Y-100607880D01*
X92178238Y-100750738D01*
X92273476Y-100845976D01*
X92368714Y-100893595D01*
X91416333Y-100703119D02*
X91368714Y-100655500D01*
X91273476Y-100607880D01*
X91035380Y-100607880D01*
X90940142Y-100655500D01*
X90892523Y-100703119D01*
X90844904Y-100798357D01*
X90844904Y-100893595D01*
X90892523Y-101036452D01*
X91463952Y-101607880D01*
X90844904Y-101607880D01*
X72842285Y-104592380D02*
X72842285Y-103592380D01*
X72604190Y-103592380D01*
X72461333Y-103640000D01*
X72366095Y-103735238D01*
X72318476Y-103830476D01*
X72270857Y-104020952D01*
X72270857Y-104163809D01*
X72318476Y-104354285D01*
X72366095Y-104449523D01*
X72461333Y-104544761D01*
X72604190Y-104592380D01*
X72842285Y-104592380D01*
X71318476Y-104592380D02*
X71889904Y-104592380D01*
X71604190Y-104592380D02*
X71604190Y-103592380D01*
X71699428Y-103735238D01*
X71794666Y-103830476D01*
X71889904Y-103878095D01*
X70461333Y-103925714D02*
X70461333Y-104592380D01*
X70699428Y-103544761D02*
X70937523Y-104259047D01*
X70318476Y-104259047D01*
X73977428Y-111545619D02*
X74072666Y-111498000D01*
X74167904Y-111402761D01*
X74310761Y-111259904D01*
X74406000Y-111212285D01*
X74501238Y-111212285D01*
X74453619Y-111450380D02*
X74548857Y-111402761D01*
X74644095Y-111307523D01*
X74691714Y-111117047D01*
X74691714Y-110783714D01*
X74644095Y-110593238D01*
X74548857Y-110498000D01*
X74453619Y-110450380D01*
X74263142Y-110450380D01*
X74167904Y-110498000D01*
X74072666Y-110593238D01*
X74025047Y-110783714D01*
X74025047Y-111117047D01*
X74072666Y-111307523D01*
X74167904Y-111402761D01*
X74263142Y-111450380D01*
X74453619Y-111450380D01*
X73072666Y-111450380D02*
X73644095Y-111450380D01*
X73358380Y-111450380D02*
X73358380Y-110450380D01*
X73453619Y-110593238D01*
X73548857Y-110688476D01*
X73644095Y-110736095D01*
X72691714Y-110545619D02*
X72644095Y-110498000D01*
X72548857Y-110450380D01*
X72310761Y-110450380D01*
X72215523Y-110498000D01*
X72167904Y-110545619D01*
X72120285Y-110640857D01*
X72120285Y-110736095D01*
X72167904Y-110878952D01*
X72739333Y-111450380D01*
X72120285Y-111450380D01*
X77065047Y-109926380D02*
X77398380Y-109450190D01*
X77636476Y-109926380D02*
X77636476Y-108926380D01*
X77255523Y-108926380D01*
X77160285Y-108974000D01*
X77112666Y-109021619D01*
X77065047Y-109116857D01*
X77065047Y-109259714D01*
X77112666Y-109354952D01*
X77160285Y-109402571D01*
X77255523Y-109450190D01*
X77636476Y-109450190D01*
X76112666Y-109926380D02*
X76684095Y-109926380D01*
X76398380Y-109926380D02*
X76398380Y-108926380D01*
X76493619Y-109069238D01*
X76588857Y-109164476D01*
X76684095Y-109212095D01*
X75160285Y-109926380D02*
X75731714Y-109926380D01*
X75446000Y-109926380D02*
X75446000Y-108926380D01*
X75541238Y-109069238D01*
X75636476Y-109164476D01*
X75731714Y-109212095D01*
X74684095Y-109926380D02*
X74493619Y-109926380D01*
X74398380Y-109878761D01*
X74350761Y-109831142D01*
X74255523Y-109688285D01*
X74207904Y-109497809D01*
X74207904Y-109116857D01*
X74255523Y-109021619D01*
X74303142Y-108974000D01*
X74398380Y-108926380D01*
X74588857Y-108926380D01*
X74684095Y-108974000D01*
X74731714Y-109021619D01*
X74779333Y-109116857D01*
X74779333Y-109354952D01*
X74731714Y-109450190D01*
X74684095Y-109497809D01*
X74588857Y-109545428D01*
X74398380Y-109545428D01*
X74303142Y-109497809D01*
X74255523Y-109450190D01*
X74207904Y-109354952D01*
X78684380Y-104036952D02*
X78208190Y-103703619D01*
X78684380Y-103465523D02*
X77684380Y-103465523D01*
X77684380Y-103846476D01*
X77732000Y-103941714D01*
X77779619Y-103989333D01*
X77874857Y-104036952D01*
X78017714Y-104036952D01*
X78112952Y-103989333D01*
X78160571Y-103941714D01*
X78208190Y-103846476D01*
X78208190Y-103465523D01*
X78684380Y-104989333D02*
X78684380Y-104417904D01*
X78684380Y-104703619D02*
X77684380Y-104703619D01*
X77827238Y-104608380D01*
X77922476Y-104513142D01*
X77970095Y-104417904D01*
X77779619Y-105370285D02*
X77732000Y-105417904D01*
X77684380Y-105513142D01*
X77684380Y-105751238D01*
X77732000Y-105846476D01*
X77779619Y-105894095D01*
X77874857Y-105941714D01*
X77970095Y-105941714D01*
X78112952Y-105894095D01*
X78684380Y-105322666D01*
X78684380Y-105941714D01*
X77684380Y-106560761D02*
X77684380Y-106656000D01*
X77732000Y-106751238D01*
X77779619Y-106798857D01*
X77874857Y-106846476D01*
X78065333Y-106894095D01*
X78303428Y-106894095D01*
X78493904Y-106846476D01*
X78589142Y-106798857D01*
X78636761Y-106751238D01*
X78684380Y-106656000D01*
X78684380Y-106560761D01*
X78636761Y-106465523D01*
X78589142Y-106417904D01*
X78493904Y-106370285D01*
X78303428Y-106322666D01*
X78065333Y-106322666D01*
X77874857Y-106370285D01*
X77779619Y-106417904D01*
X77732000Y-106465523D01*
X77684380Y-106560761D01*
X115736666Y-128468380D02*
X116070000Y-127992190D01*
X116308095Y-128468380D02*
X116308095Y-127468380D01*
X115927142Y-127468380D01*
X115831904Y-127516000D01*
X115784285Y-127563619D01*
X115736666Y-127658857D01*
X115736666Y-127801714D01*
X115784285Y-127896952D01*
X115831904Y-127944571D01*
X115927142Y-127992190D01*
X116308095Y-127992190D01*
X115403333Y-127468380D02*
X114736666Y-127468380D01*
X115165238Y-128468380D01*
X118530666Y-133802380D02*
X118864000Y-133326190D01*
X119102095Y-133802380D02*
X119102095Y-132802380D01*
X118721142Y-132802380D01*
X118625904Y-132850000D01*
X118578285Y-132897619D01*
X118530666Y-132992857D01*
X118530666Y-133135714D01*
X118578285Y-133230952D01*
X118625904Y-133278571D01*
X118721142Y-133326190D01*
X119102095Y-133326190D01*
X118054476Y-133802380D02*
X117864000Y-133802380D01*
X117768761Y-133754761D01*
X117721142Y-133707142D01*
X117625904Y-133564285D01*
X117578285Y-133373809D01*
X117578285Y-132992857D01*
X117625904Y-132897619D01*
X117673523Y-132850000D01*
X117768761Y-132802380D01*
X117959238Y-132802380D01*
X118054476Y-132850000D01*
X118102095Y-132897619D01*
X118149714Y-132992857D01*
X118149714Y-133230952D01*
X118102095Y-133326190D01*
X118054476Y-133373809D01*
X117959238Y-133421428D01*
X117768761Y-133421428D01*
X117673523Y-133373809D01*
X117625904Y-133326190D01*
X117578285Y-133230952D01*
X209399047Y-104083142D02*
X209446666Y-104130761D01*
X209589523Y-104178380D01*
X209684761Y-104178380D01*
X209827619Y-104130761D01*
X209922857Y-104035523D01*
X209970476Y-103940285D01*
X210018095Y-103749809D01*
X210018095Y-103606952D01*
X209970476Y-103416476D01*
X209922857Y-103321238D01*
X209827619Y-103226000D01*
X209684761Y-103178380D01*
X209589523Y-103178380D01*
X209446666Y-103226000D01*
X209399047Y-103273619D01*
X208446666Y-104178380D02*
X209018095Y-104178380D01*
X208732380Y-104178380D02*
X208732380Y-103178380D01*
X208827619Y-103321238D01*
X208922857Y-103416476D01*
X209018095Y-103464095D01*
X208113333Y-103178380D02*
X207494285Y-103178380D01*
X207827619Y-103559333D01*
X207684761Y-103559333D01*
X207589523Y-103606952D01*
X207541904Y-103654571D01*
X207494285Y-103749809D01*
X207494285Y-103987904D01*
X207541904Y-104083142D01*
X207589523Y-104130761D01*
X207684761Y-104178380D01*
X207970476Y-104178380D01*
X208065714Y-104130761D01*
X208113333Y-104083142D01*
X206875238Y-103178380D02*
X206780000Y-103178380D01*
X206684761Y-103226000D01*
X206637142Y-103273619D01*
X206589523Y-103368857D01*
X206541904Y-103559333D01*
X206541904Y-103797428D01*
X206589523Y-103987904D01*
X206637142Y-104083142D01*
X206684761Y-104130761D01*
X206780000Y-104178380D01*
X206875238Y-104178380D01*
X206970476Y-104130761D01*
X207018095Y-104083142D01*
X207065714Y-103987904D01*
X207113333Y-103797428D01*
X207113333Y-103559333D01*
X207065714Y-103368857D01*
X207018095Y-103273619D01*
X206970476Y-103226000D01*
X206875238Y-103178380D01*
X78549428Y-97321619D02*
X78644666Y-97274000D01*
X78739904Y-97178761D01*
X78882761Y-97035904D01*
X78978000Y-96988285D01*
X79073238Y-96988285D01*
X79025619Y-97226380D02*
X79120857Y-97178761D01*
X79216095Y-97083523D01*
X79263714Y-96893047D01*
X79263714Y-96559714D01*
X79216095Y-96369238D01*
X79120857Y-96274000D01*
X79025619Y-96226380D01*
X78835142Y-96226380D01*
X78739904Y-96274000D01*
X78644666Y-96369238D01*
X78597047Y-96559714D01*
X78597047Y-96893047D01*
X78644666Y-97083523D01*
X78739904Y-97178761D01*
X78835142Y-97226380D01*
X79025619Y-97226380D01*
X77644666Y-97226380D02*
X78216095Y-97226380D01*
X77930380Y-97226380D02*
X77930380Y-96226380D01*
X78025619Y-96369238D01*
X78120857Y-96464476D01*
X78216095Y-96512095D01*
X77311333Y-96226380D02*
X76692285Y-96226380D01*
X77025619Y-96607333D01*
X76882761Y-96607333D01*
X76787523Y-96654952D01*
X76739904Y-96702571D01*
X76692285Y-96797809D01*
X76692285Y-97035904D01*
X76739904Y-97131142D01*
X76787523Y-97178761D01*
X76882761Y-97226380D01*
X77168476Y-97226380D01*
X77263714Y-97178761D01*
X77311333Y-97131142D01*
X80367047Y-101290380D02*
X80700380Y-100814190D01*
X80938476Y-101290380D02*
X80938476Y-100290380D01*
X80557523Y-100290380D01*
X80462285Y-100338000D01*
X80414666Y-100385619D01*
X80367047Y-100480857D01*
X80367047Y-100623714D01*
X80414666Y-100718952D01*
X80462285Y-100766571D01*
X80557523Y-100814190D01*
X80938476Y-100814190D01*
X79414666Y-101290380D02*
X79986095Y-101290380D01*
X79700380Y-101290380D02*
X79700380Y-100290380D01*
X79795619Y-100433238D01*
X79890857Y-100528476D01*
X79986095Y-100576095D01*
X78509904Y-100290380D02*
X78986095Y-100290380D01*
X79033714Y-100766571D01*
X78986095Y-100718952D01*
X78890857Y-100671333D01*
X78652761Y-100671333D01*
X78557523Y-100718952D01*
X78509904Y-100766571D01*
X78462285Y-100861809D01*
X78462285Y-101099904D01*
X78509904Y-101195142D01*
X78557523Y-101242761D01*
X78652761Y-101290380D01*
X78890857Y-101290380D01*
X78986095Y-101242761D01*
X79033714Y-101195142D01*
X77605142Y-100290380D02*
X77795619Y-100290380D01*
X77890857Y-100338000D01*
X77938476Y-100385619D01*
X78033714Y-100528476D01*
X78081333Y-100718952D01*
X78081333Y-101099904D01*
X78033714Y-101195142D01*
X77986095Y-101242761D01*
X77890857Y-101290380D01*
X77700380Y-101290380D01*
X77605142Y-101242761D01*
X77557523Y-101195142D01*
X77509904Y-101099904D01*
X77509904Y-100861809D01*
X77557523Y-100766571D01*
X77605142Y-100718952D01*
X77700380Y-100671333D01*
X77890857Y-100671333D01*
X77986095Y-100718952D01*
X78033714Y-100766571D01*
X78081333Y-100861809D01*
X204827047Y-118307142D02*
X204874666Y-118354761D01*
X205017523Y-118402380D01*
X205112761Y-118402380D01*
X205255619Y-118354761D01*
X205350857Y-118259523D01*
X205398476Y-118164285D01*
X205446095Y-117973809D01*
X205446095Y-117830952D01*
X205398476Y-117640476D01*
X205350857Y-117545238D01*
X205255619Y-117450000D01*
X205112761Y-117402380D01*
X205017523Y-117402380D01*
X204874666Y-117450000D01*
X204827047Y-117497619D01*
X203874666Y-118402380D02*
X204446095Y-118402380D01*
X204160380Y-118402380D02*
X204160380Y-117402380D01*
X204255619Y-117545238D01*
X204350857Y-117640476D01*
X204446095Y-117688095D01*
X203541333Y-117402380D02*
X202922285Y-117402380D01*
X203255619Y-117783333D01*
X203112761Y-117783333D01*
X203017523Y-117830952D01*
X202969904Y-117878571D01*
X202922285Y-117973809D01*
X202922285Y-118211904D01*
X202969904Y-118307142D01*
X203017523Y-118354761D01*
X203112761Y-118402380D01*
X203398476Y-118402380D01*
X203493714Y-118354761D01*
X203541333Y-118307142D01*
X202588952Y-117402380D02*
X201969904Y-117402380D01*
X202303238Y-117783333D01*
X202160380Y-117783333D01*
X202065142Y-117830952D01*
X202017523Y-117878571D01*
X201969904Y-117973809D01*
X201969904Y-118211904D01*
X202017523Y-118307142D01*
X202065142Y-118354761D01*
X202160380Y-118402380D01*
X202446095Y-118402380D01*
X202541333Y-118354761D01*
X202588952Y-118307142D01*
X200509047Y-118213142D02*
X200556666Y-118260761D01*
X200699523Y-118308380D01*
X200794761Y-118308380D01*
X200937619Y-118260761D01*
X201032857Y-118165523D01*
X201080476Y-118070285D01*
X201128095Y-117879809D01*
X201128095Y-117736952D01*
X201080476Y-117546476D01*
X201032857Y-117451238D01*
X200937619Y-117356000D01*
X200794761Y-117308380D01*
X200699523Y-117308380D01*
X200556666Y-117356000D01*
X200509047Y-117403619D01*
X199556666Y-118308380D02*
X200128095Y-118308380D01*
X199842380Y-118308380D02*
X199842380Y-117308380D01*
X199937619Y-117451238D01*
X200032857Y-117546476D01*
X200128095Y-117594095D01*
X199223333Y-117308380D02*
X198604285Y-117308380D01*
X198937619Y-117689333D01*
X198794761Y-117689333D01*
X198699523Y-117736952D01*
X198651904Y-117784571D01*
X198604285Y-117879809D01*
X198604285Y-118117904D01*
X198651904Y-118213142D01*
X198699523Y-118260761D01*
X198794761Y-118308380D01*
X199080476Y-118308380D01*
X199175714Y-118260761D01*
X199223333Y-118213142D01*
X197747142Y-117641714D02*
X197747142Y-118308380D01*
X197985238Y-117260761D02*
X198223333Y-117975047D01*
X197604285Y-117975047D01*
X75033047Y-132945142D02*
X75080666Y-132992761D01*
X75223523Y-133040380D01*
X75318761Y-133040380D01*
X75461619Y-132992761D01*
X75556857Y-132897523D01*
X75604476Y-132802285D01*
X75652095Y-132611809D01*
X75652095Y-132468952D01*
X75604476Y-132278476D01*
X75556857Y-132183238D01*
X75461619Y-132088000D01*
X75318761Y-132040380D01*
X75223523Y-132040380D01*
X75080666Y-132088000D01*
X75033047Y-132135619D01*
X74080666Y-133040380D02*
X74652095Y-133040380D01*
X74366380Y-133040380D02*
X74366380Y-132040380D01*
X74461619Y-132183238D01*
X74556857Y-132278476D01*
X74652095Y-132326095D01*
X73747333Y-132040380D02*
X73128285Y-132040380D01*
X73461619Y-132421333D01*
X73318761Y-132421333D01*
X73223523Y-132468952D01*
X73175904Y-132516571D01*
X73128285Y-132611809D01*
X73128285Y-132849904D01*
X73175904Y-132945142D01*
X73223523Y-132992761D01*
X73318761Y-133040380D01*
X73604476Y-133040380D01*
X73699714Y-132992761D01*
X73747333Y-132945142D01*
X72271142Y-132040380D02*
X72461619Y-132040380D01*
X72556857Y-132088000D01*
X72604476Y-132135619D01*
X72699714Y-132278476D01*
X72747333Y-132468952D01*
X72747333Y-132849904D01*
X72699714Y-132945142D01*
X72652095Y-132992761D01*
X72556857Y-133040380D01*
X72366380Y-133040380D01*
X72271142Y-132992761D01*
X72223523Y-132945142D01*
X72175904Y-132849904D01*
X72175904Y-132611809D01*
X72223523Y-132516571D01*
X72271142Y-132468952D01*
X72366380Y-132421333D01*
X72556857Y-132421333D01*
X72652095Y-132468952D01*
X72699714Y-132516571D01*
X72747333Y-132611809D01*
X234918095Y-121978380D02*
X234918095Y-122787904D01*
X234870476Y-122883142D01*
X234822857Y-122930761D01*
X234727619Y-122978380D01*
X234537142Y-122978380D01*
X234441904Y-122930761D01*
X234394285Y-122883142D01*
X234346666Y-122787904D01*
X234346666Y-121978380D01*
X233918095Y-122073619D02*
X233870476Y-122026000D01*
X233775238Y-121978380D01*
X233537142Y-121978380D01*
X233441904Y-122026000D01*
X233394285Y-122073619D01*
X233346666Y-122168857D01*
X233346666Y-122264095D01*
X233394285Y-122406952D01*
X233965714Y-122978380D01*
X233346666Y-122978380D01*
X232394285Y-122978380D02*
X232965714Y-122978380D01*
X232680000Y-122978380D02*
X232680000Y-121978380D01*
X232775238Y-122121238D01*
X232870476Y-122216476D01*
X232965714Y-122264095D01*
X191365047Y-85193142D02*
X191412666Y-85240761D01*
X191555523Y-85288380D01*
X191650761Y-85288380D01*
X191793619Y-85240761D01*
X191888857Y-85145523D01*
X191936476Y-85050285D01*
X191984095Y-84859809D01*
X191984095Y-84716952D01*
X191936476Y-84526476D01*
X191888857Y-84431238D01*
X191793619Y-84336000D01*
X191650761Y-84288380D01*
X191555523Y-84288380D01*
X191412666Y-84336000D01*
X191365047Y-84383619D01*
X190412666Y-85288380D02*
X190984095Y-85288380D01*
X190698380Y-85288380D02*
X190698380Y-84288380D01*
X190793619Y-84431238D01*
X190888857Y-84526476D01*
X190984095Y-84574095D01*
X189555523Y-84621714D02*
X189555523Y-85288380D01*
X189793619Y-84240761D02*
X190031714Y-84955047D01*
X189412666Y-84955047D01*
X188841238Y-84288380D02*
X188746000Y-84288380D01*
X188650761Y-84336000D01*
X188603142Y-84383619D01*
X188555523Y-84478857D01*
X188507904Y-84669333D01*
X188507904Y-84907428D01*
X188555523Y-85097904D01*
X188603142Y-85193142D01*
X188650761Y-85240761D01*
X188746000Y-85288380D01*
X188841238Y-85288380D01*
X188936476Y-85240761D01*
X188984095Y-85193142D01*
X189031714Y-85097904D01*
X189079333Y-84907428D01*
X189079333Y-84669333D01*
X189031714Y-84478857D01*
X188984095Y-84383619D01*
X188936476Y-84336000D01*
X188841238Y-84288380D01*
X221710095Y-78406380D02*
X221710095Y-79215904D01*
X221662476Y-79311142D01*
X221614857Y-79358761D01*
X221519619Y-79406380D01*
X221329142Y-79406380D01*
X221233904Y-79358761D01*
X221186285Y-79311142D01*
X221138666Y-79215904D01*
X221138666Y-78406380D01*
X220710095Y-78501619D02*
X220662476Y-78454000D01*
X220567238Y-78406380D01*
X220329142Y-78406380D01*
X220233904Y-78454000D01*
X220186285Y-78501619D01*
X220138666Y-78596857D01*
X220138666Y-78692095D01*
X220186285Y-78834952D01*
X220757714Y-79406380D01*
X220138666Y-79406380D01*
X219519619Y-78406380D02*
X219424380Y-78406380D01*
X219329142Y-78454000D01*
X219281523Y-78501619D01*
X219233904Y-78596857D01*
X219186285Y-78787333D01*
X219186285Y-79025428D01*
X219233904Y-79215904D01*
X219281523Y-79311142D01*
X219329142Y-79358761D01*
X219424380Y-79406380D01*
X219519619Y-79406380D01*
X219614857Y-79358761D01*
X219662476Y-79311142D01*
X219710095Y-79215904D01*
X219757714Y-79025428D01*
X219757714Y-78787333D01*
X219710095Y-78596857D01*
X219662476Y-78501619D01*
X219614857Y-78454000D01*
X219519619Y-78406380D01*
X183237047Y-94591142D02*
X183284666Y-94638761D01*
X183427523Y-94686380D01*
X183522761Y-94686380D01*
X183665619Y-94638761D01*
X183760857Y-94543523D01*
X183808476Y-94448285D01*
X183856095Y-94257809D01*
X183856095Y-94114952D01*
X183808476Y-93924476D01*
X183760857Y-93829238D01*
X183665619Y-93734000D01*
X183522761Y-93686380D01*
X183427523Y-93686380D01*
X183284666Y-93734000D01*
X183237047Y-93781619D01*
X182284666Y-94686380D02*
X182856095Y-94686380D01*
X182570380Y-94686380D02*
X182570380Y-93686380D01*
X182665619Y-93829238D01*
X182760857Y-93924476D01*
X182856095Y-93972095D01*
X181427523Y-94019714D02*
X181427523Y-94686380D01*
X181665619Y-93638761D02*
X181903714Y-94353047D01*
X181284666Y-94353047D01*
X180379904Y-94686380D02*
X180951333Y-94686380D01*
X180665619Y-94686380D02*
X180665619Y-93686380D01*
X180760857Y-93829238D01*
X180856095Y-93924476D01*
X180951333Y-93972095D01*
X183999047Y-75287142D02*
X184046666Y-75334761D01*
X184189523Y-75382380D01*
X184284761Y-75382380D01*
X184427619Y-75334761D01*
X184522857Y-75239523D01*
X184570476Y-75144285D01*
X184618095Y-74953809D01*
X184618095Y-74810952D01*
X184570476Y-74620476D01*
X184522857Y-74525238D01*
X184427619Y-74430000D01*
X184284761Y-74382380D01*
X184189523Y-74382380D01*
X184046666Y-74430000D01*
X183999047Y-74477619D01*
X183046666Y-75382380D02*
X183618095Y-75382380D01*
X183332380Y-75382380D02*
X183332380Y-74382380D01*
X183427619Y-74525238D01*
X183522857Y-74620476D01*
X183618095Y-74668095D01*
X182189523Y-74715714D02*
X182189523Y-75382380D01*
X182427619Y-74334761D02*
X182665714Y-75049047D01*
X182046666Y-75049047D01*
X181713333Y-74477619D02*
X181665714Y-74430000D01*
X181570476Y-74382380D01*
X181332380Y-74382380D01*
X181237142Y-74430000D01*
X181189523Y-74477619D01*
X181141904Y-74572857D01*
X181141904Y-74668095D01*
X181189523Y-74810952D01*
X181760952Y-75382380D01*
X181141904Y-75382380D01*
%LPC*%
D13*
X237998000Y-95012000D03*
X237048000Y-97012000D03*
X238948000Y-97012000D03*
G36*
G01*
X72627500Y-102341500D02*
X72152500Y-102341500D01*
G75*
G02*
X71915000Y-102104000I0J237500D01*
G01*
X71915000Y-101604000D01*
G75*
G02*
X72152500Y-101366500I237500J0D01*
G01*
X72627500Y-101366500D01*
G75*
G02*
X72865000Y-101604000I0J-237500D01*
G01*
X72865000Y-102104000D01*
G75*
G02*
X72627500Y-102341500I-237500J0D01*
G01*
G37*
G36*
G01*
X72627500Y-100516500D02*
X72152500Y-100516500D01*
G75*
G02*
X71915000Y-100279000I0J237500D01*
G01*
X71915000Y-99779000D01*
G75*
G02*
X72152500Y-99541500I237500J0D01*
G01*
X72627500Y-99541500D01*
G75*
G02*
X72865000Y-99779000I0J-237500D01*
G01*
X72865000Y-100279000D01*
G75*
G02*
X72627500Y-100516500I-237500J0D01*
G01*
G37*
G36*
G01*
X70729001Y-71034000D02*
X69478999Y-71034000D01*
G75*
G02*
X69229000Y-70784001I0J249999D01*
G01*
X69229000Y-69983999D01*
G75*
G02*
X69478999Y-69734000I249999J0D01*
G01*
X70729001Y-69734000D01*
G75*
G02*
X70979000Y-69983999I0J-249999D01*
G01*
X70979000Y-70784001D01*
G75*
G02*
X70729001Y-71034000I-249999J0D01*
G01*
G37*
G36*
G01*
X70729001Y-67934000D02*
X69478999Y-67934000D01*
G75*
G02*
X69229000Y-67684001I0J249999D01*
G01*
X69229000Y-66883999D01*
G75*
G02*
X69478999Y-66634000I249999J0D01*
G01*
X70729001Y-66634000D01*
G75*
G02*
X70979000Y-66883999I0J-249999D01*
G01*
X70979000Y-67684001D01*
G75*
G02*
X70729001Y-67934000I-249999J0D01*
G01*
G37*
X102870000Y-127238000D03*
X103820000Y-125238000D03*
X101920000Y-125238000D03*
D14*
X200406000Y-97282000D03*
D15*
X223774000Y-86868000D03*
D16*
X223774000Y-89408000D03*
G36*
G01*
X234350000Y-75858000D02*
X235550000Y-75858000D01*
G75*
G02*
X235800000Y-76108000I0J-250000D01*
G01*
X235800000Y-77308000D01*
G75*
G02*
X235550000Y-77558000I-250000J0D01*
G01*
X234350000Y-77558000D01*
G75*
G02*
X234100000Y-77308000I0J250000D01*
G01*
X234100000Y-76108000D01*
G75*
G02*
X234350000Y-75858000I250000J0D01*
G01*
G37*
D17*
X232410000Y-76708000D03*
X229870000Y-76708000D03*
X227330000Y-76708000D03*
X224790000Y-76708000D03*
X234950000Y-79248000D03*
X232410000Y-79248000D03*
X229870000Y-79248000D03*
X227330000Y-79248000D03*
X224790000Y-79248000D03*
D16*
X76200000Y-129540000D03*
X78740000Y-129540000D03*
D15*
X81280000Y-129540000D03*
G36*
G01*
X81808500Y-108949500D02*
X81808500Y-108474500D01*
G75*
G02*
X82046000Y-108237000I237500J0D01*
G01*
X82546000Y-108237000D01*
G75*
G02*
X82783500Y-108474500I0J-237500D01*
G01*
X82783500Y-108949500D01*
G75*
G02*
X82546000Y-109187000I-237500J0D01*
G01*
X82046000Y-109187000D01*
G75*
G02*
X81808500Y-108949500I0J237500D01*
G01*
G37*
G36*
G01*
X79983500Y-108949500D02*
X79983500Y-108474500D01*
G75*
G02*
X80221000Y-108237000I237500J0D01*
G01*
X80721000Y-108237000D01*
G75*
G02*
X80958500Y-108474500I0J-237500D01*
G01*
X80958500Y-108949500D01*
G75*
G02*
X80721000Y-109187000I-237500J0D01*
G01*
X80221000Y-109187000D01*
G75*
G02*
X79983500Y-108949500I0J237500D01*
G01*
G37*
G36*
G01*
X76070000Y-122157500D02*
X76070000Y-121682500D01*
G75*
G02*
X76307500Y-121445000I237500J0D01*
G01*
X76807500Y-121445000D01*
G75*
G02*
X77045000Y-121682500I0J-237500D01*
G01*
X77045000Y-122157500D01*
G75*
G02*
X76807500Y-122395000I-237500J0D01*
G01*
X76307500Y-122395000D01*
G75*
G02*
X76070000Y-122157500I0J237500D01*
G01*
G37*
G36*
G01*
X77895000Y-122157500D02*
X77895000Y-121682500D01*
G75*
G02*
X78132500Y-121445000I237500J0D01*
G01*
X78632500Y-121445000D01*
G75*
G02*
X78870000Y-121682500I0J-237500D01*
G01*
X78870000Y-122157500D01*
G75*
G02*
X78632500Y-122395000I-237500J0D01*
G01*
X78132500Y-122395000D01*
G75*
G02*
X77895000Y-122157500I0J237500D01*
G01*
G37*
G36*
G01*
X77895000Y-127491500D02*
X77895000Y-127016500D01*
G75*
G02*
X78132500Y-126779000I237500J0D01*
G01*
X78632500Y-126779000D01*
G75*
G02*
X78870000Y-127016500I0J-237500D01*
G01*
X78870000Y-127491500D01*
G75*
G02*
X78632500Y-127729000I-237500J0D01*
G01*
X78132500Y-127729000D01*
G75*
G02*
X77895000Y-127491500I0J237500D01*
G01*
G37*
G36*
G01*
X76070000Y-127491500D02*
X76070000Y-127016500D01*
G75*
G02*
X76307500Y-126779000I237500J0D01*
G01*
X76807500Y-126779000D01*
G75*
G02*
X77045000Y-127016500I0J-237500D01*
G01*
X77045000Y-127491500D01*
G75*
G02*
X76807500Y-127729000I-237500J0D01*
G01*
X76307500Y-127729000D01*
G75*
G02*
X76070000Y-127491500I0J237500D01*
G01*
G37*
G36*
G01*
X158258500Y-111376000D02*
X158733500Y-111376000D01*
G75*
G02*
X158971000Y-111613500I0J-237500D01*
G01*
X158971000Y-112213500D01*
G75*
G02*
X158733500Y-112451000I-237500J0D01*
G01*
X158258500Y-112451000D01*
G75*
G02*
X158021000Y-112213500I0J237500D01*
G01*
X158021000Y-111613500D01*
G75*
G02*
X158258500Y-111376000I237500J0D01*
G01*
G37*
G36*
G01*
X158258500Y-113101000D02*
X158733500Y-113101000D01*
G75*
G02*
X158971000Y-113338500I0J-237500D01*
G01*
X158971000Y-113938500D01*
G75*
G02*
X158733500Y-114176000I-237500J0D01*
G01*
X158258500Y-114176000D01*
G75*
G02*
X158021000Y-113938500I0J237500D01*
G01*
X158021000Y-113338500D01*
G75*
G02*
X158258500Y-113101000I237500J0D01*
G01*
G37*
G36*
G01*
X187475500Y-111997500D02*
X187475500Y-111522500D01*
G75*
G02*
X187713000Y-111285000I237500J0D01*
G01*
X188313000Y-111285000D01*
G75*
G02*
X188550500Y-111522500I0J-237500D01*
G01*
X188550500Y-111997500D01*
G75*
G02*
X188313000Y-112235000I-237500J0D01*
G01*
X187713000Y-112235000D01*
G75*
G02*
X187475500Y-111997500I0J237500D01*
G01*
G37*
G36*
G01*
X189200500Y-111997500D02*
X189200500Y-111522500D01*
G75*
G02*
X189438000Y-111285000I237500J0D01*
G01*
X190038000Y-111285000D01*
G75*
G02*
X190275500Y-111522500I0J-237500D01*
G01*
X190275500Y-111997500D01*
G75*
G02*
X190038000Y-112235000I-237500J0D01*
G01*
X189438000Y-112235000D01*
G75*
G02*
X189200500Y-111997500I0J237500D01*
G01*
G37*
G36*
G01*
X238776500Y-77387000D02*
X239251500Y-77387000D01*
G75*
G02*
X239489000Y-77624500I0J-237500D01*
G01*
X239489000Y-78124500D01*
G75*
G02*
X239251500Y-78362000I-237500J0D01*
G01*
X238776500Y-78362000D01*
G75*
G02*
X238539000Y-78124500I0J237500D01*
G01*
X238539000Y-77624500D01*
G75*
G02*
X238776500Y-77387000I237500J0D01*
G01*
G37*
G36*
G01*
X238776500Y-75562000D02*
X239251500Y-75562000D01*
G75*
G02*
X239489000Y-75799500I0J-237500D01*
G01*
X239489000Y-76299500D01*
G75*
G02*
X239251500Y-76537000I-237500J0D01*
G01*
X238776500Y-76537000D01*
G75*
G02*
X238539000Y-76299500I0J237500D01*
G01*
X238539000Y-75799500D01*
G75*
G02*
X238776500Y-75562000I237500J0D01*
G01*
G37*
D18*
X40640000Y-88900000D03*
X63140000Y-88900000D03*
D19*
X51890000Y-88900000D03*
X51890000Y-76200000D03*
D18*
X63140000Y-76200000D03*
X40640000Y-76200000D03*
D20*
X30480000Y-81280000D03*
X25400000Y-81280000D03*
X25400000Y-58420000D03*
X30480000Y-58420000D03*
X30480000Y-88900000D03*
X25400000Y-88900000D03*
X30480000Y-73660000D03*
X25400000Y-73660000D03*
X25400000Y-50800000D03*
X30480000Y-50800000D03*
X30480000Y-66040000D03*
X25400000Y-66040000D03*
X30480000Y-121920000D03*
X25400000Y-121920000D03*
X25400000Y-129540000D03*
X30480000Y-129540000D03*
D21*
X224282000Y-109982000D03*
X229162000Y-109982000D03*
G36*
G01*
X30242500Y-125954500D02*
X30717500Y-125954500D01*
G75*
G02*
X30955000Y-126192000I0J-237500D01*
G01*
X30955000Y-126792000D01*
G75*
G02*
X30717500Y-127029500I-237500J0D01*
G01*
X30242500Y-127029500D01*
G75*
G02*
X30005000Y-126792000I0J237500D01*
G01*
X30005000Y-126192000D01*
G75*
G02*
X30242500Y-125954500I237500J0D01*
G01*
G37*
G36*
G01*
X30242500Y-124229500D02*
X30717500Y-124229500D01*
G75*
G02*
X30955000Y-124467000I0J-237500D01*
G01*
X30955000Y-125067000D01*
G75*
G02*
X30717500Y-125304500I-237500J0D01*
G01*
X30242500Y-125304500D01*
G75*
G02*
X30005000Y-125067000I0J237500D01*
G01*
X30005000Y-124467000D01*
G75*
G02*
X30242500Y-124229500I237500J0D01*
G01*
G37*
D14*
X48100000Y-58166000D03*
X38100000Y-58166000D03*
D22*
X40640000Y-50800000D03*
D23*
X43180000Y-50800000D03*
X45720000Y-50800000D03*
D24*
X55880000Y-63500000D03*
D25*
X40640000Y-63500000D03*
X55880000Y-68580000D03*
D24*
X40640000Y-68580000D03*
D20*
X150876000Y-130714000D03*
X130556000Y-130714000D03*
X159004000Y-47086000D03*
X141224000Y-47086000D03*
X230124000Y-47086000D03*
X212344000Y-47086000D03*
X194564000Y-47086000D03*
X176784000Y-47086000D03*
D26*
X110490000Y-45720000D03*
X111760000Y-45720000D03*
X113030000Y-45720000D03*
D27*
X114300000Y-45720000D03*
D16*
X172720000Y-127000000D03*
X170180000Y-127000000D03*
D15*
X167640000Y-127000000D03*
X182880000Y-127000000D03*
D16*
X185420000Y-127000000D03*
X187960000Y-127000000D03*
D15*
X71120000Y-129540000D03*
D16*
X68580000Y-129540000D03*
X66040000Y-129540000D03*
X63500000Y-129540000D03*
X63500000Y-124460000D03*
X66040000Y-124460000D03*
X68580000Y-124460000D03*
D15*
X71120000Y-124460000D03*
X104140000Y-129540000D03*
D16*
X106680000Y-129540000D03*
X109220000Y-129540000D03*
X111760000Y-129540000D03*
D27*
X106680000Y-45720000D03*
D26*
X105410000Y-45720000D03*
X104140000Y-45720000D03*
X102870000Y-45720000D03*
X95250000Y-45720000D03*
X96520000Y-45720000D03*
X97790000Y-45720000D03*
D27*
X99060000Y-45720000D03*
X91440000Y-45720000D03*
D26*
X90170000Y-45720000D03*
X88900000Y-45720000D03*
X87630000Y-45720000D03*
D27*
X83820000Y-45720000D03*
D26*
X82550000Y-45720000D03*
X81280000Y-45720000D03*
X80010000Y-45720000D03*
X72390000Y-45720000D03*
X73660000Y-45720000D03*
X74930000Y-45720000D03*
D27*
X76200000Y-45720000D03*
G36*
G01*
X102238000Y-122952500D02*
X102238000Y-123427500D01*
G75*
G02*
X102000500Y-123665000I-237500J0D01*
G01*
X101500500Y-123665000D01*
G75*
G02*
X101263000Y-123427500I0J237500D01*
G01*
X101263000Y-122952500D01*
G75*
G02*
X101500500Y-122715000I237500J0D01*
G01*
X102000500Y-122715000D01*
G75*
G02*
X102238000Y-122952500I0J-237500D01*
G01*
G37*
G36*
G01*
X100413000Y-122952500D02*
X100413000Y-123427500D01*
G75*
G02*
X100175500Y-123665000I-237500J0D01*
G01*
X99675500Y-123665000D01*
G75*
G02*
X99438000Y-123427500I0J237500D01*
G01*
X99438000Y-122952500D01*
G75*
G02*
X99675500Y-122715000I237500J0D01*
G01*
X100175500Y-122715000D01*
G75*
G02*
X100413000Y-122952500I0J-237500D01*
G01*
G37*
G36*
G01*
X64640000Y-127237500D02*
X64640000Y-126762500D01*
G75*
G02*
X64877500Y-126525000I237500J0D01*
G01*
X65377500Y-126525000D01*
G75*
G02*
X65615000Y-126762500I0J-237500D01*
G01*
X65615000Y-127237500D01*
G75*
G02*
X65377500Y-127475000I-237500J0D01*
G01*
X64877500Y-127475000D01*
G75*
G02*
X64640000Y-127237500I0J237500D01*
G01*
G37*
G36*
G01*
X66465000Y-127237500D02*
X66465000Y-126762500D01*
G75*
G02*
X66702500Y-126525000I237500J0D01*
G01*
X67202500Y-126525000D01*
G75*
G02*
X67440000Y-126762500I0J-237500D01*
G01*
X67440000Y-127237500D01*
G75*
G02*
X67202500Y-127475000I-237500J0D01*
G01*
X66702500Y-127475000D01*
G75*
G02*
X66465000Y-127237500I0J237500D01*
G01*
G37*
G36*
G01*
X66277500Y-120987000D02*
X65802500Y-120987000D01*
G75*
G02*
X65565000Y-120749500I0J237500D01*
G01*
X65565000Y-120249500D01*
G75*
G02*
X65802500Y-120012000I237500J0D01*
G01*
X66277500Y-120012000D01*
G75*
G02*
X66515000Y-120249500I0J-237500D01*
G01*
X66515000Y-120749500D01*
G75*
G02*
X66277500Y-120987000I-237500J0D01*
G01*
G37*
G36*
G01*
X66277500Y-122812000D02*
X65802500Y-122812000D01*
G75*
G02*
X65565000Y-122574500I0J237500D01*
G01*
X65565000Y-122074500D01*
G75*
G02*
X65802500Y-121837000I237500J0D01*
G01*
X66277500Y-121837000D01*
G75*
G02*
X66515000Y-122074500I0J-237500D01*
G01*
X66515000Y-122574500D01*
G75*
G02*
X66277500Y-122812000I-237500J0D01*
G01*
G37*
G36*
G01*
X63737500Y-122812000D02*
X63262500Y-122812000D01*
G75*
G02*
X63025000Y-122574500I0J237500D01*
G01*
X63025000Y-122074500D01*
G75*
G02*
X63262500Y-121837000I237500J0D01*
G01*
X63737500Y-121837000D01*
G75*
G02*
X63975000Y-122074500I0J-237500D01*
G01*
X63975000Y-122574500D01*
G75*
G02*
X63737500Y-122812000I-237500J0D01*
G01*
G37*
G36*
G01*
X63737500Y-120987000D02*
X63262500Y-120987000D01*
G75*
G02*
X63025000Y-120749500I0J237500D01*
G01*
X63025000Y-120249500D01*
G75*
G02*
X63262500Y-120012000I237500J0D01*
G01*
X63737500Y-120012000D01*
G75*
G02*
X63975000Y-120249500I0J-237500D01*
G01*
X63975000Y-120749500D01*
G75*
G02*
X63737500Y-120987000I-237500J0D01*
G01*
G37*
G36*
G01*
X75421500Y-103053000D02*
X74946500Y-103053000D01*
G75*
G02*
X74709000Y-102815500I0J237500D01*
G01*
X74709000Y-102215500D01*
G75*
G02*
X74946500Y-101978000I237500J0D01*
G01*
X75421500Y-101978000D01*
G75*
G02*
X75659000Y-102215500I0J-237500D01*
G01*
X75659000Y-102815500D01*
G75*
G02*
X75421500Y-103053000I-237500J0D01*
G01*
G37*
G36*
G01*
X75421500Y-104778000D02*
X74946500Y-104778000D01*
G75*
G02*
X74709000Y-104540500I0J237500D01*
G01*
X74709000Y-103940500D01*
G75*
G02*
X74946500Y-103703000I237500J0D01*
G01*
X75421500Y-103703000D01*
G75*
G02*
X75659000Y-103940500I0J-237500D01*
G01*
X75659000Y-104540500D01*
G75*
G02*
X75421500Y-104778000I-237500J0D01*
G01*
G37*
G36*
G01*
X202822000Y-102886500D02*
X202822000Y-103361500D01*
G75*
G02*
X202584500Y-103599000I-237500J0D01*
G01*
X201984500Y-103599000D01*
G75*
G02*
X201747000Y-103361500I0J237500D01*
G01*
X201747000Y-102886500D01*
G75*
G02*
X201984500Y-102649000I237500J0D01*
G01*
X202584500Y-102649000D01*
G75*
G02*
X202822000Y-102886500I0J-237500D01*
G01*
G37*
G36*
G01*
X201097000Y-102886500D02*
X201097000Y-103361500D01*
G75*
G02*
X200859500Y-103599000I-237500J0D01*
G01*
X200259500Y-103599000D01*
G75*
G02*
X200022000Y-103361500I0J237500D01*
G01*
X200022000Y-102886500D01*
G75*
G02*
X200259500Y-102649000I237500J0D01*
G01*
X200859500Y-102649000D01*
G75*
G02*
X201097000Y-102886500I0J-237500D01*
G01*
G37*
G36*
G01*
X220797000Y-98281500D02*
X220797000Y-97806500D01*
G75*
G02*
X221034500Y-97569000I237500J0D01*
G01*
X221634500Y-97569000D01*
G75*
G02*
X221872000Y-97806500I0J-237500D01*
G01*
X221872000Y-98281500D01*
G75*
G02*
X221634500Y-98519000I-237500J0D01*
G01*
X221034500Y-98519000D01*
G75*
G02*
X220797000Y-98281500I0J237500D01*
G01*
G37*
G36*
G01*
X219072000Y-98281500D02*
X219072000Y-97806500D01*
G75*
G02*
X219309500Y-97569000I237500J0D01*
G01*
X219909500Y-97569000D01*
G75*
G02*
X220147000Y-97806500I0J-237500D01*
G01*
X220147000Y-98281500D01*
G75*
G02*
X219909500Y-98519000I-237500J0D01*
G01*
X219309500Y-98519000D01*
G75*
G02*
X219072000Y-98281500I0J237500D01*
G01*
G37*
G36*
G01*
X220035000Y-93455500D02*
X220035000Y-92980500D01*
G75*
G02*
X220272500Y-92743000I237500J0D01*
G01*
X220872500Y-92743000D01*
G75*
G02*
X221110000Y-92980500I0J-237500D01*
G01*
X221110000Y-93455500D01*
G75*
G02*
X220872500Y-93693000I-237500J0D01*
G01*
X220272500Y-93693000D01*
G75*
G02*
X220035000Y-93455500I0J237500D01*
G01*
G37*
G36*
G01*
X218310000Y-93455500D02*
X218310000Y-92980500D01*
G75*
G02*
X218547500Y-92743000I237500J0D01*
G01*
X219147500Y-92743000D01*
G75*
G02*
X219385000Y-92980500I0J-237500D01*
G01*
X219385000Y-93455500D01*
G75*
G02*
X219147500Y-93693000I-237500J0D01*
G01*
X218547500Y-93693000D01*
G75*
G02*
X218310000Y-93455500I0J237500D01*
G01*
G37*
G36*
G01*
X219326000Y-103615500D02*
X219326000Y-103140500D01*
G75*
G02*
X219563500Y-102903000I237500J0D01*
G01*
X220163500Y-102903000D01*
G75*
G02*
X220401000Y-103140500I0J-237500D01*
G01*
X220401000Y-103615500D01*
G75*
G02*
X220163500Y-103853000I-237500J0D01*
G01*
X219563500Y-103853000D01*
G75*
G02*
X219326000Y-103615500I0J237500D01*
G01*
G37*
G36*
G01*
X221051000Y-103615500D02*
X221051000Y-103140500D01*
G75*
G02*
X221288500Y-102903000I237500J0D01*
G01*
X221888500Y-102903000D01*
G75*
G02*
X222126000Y-103140500I0J-237500D01*
G01*
X222126000Y-103615500D01*
G75*
G02*
X221888500Y-103853000I-237500J0D01*
G01*
X221288500Y-103853000D01*
G75*
G02*
X221051000Y-103615500I0J237500D01*
G01*
G37*
G36*
G01*
X206231500Y-91115000D02*
X205756500Y-91115000D01*
G75*
G02*
X205519000Y-90877500I0J237500D01*
G01*
X205519000Y-90277500D01*
G75*
G02*
X205756500Y-90040000I237500J0D01*
G01*
X206231500Y-90040000D01*
G75*
G02*
X206469000Y-90277500I0J-237500D01*
G01*
X206469000Y-90877500D01*
G75*
G02*
X206231500Y-91115000I-237500J0D01*
G01*
G37*
G36*
G01*
X206231500Y-92840000D02*
X205756500Y-92840000D01*
G75*
G02*
X205519000Y-92602500I0J237500D01*
G01*
X205519000Y-92002500D01*
G75*
G02*
X205756500Y-91765000I237500J0D01*
G01*
X206231500Y-91765000D01*
G75*
G02*
X206469000Y-92002500I0J-237500D01*
G01*
X206469000Y-92602500D01*
G75*
G02*
X206231500Y-92840000I-237500J0D01*
G01*
G37*
G36*
G01*
X87967000Y-94758500D02*
X87967000Y-95233500D01*
G75*
G02*
X87729500Y-95471000I-237500J0D01*
G01*
X87229500Y-95471000D01*
G75*
G02*
X86992000Y-95233500I0J237500D01*
G01*
X86992000Y-94758500D01*
G75*
G02*
X87229500Y-94521000I237500J0D01*
G01*
X87729500Y-94521000D01*
G75*
G02*
X87967000Y-94758500I0J-237500D01*
G01*
G37*
G36*
G01*
X89792000Y-94758500D02*
X89792000Y-95233500D01*
G75*
G02*
X89554500Y-95471000I-237500J0D01*
G01*
X89054500Y-95471000D01*
G75*
G02*
X88817000Y-95233500I0J237500D01*
G01*
X88817000Y-94758500D01*
G75*
G02*
X89054500Y-94521000I237500J0D01*
G01*
X89554500Y-94521000D01*
G75*
G02*
X89792000Y-94758500I0J-237500D01*
G01*
G37*
G36*
G01*
X82928000Y-95233500D02*
X82928000Y-94758500D01*
G75*
G02*
X83165500Y-94521000I237500J0D01*
G01*
X83665500Y-94521000D01*
G75*
G02*
X83903000Y-94758500I0J-237500D01*
G01*
X83903000Y-95233500D01*
G75*
G02*
X83665500Y-95471000I-237500J0D01*
G01*
X83165500Y-95471000D01*
G75*
G02*
X82928000Y-95233500I0J237500D01*
G01*
G37*
G36*
G01*
X84753000Y-95233500D02*
X84753000Y-94758500D01*
G75*
G02*
X84990500Y-94521000I237500J0D01*
G01*
X85490500Y-94521000D01*
G75*
G02*
X85728000Y-94758500I0J-237500D01*
G01*
X85728000Y-95233500D01*
G75*
G02*
X85490500Y-95471000I-237500J0D01*
G01*
X84990500Y-95471000D01*
G75*
G02*
X84753000Y-95233500I0J237500D01*
G01*
G37*
D14*
X210820000Y-119888000D03*
X210820000Y-116332000D03*
X214122000Y-119888000D03*
X214122000Y-116332000D03*
X217424000Y-119888000D03*
X217424000Y-116332000D03*
X220726000Y-119888000D03*
X220726000Y-116332000D03*
X210185000Y-85090000D03*
X200152000Y-92710000D03*
X197104000Y-93980000D03*
X197104000Y-97282000D03*
D15*
X109220000Y-101600000D03*
D16*
X106680000Y-101600000D03*
X109220000Y-104140000D03*
X106680000Y-104140000D03*
X109220000Y-106680000D03*
X106680000Y-106680000D03*
X109220000Y-109220000D03*
X106680000Y-109220000D03*
X109220000Y-111760000D03*
X106680000Y-111760000D03*
X109220000Y-114300000D03*
X106680000Y-114300000D03*
X109220000Y-116840000D03*
X106680000Y-116840000D03*
D15*
X81280000Y-124460000D03*
D16*
X78740000Y-124460000D03*
X76200000Y-124460000D03*
D14*
X185420000Y-89916000D03*
X187198000Y-92710000D03*
X190246000Y-94488000D03*
X189992000Y-90932000D03*
G36*
G01*
X87760000Y-91202500D02*
X87760000Y-91677500D01*
G75*
G02*
X87522500Y-91915000I-237500J0D01*
G01*
X87022500Y-91915000D01*
G75*
G02*
X86785000Y-91677500I0J237500D01*
G01*
X86785000Y-91202500D01*
G75*
G02*
X87022500Y-90965000I237500J0D01*
G01*
X87522500Y-90965000D01*
G75*
G02*
X87760000Y-91202500I0J-237500D01*
G01*
G37*
G36*
G01*
X85935000Y-91202500D02*
X85935000Y-91677500D01*
G75*
G02*
X85697500Y-91915000I-237500J0D01*
G01*
X85197500Y-91915000D01*
G75*
G02*
X84960000Y-91677500I0J237500D01*
G01*
X84960000Y-91202500D01*
G75*
G02*
X85197500Y-90965000I237500J0D01*
G01*
X85697500Y-90965000D01*
G75*
G02*
X85935000Y-91202500I0J-237500D01*
G01*
G37*
D21*
X88900000Y-92964000D03*
X84020000Y-92964000D03*
G36*
G01*
X74438500Y-115085500D02*
X74913500Y-115085500D01*
G75*
G02*
X75151000Y-115323000I0J-237500D01*
G01*
X75151000Y-115923000D01*
G75*
G02*
X74913500Y-116160500I-237500J0D01*
G01*
X74438500Y-116160500D01*
G75*
G02*
X74201000Y-115923000I0J237500D01*
G01*
X74201000Y-115323000D01*
G75*
G02*
X74438500Y-115085500I237500J0D01*
G01*
G37*
G36*
G01*
X74438500Y-116810500D02*
X74913500Y-116810500D01*
G75*
G02*
X75151000Y-117048000I0J-237500D01*
G01*
X75151000Y-117648000D01*
G75*
G02*
X74913500Y-117885500I-237500J0D01*
G01*
X74438500Y-117885500D01*
G75*
G02*
X74201000Y-117648000I0J237500D01*
G01*
X74201000Y-117048000D01*
G75*
G02*
X74438500Y-116810500I237500J0D01*
G01*
G37*
G36*
G01*
X108275000Y-119109500D02*
X108275000Y-118634500D01*
G75*
G02*
X108512500Y-118397000I237500J0D01*
G01*
X109112500Y-118397000D01*
G75*
G02*
X109350000Y-118634500I0J-237500D01*
G01*
X109350000Y-119109500D01*
G75*
G02*
X109112500Y-119347000I-237500J0D01*
G01*
X108512500Y-119347000D01*
G75*
G02*
X108275000Y-119109500I0J237500D01*
G01*
G37*
G36*
G01*
X106550000Y-119109500D02*
X106550000Y-118634500D01*
G75*
G02*
X106787500Y-118397000I237500J0D01*
G01*
X107387500Y-118397000D01*
G75*
G02*
X107625000Y-118634500I0J-237500D01*
G01*
X107625000Y-119109500D01*
G75*
G02*
X107387500Y-119347000I-237500J0D01*
G01*
X106787500Y-119347000D01*
G75*
G02*
X106550000Y-119109500I0J237500D01*
G01*
G37*
G36*
G01*
X83188000Y-104410500D02*
X83188000Y-104885500D01*
G75*
G02*
X82950500Y-105123000I-237500J0D01*
G01*
X82350500Y-105123000D01*
G75*
G02*
X82113000Y-104885500I0J237500D01*
G01*
X82113000Y-104410500D01*
G75*
G02*
X82350500Y-104173000I237500J0D01*
G01*
X82950500Y-104173000D01*
G75*
G02*
X83188000Y-104410500I0J-237500D01*
G01*
G37*
G36*
G01*
X81463000Y-104410500D02*
X81463000Y-104885500D01*
G75*
G02*
X81225500Y-105123000I-237500J0D01*
G01*
X80625500Y-105123000D01*
G75*
G02*
X80388000Y-104885500I0J237500D01*
G01*
X80388000Y-104410500D01*
G75*
G02*
X80625500Y-104173000I237500J0D01*
G01*
X81225500Y-104173000D01*
G75*
G02*
X81463000Y-104410500I0J-237500D01*
G01*
G37*
G36*
G01*
X88321000Y-103140500D02*
X88321000Y-103615500D01*
G75*
G02*
X88083500Y-103853000I-237500J0D01*
G01*
X87483500Y-103853000D01*
G75*
G02*
X87246000Y-103615500I0J237500D01*
G01*
X87246000Y-103140500D01*
G75*
G02*
X87483500Y-102903000I237500J0D01*
G01*
X88083500Y-102903000D01*
G75*
G02*
X88321000Y-103140500I0J-237500D01*
G01*
G37*
G36*
G01*
X90046000Y-103140500D02*
X90046000Y-103615500D01*
G75*
G02*
X89808500Y-103853000I-237500J0D01*
G01*
X89208500Y-103853000D01*
G75*
G02*
X88971000Y-103615500I0J237500D01*
G01*
X88971000Y-103140500D01*
G75*
G02*
X89208500Y-102903000I237500J0D01*
G01*
X89808500Y-102903000D01*
G75*
G02*
X90046000Y-103140500I0J-237500D01*
G01*
G37*
G36*
G01*
X91183000Y-102917000D02*
X91183000Y-102442000D01*
G75*
G02*
X91420500Y-102204500I237500J0D01*
G01*
X92020500Y-102204500D01*
G75*
G02*
X92258000Y-102442000I0J-237500D01*
G01*
X92258000Y-102917000D01*
G75*
G02*
X92020500Y-103154500I-237500J0D01*
G01*
X91420500Y-103154500D01*
G75*
G02*
X91183000Y-102917000I0J237500D01*
G01*
G37*
G36*
G01*
X92908000Y-102917000D02*
X92908000Y-102442000D01*
G75*
G02*
X93145500Y-102204500I237500J0D01*
G01*
X93745500Y-102204500D01*
G75*
G02*
X93983000Y-102442000I0J-237500D01*
G01*
X93983000Y-102917000D01*
G75*
G02*
X93745500Y-103154500I-237500J0D01*
G01*
X93145500Y-103154500D01*
G75*
G02*
X92908000Y-102917000I0J237500D01*
G01*
G37*
G36*
G01*
X70482000Y-105901500D02*
X70482000Y-105426500D01*
G75*
G02*
X70719500Y-105189000I237500J0D01*
G01*
X71294500Y-105189000D01*
G75*
G02*
X71532000Y-105426500I0J-237500D01*
G01*
X71532000Y-105901500D01*
G75*
G02*
X71294500Y-106139000I-237500J0D01*
G01*
X70719500Y-106139000D01*
G75*
G02*
X70482000Y-105901500I0J237500D01*
G01*
G37*
G36*
G01*
X72232000Y-105901500D02*
X72232000Y-105426500D01*
G75*
G02*
X72469500Y-105189000I237500J0D01*
G01*
X73044500Y-105189000D01*
G75*
G02*
X73282000Y-105426500I0J-237500D01*
G01*
X73282000Y-105901500D01*
G75*
G02*
X73044500Y-106139000I-237500J0D01*
G01*
X72469500Y-106139000D01*
G75*
G02*
X72232000Y-105901500I0J237500D01*
G01*
G37*
D28*
X87416000Y-127061500D03*
X92416000Y-127061500D03*
D29*
X86416000Y-129761500D03*
X93416000Y-129761500D03*
D15*
X97790000Y-129540000D03*
D16*
X97790000Y-127000000D03*
X97790000Y-124460000D03*
X97790000Y-121920000D03*
X97790000Y-119380000D03*
D30*
X72882000Y-107508000D03*
X72882000Y-109408000D03*
X70882000Y-108458000D03*
G36*
G01*
X75863000Y-108187500D02*
X75863000Y-107712500D01*
G75*
G02*
X76100500Y-107475000I237500J0D01*
G01*
X76600500Y-107475000D01*
G75*
G02*
X76838000Y-107712500I0J-237500D01*
G01*
X76838000Y-108187500D01*
G75*
G02*
X76600500Y-108425000I-237500J0D01*
G01*
X76100500Y-108425000D01*
G75*
G02*
X75863000Y-108187500I0J237500D01*
G01*
G37*
G36*
G01*
X74038000Y-108187500D02*
X74038000Y-107712500D01*
G75*
G02*
X74275500Y-107475000I237500J0D01*
G01*
X74775500Y-107475000D01*
G75*
G02*
X75013000Y-107712500I0J-237500D01*
G01*
X75013000Y-108187500D01*
G75*
G02*
X74775500Y-108425000I-237500J0D01*
G01*
X74275500Y-108425000D01*
G75*
G02*
X74038000Y-108187500I0J237500D01*
G01*
G37*
G36*
G01*
X76470500Y-103502000D02*
X76945500Y-103502000D01*
G75*
G02*
X77183000Y-103739500I0J-237500D01*
G01*
X77183000Y-104239500D01*
G75*
G02*
X76945500Y-104477000I-237500J0D01*
G01*
X76470500Y-104477000D01*
G75*
G02*
X76233000Y-104239500I0J237500D01*
G01*
X76233000Y-103739500D01*
G75*
G02*
X76470500Y-103502000I237500J0D01*
G01*
G37*
G36*
G01*
X76470500Y-105327000D02*
X76945500Y-105327000D01*
G75*
G02*
X77183000Y-105564500I0J-237500D01*
G01*
X77183000Y-106064500D01*
G75*
G02*
X76945500Y-106302000I-237500J0D01*
G01*
X76470500Y-106302000D01*
G75*
G02*
X76233000Y-106064500I0J237500D01*
G01*
X76233000Y-105564500D01*
G75*
G02*
X76470500Y-105327000I237500J0D01*
G01*
G37*
G36*
G01*
X114424000Y-129523500D02*
X114424000Y-129048500D01*
G75*
G02*
X114661500Y-128811000I237500J0D01*
G01*
X115161500Y-128811000D01*
G75*
G02*
X115399000Y-129048500I0J-237500D01*
G01*
X115399000Y-129523500D01*
G75*
G02*
X115161500Y-129761000I-237500J0D01*
G01*
X114661500Y-129761000D01*
G75*
G02*
X114424000Y-129523500I0J237500D01*
G01*
G37*
G36*
G01*
X116249000Y-129523500D02*
X116249000Y-129048500D01*
G75*
G02*
X116486500Y-128811000I237500J0D01*
G01*
X116986500Y-128811000D01*
G75*
G02*
X117224000Y-129048500I0J-237500D01*
G01*
X117224000Y-129523500D01*
G75*
G02*
X116986500Y-129761000I-237500J0D01*
G01*
X116486500Y-129761000D01*
G75*
G02*
X116249000Y-129523500I0J237500D01*
G01*
G37*
G36*
G01*
X116823500Y-131655000D02*
X116348500Y-131655000D01*
G75*
G02*
X116111000Y-131417500I0J237500D01*
G01*
X116111000Y-130917500D01*
G75*
G02*
X116348500Y-130680000I237500J0D01*
G01*
X116823500Y-130680000D01*
G75*
G02*
X117061000Y-130917500I0J-237500D01*
G01*
X117061000Y-131417500D01*
G75*
G02*
X116823500Y-131655000I-237500J0D01*
G01*
G37*
G36*
G01*
X116823500Y-133480000D02*
X116348500Y-133480000D01*
G75*
G02*
X116111000Y-133242500I0J237500D01*
G01*
X116111000Y-132742500D01*
G75*
G02*
X116348500Y-132505000I237500J0D01*
G01*
X116823500Y-132505000D01*
G75*
G02*
X117061000Y-132742500I0J-237500D01*
G01*
X117061000Y-133242500D01*
G75*
G02*
X116823500Y-133480000I-237500J0D01*
G01*
G37*
G36*
G01*
X207955000Y-104918500D02*
X207955000Y-105393500D01*
G75*
G02*
X207717500Y-105631000I-237500J0D01*
G01*
X207117500Y-105631000D01*
G75*
G02*
X206880000Y-105393500I0J237500D01*
G01*
X206880000Y-104918500D01*
G75*
G02*
X207117500Y-104681000I237500J0D01*
G01*
X207717500Y-104681000D01*
G75*
G02*
X207955000Y-104918500I0J-237500D01*
G01*
G37*
G36*
G01*
X209680000Y-104918500D02*
X209680000Y-105393500D01*
G75*
G02*
X209442500Y-105631000I-237500J0D01*
G01*
X208842500Y-105631000D01*
G75*
G02*
X208605000Y-105393500I0J237500D01*
G01*
X208605000Y-104918500D01*
G75*
G02*
X208842500Y-104681000I237500J0D01*
G01*
X209442500Y-104681000D01*
G75*
G02*
X209680000Y-104918500I0J-237500D01*
G01*
G37*
D13*
X76388000Y-99298000D03*
X74488000Y-99298000D03*
X75438000Y-97298000D03*
G36*
G01*
X75013000Y-100600500D02*
X75013000Y-101075500D01*
G75*
G02*
X74775500Y-101313000I-237500J0D01*
G01*
X74275500Y-101313000D01*
G75*
G02*
X74038000Y-101075500I0J237500D01*
G01*
X74038000Y-100600500D01*
G75*
G02*
X74275500Y-100363000I237500J0D01*
G01*
X74775500Y-100363000D01*
G75*
G02*
X75013000Y-100600500I0J-237500D01*
G01*
G37*
G36*
G01*
X76838000Y-100600500D02*
X76838000Y-101075500D01*
G75*
G02*
X76600500Y-101313000I-237500J0D01*
G01*
X76100500Y-101313000D01*
G75*
G02*
X75863000Y-101075500I0J237500D01*
G01*
X75863000Y-100600500D01*
G75*
G02*
X76100500Y-100363000I237500J0D01*
G01*
X76600500Y-100363000D01*
G75*
G02*
X76838000Y-100600500I0J-237500D01*
G01*
G37*
G36*
G01*
X203383000Y-119142500D02*
X203383000Y-119617500D01*
G75*
G02*
X203145500Y-119855000I-237500J0D01*
G01*
X202545500Y-119855000D01*
G75*
G02*
X202308000Y-119617500I0J237500D01*
G01*
X202308000Y-119142500D01*
G75*
G02*
X202545500Y-118905000I237500J0D01*
G01*
X203145500Y-118905000D01*
G75*
G02*
X203383000Y-119142500I0J-237500D01*
G01*
G37*
G36*
G01*
X205108000Y-119142500D02*
X205108000Y-119617500D01*
G75*
G02*
X204870500Y-119855000I-237500J0D01*
G01*
X204270500Y-119855000D01*
G75*
G02*
X204033000Y-119617500I0J237500D01*
G01*
X204033000Y-119142500D01*
G75*
G02*
X204270500Y-118905000I237500J0D01*
G01*
X204870500Y-118905000D01*
G75*
G02*
X205108000Y-119142500I0J-237500D01*
G01*
G37*
G36*
G01*
X198905500Y-119617500D02*
X198905500Y-119142500D01*
G75*
G02*
X199143000Y-118905000I237500J0D01*
G01*
X199743000Y-118905000D01*
G75*
G02*
X199980500Y-119142500I0J-237500D01*
G01*
X199980500Y-119617500D01*
G75*
G02*
X199743000Y-119855000I-237500J0D01*
G01*
X199143000Y-119855000D01*
G75*
G02*
X198905500Y-119617500I0J237500D01*
G01*
G37*
G36*
G01*
X200630500Y-119617500D02*
X200630500Y-119142500D01*
G75*
G02*
X200868000Y-118905000I237500J0D01*
G01*
X201468000Y-118905000D01*
G75*
G02*
X201705500Y-119142500I0J-237500D01*
G01*
X201705500Y-119617500D01*
G75*
G02*
X201468000Y-119855000I-237500J0D01*
G01*
X200868000Y-119855000D01*
G75*
G02*
X200630500Y-119617500I0J237500D01*
G01*
G37*
G36*
G01*
X68704000Y-132825500D02*
X68704000Y-132350500D01*
G75*
G02*
X68941500Y-132113000I237500J0D01*
G01*
X69541500Y-132113000D01*
G75*
G02*
X69779000Y-132350500I0J-237500D01*
G01*
X69779000Y-132825500D01*
G75*
G02*
X69541500Y-133063000I-237500J0D01*
G01*
X68941500Y-133063000D01*
G75*
G02*
X68704000Y-132825500I0J237500D01*
G01*
G37*
G36*
G01*
X70429000Y-132825500D02*
X70429000Y-132350500D01*
G75*
G02*
X70666500Y-132113000I237500J0D01*
G01*
X71266500Y-132113000D01*
G75*
G02*
X71504000Y-132350500I0J-237500D01*
G01*
X71504000Y-132825500D01*
G75*
G02*
X71266500Y-133063000I-237500J0D01*
G01*
X70666500Y-133063000D01*
G75*
G02*
X70429000Y-132825500I0J237500D01*
G01*
G37*
D31*
X204470000Y-121920000D03*
D32*
X201930000Y-121920000D03*
X199390000Y-121920000D03*
X204470000Y-124520000D03*
X199390000Y-124520000D03*
D25*
X204570000Y-127020000D03*
X199390000Y-126920000D03*
G36*
G01*
X230230000Y-121181000D02*
X230230000Y-120881000D01*
G75*
G02*
X230380000Y-120731000I150000J0D01*
G01*
X231830000Y-120731000D01*
G75*
G02*
X231980000Y-120881000I0J-150000D01*
G01*
X231980000Y-121181000D01*
G75*
G02*
X231830000Y-121331000I-150000J0D01*
G01*
X230380000Y-121331000D01*
G75*
G02*
X230230000Y-121181000I0J150000D01*
G01*
G37*
G36*
G01*
X230230000Y-119911000D02*
X230230000Y-119611000D01*
G75*
G02*
X230380000Y-119461000I150000J0D01*
G01*
X231830000Y-119461000D01*
G75*
G02*
X231980000Y-119611000I0J-150000D01*
G01*
X231980000Y-119911000D01*
G75*
G02*
X231830000Y-120061000I-150000J0D01*
G01*
X230380000Y-120061000D01*
G75*
G02*
X230230000Y-119911000I0J150000D01*
G01*
G37*
G36*
G01*
X230230000Y-118641000D02*
X230230000Y-118341000D01*
G75*
G02*
X230380000Y-118191000I150000J0D01*
G01*
X231830000Y-118191000D01*
G75*
G02*
X231980000Y-118341000I0J-150000D01*
G01*
X231980000Y-118641000D01*
G75*
G02*
X231830000Y-118791000I-150000J0D01*
G01*
X230380000Y-118791000D01*
G75*
G02*
X230230000Y-118641000I0J150000D01*
G01*
G37*
G36*
G01*
X230230000Y-117371000D02*
X230230000Y-117071000D01*
G75*
G02*
X230380000Y-116921000I150000J0D01*
G01*
X231830000Y-116921000D01*
G75*
G02*
X231980000Y-117071000I0J-150000D01*
G01*
X231980000Y-117371000D01*
G75*
G02*
X231830000Y-117521000I-150000J0D01*
G01*
X230380000Y-117521000D01*
G75*
G02*
X230230000Y-117371000I0J150000D01*
G01*
G37*
G36*
G01*
X235380000Y-117371000D02*
X235380000Y-117071000D01*
G75*
G02*
X235530000Y-116921000I150000J0D01*
G01*
X236980000Y-116921000D01*
G75*
G02*
X237130000Y-117071000I0J-150000D01*
G01*
X237130000Y-117371000D01*
G75*
G02*
X236980000Y-117521000I-150000J0D01*
G01*
X235530000Y-117521000D01*
G75*
G02*
X235380000Y-117371000I0J150000D01*
G01*
G37*
G36*
G01*
X235380000Y-118641000D02*
X235380000Y-118341000D01*
G75*
G02*
X235530000Y-118191000I150000J0D01*
G01*
X236980000Y-118191000D01*
G75*
G02*
X237130000Y-118341000I0J-150000D01*
G01*
X237130000Y-118641000D01*
G75*
G02*
X236980000Y-118791000I-150000J0D01*
G01*
X235530000Y-118791000D01*
G75*
G02*
X235380000Y-118641000I0J150000D01*
G01*
G37*
G36*
G01*
X235380000Y-119911000D02*
X235380000Y-119611000D01*
G75*
G02*
X235530000Y-119461000I150000J0D01*
G01*
X236980000Y-119461000D01*
G75*
G02*
X237130000Y-119611000I0J-150000D01*
G01*
X237130000Y-119911000D01*
G75*
G02*
X236980000Y-120061000I-150000J0D01*
G01*
X235530000Y-120061000D01*
G75*
G02*
X235380000Y-119911000I0J150000D01*
G01*
G37*
G36*
G01*
X235380000Y-121181000D02*
X235380000Y-120881000D01*
G75*
G02*
X235530000Y-120731000I150000J0D01*
G01*
X236980000Y-120731000D01*
G75*
G02*
X237130000Y-120881000I0J-150000D01*
G01*
X237130000Y-121181000D01*
G75*
G02*
X236980000Y-121331000I-150000J0D01*
G01*
X235530000Y-121331000D01*
G75*
G02*
X235380000Y-121181000I0J150000D01*
G01*
G37*
G36*
G01*
X192916000Y-86122500D02*
X192916000Y-86597500D01*
G75*
G02*
X192678500Y-86835000I-237500J0D01*
G01*
X192078500Y-86835000D01*
G75*
G02*
X191841000Y-86597500I0J237500D01*
G01*
X191841000Y-86122500D01*
G75*
G02*
X192078500Y-85885000I237500J0D01*
G01*
X192678500Y-85885000D01*
G75*
G02*
X192916000Y-86122500I0J-237500D01*
G01*
G37*
G36*
G01*
X191191000Y-86122500D02*
X191191000Y-86597500D01*
G75*
G02*
X190953500Y-86835000I-237500J0D01*
G01*
X190353500Y-86835000D01*
G75*
G02*
X190116000Y-86597500I0J237500D01*
G01*
X190116000Y-86122500D01*
G75*
G02*
X190353500Y-85885000I237500J0D01*
G01*
X190953500Y-85885000D01*
G75*
G02*
X191191000Y-86122500I0J-237500D01*
G01*
G37*
D30*
X219472000Y-77404000D03*
X219472000Y-75504000D03*
X221472000Y-76454000D03*
G36*
G01*
X185042000Y-95774500D02*
X185042000Y-96249500D01*
G75*
G02*
X184804500Y-96487000I-237500J0D01*
G01*
X184204500Y-96487000D01*
G75*
G02*
X183967000Y-96249500I0J237500D01*
G01*
X183967000Y-95774500D01*
G75*
G02*
X184204500Y-95537000I237500J0D01*
G01*
X184804500Y-95537000D01*
G75*
G02*
X185042000Y-95774500I0J-237500D01*
G01*
G37*
G36*
G01*
X183317000Y-95774500D02*
X183317000Y-96249500D01*
G75*
G02*
X183079500Y-96487000I-237500J0D01*
G01*
X182479500Y-96487000D01*
G75*
G02*
X182242000Y-96249500I0J237500D01*
G01*
X182242000Y-95774500D01*
G75*
G02*
X182479500Y-95537000I237500J0D01*
G01*
X183079500Y-95537000D01*
G75*
G02*
X183317000Y-95774500I0J-237500D01*
G01*
G37*
G36*
G01*
X181681000Y-76945500D02*
X181681000Y-76470500D01*
G75*
G02*
X181918500Y-76233000I237500J0D01*
G01*
X182518500Y-76233000D01*
G75*
G02*
X182756000Y-76470500I0J-237500D01*
G01*
X182756000Y-76945500D01*
G75*
G02*
X182518500Y-77183000I-237500J0D01*
G01*
X181918500Y-77183000D01*
G75*
G02*
X181681000Y-76945500I0J237500D01*
G01*
G37*
G36*
G01*
X179956000Y-76945500D02*
X179956000Y-76470500D01*
G75*
G02*
X180193500Y-76233000I237500J0D01*
G01*
X180793500Y-76233000D01*
G75*
G02*
X181031000Y-76470500I0J-237500D01*
G01*
X181031000Y-76945500D01*
G75*
G02*
X180793500Y-77183000I-237500J0D01*
G01*
X180193500Y-77183000D01*
G75*
G02*
X179956000Y-76945500I0J237500D01*
G01*
G37*
M02*
