M48
; DRILL file {KiCad 5.1.7-a382d34a8~88~ubuntu18.04.1} date Wed Jun 16 01:22:43 2021
; FORMAT={-:-/ absolute / metric / decimal}
; #@! TF.CreationDate,2021-06-16T01:22:43+03:00
; #@! TF.GenerationSoftware,Kicad,Pcbnew,5.1.7-a382d34a8~88~ubuntu18.04.1
; #@! TF.FileFunction,Plated,1,2,PTH
FMAT,2
METRIC
T1C0.400
T2C0.600
T3C0.650
T4C0.800
T5C0.850
T6C1.000
T7C1.100
T8C1.200
T9C1.300
T10C1.500
T11C1.600
T12C2.000
T13C3.000
%
G90
G05
T1
X24.384Y-115.443
X30.226Y-107.95
X30.324Y-104.55
X40.386Y-127.254
X40.386Y-132.334
X40.64Y-116.84
X40.64Y-123.19
X43.18Y-119.38
X43.18Y-125.73
X44.45Y-116.84
X45.72Y-107.188
X45.72Y-109.474
X45.72Y-111.506
X45.72Y-119.38
X45.72Y-125.73
X45.72Y-130.81
X46.99Y-123.19
X49.022Y-133.35
X49.718Y-52.39
X51.214Y-103.726
X52.07Y-114.046
X52.07Y-116.332
X52.07Y-124.46
X53.246Y-103.726
X54.102Y-115.316
X54.61Y-108.458
X55.278Y-103.726
X55.372Y-127.508
X55.372Y-132.08
X56.642Y-112.268
X56.642Y-113.284
X59.69Y-132.588
X59.944Y-126.238
X61.29Y-60.376
X62.23Y-107.95
X62.484Y-114.808
X62.484Y-116.078
X63.5Y-118.872
X63.754Y-127.0
X64.77Y-105.41
X64.77Y-107.95
X66.548Y-101.346
X66.802Y-116.84
X67.056Y-115.57
X67.31Y-105.41
X67.31Y-107.95
X67.31Y-120.904
X67.818Y-110.998
X69.342Y-117.348
X69.596Y-101.854
X71.12Y-96.266
X71.374Y-100.584
X71.628Y-115.316
X71.882Y-120.904
X72.695Y-48.412
X73.152Y-117.729
X73.66Y-54.864
X73.66Y-101.854
X73.66Y-124.46
X73.914Y-97.79
X73.914Y-104.14
X74.371Y-67.056
X74.422Y-75.438
X74.676Y-65.329
X74.676Y-90.17
X75.184Y-106.68
X76.2Y-116.332
X76.759Y-61.722
X76.835Y-66.167
X76.962Y-80.772
X77.216Y-67.818
X77.216Y-70.231
X77.623Y-86.334
X77.623Y-90.016
X77.623Y-91.44
X78.232Y-48.412
X79.375Y-86.614
X79.959Y-67.31
X80.137Y-54.864
X80.264Y-84.328
X80.391Y-109.855
X80.518Y-68.326
X80.518Y-103.378
X80.518Y-119.634
X80.772Y-92.964
X80.772Y-94.234
X81.788Y-66.142
X82.296Y-107.442
X82.296Y-109.982
X82.296Y-112.522
X82.677Y-75.184
X82.804Y-103.378
X83.363Y-70.256
X83.566Y-91.44
X84.074Y-80.01
X84.328Y-77.47
X85.344Y-78.486
X85.344Y-84.328
X85.852Y-119.38
X86.106Y-48.412
X86.106Y-103.378
X86.36Y-79.756
X86.36Y-92.964
X86.36Y-123.952
X87.122Y-54.864
X87.376Y-76.2
X87.376Y-80.772
X87.529Y-97.382
X88.011Y-59.563
X88.011Y-64.262
X88.138Y-105.41
X88.242Y-70.254
X88.646Y-76.2
X88.9Y-84.328
X89.154Y-91.44
X89.154Y-115.062
X89.408Y-107.696
X89.408Y-109.982
X89.408Y-112.522
X90.424Y-65.532
X90.83Y-61.62
X91.186Y-103.886
X91.44Y-113.284
X91.694Y-98.552
X91.948Y-75.438
X92.456Y-77.724
X92.456Y-78.994
X93.218Y-117.348
X94.082Y-67.31
X94.234Y-68.326
X94.234Y-101.854
X95.123Y-124.841
X95.606Y-48.412
X95.758Y-54.864
X95.809Y-65.888
X96.012Y-81.534
X96.012Y-85.09
X96.012Y-92.964
X97.028Y-111.252
X97.335Y-70.254
X97.79Y-106.426
X98.298Y-114.808
X98.679Y-100.393
X98.806Y-103.378
X99.06Y-116.84
X100.076Y-81.534
X100.076Y-85.09
X100.076Y-92.9
X100.076Y-131.318
X100.266Y-100.393
X100.838Y-119.38
X101.219Y-106.807
X101.346Y-48.412
X101.917Y-100.393
X102.87Y-111.252
X102.87Y-112.522
X102.97Y-70.254
X103.06Y-92.9
X103.251Y-54.864
X103.759Y-123.063
X103.886Y-81.534
X103.886Y-85.09
X104.14Y-61.468
X104.14Y-66.04
X104.14Y-112.268
X104.648Y-116.84
X104.902Y-91.186
X104.902Y-92.71
X106.426Y-86.614
X106.426Y-88.138
X106.426Y-89.662
X107.596Y-80.417
X108.56Y-66.802
X108.966Y-48.412
X108.966Y-68.072
X109.22Y-85.852
X110.236Y-54.864
X110.236Y-66.04
X110.49Y-131.318
X110.998Y-96.774
X111.76Y-101.6
X111.963Y-68.834
X112.522Y-96.774
X113.538Y-106.934
X113.538Y-119.253
X113.728Y-96.774
X114.046Y-123.19
X114.3Y-85.852
X114.911Y-131.214
X114.935Y-56.388
X114.964Y-132.94
X115.062Y-66.294
X115.57Y-126.492
X116.84Y-44.45
X117.856Y-103.378
X118.11Y-50.8
X118.11Y-85.852
X118.11Y-132.08
X118.364Y-44.45
X118.872Y-110.998
X119.38Y-115.316
X119.38Y-119.38
X120.396Y-63.5
X121.412Y-69.596
X121.92Y-53.34
X122.443Y-60.315
X122.936Y-55.88
X122.936Y-61.976
X123.544Y-109.627
X124.613Y-106.018
X125.222Y-129.54
X125.679Y-58.268
X126.238Y-103.378
X127.254Y-48.514
X127.508Y-124.46
X128.524Y-115.316
X129.386Y-64.669
X130.81Y-78.74
X130.81Y-85.852
X130.81Y-96.52
X130.96Y-108.307
X131.318Y-59.69
X133.858Y-82.804
X134.62Y-58.42
X134.62Y-96.52
X134.62Y-119.38
X134.62Y-129.54
X135.636Y-103.378
X135.636Y-112.014
X135.89Y-66.802
X136.023Y-64.141
X137.16Y-86.106
X137.185Y-109.245
X137.414Y-78.74
X139.446Y-98.552
X139.7Y-58.42
X140.716Y-124.714
X140.97Y-97.282
X142.24Y-109.22
X142.748Y-95.504
X142.748Y-97.282
X143.256Y-103.378
X144.018Y-94.234
X144.628Y-70.561
X144.78Y-119.38
X145.288Y-67.156
X146.733Y-122.857
X147.32Y-64.141
X147.32Y-129.54
X148.336Y-110.49
X149.352Y-79.756
X149.352Y-83.312
X149.606Y-56.134
X149.758Y-104.14
X149.86Y-48.26
X149.86Y-92.71
X149.86Y-96.52
X150.114Y-88.646
X150.434Y-74.102
X150.622Y-112.014
X150.876Y-89.408
X151.638Y-88.646
X151.704Y-74.102
X152.908Y-66.802
X154.559Y-57.785
X154.94Y-92.71
X154.94Y-96.52
X154.94Y-129.54
X155.362Y-80.096
X156.972Y-107.696
X156.972Y-116.332
X156.972Y-122.682
X157.226Y-101.6
X157.82Y-80.096
X159.004Y-109.22
X160.274Y-72.898
X160.274Y-76.2
X160.934Y-109.83
X160.985Y-107.137
X160.985Y-108.458
X161.29Y-88.9
X161.29Y-92.71
X161.29Y-96.52
X162.406Y-79.909
X162.56Y-129.54
X163.17Y-104.14
X163.83Y-72.898
X163.83Y-76.2
X164.338Y-101.6
X165.1Y-111.76
X166.37Y-85.09
X166.37Y-88.9
X166.37Y-92.71
X166.37Y-96.52
X166.624Y-99.06
X166.624Y-100.584
X167.513Y-99.822
X167.64Y-48.26
X168.402Y-99.06
X168.402Y-100.584
X168.91Y-77.47
X169.316Y-88.849
X170.18Y-60.96
X170.18Y-111.76
X171.196Y-86.614
X171.831Y-87.808
X171.958Y-75.438
X172.237Y-86.614
X172.72Y-67.056
X172.72Y-70.866
X173.228Y-75.438
X173.482Y-119.634
X174.498Y-76.2
X174.752Y-116.84
X175.768Y-75.946
X176.022Y-91.694
X177.8Y-97.536
X177.8Y-129.54
X178.816Y-116.84
X179.514Y-74.612
X179.578Y-86.36
X180.086Y-91.694
X180.848Y-84.836
X181.654Y-78.022
X181.864Y-104.14
X182.118Y-72.644
X182.118Y-84.21
X182.753Y-65.024
X182.753Y-66.802
X182.88Y-83.312
X182.88Y-88.9
X182.88Y-116.84
X183.388Y-76.708
X184.15Y-83.566
X184.404Y-82.55
X184.658Y-78.74
X184.658Y-94.742
X185.42Y-48.26
X185.42Y-56.134
X185.928Y-96.012
X185.928Y-105.664
X187.706Y-76.708
X187.96Y-103.124
X188.472Y-81.022
X188.783Y-60.513
X188.849Y-119.507
X188.976Y-99.822
X189.23Y-86.614
X189.738Y-104.648
X189.738Y-108.204
X189.738Y-113.284
X190.5Y-101.092
X190.5Y-109.728
X191.77Y-122.428
X192.024Y-112.776
X192.024Y-115.316
X192.405Y-110.744
X192.472Y-77.022
X192.599Y-84.896
X193.04Y-95.25
X193.294Y-88.646
X193.294Y-91.948
X193.802Y-80.518
X194.31Y-86.106
X194.564Y-75.692
X194.818Y-67.818
X195.072Y-79.502
X195.072Y-85.344
X195.326Y-101.6
X195.326Y-105.918
X195.834Y-80.264
X195.834Y-86.36
X196.088Y-121.158
X196.088Y-131.572
X196.342Y-81.28
X196.596Y-85.344
X197.866Y-103.632
X197.993Y-88.392
X199.136Y-79.756
X201.321Y-88.492
X201.422Y-114.3
X201.422Y-116.84
X201.93Y-131.572
X203.2Y-48.26
X203.2Y-60.198
X203.2Y-109.982
X203.251Y-104.343
X203.659Y-94.793
X203.708Y-75.692
X203.708Y-79.756
X203.962Y-106.934
X204.47Y-92.202
X204.724Y-86.868
X206.502Y-84.582
X206.756Y-96.266
X206.756Y-103.632
X207.01Y-99.568
X208.28Y-103.886
X208.788Y-125.476
X208.788Y-131.572
X209.042Y-67.818
X209.296Y-79.756
X209.804Y-103.632
X213.868Y-75.692
X213.868Y-81.788
X214.63Y-96.266
X214.864Y-98.318
X214.884Y-103.632
X214.92Y-101.818
X215.9Y-125.476
X215.977Y-92.533
X216.0Y-66.903
X216.154Y-83.82
X217.026Y-93.616
X217.17Y-106.172
X218.186Y-65.177
X218.744Y-94.538
X219.228Y-85.117
X219.456Y-112.776
X219.71Y-106.426
X219.964Y-56.134
X219.964Y-90.932
X220.726Y-107.442
X220.98Y-48.26
X220.98Y-79.248
X220.98Y-82.296
X220.98Y-108.712
X222.504Y-104.902
X222.504Y-109.728
X223.012Y-100.584
X223.012Y-112.776
X223.52Y-125.476
X223.52Y-131.572
X223.901Y-60.833
X224.028Y-97.536
X224.536Y-82.296
X226.06Y-68.58
X226.06Y-112.776
X226.135Y-97.865
X226.38Y-124.14
X226.568Y-119.38
X227.584Y-108.204
X228.092Y-93.599
X228.346Y-104.14
X229.033Y-119.559
X229.87Y-84.328
X229.87Y-97.536
X230.886Y-90.17
X231.14Y-63.5
X231.14Y-68.58
X231.394Y-107.696
X233.934Y-96.52
X234.442Y-100.584
X235.458Y-83.82
X235.458Y-86.868
X235.458Y-89.916
X235.712Y-97.028
X235.712Y-103.886
X235.712Y-107.696
X235.712Y-111.252
X235.712Y-115.316
X236.22Y-58.42
X236.982Y-105.41
X237.236Y-101.092
X237.802Y-118.687
T3
X87.63Y-45.72
X88.9Y-45.72
X90.17Y-45.72
X91.44Y-45.72
X80.01Y-45.72
X81.28Y-45.72
X82.55Y-45.72
X83.82Y-45.72
X110.49Y-45.72
X111.76Y-45.72
X113.03Y-45.72
X114.3Y-45.72
X72.39Y-45.72
X73.66Y-45.72
X74.93Y-45.72
X76.2Y-45.72
X95.25Y-45.72
X96.52Y-45.72
X97.79Y-45.72
X99.06Y-45.72
X102.87Y-45.72
X104.14Y-45.72
X105.41Y-45.72
X106.68Y-45.72
T4
X199.39Y-121.92
X201.93Y-121.92
X204.47Y-121.92
X224.282Y-109.982
X229.162Y-109.982
X84.02Y-92.964
X88.9Y-92.964
T5
X87.416Y-127.061
X92.416Y-127.061
T6
X217.424Y-119.888
X106.68Y-101.6
X106.68Y-104.14
X106.68Y-106.68
X106.68Y-109.22
X106.68Y-111.76
X106.68Y-114.3
X106.68Y-116.84
X109.22Y-101.6
X109.22Y-104.14
X109.22Y-106.68
X109.22Y-109.22
X109.22Y-111.76
X109.22Y-114.3
X109.22Y-116.84
X185.42Y-89.916
X223.774Y-86.868
X223.774Y-89.408
X210.82Y-116.332
X210.82Y-119.888
X187.198Y-92.71
X214.122Y-119.888
X167.64Y-127.0
X170.18Y-127.0
X172.72Y-127.0
X214.122Y-116.332
X220.726Y-119.888
X189.992Y-90.932
X97.79Y-119.38
X97.79Y-121.92
X97.79Y-124.46
X97.79Y-127.0
X97.79Y-129.54
X197.104Y-97.282
X76.2Y-124.46
X78.74Y-124.46
X81.28Y-124.46
X200.406Y-97.282
X63.5Y-129.54
X66.04Y-129.54
X68.58Y-129.54
X71.12Y-129.54
X190.246Y-94.488
X182.88Y-127.0
X185.42Y-127.0
X187.96Y-127.0
X217.424Y-116.332
X224.79Y-76.708
X224.79Y-79.248
X227.33Y-76.708
X227.33Y-79.248
X229.87Y-76.708
X229.87Y-79.248
X232.41Y-76.708
X232.41Y-79.248
X234.95Y-76.708
X234.95Y-79.248
X76.2Y-129.54
X78.74Y-129.54
X81.28Y-129.54
X210.185Y-85.09
X63.5Y-124.46
X66.04Y-124.46
X68.58Y-124.46
X71.12Y-124.46
X38.1Y-58.166
X48.1Y-58.166
X197.104Y-93.98
X220.726Y-116.332
X104.14Y-129.54
X106.68Y-129.54
X109.22Y-129.54
X111.76Y-129.54
X200.152Y-92.71
T7
X40.64Y-50.8
X43.18Y-50.8
X45.72Y-50.8
T8
X40.64Y-63.5
X55.88Y-63.5
X40.64Y-68.58
X55.88Y-68.58
X199.39Y-124.52
X204.47Y-124.52
T9
X40.64Y-88.9
X63.14Y-88.9
X40.64Y-76.2
X63.14Y-76.2
T10
X25.4Y-129.54
X30.48Y-129.54
X25.4Y-50.8
X30.48Y-50.8
X25.4Y-121.92
X30.48Y-121.92
X25.4Y-73.66
X30.48Y-73.66
X25.4Y-81.28
X30.48Y-81.28
X25.4Y-66.04
X30.48Y-66.04
X25.4Y-88.9
X30.48Y-88.9
X25.4Y-58.42
X30.48Y-58.42
T11
X212.344Y-47.086
X176.784Y-47.086
X159.004Y-47.086
X194.564Y-47.086
X141.224Y-47.086
X230.124Y-47.086
X130.556Y-130.714
X150.876Y-130.714
T12
X199.39Y-126.92
X204.57Y-127.02
T13
X22.86Y-96.52
X165.1Y-60.96
X165.1Y-116.84
X236.22Y-66.04
X236.22Y-129.54
T2
X86.416Y-130.112G85X86.416Y-129.411
G05
X93.416Y-129.411G85X93.416Y-130.112
G05
T0
M30
