%FSLAX45Y45*%
G04 Gerber Fmt 4.5, Leading zero omitted, Abs format (unit mm)*
G04 Created by KiCad (PCBNEW 5.1.7-a382d34a8~88~ubuntu18.04.1) date 2021-06-16 01:22:44*
%MOMM*%
%LPD*%
G01*
G04 APERTURE LIST*
%TA.AperFunction,Profile*%
%ADD10C,0.050000*%
%TD*%
%ADD11C,0.200000*%
%ADD12C,0.300000*%
G04 APERTURE END LIST*
D10*
X1778000Y-13462000D02*
X1778000Y-13487400D01*
X24130000Y-13462000D02*
X24130000Y-13487400D01*
X1778000Y-4318000D02*
X2032000Y-4318000D01*
X1778000Y-13462000D02*
X1778000Y-4318000D01*
X24130000Y-13487400D02*
X1778000Y-13487400D01*
X24130000Y-13208000D02*
X24130000Y-13462000D01*
X24130000Y-4318000D02*
X24130000Y-13208000D01*
X2032000Y-4318000D02*
X24130000Y-4318000D01*
D11*
X2418400Y-11524300D02*
X2458400Y-11564300D01*
X2458400Y-11524300D02*
X2418400Y-11564300D01*
X3002600Y-10775000D02*
X3042600Y-10815000D01*
X3042600Y-10775000D02*
X3002600Y-10815000D01*
X3012400Y-10435000D02*
X3052400Y-10475000D01*
X3052400Y-10435000D02*
X3012400Y-10475000D01*
X4018600Y-12705400D02*
X4058600Y-12745400D01*
X4058600Y-12705400D02*
X4018600Y-12745400D01*
X4018600Y-13213400D02*
X4058600Y-13253400D01*
X4058600Y-13213400D02*
X4018600Y-13253400D01*
X4044000Y-11664000D02*
X4084000Y-11704000D01*
X4084000Y-11664000D02*
X4044000Y-11704000D01*
X4044000Y-12299000D02*
X4084000Y-12339000D01*
X4084000Y-12299000D02*
X4044000Y-12339000D01*
X4298000Y-11918000D02*
X4338000Y-11958000D01*
X4338000Y-11918000D02*
X4298000Y-11958000D01*
X4298000Y-12553000D02*
X4338000Y-12593000D01*
X4338000Y-12553000D02*
X4298000Y-12593000D01*
X4425000Y-11664000D02*
X4465000Y-11704000D01*
X4465000Y-11664000D02*
X4425000Y-11704000D01*
X4552000Y-10698800D02*
X4592000Y-10738800D01*
X4592000Y-10698800D02*
X4552000Y-10738800D01*
X4552000Y-10927400D02*
X4592000Y-10967400D01*
X4592000Y-10927400D02*
X4552000Y-10967400D01*
X4552000Y-11130600D02*
X4592000Y-11170600D01*
X4592000Y-11130600D02*
X4552000Y-11170600D01*
X4552000Y-11918000D02*
X4592000Y-11958000D01*
X4592000Y-11918000D02*
X4552000Y-11958000D01*
X4552000Y-12553000D02*
X4592000Y-12593000D01*
X4592000Y-12553000D02*
X4552000Y-12593000D01*
X4552000Y-13061000D02*
X4592000Y-13101000D01*
X4592000Y-13061000D02*
X4552000Y-13101000D01*
X4679000Y-12299000D02*
X4719000Y-12339000D01*
X4719000Y-12299000D02*
X4679000Y-12339000D01*
X4882200Y-13315000D02*
X4922200Y-13355000D01*
X4922200Y-13315000D02*
X4882200Y-13355000D01*
X4951800Y-5219000D02*
X4991800Y-5259000D01*
X4991800Y-5219000D02*
X4951800Y-5259000D01*
X5101400Y-10352600D02*
X5141400Y-10392600D01*
X5141400Y-10352600D02*
X5101400Y-10392600D01*
X5187000Y-11384600D02*
X5227000Y-11424600D01*
X5227000Y-11384600D02*
X5187000Y-11424600D01*
X5187000Y-11613200D02*
X5227000Y-11653200D01*
X5227000Y-11613200D02*
X5187000Y-11653200D01*
X5187000Y-12426000D02*
X5227000Y-12466000D01*
X5227000Y-12426000D02*
X5187000Y-12466000D01*
X5304600Y-10352600D02*
X5344600Y-10392600D01*
X5344600Y-10352600D02*
X5304600Y-10392600D01*
X5390200Y-11511600D02*
X5430200Y-11551600D01*
X5430200Y-11511600D02*
X5390200Y-11551600D01*
X5441000Y-10825800D02*
X5481000Y-10865800D01*
X5481000Y-10825800D02*
X5441000Y-10865800D01*
X5507800Y-10352600D02*
X5547800Y-10392600D01*
X5547800Y-10352600D02*
X5507800Y-10392600D01*
X5517200Y-12730800D02*
X5557200Y-12770800D01*
X5557200Y-12730800D02*
X5517200Y-12770800D01*
X5517200Y-13188000D02*
X5557200Y-13228000D01*
X5557200Y-13188000D02*
X5517200Y-13228000D01*
X5644200Y-11206800D02*
X5684200Y-11246800D01*
X5684200Y-11206800D02*
X5644200Y-11246800D01*
X5644200Y-11308400D02*
X5684200Y-11348400D01*
X5684200Y-11308400D02*
X5644200Y-11348400D01*
X5949000Y-13238800D02*
X5989000Y-13278800D01*
X5989000Y-13238800D02*
X5949000Y-13278800D01*
X5974400Y-12603800D02*
X6014400Y-12643800D01*
X6014400Y-12603800D02*
X5974400Y-12643800D01*
X6109000Y-6017600D02*
X6149000Y-6057600D01*
X6149000Y-6017600D02*
X6109000Y-6057600D01*
X6203000Y-10775000D02*
X6243000Y-10815000D01*
X6243000Y-10775000D02*
X6203000Y-10815000D01*
X6228400Y-11460800D02*
X6268400Y-11500800D01*
X6268400Y-11460800D02*
X6228400Y-11500800D01*
X6228400Y-11587800D02*
X6268400Y-11627800D01*
X6268400Y-11587800D02*
X6228400Y-11627800D01*
X6330000Y-11867200D02*
X6370000Y-11907200D01*
X6370000Y-11867200D02*
X6330000Y-11907200D01*
X6355400Y-12680000D02*
X6395400Y-12720000D01*
X6395400Y-12680000D02*
X6355400Y-12720000D01*
X6457000Y-10521000D02*
X6497000Y-10561000D01*
X6497000Y-10521000D02*
X6457000Y-10561000D01*
X6457000Y-10775000D02*
X6497000Y-10815000D01*
X6497000Y-10775000D02*
X6457000Y-10815000D01*
X6634800Y-10114600D02*
X6674800Y-10154600D01*
X6674800Y-10114600D02*
X6634800Y-10154600D01*
X6660200Y-11664000D02*
X6700200Y-11704000D01*
X6700200Y-11664000D02*
X6660200Y-11704000D01*
X6685600Y-11537000D02*
X6725600Y-11577000D01*
X6725600Y-11537000D02*
X6685600Y-11577000D01*
X6711000Y-10521000D02*
X6751000Y-10561000D01*
X6751000Y-10521000D02*
X6711000Y-10561000D01*
X6711000Y-10775000D02*
X6751000Y-10815000D01*
X6751000Y-10775000D02*
X6711000Y-10815000D01*
X6711000Y-12070400D02*
X6751000Y-12110400D01*
X6751000Y-12070400D02*
X6711000Y-12110400D01*
X6761800Y-11079800D02*
X6801800Y-11119800D01*
X6801800Y-11079800D02*
X6761800Y-11119800D01*
X6914200Y-11714800D02*
X6954200Y-11754800D01*
X6954200Y-11714800D02*
X6914200Y-11754800D01*
X6939600Y-10165400D02*
X6979600Y-10205400D01*
X6979600Y-10165400D02*
X6939600Y-10205400D01*
X7092000Y-9606600D02*
X7132000Y-9646600D01*
X7132000Y-9606600D02*
X7092000Y-9646600D01*
X7117400Y-10038400D02*
X7157400Y-10078400D01*
X7157400Y-10038400D02*
X7117400Y-10078400D01*
X7142800Y-11511600D02*
X7182800Y-11551600D01*
X7182800Y-11511600D02*
X7142800Y-11551600D01*
X7168200Y-12070400D02*
X7208200Y-12110400D01*
X7208200Y-12070400D02*
X7168200Y-12110400D01*
X7249480Y-4821240D02*
X7289480Y-4861240D01*
X7289480Y-4821240D02*
X7249480Y-4861240D01*
X7295200Y-11752900D02*
X7335200Y-11792900D01*
X7335200Y-11752900D02*
X7295200Y-11792900D01*
X7346000Y-5466400D02*
X7386000Y-5506400D01*
X7386000Y-5466400D02*
X7346000Y-5506400D01*
X7346000Y-10165400D02*
X7386000Y-10205400D01*
X7386000Y-10165400D02*
X7346000Y-10205400D01*
X7346000Y-12426000D02*
X7386000Y-12466000D01*
X7386000Y-12426000D02*
X7346000Y-12466000D01*
X7371400Y-9759000D02*
X7411400Y-9799000D01*
X7411400Y-9759000D02*
X7371400Y-9799000D01*
X7371400Y-10394000D02*
X7411400Y-10434000D01*
X7411400Y-10394000D02*
X7371400Y-10434000D01*
X7417120Y-6685600D02*
X7457120Y-6725600D01*
X7457120Y-6685600D02*
X7417120Y-6725600D01*
X7422200Y-7523800D02*
X7462200Y-7563800D01*
X7462200Y-7523800D02*
X7422200Y-7563800D01*
X7447600Y-6512880D02*
X7487600Y-6552880D01*
X7487600Y-6512880D02*
X7447600Y-6552880D01*
X7447600Y-8997000D02*
X7487600Y-9037000D01*
X7487600Y-8997000D02*
X7447600Y-9037000D01*
X7498400Y-10648000D02*
X7538400Y-10688000D01*
X7538400Y-10648000D02*
X7498400Y-10688000D01*
X7600000Y-11613200D02*
X7640000Y-11653200D01*
X7640000Y-11613200D02*
X7600000Y-11653200D01*
X7655880Y-6152200D02*
X7695880Y-6192200D01*
X7695880Y-6152200D02*
X7655880Y-6192200D01*
X7663500Y-6596700D02*
X7703500Y-6636700D01*
X7703500Y-6596700D02*
X7663500Y-6636700D01*
X7676200Y-8057200D02*
X7716200Y-8097200D01*
X7716200Y-8057200D02*
X7676200Y-8097200D01*
X7701600Y-6761800D02*
X7741600Y-6801800D01*
X7741600Y-6761800D02*
X7701600Y-6801800D01*
X7701600Y-7003100D02*
X7741600Y-7043100D01*
X7741600Y-7003100D02*
X7701600Y-7043100D01*
X7742350Y-8613350D02*
X7782350Y-8653350D01*
X7782350Y-8613350D02*
X7742350Y-8653350D01*
X7742350Y-8981650D02*
X7782350Y-9021650D01*
X7782350Y-8981650D02*
X7742350Y-9021650D01*
X7742350Y-9124000D02*
X7782350Y-9164000D01*
X7782350Y-9124000D02*
X7742350Y-9164000D01*
X7803200Y-4821240D02*
X7843200Y-4861240D01*
X7843200Y-4821240D02*
X7803200Y-4861240D01*
X7917500Y-8641400D02*
X7957500Y-8681400D01*
X7957500Y-8641400D02*
X7917500Y-8681400D01*
X7975920Y-6711000D02*
X8015920Y-6751000D01*
X8015920Y-6711000D02*
X7975920Y-6751000D01*
X7993700Y-5466400D02*
X8033700Y-5506400D01*
X8033700Y-5466400D02*
X7993700Y-5506400D01*
X8006400Y-8412800D02*
X8046400Y-8452800D01*
X8046400Y-8412800D02*
X8006400Y-8452800D01*
X8019100Y-10965500D02*
X8059100Y-11005500D01*
X8059100Y-10965500D02*
X8019100Y-11005500D01*
X8031800Y-6812600D02*
X8071800Y-6852600D01*
X8071800Y-6812600D02*
X8031800Y-6852600D01*
X8031800Y-10317800D02*
X8071800Y-10357800D01*
X8071800Y-10317800D02*
X8031800Y-10357800D01*
X8031800Y-11943400D02*
X8071800Y-11983400D01*
X8071800Y-11943400D02*
X8031800Y-11983400D01*
X8057200Y-9276400D02*
X8097200Y-9316400D01*
X8097200Y-9276400D02*
X8057200Y-9316400D01*
X8057200Y-9403400D02*
X8097200Y-9443400D01*
X8097200Y-9403400D02*
X8057200Y-9443400D01*
X8158800Y-6594160D02*
X8198800Y-6634160D01*
X8198800Y-6594160D02*
X8158800Y-6634160D01*
X8209600Y-10724200D02*
X8249600Y-10764200D01*
X8249600Y-10724200D02*
X8209600Y-10764200D01*
X8209600Y-10978200D02*
X8249600Y-11018200D01*
X8249600Y-10978200D02*
X8209600Y-11018200D01*
X8209600Y-11232200D02*
X8249600Y-11272200D01*
X8249600Y-11232200D02*
X8209600Y-11272200D01*
X8247700Y-7498400D02*
X8287700Y-7538400D01*
X8287700Y-7498400D02*
X8247700Y-7538400D01*
X8260400Y-10317800D02*
X8300400Y-10357800D01*
X8300400Y-10317800D02*
X8260400Y-10357800D01*
X8316280Y-7005640D02*
X8356280Y-7045640D01*
X8356280Y-7005640D02*
X8316280Y-7045640D01*
X8336600Y-9124000D02*
X8376600Y-9164000D01*
X8376600Y-9124000D02*
X8336600Y-9164000D01*
X8387400Y-7981000D02*
X8427400Y-8021000D01*
X8427400Y-7981000D02*
X8387400Y-8021000D01*
X8412800Y-7727000D02*
X8452800Y-7767000D01*
X8452800Y-7727000D02*
X8412800Y-7767000D01*
X8514400Y-7828600D02*
X8554400Y-7868600D01*
X8554400Y-7828600D02*
X8514400Y-7868600D01*
X8514400Y-8412800D02*
X8554400Y-8452800D01*
X8554400Y-8412800D02*
X8514400Y-8452800D01*
X8565200Y-11918000D02*
X8605200Y-11958000D01*
X8605200Y-11918000D02*
X8565200Y-11958000D01*
X8590600Y-4821240D02*
X8630600Y-4861240D01*
X8630600Y-4821240D02*
X8590600Y-4861240D01*
X8590600Y-10317800D02*
X8630600Y-10357800D01*
X8630600Y-10317800D02*
X8590600Y-10357800D01*
X8616000Y-7955600D02*
X8656000Y-7995600D01*
X8656000Y-7955600D02*
X8616000Y-7995600D01*
X8616000Y-9276400D02*
X8656000Y-9316400D01*
X8656000Y-9276400D02*
X8616000Y-9316400D01*
X8616000Y-12375200D02*
X8656000Y-12415200D01*
X8656000Y-12375200D02*
X8616000Y-12415200D01*
X8692200Y-5466400D02*
X8732200Y-5506400D01*
X8732200Y-5466400D02*
X8692200Y-5506400D01*
X8717600Y-7600000D02*
X8757600Y-7640000D01*
X8757600Y-7600000D02*
X8717600Y-7640000D01*
X8717600Y-8057200D02*
X8757600Y-8097200D01*
X8757600Y-8057200D02*
X8717600Y-8097200D01*
X8732950Y-9718250D02*
X8772950Y-9758250D01*
X8772950Y-9718250D02*
X8732950Y-9758250D01*
X8781100Y-5936300D02*
X8821100Y-5976300D01*
X8821100Y-5936300D02*
X8781100Y-5976300D01*
X8781100Y-6406200D02*
X8821100Y-6446200D01*
X8821100Y-6406200D02*
X8781100Y-6446200D01*
X8793800Y-10521000D02*
X8833800Y-10561000D01*
X8833800Y-10521000D02*
X8793800Y-10561000D01*
X8804150Y-7005450D02*
X8844150Y-7045450D01*
X8844150Y-7005450D02*
X8804150Y-7045450D01*
X8844600Y-7600000D02*
X8884600Y-7640000D01*
X8884600Y-7600000D02*
X8844600Y-7640000D01*
X8870000Y-8412800D02*
X8910000Y-8452800D01*
X8910000Y-8412800D02*
X8870000Y-8452800D01*
X8895400Y-9124000D02*
X8935400Y-9164000D01*
X8935400Y-9124000D02*
X8895400Y-9164000D01*
X8895400Y-11486200D02*
X8935400Y-11526200D01*
X8935400Y-11486200D02*
X8895400Y-11526200D01*
X8920800Y-10749600D02*
X8960800Y-10789600D01*
X8960800Y-10749600D02*
X8920800Y-10789600D01*
X8920800Y-10978200D02*
X8960800Y-11018200D01*
X8960800Y-10978200D02*
X8920800Y-11018200D01*
X8920800Y-11232200D02*
X8960800Y-11272200D01*
X8960800Y-11232200D02*
X8920800Y-11272200D01*
X9022400Y-6533200D02*
X9062400Y-6573200D01*
X9062400Y-6533200D02*
X9022400Y-6573200D01*
X9063040Y-6142040D02*
X9103040Y-6182040D01*
X9103040Y-6142040D02*
X9063040Y-6182040D01*
X9098600Y-10368600D02*
X9138600Y-10408600D01*
X9138600Y-10368600D02*
X9098600Y-10408600D01*
X9124000Y-11308400D02*
X9164000Y-11348400D01*
X9164000Y-11308400D02*
X9124000Y-11348400D01*
X9149400Y-9835200D02*
X9189400Y-9875200D01*
X9189400Y-9835200D02*
X9149400Y-9875200D01*
X9174800Y-7523800D02*
X9214800Y-7563800D01*
X9214800Y-7523800D02*
X9174800Y-7563800D01*
X9225600Y-7752400D02*
X9265600Y-7792400D01*
X9265600Y-7752400D02*
X9225600Y-7792400D01*
X9225600Y-7879400D02*
X9265600Y-7919400D01*
X9265600Y-7879400D02*
X9225600Y-7919400D01*
X9301800Y-11714800D02*
X9341800Y-11754800D01*
X9341800Y-11714800D02*
X9301800Y-11754800D01*
X9388160Y-6711000D02*
X9428160Y-6751000D01*
X9428160Y-6711000D02*
X9388160Y-6751000D01*
X9403400Y-6812600D02*
X9443400Y-6852600D01*
X9443400Y-6812600D02*
X9403400Y-6852600D01*
X9403400Y-10165400D02*
X9443400Y-10205400D01*
X9443400Y-10165400D02*
X9403400Y-10205400D01*
X9492300Y-12464100D02*
X9532300Y-12504100D01*
X9532300Y-12464100D02*
X9492300Y-12504100D01*
X9540560Y-4821240D02*
X9580560Y-4861240D01*
X9580560Y-4821240D02*
X9540560Y-4861240D01*
X9555800Y-5466400D02*
X9595800Y-5506400D01*
X9595800Y-5466400D02*
X9555800Y-5506400D01*
X9560880Y-6568760D02*
X9600880Y-6608760D01*
X9600880Y-6568760D02*
X9560880Y-6608760D01*
X9581200Y-8133400D02*
X9621200Y-8173400D01*
X9621200Y-8133400D02*
X9581200Y-8173400D01*
X9581200Y-8489000D02*
X9621200Y-8529000D01*
X9621200Y-8489000D02*
X9581200Y-8529000D01*
X9581200Y-9276400D02*
X9621200Y-9316400D01*
X9621200Y-9276400D02*
X9581200Y-9316400D01*
X9682800Y-11105200D02*
X9722800Y-11145200D01*
X9722800Y-11105200D02*
X9682800Y-11145200D01*
X9713470Y-7005450D02*
X9753470Y-7045450D01*
X9753470Y-7005450D02*
X9713470Y-7045450D01*
X9759000Y-10622600D02*
X9799000Y-10662600D01*
X9799000Y-10622600D02*
X9759000Y-10662600D01*
X9809800Y-11460800D02*
X9849800Y-11500800D01*
X9849800Y-11460800D02*
X9809800Y-11500800D01*
X9847900Y-10019350D02*
X9887900Y-10059350D01*
X9887900Y-10019350D02*
X9847900Y-10059350D01*
X9860600Y-10317800D02*
X9900600Y-10357800D01*
X9900600Y-10317800D02*
X9860600Y-10357800D01*
X9886000Y-11664000D02*
X9926000Y-11704000D01*
X9926000Y-11664000D02*
X9886000Y-11704000D01*
X9987600Y-8133400D02*
X10027600Y-8173400D01*
X10027600Y-8133400D02*
X9987600Y-8173400D01*
X9987600Y-8489000D02*
X10027600Y-8529000D01*
X10027600Y-8489000D02*
X9987600Y-8529000D01*
X9987600Y-9270050D02*
X10027600Y-9310050D01*
X10027600Y-9270050D02*
X9987600Y-9310050D01*
X9987600Y-13111800D02*
X10027600Y-13151800D01*
X10027600Y-13111800D02*
X9987600Y-13151800D01*
X10006650Y-10019350D02*
X10046650Y-10059350D01*
X10046650Y-10019350D02*
X10006650Y-10059350D01*
X10063800Y-11918000D02*
X10103800Y-11958000D01*
X10103800Y-11918000D02*
X10063800Y-11958000D01*
X10101900Y-10660700D02*
X10141900Y-10700700D01*
X10141900Y-10660700D02*
X10101900Y-10700700D01*
X10114600Y-4821240D02*
X10154600Y-4861240D01*
X10154600Y-4821240D02*
X10114600Y-4861240D01*
X10171750Y-10019350D02*
X10211750Y-10059350D01*
X10211750Y-10019350D02*
X10171750Y-10059350D01*
X10267000Y-11105200D02*
X10307000Y-11145200D01*
X10307000Y-11105200D02*
X10267000Y-11145200D01*
X10267000Y-11232200D02*
X10307000Y-11272200D01*
X10307000Y-11232200D02*
X10267000Y-11272200D01*
X10276970Y-7005450D02*
X10316970Y-7045450D01*
X10316970Y-7005450D02*
X10276970Y-7045450D01*
X10286050Y-9270050D02*
X10326050Y-9310050D01*
X10326050Y-9270050D02*
X10286050Y-9310050D01*
X10305100Y-5466400D02*
X10345100Y-5506400D01*
X10345100Y-5466400D02*
X10305100Y-5506400D01*
X10355900Y-12286300D02*
X10395900Y-12326300D01*
X10395900Y-12286300D02*
X10355900Y-12326300D01*
X10368600Y-8133400D02*
X10408600Y-8173400D01*
X10408600Y-8133400D02*
X10368600Y-8173400D01*
X10368600Y-8489000D02*
X10408600Y-8529000D01*
X10408600Y-8489000D02*
X10368600Y-8529000D01*
X10394000Y-6126800D02*
X10434000Y-6166800D01*
X10434000Y-6126800D02*
X10394000Y-6166800D01*
X10394000Y-6584000D02*
X10434000Y-6624000D01*
X10434000Y-6584000D02*
X10394000Y-6624000D01*
X10394000Y-11206800D02*
X10434000Y-11246800D01*
X10434000Y-11206800D02*
X10394000Y-11246800D01*
X10444800Y-11664000D02*
X10484800Y-11704000D01*
X10484800Y-11664000D02*
X10444800Y-11704000D01*
X10470200Y-9098600D02*
X10510200Y-9138600D01*
X10510200Y-9098600D02*
X10470200Y-9138600D01*
X10470200Y-9251000D02*
X10510200Y-9291000D01*
X10510200Y-9251000D02*
X10470200Y-9291000D01*
X10622600Y-8641400D02*
X10662600Y-8681400D01*
X10662600Y-8641400D02*
X10622600Y-8681400D01*
X10622600Y-8793800D02*
X10662600Y-8833800D01*
X10662600Y-8793800D02*
X10622600Y-8833800D01*
X10622600Y-8946200D02*
X10662600Y-8986200D01*
X10662600Y-8946200D02*
X10622600Y-8986200D01*
X10739550Y-8021750D02*
X10779550Y-8061750D01*
X10779550Y-8021750D02*
X10739550Y-8061750D01*
X10835960Y-6660200D02*
X10875960Y-6700200D01*
X10875960Y-6660200D02*
X10835960Y-6700200D01*
X10876600Y-4821240D02*
X10916600Y-4861240D01*
X10916600Y-4821240D02*
X10876600Y-4861240D01*
X10876600Y-6787200D02*
X10916600Y-6827200D01*
X10916600Y-6787200D02*
X10876600Y-6827200D01*
X10902000Y-8565200D02*
X10942000Y-8605200D01*
X10942000Y-8565200D02*
X10902000Y-8605200D01*
X11003600Y-5466400D02*
X11043600Y-5506400D01*
X11043600Y-5466400D02*
X11003600Y-5506400D01*
X11003600Y-6584000D02*
X11043600Y-6624000D01*
X11043600Y-6584000D02*
X11003600Y-6624000D01*
X11029000Y-13111800D02*
X11069000Y-13151800D01*
X11069000Y-13111800D02*
X11029000Y-13151800D01*
X11079800Y-9657400D02*
X11119800Y-9697400D01*
X11119800Y-9657400D02*
X11079800Y-9697400D01*
X11156000Y-10140000D02*
X11196000Y-10180000D01*
X11196000Y-10140000D02*
X11156000Y-10180000D01*
X11176320Y-6863400D02*
X11216320Y-6903400D01*
X11216320Y-6863400D02*
X11176320Y-6903400D01*
X11232200Y-9657400D02*
X11272200Y-9697400D01*
X11272200Y-9657400D02*
X11232200Y-9697400D01*
X11333800Y-10673400D02*
X11373800Y-10713400D01*
X11373800Y-10673400D02*
X11333800Y-10713400D01*
X11333800Y-11905300D02*
X11373800Y-11945300D01*
X11373800Y-11905300D02*
X11333800Y-11945300D01*
X11352850Y-9657400D02*
X11392850Y-9697400D01*
X11392850Y-9657400D02*
X11352850Y-9697400D01*
X11384600Y-12299000D02*
X11424600Y-12339000D01*
X11424600Y-12299000D02*
X11384600Y-12339000D01*
X11410000Y-8565200D02*
X11450000Y-8605200D01*
X11450000Y-8565200D02*
X11410000Y-8605200D01*
X11471150Y-13101450D02*
X11511150Y-13141450D01*
X11511150Y-13101450D02*
X11471150Y-13141450D01*
X11473500Y-5618800D02*
X11513500Y-5658800D01*
X11513500Y-5618800D02*
X11473500Y-5658800D01*
X11476399Y-13274001D02*
X11516399Y-13314001D01*
X11516399Y-13274001D02*
X11476399Y-13314001D01*
X11486200Y-6609400D02*
X11526200Y-6649400D01*
X11526200Y-6609400D02*
X11486200Y-6649400D01*
X11537000Y-12629200D02*
X11577000Y-12669200D01*
X11577000Y-12629200D02*
X11537000Y-12669200D01*
X11664000Y-4425000D02*
X11704000Y-4465000D01*
X11704000Y-4425000D02*
X11664000Y-4465000D01*
X11765600Y-10317800D02*
X11805600Y-10357800D01*
X11805600Y-10317800D02*
X11765600Y-10357800D01*
X11791000Y-5060000D02*
X11831000Y-5100000D01*
X11831000Y-5060000D02*
X11791000Y-5100000D01*
X11791000Y-8565200D02*
X11831000Y-8605200D01*
X11831000Y-8565200D02*
X11791000Y-8605200D01*
X11791000Y-13188000D02*
X11831000Y-13228000D01*
X11831000Y-13188000D02*
X11791000Y-13228000D01*
X11816400Y-4425000D02*
X11856400Y-4465000D01*
X11856400Y-4425000D02*
X11816400Y-4465000D01*
X11867200Y-11079800D02*
X11907200Y-11119800D01*
X11907200Y-11079800D02*
X11867200Y-11119800D01*
X11918000Y-11511600D02*
X11958000Y-11551600D01*
X11958000Y-11511600D02*
X11918000Y-11551600D01*
X11918000Y-11918000D02*
X11958000Y-11958000D01*
X11958000Y-11918000D02*
X11918000Y-11958000D01*
X12019600Y-6330000D02*
X12059600Y-6370000D01*
X12059600Y-6330000D02*
X12019600Y-6370000D01*
X12121200Y-6939600D02*
X12161200Y-6979600D01*
X12161200Y-6939600D02*
X12121200Y-6979600D01*
X12172000Y-5314000D02*
X12212000Y-5354000D01*
X12212000Y-5314000D02*
X12172000Y-5354000D01*
X12224345Y-6011505D02*
X12264345Y-6051505D01*
X12264345Y-6011505D02*
X12224345Y-6051505D01*
X12273600Y-5568000D02*
X12313600Y-5608000D01*
X12313600Y-5568000D02*
X12273600Y-5608000D01*
X12273600Y-6177600D02*
X12313600Y-6217600D01*
X12313600Y-6177600D02*
X12273600Y-6217600D01*
X12334450Y-10942750D02*
X12374450Y-10982750D01*
X12374450Y-10942750D02*
X12334450Y-10982750D01*
X12441350Y-10581850D02*
X12481350Y-10621850D01*
X12481350Y-10581850D02*
X12441350Y-10621850D01*
X12502200Y-12934000D02*
X12542200Y-12974000D01*
X12542200Y-12934000D02*
X12502200Y-12974000D01*
X12547920Y-5806760D02*
X12587920Y-5846760D01*
X12587920Y-5806760D02*
X12547920Y-5846760D01*
X12603800Y-10317800D02*
X12643800Y-10357800D01*
X12643800Y-10317800D02*
X12603800Y-10357800D01*
X12705400Y-4831400D02*
X12745400Y-4871400D01*
X12745400Y-4831400D02*
X12705400Y-4871400D01*
X12730800Y-12426000D02*
X12770800Y-12466000D01*
X12770800Y-12426000D02*
X12730800Y-12466000D01*
X12832400Y-11511600D02*
X12872400Y-11551600D01*
X12872400Y-11511600D02*
X12832400Y-11551600D01*
X12918650Y-6446950D02*
X12958650Y-6486950D01*
X12958650Y-6446950D02*
X12918650Y-6486950D01*
X13061000Y-7854000D02*
X13101000Y-7894000D01*
X13101000Y-7854000D02*
X13061000Y-7894000D01*
X13061000Y-8565200D02*
X13101000Y-8605200D01*
X13101000Y-8565200D02*
X13061000Y-8605200D01*
X13061000Y-9632000D02*
X13101000Y-9672000D01*
X13101000Y-9632000D02*
X13061000Y-9672000D01*
X13076050Y-10810750D02*
X13116050Y-10850750D01*
X13116050Y-10810750D02*
X13076050Y-10850750D01*
X13111800Y-5949000D02*
X13151800Y-5989000D01*
X13151800Y-5949000D02*
X13111800Y-5989000D01*
X13365800Y-8260400D02*
X13405800Y-8300400D01*
X13405800Y-8260400D02*
X13365800Y-8300400D01*
X13442000Y-5822000D02*
X13482000Y-5862000D01*
X13482000Y-5822000D02*
X13442000Y-5862000D01*
X13442000Y-9632000D02*
X13482000Y-9672000D01*
X13482000Y-9632000D02*
X13442000Y-9672000D01*
X13442000Y-11918000D02*
X13482000Y-11958000D01*
X13482000Y-11918000D02*
X13442000Y-11958000D01*
X13442000Y-12934000D02*
X13482000Y-12974000D01*
X13482000Y-12934000D02*
X13442000Y-12974000D01*
X13543600Y-10317800D02*
X13583600Y-10357800D01*
X13583600Y-10317800D02*
X13543600Y-10357800D01*
X13543600Y-11181400D02*
X13583600Y-11221400D01*
X13583600Y-11181400D02*
X13543600Y-11221400D01*
X13569000Y-6660200D02*
X13609000Y-6700200D01*
X13609000Y-6660200D02*
X13569000Y-6700200D01*
X13582250Y-6394050D02*
X13622250Y-6434050D01*
X13622250Y-6394050D02*
X13582250Y-6434050D01*
X13696000Y-8590600D02*
X13736000Y-8630600D01*
X13736000Y-8590600D02*
X13696000Y-8630600D01*
X13698540Y-10904540D02*
X13738540Y-10944540D01*
X13738540Y-10904540D02*
X13698540Y-10944540D01*
X13721400Y-7854000D02*
X13761400Y-7894000D01*
X13761400Y-7854000D02*
X13721400Y-7894000D01*
X13924600Y-9835200D02*
X13964600Y-9875200D01*
X13964600Y-9835200D02*
X13924600Y-9875200D01*
X13950000Y-5822000D02*
X13990000Y-5862000D01*
X13990000Y-5822000D02*
X13950000Y-5862000D01*
X14051600Y-12451400D02*
X14091600Y-12491400D01*
X14091600Y-12451400D02*
X14051600Y-12491400D01*
X14077000Y-9708200D02*
X14117000Y-9748200D01*
X14117000Y-9708200D02*
X14077000Y-9748200D01*
X14204000Y-10902000D02*
X14244000Y-10942000D01*
X14244000Y-10902000D02*
X14204000Y-10942000D01*
X14254800Y-9530400D02*
X14294800Y-9570400D01*
X14294800Y-9530400D02*
X14254800Y-9570400D01*
X14254800Y-9708200D02*
X14294800Y-9748200D01*
X14294800Y-9708200D02*
X14254800Y-9748200D01*
X14305600Y-10317800D02*
X14345600Y-10357800D01*
X14345600Y-10317800D02*
X14305600Y-10357800D01*
X14381800Y-9403400D02*
X14421800Y-9443400D01*
X14421800Y-9403400D02*
X14381800Y-9443400D01*
X14442760Y-7036120D02*
X14482760Y-7076120D01*
X14482760Y-7036120D02*
X14442760Y-7076120D01*
X14458000Y-11918000D02*
X14498000Y-11958000D01*
X14498000Y-11918000D02*
X14458000Y-11958000D01*
X14508800Y-6695650D02*
X14548800Y-6735650D01*
X14548800Y-6695650D02*
X14508800Y-6735650D01*
X14653300Y-12265700D02*
X14693300Y-12305700D01*
X14693300Y-12265700D02*
X14653300Y-12305700D01*
X14712000Y-6394050D02*
X14752000Y-6434050D01*
X14752000Y-6394050D02*
X14712000Y-6434050D01*
X14712000Y-12934000D02*
X14752000Y-12974000D01*
X14752000Y-12934000D02*
X14712000Y-12974000D01*
X14813600Y-11029000D02*
X14853600Y-11069000D01*
X14853600Y-11029000D02*
X14813600Y-11069000D01*
X14915200Y-7955600D02*
X14955200Y-7995600D01*
X14955200Y-7955600D02*
X14915200Y-7995600D01*
X14915200Y-8311200D02*
X14955200Y-8351200D01*
X14955200Y-8311200D02*
X14915200Y-8351200D01*
X14940600Y-5593400D02*
X14980600Y-5633400D01*
X14980600Y-5593400D02*
X14940600Y-5633400D01*
X14955840Y-10394000D02*
X14995840Y-10434000D01*
X14995840Y-10394000D02*
X14955840Y-10434000D01*
X14966000Y-4806000D02*
X15006000Y-4846000D01*
X15006000Y-4806000D02*
X14966000Y-4846000D01*
X14966000Y-9251000D02*
X15006000Y-9291000D01*
X15006000Y-9251000D02*
X14966000Y-9291000D01*
X14966000Y-9632000D02*
X15006000Y-9672000D01*
X15006000Y-9632000D02*
X14966000Y-9672000D01*
X14991400Y-8844600D02*
X15031400Y-8884600D01*
X15031400Y-8844600D02*
X14991400Y-8884600D01*
X15023400Y-7390200D02*
X15063400Y-7430200D01*
X15063400Y-7390200D02*
X15023400Y-7430200D01*
X15042200Y-11181400D02*
X15082200Y-11221400D01*
X15082200Y-11181400D02*
X15042200Y-11221400D01*
X15067600Y-8920800D02*
X15107600Y-8960800D01*
X15107600Y-8920800D02*
X15067600Y-8960800D01*
X15143800Y-8844600D02*
X15183800Y-8884600D01*
X15183800Y-8844600D02*
X15143800Y-8884600D01*
X15150400Y-7390200D02*
X15190400Y-7430200D01*
X15190400Y-7390200D02*
X15150400Y-7430200D01*
X15270800Y-6660200D02*
X15310800Y-6700200D01*
X15310800Y-6660200D02*
X15270800Y-6700200D01*
X15435900Y-5758500D02*
X15475900Y-5798500D01*
X15475900Y-5758500D02*
X15435900Y-5798500D01*
X15474000Y-9251000D02*
X15514000Y-9291000D01*
X15514000Y-9251000D02*
X15474000Y-9291000D01*
X15474000Y-9632000D02*
X15514000Y-9672000D01*
X15514000Y-9632000D02*
X15474000Y-9672000D01*
X15474000Y-12934000D02*
X15514000Y-12974000D01*
X15514000Y-12934000D02*
X15474000Y-12974000D01*
X15516200Y-7989600D02*
X15556200Y-8029600D01*
X15556200Y-7989600D02*
X15516200Y-8029600D01*
X15677200Y-10749600D02*
X15717200Y-10789600D01*
X15717200Y-10749600D02*
X15677200Y-10789600D01*
X15677200Y-11613200D02*
X15717200Y-11653200D01*
X15717200Y-11613200D02*
X15677200Y-11653200D01*
X15677200Y-12248200D02*
X15717200Y-12288200D01*
X15717200Y-12248200D02*
X15677200Y-12288200D01*
X15702600Y-10140000D02*
X15742600Y-10180000D01*
X15742600Y-10140000D02*
X15702600Y-10180000D01*
X15762000Y-7989600D02*
X15802000Y-8029600D01*
X15802000Y-7989600D02*
X15762000Y-8029600D01*
X15880400Y-10902000D02*
X15920400Y-10942000D01*
X15920400Y-10902000D02*
X15880400Y-10942000D01*
X16007400Y-7269800D02*
X16047400Y-7309800D01*
X16047400Y-7269800D02*
X16007400Y-7309800D01*
X16007400Y-7600000D02*
X16047400Y-7640000D01*
X16047400Y-7600000D02*
X16007400Y-7640000D01*
X16073440Y-10962960D02*
X16113440Y-11002960D01*
X16113440Y-10962960D02*
X16073440Y-11002960D01*
X16078520Y-10693720D02*
X16118520Y-10733720D01*
X16118520Y-10693720D02*
X16078520Y-10733720D01*
X16078520Y-10825800D02*
X16118520Y-10865800D01*
X16118520Y-10825800D02*
X16078520Y-10865800D01*
X16109000Y-8870000D02*
X16149000Y-8910000D01*
X16149000Y-8870000D02*
X16109000Y-8910000D01*
X16109000Y-9251000D02*
X16149000Y-9291000D01*
X16149000Y-9251000D02*
X16109000Y-9291000D01*
X16109000Y-9632000D02*
X16149000Y-9672000D01*
X16149000Y-9632000D02*
X16109000Y-9672000D01*
X16220650Y-7970950D02*
X16260650Y-8010950D01*
X16260650Y-7970950D02*
X16220650Y-8010950D01*
X16236000Y-12934000D02*
X16276000Y-12974000D01*
X16276000Y-12934000D02*
X16236000Y-12974000D01*
X16296960Y-10394000D02*
X16336960Y-10434000D01*
X16336960Y-10394000D02*
X16296960Y-10434000D01*
X16363000Y-7269800D02*
X16403000Y-7309800D01*
X16403000Y-7269800D02*
X16363000Y-7309800D01*
X16363000Y-7600000D02*
X16403000Y-7640000D01*
X16403000Y-7600000D02*
X16363000Y-7640000D01*
X16413800Y-10140000D02*
X16453800Y-10180000D01*
X16453800Y-10140000D02*
X16413800Y-10180000D01*
X16490000Y-11156000D02*
X16530000Y-11196000D01*
X16530000Y-11156000D02*
X16490000Y-11196000D01*
X16617000Y-8489000D02*
X16657000Y-8529000D01*
X16657000Y-8489000D02*
X16617000Y-8529000D01*
X16617000Y-8870000D02*
X16657000Y-8910000D01*
X16657000Y-8870000D02*
X16617000Y-8910000D01*
X16617000Y-9251000D02*
X16657000Y-9291000D01*
X16657000Y-9251000D02*
X16617000Y-9291000D01*
X16617000Y-9632000D02*
X16657000Y-9672000D01*
X16657000Y-9632000D02*
X16617000Y-9672000D01*
X16642400Y-9886000D02*
X16682400Y-9926000D01*
X16682400Y-9886000D02*
X16642400Y-9926000D01*
X16642400Y-10038400D02*
X16682400Y-10078400D01*
X16682400Y-10038400D02*
X16642400Y-10078400D01*
X16731300Y-9962200D02*
X16771300Y-10002200D01*
X16771300Y-9962200D02*
X16731300Y-10002200D01*
X16744000Y-4806000D02*
X16784000Y-4846000D01*
X16784000Y-4806000D02*
X16744000Y-4846000D01*
X16820200Y-9886000D02*
X16860200Y-9926000D01*
X16860200Y-9886000D02*
X16820200Y-9926000D01*
X16820200Y-10038400D02*
X16860200Y-10078400D01*
X16860200Y-10038400D02*
X16820200Y-10078400D01*
X16871000Y-7727000D02*
X16911000Y-7767000D01*
X16911000Y-7727000D02*
X16871000Y-7767000D01*
X16911640Y-8864920D02*
X16951640Y-8904920D01*
X16951640Y-8864920D02*
X16911640Y-8904920D01*
X16998000Y-6076000D02*
X17038000Y-6116000D01*
X17038000Y-6076000D02*
X16998000Y-6116000D01*
X16998000Y-11156000D02*
X17038000Y-11196000D01*
X17038000Y-11156000D02*
X16998000Y-11196000D01*
X17099600Y-8641400D02*
X17139600Y-8681400D01*
X17139600Y-8641400D02*
X17099600Y-8681400D01*
X17163100Y-8760780D02*
X17203100Y-8800780D01*
X17203100Y-8760780D02*
X17163100Y-8800780D01*
X17175800Y-7523800D02*
X17215800Y-7563800D01*
X17215800Y-7523800D02*
X17175800Y-7563800D01*
X17203740Y-8641400D02*
X17243740Y-8681400D01*
X17243740Y-8641400D02*
X17203740Y-8681400D01*
X17252000Y-6685600D02*
X17292000Y-6725600D01*
X17292000Y-6685600D02*
X17252000Y-6725600D01*
X17252000Y-7066600D02*
X17292000Y-7106600D01*
X17292000Y-7066600D02*
X17252000Y-7106600D01*
X17302800Y-7523800D02*
X17342800Y-7563800D01*
X17342800Y-7523800D02*
X17302800Y-7563800D01*
X17328200Y-11943400D02*
X17368200Y-11983400D01*
X17368200Y-11943400D02*
X17328200Y-11983400D01*
X17429800Y-7600000D02*
X17469800Y-7640000D01*
X17469800Y-7600000D02*
X17429800Y-7640000D01*
X17455200Y-11664000D02*
X17495200Y-11704000D01*
X17495200Y-11664000D02*
X17455200Y-11704000D01*
X17556800Y-7574600D02*
X17596800Y-7614600D01*
X17596800Y-7574600D02*
X17556800Y-7614600D01*
X17582200Y-9149400D02*
X17622200Y-9189400D01*
X17622200Y-9149400D02*
X17582200Y-9189400D01*
X17760000Y-9733600D02*
X17800000Y-9773600D01*
X17800000Y-9733600D02*
X17760000Y-9773600D01*
X17760000Y-12934000D02*
X17800000Y-12974000D01*
X17800000Y-12934000D02*
X17760000Y-12974000D01*
X17861600Y-11664000D02*
X17901600Y-11704000D01*
X17901600Y-11664000D02*
X17861600Y-11704000D01*
X17931450Y-7441250D02*
X17971450Y-7481250D01*
X17971450Y-7441250D02*
X17931450Y-7481250D01*
X17937800Y-8616000D02*
X17977800Y-8656000D01*
X17977800Y-8616000D02*
X17937800Y-8656000D01*
X17988600Y-9149400D02*
X18028600Y-9189400D01*
X18028600Y-9149400D02*
X17988600Y-9189400D01*
X18064800Y-8463600D02*
X18104800Y-8503600D01*
X18104800Y-8463600D02*
X18064800Y-8503600D01*
X18145400Y-7782200D02*
X18185400Y-7822200D01*
X18185400Y-7782200D02*
X18145400Y-7822200D01*
X18166400Y-10394000D02*
X18206400Y-10434000D01*
X18206400Y-10394000D02*
X18166400Y-10434000D01*
X18191800Y-7244400D02*
X18231800Y-7284400D01*
X18231800Y-7244400D02*
X18191800Y-7284400D01*
X18191800Y-8401040D02*
X18231800Y-8441040D01*
X18231800Y-8401040D02*
X18191800Y-8441040D01*
X18255300Y-6482400D02*
X18295300Y-6522400D01*
X18295300Y-6482400D02*
X18255300Y-6522400D01*
X18255300Y-6660200D02*
X18295300Y-6700200D01*
X18295300Y-6660200D02*
X18255300Y-6700200D01*
X18268000Y-8311200D02*
X18308000Y-8351200D01*
X18308000Y-8311200D02*
X18268000Y-8351200D01*
X18268000Y-8870000D02*
X18308000Y-8910000D01*
X18308000Y-8870000D02*
X18268000Y-8910000D01*
X18268000Y-11664000D02*
X18308000Y-11704000D01*
X18308000Y-11664000D02*
X18268000Y-11704000D01*
X18318800Y-7650800D02*
X18358800Y-7690800D01*
X18358800Y-7650800D02*
X18318800Y-7690800D01*
X18395000Y-8336600D02*
X18435000Y-8376600D01*
X18435000Y-8336600D02*
X18395000Y-8376600D01*
X18420400Y-8235000D02*
X18460400Y-8275000D01*
X18460400Y-8235000D02*
X18420400Y-8275000D01*
X18445800Y-7854000D02*
X18485800Y-7894000D01*
X18485800Y-7854000D02*
X18445800Y-7894000D01*
X18445800Y-9454200D02*
X18485800Y-9494200D01*
X18485800Y-9454200D02*
X18445800Y-9494200D01*
X18522000Y-4806000D02*
X18562000Y-4846000D01*
X18562000Y-4806000D02*
X18522000Y-4846000D01*
X18522000Y-5593400D02*
X18562000Y-5633400D01*
X18562000Y-5593400D02*
X18522000Y-5633400D01*
X18572800Y-9581200D02*
X18612800Y-9621200D01*
X18612800Y-9581200D02*
X18572800Y-9621200D01*
X18572800Y-10546400D02*
X18612800Y-10586400D01*
X18612800Y-10546400D02*
X18572800Y-10586400D01*
X18750600Y-7650800D02*
X18790600Y-7690800D01*
X18790600Y-7650800D02*
X18750600Y-7690800D01*
X18776000Y-10292400D02*
X18816000Y-10332400D01*
X18816000Y-10292400D02*
X18776000Y-10332400D01*
X18827200Y-8082200D02*
X18867200Y-8122200D01*
X18867200Y-8082200D02*
X18827200Y-8122200D01*
X18858275Y-6031275D02*
X18898275Y-6071275D01*
X18898275Y-6031275D02*
X18858275Y-6071275D01*
X18864900Y-11930700D02*
X18904900Y-11970700D01*
X18904900Y-11930700D02*
X18864900Y-11970700D01*
X18877600Y-9962200D02*
X18917600Y-10002200D01*
X18917600Y-9962200D02*
X18877600Y-10002200D01*
X18903000Y-8641400D02*
X18943000Y-8681400D01*
X18943000Y-8641400D02*
X18903000Y-8681400D01*
X18953800Y-10444800D02*
X18993800Y-10484800D01*
X18993800Y-10444800D02*
X18953800Y-10484800D01*
X18953800Y-10800400D02*
X18993800Y-10840400D01*
X18993800Y-10800400D02*
X18953800Y-10840400D01*
X18953800Y-11308400D02*
X18993800Y-11348400D01*
X18993800Y-11308400D02*
X18953800Y-11348400D01*
X19030000Y-10089200D02*
X19070000Y-10129200D01*
X19070000Y-10089200D02*
X19030000Y-10129200D01*
X19030000Y-10952800D02*
X19070000Y-10992800D01*
X19070000Y-10952800D02*
X19030000Y-10992800D01*
X19157000Y-12222800D02*
X19197000Y-12262800D01*
X19197000Y-12222800D02*
X19157000Y-12262800D01*
X19182400Y-11257600D02*
X19222400Y-11297600D01*
X19222400Y-11257600D02*
X19182400Y-11297600D01*
X19182400Y-11511600D02*
X19222400Y-11551600D01*
X19222400Y-11511600D02*
X19182400Y-11551600D01*
X19220500Y-11054400D02*
X19260500Y-11094400D01*
X19260500Y-11054400D02*
X19220500Y-11094400D01*
X19227200Y-7682200D02*
X19267200Y-7722200D01*
X19267200Y-7682200D02*
X19227200Y-7722200D01*
X19239900Y-8469600D02*
X19279900Y-8509600D01*
X19279900Y-8469600D02*
X19239900Y-8509600D01*
X19284000Y-9505000D02*
X19324000Y-9545000D01*
X19324000Y-9505000D02*
X19284000Y-9545000D01*
X19309400Y-8844600D02*
X19349400Y-8884600D01*
X19349400Y-8844600D02*
X19309400Y-8884600D01*
X19309400Y-9174800D02*
X19349400Y-9214800D01*
X19349400Y-9174800D02*
X19309400Y-9214800D01*
X19360200Y-8031800D02*
X19400200Y-8071800D01*
X19400200Y-8031800D02*
X19360200Y-8071800D01*
X19411000Y-8590600D02*
X19451000Y-8630600D01*
X19451000Y-8590600D02*
X19411000Y-8630600D01*
X19436400Y-7549200D02*
X19476400Y-7589200D01*
X19476400Y-7549200D02*
X19436400Y-7589200D01*
X19461800Y-6761800D02*
X19501800Y-6801800D01*
X19501800Y-6761800D02*
X19461800Y-6801800D01*
X19487200Y-7930200D02*
X19527200Y-7970200D01*
X19527200Y-7930200D02*
X19487200Y-7970200D01*
X19487200Y-8514400D02*
X19527200Y-8554400D01*
X19527200Y-8514400D02*
X19487200Y-8554400D01*
X19512600Y-10140000D02*
X19552600Y-10180000D01*
X19552600Y-10140000D02*
X19512600Y-10180000D01*
X19512600Y-10571800D02*
X19552600Y-10611800D01*
X19552600Y-10571800D02*
X19512600Y-10611800D01*
X19563400Y-8006400D02*
X19603400Y-8046400D01*
X19603400Y-8006400D02*
X19563400Y-8046400D01*
X19563400Y-8616000D02*
X19603400Y-8656000D01*
X19603400Y-8616000D02*
X19563400Y-8656000D01*
X19588800Y-12095800D02*
X19628800Y-12135800D01*
X19628800Y-12095800D02*
X19588800Y-12135800D01*
X19588800Y-13137200D02*
X19628800Y-13177200D01*
X19628800Y-13137200D02*
X19588800Y-13177200D01*
X19614200Y-8108000D02*
X19654200Y-8148000D01*
X19654200Y-8108000D02*
X19614200Y-8148000D01*
X19639600Y-8514400D02*
X19679600Y-8554400D01*
X19679600Y-8514400D02*
X19639600Y-8554400D01*
X19766600Y-10343200D02*
X19806600Y-10383200D01*
X19806600Y-10343200D02*
X19766600Y-10383200D01*
X19779300Y-8819200D02*
X19819300Y-8859200D01*
X19819300Y-8819200D02*
X19779300Y-8859200D01*
X19893600Y-7955600D02*
X19933600Y-7995600D01*
X19933600Y-7955600D02*
X19893600Y-7995600D01*
X20112150Y-8829250D02*
X20152150Y-8869250D01*
X20152150Y-8829250D02*
X20112150Y-8869250D01*
X20122200Y-11410000D02*
X20162200Y-11450000D01*
X20162200Y-11410000D02*
X20122200Y-11450000D01*
X20122200Y-11664000D02*
X20162200Y-11704000D01*
X20162200Y-11664000D02*
X20122200Y-11704000D01*
X20173000Y-13137200D02*
X20213000Y-13177200D01*
X20213000Y-13137200D02*
X20173000Y-13177200D01*
X20300000Y-4806000D02*
X20340000Y-4846000D01*
X20340000Y-4806000D02*
X20300000Y-4846000D01*
X20300000Y-5999800D02*
X20340000Y-6039800D01*
X20340000Y-5999800D02*
X20300000Y-6039800D01*
X20300000Y-10978200D02*
X20340000Y-11018200D01*
X20340000Y-10978200D02*
X20300000Y-11018200D01*
X20305100Y-10414300D02*
X20345100Y-10454300D01*
X20345100Y-10414300D02*
X20305100Y-10454300D01*
X20345850Y-9459300D02*
X20385850Y-9499300D01*
X20385850Y-9459300D02*
X20345850Y-9499300D01*
X20350800Y-7549200D02*
X20390800Y-7589200D01*
X20390800Y-7549200D02*
X20350800Y-7589200D01*
X20350800Y-7955600D02*
X20390800Y-7995600D01*
X20390800Y-7955600D02*
X20350800Y-7995600D01*
X20376200Y-10673400D02*
X20416200Y-10713400D01*
X20416200Y-10673400D02*
X20376200Y-10713400D01*
X20427000Y-9200200D02*
X20467000Y-9240200D01*
X20467000Y-9200200D02*
X20427000Y-9240200D01*
X20452400Y-8666800D02*
X20492400Y-8706800D01*
X20492400Y-8666800D02*
X20452400Y-8706800D01*
X20630200Y-8438200D02*
X20670200Y-8478200D01*
X20670200Y-8438200D02*
X20630200Y-8478200D01*
X20655600Y-9606600D02*
X20695600Y-9646600D01*
X20695600Y-9606600D02*
X20655600Y-9646600D01*
X20655600Y-10343200D02*
X20695600Y-10383200D01*
X20695600Y-10343200D02*
X20655600Y-10383200D01*
X20681000Y-9936800D02*
X20721000Y-9976800D01*
X20721000Y-9936800D02*
X20681000Y-9976800D01*
X20808000Y-10368600D02*
X20848000Y-10408600D01*
X20848000Y-10368600D02*
X20808000Y-10408600D01*
X20858800Y-12527600D02*
X20898800Y-12567600D01*
X20898800Y-12527600D02*
X20858800Y-12567600D01*
X20858800Y-13137200D02*
X20898800Y-13177200D01*
X20898800Y-13137200D02*
X20858800Y-13177200D01*
X20884200Y-6761800D02*
X20924200Y-6801800D01*
X20924200Y-6761800D02*
X20884200Y-6801800D01*
X20909600Y-7955600D02*
X20949600Y-7995600D01*
X20949600Y-7955600D02*
X20909600Y-7995600D01*
X20960400Y-10343200D02*
X21000400Y-10383200D01*
X21000400Y-10343200D02*
X20960400Y-10383200D01*
X21366800Y-7549200D02*
X21406800Y-7589200D01*
X21406800Y-7549200D02*
X21366800Y-7589200D01*
X21366800Y-8158800D02*
X21406800Y-8198800D01*
X21406800Y-8158800D02*
X21366800Y-8198800D01*
X21443000Y-9606600D02*
X21483000Y-9646600D01*
X21483000Y-9606600D02*
X21443000Y-9646600D01*
X21466400Y-9811800D02*
X21506400Y-9851800D01*
X21506400Y-9811800D02*
X21466400Y-9851800D01*
X21468400Y-10343200D02*
X21508400Y-10383200D01*
X21508400Y-10343200D02*
X21468400Y-10383200D01*
X21472000Y-10161800D02*
X21512000Y-10201800D01*
X21512000Y-10161800D02*
X21472000Y-10201800D01*
X21570000Y-12527600D02*
X21610000Y-12567600D01*
X21610000Y-12527600D02*
X21570000Y-12567600D01*
X21577675Y-9233275D02*
X21617675Y-9273275D01*
X21617675Y-9233275D02*
X21577675Y-9273275D01*
X21580050Y-6670250D02*
X21620050Y-6710250D01*
X21620050Y-6670250D02*
X21580050Y-6710250D01*
X21595400Y-8362000D02*
X21635400Y-8402000D01*
X21635400Y-8362000D02*
X21595400Y-8402000D01*
X21682640Y-9341560D02*
X21722640Y-9381560D01*
X21722640Y-9341560D02*
X21682640Y-9381560D01*
X21697000Y-10597200D02*
X21737000Y-10637200D01*
X21737000Y-10597200D02*
X21697000Y-10637200D01*
X21798600Y-6497750D02*
X21838600Y-6537750D01*
X21838600Y-6497750D02*
X21798600Y-6537750D01*
X21854425Y-9433825D02*
X21894425Y-9473825D01*
X21894425Y-9433825D02*
X21854425Y-9473825D01*
X21902850Y-8491650D02*
X21942850Y-8531650D01*
X21942850Y-8491650D02*
X21902850Y-8531650D01*
X21925600Y-11257600D02*
X21965600Y-11297600D01*
X21965600Y-11257600D02*
X21925600Y-11297600D01*
X21951000Y-10622600D02*
X21991000Y-10662600D01*
X21991000Y-10622600D02*
X21951000Y-10662600D01*
X21976400Y-5593400D02*
X22016400Y-5633400D01*
X22016400Y-5593400D02*
X21976400Y-5633400D01*
X21976400Y-9073200D02*
X22016400Y-9113200D01*
X22016400Y-9073200D02*
X21976400Y-9113200D01*
X22052600Y-10724200D02*
X22092600Y-10764200D01*
X22092600Y-10724200D02*
X22052600Y-10764200D01*
X22078000Y-4806000D02*
X22118000Y-4846000D01*
X22118000Y-4806000D02*
X22078000Y-4846000D01*
X22078000Y-7904800D02*
X22118000Y-7944800D01*
X22118000Y-7904800D02*
X22078000Y-7944800D01*
X22078000Y-8209600D02*
X22118000Y-8249600D01*
X22118000Y-8209600D02*
X22078000Y-8249600D01*
X22078000Y-10851200D02*
X22118000Y-10891200D01*
X22118000Y-10851200D02*
X22078000Y-10891200D01*
X22230400Y-10470200D02*
X22270400Y-10510200D01*
X22270400Y-10470200D02*
X22230400Y-10510200D01*
X22230400Y-10952800D02*
X22270400Y-10992800D01*
X22270400Y-10952800D02*
X22230400Y-10992800D01*
X22281200Y-10038400D02*
X22321200Y-10078400D01*
X22321200Y-10038400D02*
X22281200Y-10078400D01*
X22281200Y-11257600D02*
X22321200Y-11297600D01*
X22321200Y-11257600D02*
X22281200Y-11297600D01*
X22332000Y-12527600D02*
X22372000Y-12567600D01*
X22372000Y-12527600D02*
X22332000Y-12567600D01*
X22332000Y-13137200D02*
X22372000Y-13177200D01*
X22372000Y-13137200D02*
X22332000Y-13177200D01*
X22370100Y-6063300D02*
X22410100Y-6103300D01*
X22410100Y-6063300D02*
X22370100Y-6103300D01*
X22382800Y-9733600D02*
X22422800Y-9773600D01*
X22422800Y-9733600D02*
X22382800Y-9773600D01*
X22433600Y-8209600D02*
X22473600Y-8249600D01*
X22473600Y-8209600D02*
X22433600Y-8249600D01*
X22586000Y-6838000D02*
X22626000Y-6878000D01*
X22626000Y-6838000D02*
X22586000Y-6878000D01*
X22586000Y-11257600D02*
X22626000Y-11297600D01*
X22626000Y-11257600D02*
X22586000Y-11297600D01*
X22593525Y-9766525D02*
X22633525Y-9806525D01*
X22633525Y-9766525D02*
X22593525Y-9806525D01*
X22618000Y-12394000D02*
X22658000Y-12434000D01*
X22658000Y-12394000D02*
X22618000Y-12434000D01*
X22636800Y-11918000D02*
X22676800Y-11958000D01*
X22676800Y-11918000D02*
X22636800Y-11958000D01*
X22738400Y-10800400D02*
X22778400Y-10840400D01*
X22778400Y-10800400D02*
X22738400Y-10840400D01*
X22789200Y-9339900D02*
X22829200Y-9379900D01*
X22829200Y-9339900D02*
X22789200Y-9379900D01*
X22814600Y-10394000D02*
X22854600Y-10434000D01*
X22854600Y-10394000D02*
X22814600Y-10434000D01*
X22883275Y-11935875D02*
X22923275Y-11975875D01*
X22923275Y-11935875D02*
X22883275Y-11975875D01*
X22967000Y-8412800D02*
X23007000Y-8452800D01*
X23007000Y-8412800D02*
X22967000Y-8452800D01*
X22967000Y-9733600D02*
X23007000Y-9773600D01*
X23007000Y-9733600D02*
X22967000Y-9773600D01*
X23068600Y-8997000D02*
X23108600Y-9037000D01*
X23108600Y-8997000D02*
X23068600Y-9037000D01*
X23094000Y-6330000D02*
X23134000Y-6370000D01*
X23134000Y-6330000D02*
X23094000Y-6370000D01*
X23094000Y-6838000D02*
X23134000Y-6878000D01*
X23134000Y-6838000D02*
X23094000Y-6878000D01*
X23119400Y-10749600D02*
X23159400Y-10789600D01*
X23159400Y-10749600D02*
X23119400Y-10789600D01*
X23373400Y-9632000D02*
X23413400Y-9672000D01*
X23413400Y-9632000D02*
X23373400Y-9672000D01*
X23424200Y-10038400D02*
X23464200Y-10078400D01*
X23464200Y-10038400D02*
X23424200Y-10078400D01*
X23525800Y-8362000D02*
X23565800Y-8402000D01*
X23565800Y-8362000D02*
X23525800Y-8402000D01*
X23525800Y-8666800D02*
X23565800Y-8706800D01*
X23565800Y-8666800D02*
X23525800Y-8706800D01*
X23525800Y-8971600D02*
X23565800Y-9011600D01*
X23565800Y-8971600D02*
X23525800Y-9011600D01*
X23551200Y-9682800D02*
X23591200Y-9722800D01*
X23591200Y-9682800D02*
X23551200Y-9722800D01*
X23551200Y-10368600D02*
X23591200Y-10408600D01*
X23591200Y-10368600D02*
X23551200Y-10408600D01*
X23551200Y-10749600D02*
X23591200Y-10789600D01*
X23591200Y-10749600D02*
X23551200Y-10789600D01*
X23551200Y-11105200D02*
X23591200Y-11145200D01*
X23591200Y-11105200D02*
X23551200Y-11145200D01*
X23551200Y-11511600D02*
X23591200Y-11551600D01*
X23591200Y-11511600D02*
X23551200Y-11551600D01*
X23602000Y-5822000D02*
X23642000Y-5862000D01*
X23642000Y-5822000D02*
X23602000Y-5862000D01*
X23678200Y-10521000D02*
X23718200Y-10561000D01*
X23718200Y-10521000D02*
X23678200Y-10561000D01*
X23703600Y-10089200D02*
X23743600Y-10129200D01*
X23743600Y-10089200D02*
X23703600Y-10129200D01*
X23760199Y-11848701D02*
X23800199Y-11888701D01*
X23800199Y-11848701D02*
X23760199Y-11888701D01*
X8671600Y-12976150D02*
G75*
G03*
X8671600Y-12976150I-30000J0D01*
G01*
X8661600Y-13011150D02*
X8661600Y-12941150D01*
X8621600Y-13011150D02*
X8621600Y-12941150D01*
X8661600Y-12941150D02*
G75*
G03*
X8621600Y-12941150I-20000J0D01*
G01*
X8621600Y-13011150D02*
G75*
G03*
X8661600Y-13011150I20000J0D01*
G01*
X9371600Y-12976150D02*
G75*
G03*
X9371600Y-12976150I-30000J0D01*
G01*
X9321600Y-12941150D02*
X9321600Y-13011150D01*
X9361600Y-12941150D02*
X9361600Y-13011150D01*
X9321600Y-13011150D02*
G75*
G03*
X9361600Y-13011150I20000J0D01*
G01*
X9361600Y-12941150D02*
G75*
G03*
X9321600Y-12941150I-20000J0D01*
G01*
X8763000Y-4539500D02*
X8763000Y-4604500D01*
X8730500Y-4572000D02*
X8795500Y-4572000D01*
X8890000Y-4539500D02*
X8890000Y-4604500D01*
X8857500Y-4572000D02*
X8922500Y-4572000D01*
X9017000Y-4539500D02*
X9017000Y-4604500D01*
X8984500Y-4572000D02*
X9049500Y-4572000D01*
X9144000Y-4539500D02*
X9144000Y-4604500D01*
X9111500Y-4572000D02*
X9176500Y-4572000D01*
X8001000Y-4539500D02*
X8001000Y-4604500D01*
X7968500Y-4572000D02*
X8033500Y-4572000D01*
X8128000Y-4539500D02*
X8128000Y-4604500D01*
X8095500Y-4572000D02*
X8160500Y-4572000D01*
X8255000Y-4539500D02*
X8255000Y-4604500D01*
X8222500Y-4572000D02*
X8287500Y-4572000D01*
X8382000Y-4539500D02*
X8382000Y-4604500D01*
X8349500Y-4572000D02*
X8414500Y-4572000D01*
X11049000Y-4539500D02*
X11049000Y-4604500D01*
X11016500Y-4572000D02*
X11081500Y-4572000D01*
X11176000Y-4539500D02*
X11176000Y-4604500D01*
X11143500Y-4572000D02*
X11208500Y-4572000D01*
X11303000Y-4539500D02*
X11303000Y-4604500D01*
X11270500Y-4572000D02*
X11335500Y-4572000D01*
X11430000Y-4539500D02*
X11430000Y-4604500D01*
X11397500Y-4572000D02*
X11462500Y-4572000D01*
X7239000Y-4539500D02*
X7239000Y-4604500D01*
X7206500Y-4572000D02*
X7271500Y-4572000D01*
X7366000Y-4539500D02*
X7366000Y-4604500D01*
X7333500Y-4572000D02*
X7398500Y-4572000D01*
X7493000Y-4539500D02*
X7493000Y-4604500D01*
X7460500Y-4572000D02*
X7525500Y-4572000D01*
X7620000Y-4539500D02*
X7620000Y-4604500D01*
X7587500Y-4572000D02*
X7652500Y-4572000D01*
X9525000Y-4539500D02*
X9525000Y-4604500D01*
X9492500Y-4572000D02*
X9557500Y-4572000D01*
X9652000Y-4539500D02*
X9652000Y-4604500D01*
X9619500Y-4572000D02*
X9684500Y-4572000D01*
X9779000Y-4539500D02*
X9779000Y-4604500D01*
X9746500Y-4572000D02*
X9811500Y-4572000D01*
X9906000Y-4539500D02*
X9906000Y-4604500D01*
X9873500Y-4572000D02*
X9938500Y-4572000D01*
X10287000Y-4539500D02*
X10287000Y-4604500D01*
X10254500Y-4572000D02*
X10319500Y-4572000D01*
X10414000Y-4539500D02*
X10414000Y-4604500D01*
X10381500Y-4572000D02*
X10446500Y-4572000D01*
X10541000Y-4539500D02*
X10541000Y-4604500D01*
X10508500Y-4572000D02*
X10573500Y-4572000D01*
X10668000Y-4539500D02*
X10668000Y-4604500D01*
X10635500Y-4572000D02*
X10700500Y-4572000D01*
X19967285Y-12220284D02*
X19967285Y-12163715D01*
X19910716Y-12163715D01*
X19910716Y-12220284D01*
X19967285Y-12220284D01*
X20221285Y-12220284D02*
X20221285Y-12163715D01*
X20164716Y-12163715D01*
X20164716Y-12220284D01*
X20221285Y-12220284D01*
X20475285Y-12220284D02*
X20475285Y-12163715D01*
X20418716Y-12163715D01*
X20418716Y-12220284D01*
X20475285Y-12220284D01*
X22456484Y-11026485D02*
X22456484Y-10969916D01*
X22399915Y-10969916D01*
X22399915Y-11026485D01*
X22456484Y-11026485D01*
X22944484Y-11026485D02*
X22944484Y-10969916D01*
X22887915Y-10969916D01*
X22887915Y-11026485D01*
X22944484Y-11026485D01*
X8430285Y-9324685D02*
X8430285Y-9268116D01*
X8373715Y-9268116D01*
X8373715Y-9324685D01*
X8430285Y-9324685D01*
X8918285Y-9324685D02*
X8918285Y-9268116D01*
X8861716Y-9268116D01*
X8861716Y-9324685D01*
X8918285Y-9324685D01*
X8741600Y-12748650D02*
X8784100Y-12706150D01*
X8741600Y-12663650D01*
X8699100Y-12706150D01*
X8741600Y-12748650D01*
X9241600Y-12748650D02*
X9284100Y-12706150D01*
X9241600Y-12663650D01*
X9199100Y-12706150D01*
X9241600Y-12748650D01*
X21692400Y-11938800D02*
X21792400Y-12038800D01*
X21792400Y-11938800D02*
X21692400Y-12038800D01*
X21792400Y-11988800D02*
G75*
G03*
X21792400Y-11988800I-50000J0D01*
G01*
X10618000Y-10110000D02*
X10718000Y-10210000D01*
X10718000Y-10110000D02*
X10618000Y-10210000D01*
X10718000Y-10160000D02*
G75*
G03*
X10718000Y-10160000I-50000J0D01*
G01*
X10618000Y-10364000D02*
X10718000Y-10464000D01*
X10718000Y-10364000D02*
X10618000Y-10464000D01*
X10718000Y-10414000D02*
G75*
G03*
X10718000Y-10414000I-50000J0D01*
G01*
X10618000Y-10618000D02*
X10718000Y-10718000D01*
X10718000Y-10618000D02*
X10618000Y-10718000D01*
X10718000Y-10668000D02*
G75*
G03*
X10718000Y-10668000I-50000J0D01*
G01*
X10618000Y-10872000D02*
X10718000Y-10972000D01*
X10718000Y-10872000D02*
X10618000Y-10972000D01*
X10718000Y-10922000D02*
G75*
G03*
X10718000Y-10922000I-50000J0D01*
G01*
X10618000Y-11126000D02*
X10718000Y-11226000D01*
X10718000Y-11126000D02*
X10618000Y-11226000D01*
X10718000Y-11176000D02*
G75*
G03*
X10718000Y-11176000I-50000J0D01*
G01*
X10618000Y-11380000D02*
X10718000Y-11480000D01*
X10718000Y-11380000D02*
X10618000Y-11480000D01*
X10718000Y-11430000D02*
G75*
G03*
X10718000Y-11430000I-50000J0D01*
G01*
X10618000Y-11634000D02*
X10718000Y-11734000D01*
X10718000Y-11634000D02*
X10618000Y-11734000D01*
X10718000Y-11684000D02*
G75*
G03*
X10718000Y-11684000I-50000J0D01*
G01*
X10872000Y-10110000D02*
X10972000Y-10210000D01*
X10972000Y-10110000D02*
X10872000Y-10210000D01*
X10972000Y-10160000D02*
G75*
G03*
X10972000Y-10160000I-50000J0D01*
G01*
X10872000Y-10364000D02*
X10972000Y-10464000D01*
X10972000Y-10364000D02*
X10872000Y-10464000D01*
X10972000Y-10414000D02*
G75*
G03*
X10972000Y-10414000I-50000J0D01*
G01*
X10872000Y-10618000D02*
X10972000Y-10718000D01*
X10972000Y-10618000D02*
X10872000Y-10718000D01*
X10972000Y-10668000D02*
G75*
G03*
X10972000Y-10668000I-50000J0D01*
G01*
X10872000Y-10872000D02*
X10972000Y-10972000D01*
X10972000Y-10872000D02*
X10872000Y-10972000D01*
X10972000Y-10922000D02*
G75*
G03*
X10972000Y-10922000I-50000J0D01*
G01*
X10872000Y-11126000D02*
X10972000Y-11226000D01*
X10972000Y-11126000D02*
X10872000Y-11226000D01*
X10972000Y-11176000D02*
G75*
G03*
X10972000Y-11176000I-50000J0D01*
G01*
X10872000Y-11380000D02*
X10972000Y-11480000D01*
X10972000Y-11380000D02*
X10872000Y-11480000D01*
X10972000Y-11430000D02*
G75*
G03*
X10972000Y-11430000I-50000J0D01*
G01*
X10872000Y-11634000D02*
X10972000Y-11734000D01*
X10972000Y-11634000D02*
X10872000Y-11734000D01*
X10972000Y-11684000D02*
G75*
G03*
X10972000Y-11684000I-50000J0D01*
G01*
X18492000Y-8941600D02*
X18592000Y-9041600D01*
X18592000Y-8941600D02*
X18492000Y-9041600D01*
X18592000Y-8991600D02*
G75*
G03*
X18592000Y-8991600I-50000J0D01*
G01*
X22327400Y-8636800D02*
X22427400Y-8736800D01*
X22427400Y-8636800D02*
X22327400Y-8736800D01*
X22427400Y-8686800D02*
G75*
G03*
X22427400Y-8686800I-50000J0D01*
G01*
X22327400Y-8890800D02*
X22427400Y-8990800D01*
X22427400Y-8890800D02*
X22327400Y-8990800D01*
X22427400Y-8940800D02*
G75*
G03*
X22427400Y-8940800I-50000J0D01*
G01*
X21032000Y-11583200D02*
X21132000Y-11683200D01*
X21132000Y-11583200D02*
X21032000Y-11683200D01*
X21132000Y-11633200D02*
G75*
G03*
X21132000Y-11633200I-50000J0D01*
G01*
X21032000Y-11938800D02*
X21132000Y-12038800D01*
X21132000Y-11938800D02*
X21032000Y-12038800D01*
X21132000Y-11988800D02*
G75*
G03*
X21132000Y-11988800I-50000J0D01*
G01*
X18669800Y-9221000D02*
X18769800Y-9321000D01*
X18769800Y-9221000D02*
X18669800Y-9321000D01*
X18769800Y-9271000D02*
G75*
G03*
X18769800Y-9271000I-50000J0D01*
G01*
X21362200Y-11938800D02*
X21462200Y-12038800D01*
X21462200Y-11938800D02*
X21362200Y-12038800D01*
X21462200Y-11988800D02*
G75*
G03*
X21462200Y-11988800I-50000J0D01*
G01*
X16714000Y-12650000D02*
X16814000Y-12750000D01*
X16814000Y-12650000D02*
X16714000Y-12750000D01*
X16814000Y-12700000D02*
G75*
G03*
X16814000Y-12700000I-50000J0D01*
G01*
X16968000Y-12650000D02*
X17068000Y-12750000D01*
X17068000Y-12650000D02*
X16968000Y-12750000D01*
X17068000Y-12700000D02*
G75*
G03*
X17068000Y-12700000I-50000J0D01*
G01*
X17222000Y-12650000D02*
X17322000Y-12750000D01*
X17322000Y-12650000D02*
X17222000Y-12750000D01*
X17322000Y-12700000D02*
G75*
G03*
X17322000Y-12700000I-50000J0D01*
G01*
X21362200Y-11583200D02*
X21462200Y-11683200D01*
X21462200Y-11583200D02*
X21362200Y-11683200D01*
X21462200Y-11633200D02*
G75*
G03*
X21462200Y-11633200I-50000J0D01*
G01*
X22022600Y-11938800D02*
X22122600Y-12038800D01*
X22122600Y-11938800D02*
X22022600Y-12038800D01*
X22122600Y-11988800D02*
G75*
G03*
X22122600Y-11988800I-50000J0D01*
G01*
X18949200Y-9043200D02*
X19049200Y-9143200D01*
X19049200Y-9043200D02*
X18949200Y-9143200D01*
X19049200Y-9093200D02*
G75*
G03*
X19049200Y-9093200I-50000J0D01*
G01*
X9729000Y-11888000D02*
X9829000Y-11988000D01*
X9829000Y-11888000D02*
X9729000Y-11988000D01*
X9829000Y-11938000D02*
G75*
G03*
X9829000Y-11938000I-50000J0D01*
G01*
X9729000Y-12142000D02*
X9829000Y-12242000D01*
X9829000Y-12142000D02*
X9729000Y-12242000D01*
X9829000Y-12192000D02*
G75*
G03*
X9829000Y-12192000I-50000J0D01*
G01*
X9729000Y-12396000D02*
X9829000Y-12496000D01*
X9829000Y-12396000D02*
X9729000Y-12496000D01*
X9829000Y-12446000D02*
G75*
G03*
X9829000Y-12446000I-50000J0D01*
G01*
X9729000Y-12650000D02*
X9829000Y-12750000D01*
X9829000Y-12650000D02*
X9729000Y-12750000D01*
X9829000Y-12700000D02*
G75*
G03*
X9829000Y-12700000I-50000J0D01*
G01*
X9729000Y-12904000D02*
X9829000Y-13004000D01*
X9829000Y-12904000D02*
X9729000Y-13004000D01*
X9829000Y-12954000D02*
G75*
G03*
X9829000Y-12954000I-50000J0D01*
G01*
X19660400Y-9678200D02*
X19760400Y-9778200D01*
X19760400Y-9678200D02*
X19660400Y-9778200D01*
X19760400Y-9728200D02*
G75*
G03*
X19760400Y-9728200I-50000J0D01*
G01*
X7570000Y-12396000D02*
X7670000Y-12496000D01*
X7670000Y-12396000D02*
X7570000Y-12496000D01*
X7670000Y-12446000D02*
G75*
G03*
X7670000Y-12446000I-50000J0D01*
G01*
X7824000Y-12396000D02*
X7924000Y-12496000D01*
X7924000Y-12396000D02*
X7824000Y-12496000D01*
X7924000Y-12446000D02*
G75*
G03*
X7924000Y-12446000I-50000J0D01*
G01*
X8078000Y-12396000D02*
X8178000Y-12496000D01*
X8178000Y-12396000D02*
X8078000Y-12496000D01*
X8178000Y-12446000D02*
G75*
G03*
X8178000Y-12446000I-50000J0D01*
G01*
X19990600Y-9678200D02*
X20090600Y-9778200D01*
X20090600Y-9678200D02*
X19990600Y-9778200D01*
X20090600Y-9728200D02*
G75*
G03*
X20090600Y-9728200I-50000J0D01*
G01*
X6300000Y-12904000D02*
X6400000Y-13004000D01*
X6400000Y-12904000D02*
X6300000Y-13004000D01*
X6400000Y-12954000D02*
G75*
G03*
X6400000Y-12954000I-50000J0D01*
G01*
X6554000Y-12904000D02*
X6654000Y-13004000D01*
X6654000Y-12904000D02*
X6554000Y-13004000D01*
X6654000Y-12954000D02*
G75*
G03*
X6654000Y-12954000I-50000J0D01*
G01*
X6808000Y-12904000D02*
X6908000Y-13004000D01*
X6908000Y-12904000D02*
X6808000Y-13004000D01*
X6908000Y-12954000D02*
G75*
G03*
X6908000Y-12954000I-50000J0D01*
G01*
X7062000Y-12904000D02*
X7162000Y-13004000D01*
X7162000Y-12904000D02*
X7062000Y-13004000D01*
X7162000Y-12954000D02*
G75*
G03*
X7162000Y-12954000I-50000J0D01*
G01*
X18974600Y-9398800D02*
X19074600Y-9498800D01*
X19074600Y-9398800D02*
X18974600Y-9498800D01*
X19074600Y-9448800D02*
G75*
G03*
X19074600Y-9448800I-50000J0D01*
G01*
X18238000Y-12650000D02*
X18338000Y-12750000D01*
X18338000Y-12650000D02*
X18238000Y-12750000D01*
X18338000Y-12700000D02*
G75*
G03*
X18338000Y-12700000I-50000J0D01*
G01*
X18492000Y-12650000D02*
X18592000Y-12750000D01*
X18592000Y-12650000D02*
X18492000Y-12750000D01*
X18592000Y-12700000D02*
G75*
G03*
X18592000Y-12700000I-50000J0D01*
G01*
X18746000Y-12650000D02*
X18846000Y-12750000D01*
X18846000Y-12650000D02*
X18746000Y-12750000D01*
X18846000Y-12700000D02*
G75*
G03*
X18846000Y-12700000I-50000J0D01*
G01*
X21692400Y-11583200D02*
X21792400Y-11683200D01*
X21792400Y-11583200D02*
X21692400Y-11683200D01*
X21792400Y-11633200D02*
G75*
G03*
X21792400Y-11633200I-50000J0D01*
G01*
X22429000Y-7620800D02*
X22529000Y-7720800D01*
X22529000Y-7620800D02*
X22429000Y-7720800D01*
X22529000Y-7670800D02*
G75*
G03*
X22529000Y-7670800I-50000J0D01*
G01*
X22429000Y-7874800D02*
X22529000Y-7974800D01*
X22529000Y-7874800D02*
X22429000Y-7974800D01*
X22529000Y-7924800D02*
G75*
G03*
X22529000Y-7924800I-50000J0D01*
G01*
X22683000Y-7620800D02*
X22783000Y-7720800D01*
X22783000Y-7620800D02*
X22683000Y-7720800D01*
X22783000Y-7670800D02*
G75*
G03*
X22783000Y-7670800I-50000J0D01*
G01*
X22683000Y-7874800D02*
X22783000Y-7974800D01*
X22783000Y-7874800D02*
X22683000Y-7974800D01*
X22783000Y-7924800D02*
G75*
G03*
X22783000Y-7924800I-50000J0D01*
G01*
X22937000Y-7620800D02*
X23037000Y-7720800D01*
X23037000Y-7620800D02*
X22937000Y-7720800D01*
X23037000Y-7670800D02*
G75*
G03*
X23037000Y-7670800I-50000J0D01*
G01*
X22937000Y-7874800D02*
X23037000Y-7974800D01*
X23037000Y-7874800D02*
X22937000Y-7974800D01*
X23037000Y-7924800D02*
G75*
G03*
X23037000Y-7924800I-50000J0D01*
G01*
X23191000Y-7620800D02*
X23291000Y-7720800D01*
X23291000Y-7620800D02*
X23191000Y-7720800D01*
X23291000Y-7670800D02*
G75*
G03*
X23291000Y-7670800I-50000J0D01*
G01*
X23191000Y-7874800D02*
X23291000Y-7974800D01*
X23291000Y-7874800D02*
X23191000Y-7974800D01*
X23291000Y-7924800D02*
G75*
G03*
X23291000Y-7924800I-50000J0D01*
G01*
X23445000Y-7620800D02*
X23545000Y-7720800D01*
X23545000Y-7620800D02*
X23445000Y-7720800D01*
X23545000Y-7670800D02*
G75*
G03*
X23545000Y-7670800I-50000J0D01*
G01*
X23445000Y-7874800D02*
X23545000Y-7974800D01*
X23545000Y-7874800D02*
X23445000Y-7974800D01*
X23545000Y-7924800D02*
G75*
G03*
X23545000Y-7924800I-50000J0D01*
G01*
X7570000Y-12904000D02*
X7670000Y-13004000D01*
X7670000Y-12904000D02*
X7570000Y-13004000D01*
X7670000Y-12954000D02*
G75*
G03*
X7670000Y-12954000I-50000J0D01*
G01*
X7824000Y-12904000D02*
X7924000Y-13004000D01*
X7924000Y-12904000D02*
X7824000Y-13004000D01*
X7924000Y-12954000D02*
G75*
G03*
X7924000Y-12954000I-50000J0D01*
G01*
X8078000Y-12904000D02*
X8178000Y-13004000D01*
X8178000Y-12904000D02*
X8078000Y-13004000D01*
X8178000Y-12954000D02*
G75*
G03*
X8178000Y-12954000I-50000J0D01*
G01*
X20968500Y-8459000D02*
X21068500Y-8559000D01*
X21068500Y-8459000D02*
X20968500Y-8559000D01*
X21068500Y-8509000D02*
G75*
G03*
X21068500Y-8509000I-50000J0D01*
G01*
X6300000Y-12396000D02*
X6400000Y-12496000D01*
X6400000Y-12396000D02*
X6300000Y-12496000D01*
X6400000Y-12446000D02*
G75*
G03*
X6400000Y-12446000I-50000J0D01*
G01*
X6554000Y-12396000D02*
X6654000Y-12496000D01*
X6654000Y-12396000D02*
X6554000Y-12496000D01*
X6654000Y-12446000D02*
G75*
G03*
X6654000Y-12446000I-50000J0D01*
G01*
X6808000Y-12396000D02*
X6908000Y-12496000D01*
X6908000Y-12396000D02*
X6808000Y-12496000D01*
X6908000Y-12446000D02*
G75*
G03*
X6908000Y-12446000I-50000J0D01*
G01*
X7062000Y-12396000D02*
X7162000Y-12496000D01*
X7162000Y-12396000D02*
X7062000Y-12496000D01*
X7162000Y-12446000D02*
G75*
G03*
X7162000Y-12446000I-50000J0D01*
G01*
X3760000Y-5766600D02*
X3860000Y-5866600D01*
X3860000Y-5766600D02*
X3760000Y-5866600D01*
X3860000Y-5816600D02*
G75*
G03*
X3860000Y-5816600I-50000J0D01*
G01*
X4760000Y-5766600D02*
X4860000Y-5866600D01*
X4860000Y-5766600D02*
X4760000Y-5866600D01*
X4860000Y-5816600D02*
G75*
G03*
X4860000Y-5816600I-50000J0D01*
G01*
X19660400Y-9348000D02*
X19760400Y-9448000D01*
X19760400Y-9348000D02*
X19660400Y-9448000D01*
X19760400Y-9398000D02*
G75*
G03*
X19760400Y-9398000I-50000J0D01*
G01*
X22022600Y-11583200D02*
X22122600Y-11683200D01*
X22122600Y-11583200D02*
X22022600Y-11683200D01*
X22122600Y-11633200D02*
G75*
G03*
X22122600Y-11633200I-50000J0D01*
G01*
X10364000Y-12904000D02*
X10464000Y-13004000D01*
X10464000Y-12904000D02*
X10364000Y-13004000D01*
X10464000Y-12954000D02*
G75*
G03*
X10464000Y-12954000I-50000J0D01*
G01*
X10618000Y-12904000D02*
X10718000Y-13004000D01*
X10718000Y-12904000D02*
X10618000Y-13004000D01*
X10718000Y-12954000D02*
G75*
G03*
X10718000Y-12954000I-50000J0D01*
G01*
X10872000Y-12904000D02*
X10972000Y-13004000D01*
X10972000Y-12904000D02*
X10872000Y-13004000D01*
X10972000Y-12954000D02*
G75*
G03*
X10972000Y-12954000I-50000J0D01*
G01*
X11126000Y-12904000D02*
X11226000Y-13004000D01*
X11226000Y-12904000D02*
X11126000Y-13004000D01*
X11226000Y-12954000D02*
G75*
G03*
X11226000Y-12954000I-50000J0D01*
G01*
X19965200Y-9221000D02*
X20065200Y-9321000D01*
X20065200Y-9221000D02*
X19965200Y-9321000D01*
X20065200Y-9271000D02*
G75*
G03*
X20065200Y-9271000I-50000J0D01*
G01*
X4009000Y-5025000D02*
X4119000Y-5135000D01*
X4119000Y-5025000D02*
X4009000Y-5135000D01*
X4064000Y-5025000D02*
X4064000Y-5135000D01*
X4009000Y-5080000D02*
X4119000Y-5080000D01*
X4263000Y-5025000D02*
X4373000Y-5135000D01*
X4373000Y-5025000D02*
X4263000Y-5135000D01*
X4318000Y-5025000D02*
X4318000Y-5135000D01*
X4263000Y-5080000D02*
X4373000Y-5080000D01*
X4517000Y-5025000D02*
X4627000Y-5135000D01*
X4627000Y-5025000D02*
X4517000Y-5135000D01*
X4572000Y-5025000D02*
X4572000Y-5135000D01*
X4517000Y-5080000D02*
X4627000Y-5080000D01*
X4004000Y-6290000D02*
X4124000Y-6410000D01*
X4124000Y-6290000D02*
X4004000Y-6410000D01*
X4106427Y-6392427D02*
X4106427Y-6307573D01*
X4021573Y-6307573D01*
X4021573Y-6392427D01*
X4106427Y-6392427D01*
X5528000Y-6290000D02*
X5648000Y-6410000D01*
X5648000Y-6290000D02*
X5528000Y-6410000D01*
X5630427Y-6392427D02*
X5630427Y-6307573D01*
X5545573Y-6307573D01*
X5545573Y-6392427D01*
X5630427Y-6392427D01*
X4004000Y-6798000D02*
X4124000Y-6918000D01*
X4124000Y-6798000D02*
X4004000Y-6918000D01*
X4106427Y-6900427D02*
X4106427Y-6815573D01*
X4021573Y-6815573D01*
X4021573Y-6900427D01*
X4106427Y-6900427D01*
X5528000Y-6798000D02*
X5648000Y-6918000D01*
X5648000Y-6798000D02*
X5528000Y-6918000D01*
X5630427Y-6900427D02*
X5630427Y-6815573D01*
X5545573Y-6815573D01*
X5545573Y-6900427D01*
X5630427Y-6900427D01*
X19879000Y-12392000D02*
X19999000Y-12512000D01*
X19999000Y-12392000D02*
X19879000Y-12512000D01*
X19981427Y-12494427D02*
X19981427Y-12409573D01*
X19896573Y-12409573D01*
X19896573Y-12494427D01*
X19981427Y-12494427D01*
X20387000Y-12392000D02*
X20507000Y-12512000D01*
X20507000Y-12392000D02*
X20387000Y-12512000D01*
X20489427Y-12494427D02*
X20489427Y-12409573D01*
X20404573Y-12409573D01*
X20404573Y-12494427D01*
X20489427Y-12494427D01*
X3999000Y-8825000D02*
X4129000Y-8955000D01*
X4129000Y-8825000D02*
X3999000Y-8955000D01*
X4064000Y-8955000D02*
X4129000Y-8890000D01*
X4064000Y-8825000D01*
X3999000Y-8890000D01*
X4064000Y-8955000D01*
X6249000Y-8825000D02*
X6379000Y-8955000D01*
X6379000Y-8825000D02*
X6249000Y-8955000D01*
X6314000Y-8955000D02*
X6379000Y-8890000D01*
X6314000Y-8825000D01*
X6249000Y-8890000D01*
X6314000Y-8955000D01*
X3999000Y-7555000D02*
X4129000Y-7685000D01*
X4129000Y-7555000D02*
X3999000Y-7685000D01*
X4064000Y-7685000D02*
X4129000Y-7620000D01*
X4064000Y-7555000D01*
X3999000Y-7620000D01*
X4064000Y-7685000D01*
X6249000Y-7555000D02*
X6379000Y-7685000D01*
X6379000Y-7555000D02*
X6249000Y-7685000D01*
X6314000Y-7685000D02*
X6379000Y-7620000D01*
X6314000Y-7555000D01*
X6249000Y-7620000D01*
X6314000Y-7685000D01*
X2540000Y-12879000D02*
X2540000Y-13029000D01*
X2465000Y-12954000D02*
X2615000Y-12954000D01*
X2615000Y-12954000D02*
G75*
G03*
X2615000Y-12954000I-75000J0D01*
G01*
X3048000Y-12879000D02*
X3048000Y-13029000D01*
X2973000Y-12954000D02*
X3123000Y-12954000D01*
X3123000Y-12954000D02*
G75*
G03*
X3123000Y-12954000I-75000J0D01*
G01*
X2540000Y-5005000D02*
X2540000Y-5155000D01*
X2465000Y-5080000D02*
X2615000Y-5080000D01*
X2615000Y-5080000D02*
G75*
G03*
X2615000Y-5080000I-75000J0D01*
G01*
X3048000Y-5005000D02*
X3048000Y-5155000D01*
X2973000Y-5080000D02*
X3123000Y-5080000D01*
X3123000Y-5080000D02*
G75*
G03*
X3123000Y-5080000I-75000J0D01*
G01*
X2540000Y-12117000D02*
X2540000Y-12267000D01*
X2465000Y-12192000D02*
X2615000Y-12192000D01*
X2615000Y-12192000D02*
G75*
G03*
X2615000Y-12192000I-75000J0D01*
G01*
X3048000Y-12117000D02*
X3048000Y-12267000D01*
X2973000Y-12192000D02*
X3123000Y-12192000D01*
X3123000Y-12192000D02*
G75*
G03*
X3123000Y-12192000I-75000J0D01*
G01*
X2540000Y-7291000D02*
X2540000Y-7441000D01*
X2465000Y-7366000D02*
X2615000Y-7366000D01*
X2615000Y-7366000D02*
G75*
G03*
X2615000Y-7366000I-75000J0D01*
G01*
X3048000Y-7291000D02*
X3048000Y-7441000D01*
X2973000Y-7366000D02*
X3123000Y-7366000D01*
X3123000Y-7366000D02*
G75*
G03*
X3123000Y-7366000I-75000J0D01*
G01*
X2540000Y-8053000D02*
X2540000Y-8203000D01*
X2465000Y-8128000D02*
X2615000Y-8128000D01*
X2615000Y-8128000D02*
G75*
G03*
X2615000Y-8128000I-75000J0D01*
G01*
X3048000Y-8053000D02*
X3048000Y-8203000D01*
X2973000Y-8128000D02*
X3123000Y-8128000D01*
X3123000Y-8128000D02*
G75*
G03*
X3123000Y-8128000I-75000J0D01*
G01*
X2540000Y-6529000D02*
X2540000Y-6679000D01*
X2465000Y-6604000D02*
X2615000Y-6604000D01*
X2615000Y-6604000D02*
G75*
G03*
X2615000Y-6604000I-75000J0D01*
G01*
X3048000Y-6529000D02*
X3048000Y-6679000D01*
X2973000Y-6604000D02*
X3123000Y-6604000D01*
X3123000Y-6604000D02*
G75*
G03*
X3123000Y-6604000I-75000J0D01*
G01*
X2540000Y-8815000D02*
X2540000Y-8965000D01*
X2465000Y-8890000D02*
X2615000Y-8890000D01*
X2615000Y-8890000D02*
G75*
G03*
X2615000Y-8890000I-75000J0D01*
G01*
X3048000Y-8815000D02*
X3048000Y-8965000D01*
X2973000Y-8890000D02*
X3123000Y-8890000D01*
X3123000Y-8890000D02*
G75*
G03*
X3123000Y-8890000I-75000J0D01*
G01*
X2540000Y-5767000D02*
X2540000Y-5917000D01*
X2465000Y-5842000D02*
X2615000Y-5842000D01*
X2615000Y-5842000D02*
G75*
G03*
X2615000Y-5842000I-75000J0D01*
G01*
X3048000Y-5767000D02*
X3048000Y-5917000D01*
X2973000Y-5842000D02*
X3123000Y-5842000D01*
X3123000Y-5842000D02*
G75*
G03*
X3123000Y-5842000I-75000J0D01*
G01*
X21290969Y-4765169D02*
X21290969Y-4652031D01*
X21177831Y-4652031D01*
X21177831Y-4765169D01*
X21290969Y-4765169D01*
X21314400Y-4708600D02*
G75*
G03*
X21314400Y-4708600I-80000J0D01*
G01*
X17734969Y-4765169D02*
X17734969Y-4652031D01*
X17621831Y-4652031D01*
X17621831Y-4765169D01*
X17734969Y-4765169D01*
X17758400Y-4708600D02*
G75*
G03*
X17758400Y-4708600I-80000J0D01*
G01*
X15956969Y-4765169D02*
X15956969Y-4652031D01*
X15843831Y-4652031D01*
X15843831Y-4765169D01*
X15956969Y-4765169D01*
X15980400Y-4708600D02*
G75*
G03*
X15980400Y-4708600I-80000J0D01*
G01*
X19512969Y-4765169D02*
X19512969Y-4652031D01*
X19399831Y-4652031D01*
X19399831Y-4765169D01*
X19512969Y-4765169D01*
X19536400Y-4708600D02*
G75*
G03*
X19536400Y-4708600I-80000J0D01*
G01*
X14178969Y-4765169D02*
X14178969Y-4652031D01*
X14065831Y-4652031D01*
X14065831Y-4765169D01*
X14178969Y-4765169D01*
X14202400Y-4708600D02*
G75*
G03*
X14202400Y-4708600I-80000J0D01*
G01*
X23068969Y-4765169D02*
X23068969Y-4652031D01*
X22955831Y-4652031D01*
X22955831Y-4765169D01*
X23068969Y-4765169D01*
X23092400Y-4708600D02*
G75*
G03*
X23092400Y-4708600I-80000J0D01*
G01*
X13112169Y-13127969D02*
X13112169Y-13014831D01*
X12999031Y-13014831D01*
X12999031Y-13127969D01*
X13112169Y-13127969D01*
X13135600Y-13071400D02*
G75*
G03*
X13135600Y-13071400I-80000J0D01*
G01*
X15144169Y-13127969D02*
X15144169Y-13014831D01*
X15031031Y-13014831D01*
X15031031Y-13127969D01*
X15144169Y-13127969D01*
X15167600Y-13071400D02*
G75*
G03*
X15167600Y-13071400I-80000J0D01*
G01*
X19939000Y-12792000D02*
X20039000Y-12692000D01*
X19939000Y-12592000D01*
X19839000Y-12692000D01*
X19939000Y-12792000D01*
X20039000Y-12692000D02*
G75*
G03*
X20039000Y-12692000I-100000J0D01*
G01*
X20457000Y-12802000D02*
X20557000Y-12702000D01*
X20457000Y-12602000D01*
X20357000Y-12702000D01*
X20457000Y-12802000D01*
X20557000Y-12702000D02*
G75*
G03*
X20557000Y-12702000I-100000J0D01*
G01*
X2286000Y-9502000D02*
X2286000Y-9802000D01*
X2136000Y-9652000D02*
X2436000Y-9652000D01*
X2392067Y-9758067D02*
X2392067Y-9545933D01*
X2179933Y-9545933D01*
X2179933Y-9758067D01*
X2392067Y-9758067D01*
X16510000Y-5946000D02*
X16510000Y-6246000D01*
X16360000Y-6096000D02*
X16660000Y-6096000D01*
X16616067Y-6202067D02*
X16616067Y-5989933D01*
X16403933Y-5989933D01*
X16403933Y-6202067D01*
X16616067Y-6202067D01*
X16510000Y-11534000D02*
X16510000Y-11834000D01*
X16360000Y-11684000D02*
X16660000Y-11684000D01*
X16616067Y-11790067D02*
X16616067Y-11577933D01*
X16403933Y-11577933D01*
X16403933Y-11790067D01*
X16616067Y-11790067D01*
X23622000Y-6454000D02*
X23622000Y-6754000D01*
X23472000Y-6604000D02*
X23772000Y-6604000D01*
X23728067Y-6710067D02*
X23728067Y-6497933D01*
X23515933Y-6497933D01*
X23515933Y-6710067D01*
X23728067Y-6710067D01*
X23622000Y-12804000D02*
X23622000Y-13104000D01*
X23472000Y-12954000D02*
X23772000Y-12954000D01*
X23728067Y-13060067D02*
X23728067Y-12847933D01*
X23515933Y-12847933D01*
X23515933Y-13060067D01*
X23728067Y-13060067D01*
D12*
X2061928Y-13955614D02*
X2061928Y-13655614D01*
X2133357Y-13655614D01*
X2176214Y-13669900D01*
X2204786Y-13698471D01*
X2219071Y-13727043D01*
X2233357Y-13784186D01*
X2233357Y-13827043D01*
X2219071Y-13884186D01*
X2204786Y-13912757D01*
X2176214Y-13941329D01*
X2133357Y-13955614D01*
X2061928Y-13955614D01*
X2361928Y-13955614D02*
X2361928Y-13755614D01*
X2361928Y-13812757D02*
X2376214Y-13784186D01*
X2390500Y-13769900D01*
X2419071Y-13755614D01*
X2447643Y-13755614D01*
X2547643Y-13955614D02*
X2547643Y-13755614D01*
X2547643Y-13655614D02*
X2533357Y-13669900D01*
X2547643Y-13684186D01*
X2561928Y-13669900D01*
X2547643Y-13655614D01*
X2547643Y-13684186D01*
X2733357Y-13955614D02*
X2704786Y-13941329D01*
X2690500Y-13912757D01*
X2690500Y-13655614D01*
X2890500Y-13955614D02*
X2861928Y-13941329D01*
X2847643Y-13912757D01*
X2847643Y-13655614D01*
X3233357Y-13955614D02*
X3233357Y-13655614D01*
X3333357Y-13869900D01*
X3433357Y-13655614D01*
X3433357Y-13955614D01*
X3704786Y-13955614D02*
X3704786Y-13798471D01*
X3690500Y-13769900D01*
X3661928Y-13755614D01*
X3604786Y-13755614D01*
X3576214Y-13769900D01*
X3704786Y-13941329D02*
X3676214Y-13955614D01*
X3604786Y-13955614D01*
X3576214Y-13941329D01*
X3561928Y-13912757D01*
X3561928Y-13884186D01*
X3576214Y-13855614D01*
X3604786Y-13841329D01*
X3676214Y-13841329D01*
X3704786Y-13827043D01*
X3847643Y-13755614D02*
X3847643Y-14055614D01*
X3847643Y-13769900D02*
X3876214Y-13755614D01*
X3933357Y-13755614D01*
X3961928Y-13769900D01*
X3976214Y-13784186D01*
X3990500Y-13812757D01*
X3990500Y-13898471D01*
X3976214Y-13927043D01*
X3961928Y-13941329D01*
X3933357Y-13955614D01*
X3876214Y-13955614D01*
X3847643Y-13941329D01*
X4119071Y-13927043D02*
X4133357Y-13941329D01*
X4119071Y-13955614D01*
X4104786Y-13941329D01*
X4119071Y-13927043D01*
X4119071Y-13955614D01*
X4119071Y-13769900D02*
X4133357Y-13784186D01*
X4119071Y-13798471D01*
X4104786Y-13784186D01*
X4119071Y-13769900D01*
X4119071Y-13798471D01*
X1735500Y-14429900D02*
X1775500Y-14469900D01*
X1775500Y-14429900D02*
X1735500Y-14469900D01*
X2119071Y-14285614D02*
X2147643Y-14285614D01*
X2176214Y-14299900D01*
X2190500Y-14314186D01*
X2204786Y-14342757D01*
X2219071Y-14399900D01*
X2219071Y-14471329D01*
X2204786Y-14528471D01*
X2190500Y-14557043D01*
X2176214Y-14571329D01*
X2147643Y-14585614D01*
X2119071Y-14585614D01*
X2090500Y-14571329D01*
X2076214Y-14557043D01*
X2061928Y-14528471D01*
X2047643Y-14471329D01*
X2047643Y-14399900D01*
X2061928Y-14342757D01*
X2076214Y-14314186D01*
X2090500Y-14299900D01*
X2119071Y-14285614D01*
X2347643Y-14557043D02*
X2361928Y-14571329D01*
X2347643Y-14585614D01*
X2333357Y-14571329D01*
X2347643Y-14557043D01*
X2347643Y-14585614D01*
X2619071Y-14385614D02*
X2619071Y-14585614D01*
X2547643Y-14271329D02*
X2476214Y-14485614D01*
X2661928Y-14485614D01*
X2833357Y-14285614D02*
X2861928Y-14285614D01*
X2890500Y-14299900D01*
X2904786Y-14314186D01*
X2919071Y-14342757D01*
X2933357Y-14399900D01*
X2933357Y-14471329D01*
X2919071Y-14528471D01*
X2904786Y-14557043D01*
X2890500Y-14571329D01*
X2861928Y-14585614D01*
X2833357Y-14585614D01*
X2804786Y-14571329D01*
X2790500Y-14557043D01*
X2776214Y-14528471D01*
X2761928Y-14471329D01*
X2761928Y-14399900D01*
X2776214Y-14342757D01*
X2790500Y-14314186D01*
X2804786Y-14299900D01*
X2833357Y-14285614D01*
X3061928Y-14585614D02*
X3061928Y-14385614D01*
X3061928Y-14414186D02*
X3076214Y-14399900D01*
X3104786Y-14385614D01*
X3147643Y-14385614D01*
X3176214Y-14399900D01*
X3190500Y-14428471D01*
X3190500Y-14585614D01*
X3190500Y-14428471D02*
X3204786Y-14399900D01*
X3233357Y-14385614D01*
X3276214Y-14385614D01*
X3304786Y-14399900D01*
X3319071Y-14428471D01*
X3319071Y-14585614D01*
X3461928Y-14585614D02*
X3461928Y-14385614D01*
X3461928Y-14414186D02*
X3476214Y-14399900D01*
X3504786Y-14385614D01*
X3547643Y-14385614D01*
X3576214Y-14399900D01*
X3590500Y-14428471D01*
X3590500Y-14585614D01*
X3590500Y-14428471D02*
X3604786Y-14399900D01*
X3633357Y-14385614D01*
X3676214Y-14385614D01*
X3704786Y-14399900D01*
X3719071Y-14428471D01*
X3719071Y-14585614D01*
X4304786Y-14271329D02*
X4047643Y-14657043D01*
X4690500Y-14285614D02*
X4719071Y-14285614D01*
X4747643Y-14299900D01*
X4761928Y-14314186D01*
X4776214Y-14342757D01*
X4790500Y-14399900D01*
X4790500Y-14471329D01*
X4776214Y-14528471D01*
X4761928Y-14557043D01*
X4747643Y-14571329D01*
X4719071Y-14585614D01*
X4690500Y-14585614D01*
X4661928Y-14571329D01*
X4647643Y-14557043D01*
X4633357Y-14528471D01*
X4619071Y-14471329D01*
X4619071Y-14399900D01*
X4633357Y-14342757D01*
X4647643Y-14314186D01*
X4661928Y-14299900D01*
X4690500Y-14285614D01*
X4919071Y-14557043D02*
X4933357Y-14571329D01*
X4919071Y-14585614D01*
X4904786Y-14571329D01*
X4919071Y-14557043D01*
X4919071Y-14585614D01*
X5119071Y-14285614D02*
X5147643Y-14285614D01*
X5176214Y-14299900D01*
X5190500Y-14314186D01*
X5204786Y-14342757D01*
X5219071Y-14399900D01*
X5219071Y-14471329D01*
X5204786Y-14528471D01*
X5190500Y-14557043D01*
X5176214Y-14571329D01*
X5147643Y-14585614D01*
X5119071Y-14585614D01*
X5090500Y-14571329D01*
X5076214Y-14557043D01*
X5061928Y-14528471D01*
X5047643Y-14471329D01*
X5047643Y-14399900D01*
X5061928Y-14342757D01*
X5076214Y-14314186D01*
X5090500Y-14299900D01*
X5119071Y-14285614D01*
X5504786Y-14585614D02*
X5333357Y-14585614D01*
X5419071Y-14585614D02*
X5419071Y-14285614D01*
X5390500Y-14328471D01*
X5361928Y-14357043D01*
X5333357Y-14371329D01*
X5761928Y-14285614D02*
X5704786Y-14285614D01*
X5676214Y-14299900D01*
X5661928Y-14314186D01*
X5633357Y-14357043D01*
X5619071Y-14414186D01*
X5619071Y-14528471D01*
X5633357Y-14557043D01*
X5647643Y-14571329D01*
X5676214Y-14585614D01*
X5733357Y-14585614D01*
X5761928Y-14571329D01*
X5776214Y-14557043D01*
X5790500Y-14528471D01*
X5790500Y-14457043D01*
X5776214Y-14428471D01*
X5761928Y-14414186D01*
X5733357Y-14399900D01*
X5676214Y-14399900D01*
X5647643Y-14414186D01*
X5633357Y-14428471D01*
X5619071Y-14457043D01*
X5904786Y-14285614D02*
X5904786Y-14342757D01*
X6019071Y-14285614D02*
X6019071Y-14342757D01*
X6461928Y-14699900D02*
X6447643Y-14685614D01*
X6419071Y-14642757D01*
X6404786Y-14614186D01*
X6390500Y-14571329D01*
X6376214Y-14499900D01*
X6376214Y-14442757D01*
X6390500Y-14371329D01*
X6404786Y-14328471D01*
X6419071Y-14299900D01*
X6447643Y-14257043D01*
X6461928Y-14242757D01*
X6704786Y-14385614D02*
X6704786Y-14585614D01*
X6633357Y-14271329D02*
X6561928Y-14485614D01*
X6747643Y-14485614D01*
X6990500Y-14285614D02*
X6933357Y-14285614D01*
X6904786Y-14299900D01*
X6890500Y-14314186D01*
X6861928Y-14357043D01*
X6847643Y-14414186D01*
X6847643Y-14528471D01*
X6861928Y-14557043D01*
X6876214Y-14571329D01*
X6904786Y-14585614D01*
X6961928Y-14585614D01*
X6990500Y-14571329D01*
X7004786Y-14557043D01*
X7019071Y-14528471D01*
X7019071Y-14457043D01*
X7004786Y-14428471D01*
X6990500Y-14414186D01*
X6961928Y-14399900D01*
X6904786Y-14399900D01*
X6876214Y-14414186D01*
X6861928Y-14428471D01*
X6847643Y-14457043D01*
X7290500Y-14285614D02*
X7147643Y-14285614D01*
X7133357Y-14428471D01*
X7147643Y-14414186D01*
X7176214Y-14399900D01*
X7247643Y-14399900D01*
X7276214Y-14414186D01*
X7290500Y-14428471D01*
X7304786Y-14457043D01*
X7304786Y-14528471D01*
X7290500Y-14557043D01*
X7276214Y-14571329D01*
X7247643Y-14585614D01*
X7176214Y-14585614D01*
X7147643Y-14571329D01*
X7133357Y-14557043D01*
X7661928Y-14585614D02*
X7661928Y-14285614D01*
X7790500Y-14585614D02*
X7790500Y-14428471D01*
X7776214Y-14399900D01*
X7747643Y-14385614D01*
X7704786Y-14385614D01*
X7676214Y-14399900D01*
X7661928Y-14414186D01*
X7976214Y-14585614D02*
X7947643Y-14571329D01*
X7933357Y-14557043D01*
X7919071Y-14528471D01*
X7919071Y-14442757D01*
X7933357Y-14414186D01*
X7947643Y-14399900D01*
X7976214Y-14385614D01*
X8019071Y-14385614D01*
X8047643Y-14399900D01*
X8061928Y-14414186D01*
X8076214Y-14442757D01*
X8076214Y-14528471D01*
X8061928Y-14557043D01*
X8047643Y-14571329D01*
X8019071Y-14585614D01*
X7976214Y-14585614D01*
X8247643Y-14585614D02*
X8219071Y-14571329D01*
X8204786Y-14542757D01*
X8204786Y-14285614D01*
X8476214Y-14571329D02*
X8447643Y-14585614D01*
X8390500Y-14585614D01*
X8361928Y-14571329D01*
X8347643Y-14542757D01*
X8347643Y-14428471D01*
X8361928Y-14399900D01*
X8390500Y-14385614D01*
X8447643Y-14385614D01*
X8476214Y-14399900D01*
X8490500Y-14428471D01*
X8490500Y-14457043D01*
X8347643Y-14485614D01*
X8604786Y-14571329D02*
X8633357Y-14585614D01*
X8690500Y-14585614D01*
X8719071Y-14571329D01*
X8733357Y-14542757D01*
X8733357Y-14528471D01*
X8719071Y-14499900D01*
X8690500Y-14485614D01*
X8647643Y-14485614D01*
X8619071Y-14471329D01*
X8604786Y-14442757D01*
X8604786Y-14428471D01*
X8619071Y-14399900D01*
X8647643Y-14385614D01*
X8690500Y-14385614D01*
X8719071Y-14399900D01*
X8833357Y-14699900D02*
X8847643Y-14685614D01*
X8876214Y-14642757D01*
X8890500Y-14614186D01*
X8904786Y-14571329D01*
X8919071Y-14499900D01*
X8919071Y-14442757D01*
X8904786Y-14371329D01*
X8890500Y-14328471D01*
X8876214Y-14299900D01*
X8847643Y-14257043D01*
X8833357Y-14242757D01*
X1775500Y-14845900D02*
G75*
G03*
X1775500Y-14845900I-30000J0D01*
G01*
X2119071Y-14681614D02*
X2147643Y-14681614D01*
X2176214Y-14695900D01*
X2190500Y-14710186D01*
X2204786Y-14738757D01*
X2219071Y-14795900D01*
X2219071Y-14867329D01*
X2204786Y-14924471D01*
X2190500Y-14953043D01*
X2176214Y-14967329D01*
X2147643Y-14981614D01*
X2119071Y-14981614D01*
X2090500Y-14967329D01*
X2076214Y-14953043D01*
X2061928Y-14924471D01*
X2047643Y-14867329D01*
X2047643Y-14795900D01*
X2061928Y-14738757D01*
X2076214Y-14710186D01*
X2090500Y-14695900D01*
X2119071Y-14681614D01*
X2347643Y-14953043D02*
X2361928Y-14967329D01*
X2347643Y-14981614D01*
X2333357Y-14967329D01*
X2347643Y-14953043D01*
X2347643Y-14981614D01*
X2619071Y-14681614D02*
X2561928Y-14681614D01*
X2533357Y-14695900D01*
X2519071Y-14710186D01*
X2490500Y-14753043D01*
X2476214Y-14810186D01*
X2476214Y-14924471D01*
X2490500Y-14953043D01*
X2504786Y-14967329D01*
X2533357Y-14981614D01*
X2590500Y-14981614D01*
X2619071Y-14967329D01*
X2633357Y-14953043D01*
X2647643Y-14924471D01*
X2647643Y-14853043D01*
X2633357Y-14824471D01*
X2619071Y-14810186D01*
X2590500Y-14795900D01*
X2533357Y-14795900D01*
X2504786Y-14810186D01*
X2490500Y-14824471D01*
X2476214Y-14853043D01*
X2833357Y-14681614D02*
X2861928Y-14681614D01*
X2890500Y-14695900D01*
X2904786Y-14710186D01*
X2919071Y-14738757D01*
X2933357Y-14795900D01*
X2933357Y-14867329D01*
X2919071Y-14924471D01*
X2904786Y-14953043D01*
X2890500Y-14967329D01*
X2861928Y-14981614D01*
X2833357Y-14981614D01*
X2804786Y-14967329D01*
X2790500Y-14953043D01*
X2776214Y-14924471D01*
X2761928Y-14867329D01*
X2761928Y-14795900D01*
X2776214Y-14738757D01*
X2790500Y-14710186D01*
X2804786Y-14695900D01*
X2833357Y-14681614D01*
X3061928Y-14981614D02*
X3061928Y-14781614D01*
X3061928Y-14810186D02*
X3076214Y-14795900D01*
X3104786Y-14781614D01*
X3147643Y-14781614D01*
X3176214Y-14795900D01*
X3190500Y-14824471D01*
X3190500Y-14981614D01*
X3190500Y-14824471D02*
X3204786Y-14795900D01*
X3233357Y-14781614D01*
X3276214Y-14781614D01*
X3304786Y-14795900D01*
X3319071Y-14824471D01*
X3319071Y-14981614D01*
X3461928Y-14981614D02*
X3461928Y-14781614D01*
X3461928Y-14810186D02*
X3476214Y-14795900D01*
X3504786Y-14781614D01*
X3547643Y-14781614D01*
X3576214Y-14795900D01*
X3590500Y-14824471D01*
X3590500Y-14981614D01*
X3590500Y-14824471D02*
X3604786Y-14795900D01*
X3633357Y-14781614D01*
X3676214Y-14781614D01*
X3704786Y-14795900D01*
X3719071Y-14824471D01*
X3719071Y-14981614D01*
X4304786Y-14667329D02*
X4047643Y-15053043D01*
X4690500Y-14681614D02*
X4719071Y-14681614D01*
X4747643Y-14695900D01*
X4761928Y-14710186D01*
X4776214Y-14738757D01*
X4790500Y-14795900D01*
X4790500Y-14867329D01*
X4776214Y-14924471D01*
X4761928Y-14953043D01*
X4747643Y-14967329D01*
X4719071Y-14981614D01*
X4690500Y-14981614D01*
X4661928Y-14967329D01*
X4647643Y-14953043D01*
X4633357Y-14924471D01*
X4619071Y-14867329D01*
X4619071Y-14795900D01*
X4633357Y-14738757D01*
X4647643Y-14710186D01*
X4661928Y-14695900D01*
X4690500Y-14681614D01*
X4919071Y-14953043D02*
X4933357Y-14967329D01*
X4919071Y-14981614D01*
X4904786Y-14967329D01*
X4919071Y-14953043D01*
X4919071Y-14981614D01*
X5119071Y-14681614D02*
X5147643Y-14681614D01*
X5176214Y-14695900D01*
X5190500Y-14710186D01*
X5204786Y-14738757D01*
X5219071Y-14795900D01*
X5219071Y-14867329D01*
X5204786Y-14924471D01*
X5190500Y-14953043D01*
X5176214Y-14967329D01*
X5147643Y-14981614D01*
X5119071Y-14981614D01*
X5090500Y-14967329D01*
X5076214Y-14953043D01*
X5061928Y-14924471D01*
X5047643Y-14867329D01*
X5047643Y-14795900D01*
X5061928Y-14738757D01*
X5076214Y-14710186D01*
X5090500Y-14695900D01*
X5119071Y-14681614D01*
X5333357Y-14710186D02*
X5347643Y-14695900D01*
X5376214Y-14681614D01*
X5447643Y-14681614D01*
X5476214Y-14695900D01*
X5490500Y-14710186D01*
X5504786Y-14738757D01*
X5504786Y-14767329D01*
X5490500Y-14810186D01*
X5319071Y-14981614D01*
X5504786Y-14981614D01*
X5761928Y-14781614D02*
X5761928Y-14981614D01*
X5690500Y-14667329D02*
X5619071Y-14881614D01*
X5804786Y-14881614D01*
X5904786Y-14681614D02*
X5904786Y-14738757D01*
X6019071Y-14681614D02*
X6019071Y-14738757D01*
X6461928Y-15095900D02*
X6447643Y-15081614D01*
X6419071Y-15038757D01*
X6404786Y-15010186D01*
X6390500Y-14967329D01*
X6376214Y-14895900D01*
X6376214Y-14838757D01*
X6390500Y-14767329D01*
X6404786Y-14724471D01*
X6419071Y-14695900D01*
X6447643Y-14653043D01*
X6461928Y-14638757D01*
X6633357Y-14681614D02*
X6661928Y-14681614D01*
X6690500Y-14695900D01*
X6704786Y-14710186D01*
X6719071Y-14738757D01*
X6733357Y-14795900D01*
X6733357Y-14867329D01*
X6719071Y-14924471D01*
X6704786Y-14953043D01*
X6690500Y-14967329D01*
X6661928Y-14981614D01*
X6633357Y-14981614D01*
X6604786Y-14967329D01*
X6590500Y-14953043D01*
X6576214Y-14924471D01*
X6561928Y-14867329D01*
X6561928Y-14795900D01*
X6576214Y-14738757D01*
X6590500Y-14710186D01*
X6604786Y-14695900D01*
X6633357Y-14681614D01*
X7090500Y-14981614D02*
X7090500Y-14681614D01*
X7219071Y-14981614D02*
X7219071Y-14824471D01*
X7204786Y-14795900D01*
X7176214Y-14781614D01*
X7133357Y-14781614D01*
X7104786Y-14795900D01*
X7090500Y-14810186D01*
X7404786Y-14981614D02*
X7376214Y-14967329D01*
X7361928Y-14953043D01*
X7347643Y-14924471D01*
X7347643Y-14838757D01*
X7361928Y-14810186D01*
X7376214Y-14795900D01*
X7404786Y-14781614D01*
X7447643Y-14781614D01*
X7476214Y-14795900D01*
X7490500Y-14810186D01*
X7504786Y-14838757D01*
X7504786Y-14924471D01*
X7490500Y-14953043D01*
X7476214Y-14967329D01*
X7447643Y-14981614D01*
X7404786Y-14981614D01*
X7676214Y-14981614D02*
X7647643Y-14967329D01*
X7633357Y-14938757D01*
X7633357Y-14681614D01*
X7904786Y-14967329D02*
X7876214Y-14981614D01*
X7819071Y-14981614D01*
X7790500Y-14967329D01*
X7776214Y-14938757D01*
X7776214Y-14824471D01*
X7790500Y-14795900D01*
X7819071Y-14781614D01*
X7876214Y-14781614D01*
X7904786Y-14795900D01*
X7919071Y-14824471D01*
X7919071Y-14853043D01*
X7776214Y-14881614D01*
X8033357Y-14967329D02*
X8061928Y-14981614D01*
X8119071Y-14981614D01*
X8147643Y-14967329D01*
X8161928Y-14938757D01*
X8161928Y-14924471D01*
X8147643Y-14895900D01*
X8119071Y-14881614D01*
X8076214Y-14881614D01*
X8047643Y-14867329D01*
X8033357Y-14838757D01*
X8033357Y-14824471D01*
X8047643Y-14795900D01*
X8076214Y-14781614D01*
X8119071Y-14781614D01*
X8147643Y-14795900D01*
X8519071Y-14867329D02*
X8747643Y-14867329D01*
X8633357Y-14981614D02*
X8633357Y-14753043D01*
X9104786Y-14710186D02*
X9119071Y-14695900D01*
X9147643Y-14681614D01*
X9219071Y-14681614D01*
X9247643Y-14695900D01*
X9261928Y-14710186D01*
X9276214Y-14738757D01*
X9276214Y-14767329D01*
X9261928Y-14810186D01*
X9090500Y-14981614D01*
X9276214Y-14981614D01*
X9619071Y-14967329D02*
X9647643Y-14981614D01*
X9704786Y-14981614D01*
X9733357Y-14967329D01*
X9747643Y-14938757D01*
X9747643Y-14924471D01*
X9733357Y-14895900D01*
X9704786Y-14881614D01*
X9661928Y-14881614D01*
X9633357Y-14867329D01*
X9619071Y-14838757D01*
X9619071Y-14824471D01*
X9633357Y-14795900D01*
X9661928Y-14781614D01*
X9704786Y-14781614D01*
X9733357Y-14795900D01*
X9919071Y-14981614D02*
X9890500Y-14967329D01*
X9876214Y-14938757D01*
X9876214Y-14681614D01*
X10076214Y-14981614D02*
X10047643Y-14967329D01*
X10033357Y-14953043D01*
X10019071Y-14924471D01*
X10019071Y-14838757D01*
X10033357Y-14810186D01*
X10047643Y-14795900D01*
X10076214Y-14781614D01*
X10119071Y-14781614D01*
X10147643Y-14795900D01*
X10161928Y-14810186D01*
X10176214Y-14838757D01*
X10176214Y-14924471D01*
X10161928Y-14953043D01*
X10147643Y-14967329D01*
X10119071Y-14981614D01*
X10076214Y-14981614D01*
X10261928Y-14781614D02*
X10376214Y-14781614D01*
X10304786Y-14681614D02*
X10304786Y-14938757D01*
X10319071Y-14967329D01*
X10347643Y-14981614D01*
X10376214Y-14981614D01*
X10461928Y-14967329D02*
X10490500Y-14981614D01*
X10547643Y-14981614D01*
X10576214Y-14967329D01*
X10590500Y-14938757D01*
X10590500Y-14924471D01*
X10576214Y-14895900D01*
X10547643Y-14881614D01*
X10504786Y-14881614D01*
X10476214Y-14867329D01*
X10461928Y-14838757D01*
X10461928Y-14824471D01*
X10476214Y-14795900D01*
X10504786Y-14781614D01*
X10547643Y-14781614D01*
X10576214Y-14795900D01*
X10690500Y-15095900D02*
X10704786Y-15081614D01*
X10733357Y-15038757D01*
X10747643Y-15010186D01*
X10761928Y-14967329D01*
X10776214Y-14895900D01*
X10776214Y-14838757D01*
X10761928Y-14767329D01*
X10747643Y-14724471D01*
X10733357Y-14695900D01*
X10704786Y-14653043D01*
X10690500Y-14638757D01*
X1743000Y-15209400D02*
X1743000Y-15274400D01*
X1710500Y-15241900D02*
X1775500Y-15241900D01*
X2119071Y-15077614D02*
X2147643Y-15077614D01*
X2176214Y-15091900D01*
X2190500Y-15106186D01*
X2204786Y-15134757D01*
X2219071Y-15191900D01*
X2219071Y-15263329D01*
X2204786Y-15320471D01*
X2190500Y-15349043D01*
X2176214Y-15363329D01*
X2147643Y-15377614D01*
X2119071Y-15377614D01*
X2090500Y-15363329D01*
X2076214Y-15349043D01*
X2061928Y-15320471D01*
X2047643Y-15263329D01*
X2047643Y-15191900D01*
X2061928Y-15134757D01*
X2076214Y-15106186D01*
X2090500Y-15091900D01*
X2119071Y-15077614D01*
X2347643Y-15349043D02*
X2361928Y-15363329D01*
X2347643Y-15377614D01*
X2333357Y-15363329D01*
X2347643Y-15349043D01*
X2347643Y-15377614D01*
X2619071Y-15077614D02*
X2561928Y-15077614D01*
X2533357Y-15091900D01*
X2519071Y-15106186D01*
X2490500Y-15149043D01*
X2476214Y-15206186D01*
X2476214Y-15320471D01*
X2490500Y-15349043D01*
X2504786Y-15363329D01*
X2533357Y-15377614D01*
X2590500Y-15377614D01*
X2619071Y-15363329D01*
X2633357Y-15349043D01*
X2647643Y-15320471D01*
X2647643Y-15249043D01*
X2633357Y-15220471D01*
X2619071Y-15206186D01*
X2590500Y-15191900D01*
X2533357Y-15191900D01*
X2504786Y-15206186D01*
X2490500Y-15220471D01*
X2476214Y-15249043D01*
X2919071Y-15077614D02*
X2776214Y-15077614D01*
X2761928Y-15220471D01*
X2776214Y-15206186D01*
X2804786Y-15191900D01*
X2876214Y-15191900D01*
X2904786Y-15206186D01*
X2919071Y-15220471D01*
X2933357Y-15249043D01*
X2933357Y-15320471D01*
X2919071Y-15349043D01*
X2904786Y-15363329D01*
X2876214Y-15377614D01*
X2804786Y-15377614D01*
X2776214Y-15363329D01*
X2761928Y-15349043D01*
X3061928Y-15377614D02*
X3061928Y-15177614D01*
X3061928Y-15206186D02*
X3076214Y-15191900D01*
X3104786Y-15177614D01*
X3147643Y-15177614D01*
X3176214Y-15191900D01*
X3190500Y-15220471D01*
X3190500Y-15377614D01*
X3190500Y-15220471D02*
X3204786Y-15191900D01*
X3233357Y-15177614D01*
X3276214Y-15177614D01*
X3304786Y-15191900D01*
X3319071Y-15220471D01*
X3319071Y-15377614D01*
X3461928Y-15377614D02*
X3461928Y-15177614D01*
X3461928Y-15206186D02*
X3476214Y-15191900D01*
X3504786Y-15177614D01*
X3547643Y-15177614D01*
X3576214Y-15191900D01*
X3590500Y-15220471D01*
X3590500Y-15377614D01*
X3590500Y-15220471D02*
X3604786Y-15191900D01*
X3633357Y-15177614D01*
X3676214Y-15177614D01*
X3704786Y-15191900D01*
X3719071Y-15220471D01*
X3719071Y-15377614D01*
X4304786Y-15063329D02*
X4047643Y-15449043D01*
X4690500Y-15077614D02*
X4719071Y-15077614D01*
X4747643Y-15091900D01*
X4761928Y-15106186D01*
X4776214Y-15134757D01*
X4790500Y-15191900D01*
X4790500Y-15263329D01*
X4776214Y-15320471D01*
X4761928Y-15349043D01*
X4747643Y-15363329D01*
X4719071Y-15377614D01*
X4690500Y-15377614D01*
X4661928Y-15363329D01*
X4647643Y-15349043D01*
X4633357Y-15320471D01*
X4619071Y-15263329D01*
X4619071Y-15191900D01*
X4633357Y-15134757D01*
X4647643Y-15106186D01*
X4661928Y-15091900D01*
X4690500Y-15077614D01*
X4919071Y-15349043D02*
X4933357Y-15363329D01*
X4919071Y-15377614D01*
X4904786Y-15363329D01*
X4919071Y-15349043D01*
X4919071Y-15377614D01*
X5119071Y-15077614D02*
X5147643Y-15077614D01*
X5176214Y-15091900D01*
X5190500Y-15106186D01*
X5204786Y-15134757D01*
X5219071Y-15191900D01*
X5219071Y-15263329D01*
X5204786Y-15320471D01*
X5190500Y-15349043D01*
X5176214Y-15363329D01*
X5147643Y-15377614D01*
X5119071Y-15377614D01*
X5090500Y-15363329D01*
X5076214Y-15349043D01*
X5061928Y-15320471D01*
X5047643Y-15263329D01*
X5047643Y-15191900D01*
X5061928Y-15134757D01*
X5076214Y-15106186D01*
X5090500Y-15091900D01*
X5119071Y-15077614D01*
X5333357Y-15106186D02*
X5347643Y-15091900D01*
X5376214Y-15077614D01*
X5447643Y-15077614D01*
X5476214Y-15091900D01*
X5490500Y-15106186D01*
X5504786Y-15134757D01*
X5504786Y-15163329D01*
X5490500Y-15206186D01*
X5319071Y-15377614D01*
X5504786Y-15377614D01*
X5761928Y-15077614D02*
X5704786Y-15077614D01*
X5676214Y-15091900D01*
X5661928Y-15106186D01*
X5633357Y-15149043D01*
X5619071Y-15206186D01*
X5619071Y-15320471D01*
X5633357Y-15349043D01*
X5647643Y-15363329D01*
X5676214Y-15377614D01*
X5733357Y-15377614D01*
X5761928Y-15363329D01*
X5776214Y-15349043D01*
X5790500Y-15320471D01*
X5790500Y-15249043D01*
X5776214Y-15220471D01*
X5761928Y-15206186D01*
X5733357Y-15191900D01*
X5676214Y-15191900D01*
X5647643Y-15206186D01*
X5633357Y-15220471D01*
X5619071Y-15249043D01*
X5904786Y-15077614D02*
X5904786Y-15134757D01*
X6019071Y-15077614D02*
X6019071Y-15134757D01*
X6461928Y-15491900D02*
X6447643Y-15477614D01*
X6419071Y-15434757D01*
X6404786Y-15406186D01*
X6390500Y-15363329D01*
X6376214Y-15291900D01*
X6376214Y-15234757D01*
X6390500Y-15163329D01*
X6404786Y-15120471D01*
X6419071Y-15091900D01*
X6447643Y-15049043D01*
X6461928Y-15034757D01*
X6561928Y-15106186D02*
X6576214Y-15091900D01*
X6604786Y-15077614D01*
X6676214Y-15077614D01*
X6704786Y-15091900D01*
X6719071Y-15106186D01*
X6733357Y-15134757D01*
X6733357Y-15163329D01*
X6719071Y-15206186D01*
X6547643Y-15377614D01*
X6733357Y-15377614D01*
X6990500Y-15177614D02*
X6990500Y-15377614D01*
X6919071Y-15063329D02*
X6847643Y-15277614D01*
X7033357Y-15277614D01*
X7376214Y-15377614D02*
X7376214Y-15077614D01*
X7504786Y-15377614D02*
X7504786Y-15220471D01*
X7490500Y-15191900D01*
X7461928Y-15177614D01*
X7419071Y-15177614D01*
X7390500Y-15191900D01*
X7376214Y-15206186D01*
X7690500Y-15377614D02*
X7661928Y-15363329D01*
X7647643Y-15349043D01*
X7633357Y-15320471D01*
X7633357Y-15234757D01*
X7647643Y-15206186D01*
X7661928Y-15191900D01*
X7690500Y-15177614D01*
X7733357Y-15177614D01*
X7761928Y-15191900D01*
X7776214Y-15206186D01*
X7790500Y-15234757D01*
X7790500Y-15320471D01*
X7776214Y-15349043D01*
X7761928Y-15363329D01*
X7733357Y-15377614D01*
X7690500Y-15377614D01*
X7961928Y-15377614D02*
X7933357Y-15363329D01*
X7919071Y-15334757D01*
X7919071Y-15077614D01*
X8190500Y-15363329D02*
X8161928Y-15377614D01*
X8104786Y-15377614D01*
X8076214Y-15363329D01*
X8061928Y-15334757D01*
X8061928Y-15220471D01*
X8076214Y-15191900D01*
X8104786Y-15177614D01*
X8161928Y-15177614D01*
X8190500Y-15191900D01*
X8204786Y-15220471D01*
X8204786Y-15249043D01*
X8061928Y-15277614D01*
X8319071Y-15363329D02*
X8347643Y-15377614D01*
X8404786Y-15377614D01*
X8433357Y-15363329D01*
X8447643Y-15334757D01*
X8447643Y-15320471D01*
X8433357Y-15291900D01*
X8404786Y-15277614D01*
X8361928Y-15277614D01*
X8333357Y-15263329D01*
X8319071Y-15234757D01*
X8319071Y-15220471D01*
X8333357Y-15191900D01*
X8361928Y-15177614D01*
X8404786Y-15177614D01*
X8433357Y-15191900D01*
X8547643Y-15491900D02*
X8561928Y-15477614D01*
X8590500Y-15434757D01*
X8604786Y-15406186D01*
X8619071Y-15363329D01*
X8633357Y-15291900D01*
X8633357Y-15234757D01*
X8619071Y-15163329D01*
X8604786Y-15120471D01*
X8590500Y-15091900D01*
X8561928Y-15049043D01*
X8547643Y-15034757D01*
X1763784Y-15666185D02*
X1763784Y-15609616D01*
X1707215Y-15609616D01*
X1707215Y-15666185D01*
X1763784Y-15666185D01*
X2119071Y-15473614D02*
X2147643Y-15473614D01*
X2176214Y-15487900D01*
X2190500Y-15502186D01*
X2204786Y-15530757D01*
X2219071Y-15587900D01*
X2219071Y-15659329D01*
X2204786Y-15716471D01*
X2190500Y-15745043D01*
X2176214Y-15759329D01*
X2147643Y-15773614D01*
X2119071Y-15773614D01*
X2090500Y-15759329D01*
X2076214Y-15745043D01*
X2061928Y-15716471D01*
X2047643Y-15659329D01*
X2047643Y-15587900D01*
X2061928Y-15530757D01*
X2076214Y-15502186D01*
X2090500Y-15487900D01*
X2119071Y-15473614D01*
X2347643Y-15745043D02*
X2361928Y-15759329D01*
X2347643Y-15773614D01*
X2333357Y-15759329D01*
X2347643Y-15745043D01*
X2347643Y-15773614D01*
X2533357Y-15602186D02*
X2504786Y-15587900D01*
X2490500Y-15573614D01*
X2476214Y-15545043D01*
X2476214Y-15530757D01*
X2490500Y-15502186D01*
X2504786Y-15487900D01*
X2533357Y-15473614D01*
X2590500Y-15473614D01*
X2619071Y-15487900D01*
X2633357Y-15502186D01*
X2647643Y-15530757D01*
X2647643Y-15545043D01*
X2633357Y-15573614D01*
X2619071Y-15587900D01*
X2590500Y-15602186D01*
X2533357Y-15602186D01*
X2504786Y-15616471D01*
X2490500Y-15630757D01*
X2476214Y-15659329D01*
X2476214Y-15716471D01*
X2490500Y-15745043D01*
X2504786Y-15759329D01*
X2533357Y-15773614D01*
X2590500Y-15773614D01*
X2619071Y-15759329D01*
X2633357Y-15745043D01*
X2647643Y-15716471D01*
X2647643Y-15659329D01*
X2633357Y-15630757D01*
X2619071Y-15616471D01*
X2590500Y-15602186D01*
X2833357Y-15473614D02*
X2861928Y-15473614D01*
X2890500Y-15487900D01*
X2904786Y-15502186D01*
X2919071Y-15530757D01*
X2933357Y-15587900D01*
X2933357Y-15659329D01*
X2919071Y-15716471D01*
X2904786Y-15745043D01*
X2890500Y-15759329D01*
X2861928Y-15773614D01*
X2833357Y-15773614D01*
X2804786Y-15759329D01*
X2790500Y-15745043D01*
X2776214Y-15716471D01*
X2761928Y-15659329D01*
X2761928Y-15587900D01*
X2776214Y-15530757D01*
X2790500Y-15502186D01*
X2804786Y-15487900D01*
X2833357Y-15473614D01*
X3061928Y-15773614D02*
X3061928Y-15573614D01*
X3061928Y-15602186D02*
X3076214Y-15587900D01*
X3104786Y-15573614D01*
X3147643Y-15573614D01*
X3176214Y-15587900D01*
X3190500Y-15616471D01*
X3190500Y-15773614D01*
X3190500Y-15616471D02*
X3204786Y-15587900D01*
X3233357Y-15573614D01*
X3276214Y-15573614D01*
X3304786Y-15587900D01*
X3319071Y-15616471D01*
X3319071Y-15773614D01*
X3461928Y-15773614D02*
X3461928Y-15573614D01*
X3461928Y-15602186D02*
X3476214Y-15587900D01*
X3504786Y-15573614D01*
X3547643Y-15573614D01*
X3576214Y-15587900D01*
X3590500Y-15616471D01*
X3590500Y-15773614D01*
X3590500Y-15616471D02*
X3604786Y-15587900D01*
X3633357Y-15573614D01*
X3676214Y-15573614D01*
X3704786Y-15587900D01*
X3719071Y-15616471D01*
X3719071Y-15773614D01*
X4304786Y-15459329D02*
X4047643Y-15845043D01*
X4690500Y-15473614D02*
X4719071Y-15473614D01*
X4747643Y-15487900D01*
X4761928Y-15502186D01*
X4776214Y-15530757D01*
X4790500Y-15587900D01*
X4790500Y-15659329D01*
X4776214Y-15716471D01*
X4761928Y-15745043D01*
X4747643Y-15759329D01*
X4719071Y-15773614D01*
X4690500Y-15773614D01*
X4661928Y-15759329D01*
X4647643Y-15745043D01*
X4633357Y-15716471D01*
X4619071Y-15659329D01*
X4619071Y-15587900D01*
X4633357Y-15530757D01*
X4647643Y-15502186D01*
X4661928Y-15487900D01*
X4690500Y-15473614D01*
X4919071Y-15745043D02*
X4933357Y-15759329D01*
X4919071Y-15773614D01*
X4904786Y-15759329D01*
X4919071Y-15745043D01*
X4919071Y-15773614D01*
X5119071Y-15473614D02*
X5147643Y-15473614D01*
X5176214Y-15487900D01*
X5190500Y-15502186D01*
X5204786Y-15530757D01*
X5219071Y-15587900D01*
X5219071Y-15659329D01*
X5204786Y-15716471D01*
X5190500Y-15745043D01*
X5176214Y-15759329D01*
X5147643Y-15773614D01*
X5119071Y-15773614D01*
X5090500Y-15759329D01*
X5076214Y-15745043D01*
X5061928Y-15716471D01*
X5047643Y-15659329D01*
X5047643Y-15587900D01*
X5061928Y-15530757D01*
X5076214Y-15502186D01*
X5090500Y-15487900D01*
X5119071Y-15473614D01*
X5319071Y-15473614D02*
X5504786Y-15473614D01*
X5404786Y-15587900D01*
X5447643Y-15587900D01*
X5476214Y-15602186D01*
X5490500Y-15616471D01*
X5504786Y-15645043D01*
X5504786Y-15716471D01*
X5490500Y-15745043D01*
X5476214Y-15759329D01*
X5447643Y-15773614D01*
X5361928Y-15773614D01*
X5333357Y-15759329D01*
X5319071Y-15745043D01*
X5790500Y-15773614D02*
X5619071Y-15773614D01*
X5704786Y-15773614D02*
X5704786Y-15473614D01*
X5676214Y-15516471D01*
X5647643Y-15545043D01*
X5619071Y-15559329D01*
X5904786Y-15473614D02*
X5904786Y-15530757D01*
X6019071Y-15473614D02*
X6019071Y-15530757D01*
X6461928Y-15887900D02*
X6447643Y-15873614D01*
X6419071Y-15830757D01*
X6404786Y-15802186D01*
X6390500Y-15759329D01*
X6376214Y-15687900D01*
X6376214Y-15630757D01*
X6390500Y-15559329D01*
X6404786Y-15516471D01*
X6419071Y-15487900D01*
X6447643Y-15445043D01*
X6461928Y-15430757D01*
X6547643Y-15473614D02*
X6747643Y-15473614D01*
X6619071Y-15773614D01*
X7090500Y-15773614D02*
X7090500Y-15473614D01*
X7219071Y-15773614D02*
X7219071Y-15616471D01*
X7204786Y-15587900D01*
X7176214Y-15573614D01*
X7133357Y-15573614D01*
X7104786Y-15587900D01*
X7090500Y-15602186D01*
X7404786Y-15773614D02*
X7376214Y-15759329D01*
X7361928Y-15745043D01*
X7347643Y-15716471D01*
X7347643Y-15630757D01*
X7361928Y-15602186D01*
X7376214Y-15587900D01*
X7404786Y-15573614D01*
X7447643Y-15573614D01*
X7476214Y-15587900D01*
X7490500Y-15602186D01*
X7504786Y-15630757D01*
X7504786Y-15716471D01*
X7490500Y-15745043D01*
X7476214Y-15759329D01*
X7447643Y-15773614D01*
X7404786Y-15773614D01*
X7676214Y-15773614D02*
X7647643Y-15759329D01*
X7633357Y-15730757D01*
X7633357Y-15473614D01*
X7904786Y-15759329D02*
X7876214Y-15773614D01*
X7819071Y-15773614D01*
X7790500Y-15759329D01*
X7776214Y-15730757D01*
X7776214Y-15616471D01*
X7790500Y-15587900D01*
X7819071Y-15573614D01*
X7876214Y-15573614D01*
X7904786Y-15587900D01*
X7919071Y-15616471D01*
X7919071Y-15645043D01*
X7776214Y-15673614D01*
X8033357Y-15759329D02*
X8061928Y-15773614D01*
X8119071Y-15773614D01*
X8147643Y-15759329D01*
X8161928Y-15730757D01*
X8161928Y-15716471D01*
X8147643Y-15687900D01*
X8119071Y-15673614D01*
X8076214Y-15673614D01*
X8047643Y-15659329D01*
X8033357Y-15630757D01*
X8033357Y-15616471D01*
X8047643Y-15587900D01*
X8076214Y-15573614D01*
X8119071Y-15573614D01*
X8147643Y-15587900D01*
X8261928Y-15887900D02*
X8276214Y-15873614D01*
X8304786Y-15830757D01*
X8319071Y-15802186D01*
X8333357Y-15759329D01*
X8347643Y-15687900D01*
X8347643Y-15630757D01*
X8333357Y-15559329D01*
X8319071Y-15516471D01*
X8304786Y-15487900D01*
X8276214Y-15445043D01*
X8261928Y-15430757D01*
X1733000Y-16076400D02*
X1775500Y-16033900D01*
X1733000Y-15991400D01*
X1690500Y-16033900D01*
X1733000Y-16076400D01*
X2119071Y-15869614D02*
X2147643Y-15869614D01*
X2176214Y-15883900D01*
X2190500Y-15898186D01*
X2204786Y-15926757D01*
X2219071Y-15983900D01*
X2219071Y-16055329D01*
X2204786Y-16112471D01*
X2190500Y-16141043D01*
X2176214Y-16155329D01*
X2147643Y-16169614D01*
X2119071Y-16169614D01*
X2090500Y-16155329D01*
X2076214Y-16141043D01*
X2061928Y-16112471D01*
X2047643Y-16055329D01*
X2047643Y-15983900D01*
X2061928Y-15926757D01*
X2076214Y-15898186D01*
X2090500Y-15883900D01*
X2119071Y-15869614D01*
X2347643Y-16141043D02*
X2361928Y-16155329D01*
X2347643Y-16169614D01*
X2333357Y-16155329D01*
X2347643Y-16141043D01*
X2347643Y-16169614D01*
X2533357Y-15998186D02*
X2504786Y-15983900D01*
X2490500Y-15969614D01*
X2476214Y-15941043D01*
X2476214Y-15926757D01*
X2490500Y-15898186D01*
X2504786Y-15883900D01*
X2533357Y-15869614D01*
X2590500Y-15869614D01*
X2619071Y-15883900D01*
X2633357Y-15898186D01*
X2647643Y-15926757D01*
X2647643Y-15941043D01*
X2633357Y-15969614D01*
X2619071Y-15983900D01*
X2590500Y-15998186D01*
X2533357Y-15998186D01*
X2504786Y-16012471D01*
X2490500Y-16026757D01*
X2476214Y-16055329D01*
X2476214Y-16112471D01*
X2490500Y-16141043D01*
X2504786Y-16155329D01*
X2533357Y-16169614D01*
X2590500Y-16169614D01*
X2619071Y-16155329D01*
X2633357Y-16141043D01*
X2647643Y-16112471D01*
X2647643Y-16055329D01*
X2633357Y-16026757D01*
X2619071Y-16012471D01*
X2590500Y-15998186D01*
X2919071Y-15869614D02*
X2776214Y-15869614D01*
X2761928Y-16012471D01*
X2776214Y-15998186D01*
X2804786Y-15983900D01*
X2876214Y-15983900D01*
X2904786Y-15998186D01*
X2919071Y-16012471D01*
X2933357Y-16041043D01*
X2933357Y-16112471D01*
X2919071Y-16141043D01*
X2904786Y-16155329D01*
X2876214Y-16169614D01*
X2804786Y-16169614D01*
X2776214Y-16155329D01*
X2761928Y-16141043D01*
X3061928Y-16169614D02*
X3061928Y-15969614D01*
X3061928Y-15998186D02*
X3076214Y-15983900D01*
X3104786Y-15969614D01*
X3147643Y-15969614D01*
X3176214Y-15983900D01*
X3190500Y-16012471D01*
X3190500Y-16169614D01*
X3190500Y-16012471D02*
X3204786Y-15983900D01*
X3233357Y-15969614D01*
X3276214Y-15969614D01*
X3304786Y-15983900D01*
X3319071Y-16012471D01*
X3319071Y-16169614D01*
X3461928Y-16169614D02*
X3461928Y-15969614D01*
X3461928Y-15998186D02*
X3476214Y-15983900D01*
X3504786Y-15969614D01*
X3547643Y-15969614D01*
X3576214Y-15983900D01*
X3590500Y-16012471D01*
X3590500Y-16169614D01*
X3590500Y-16012471D02*
X3604786Y-15983900D01*
X3633357Y-15969614D01*
X3676214Y-15969614D01*
X3704786Y-15983900D01*
X3719071Y-16012471D01*
X3719071Y-16169614D01*
X4304786Y-15855329D02*
X4047643Y-16241043D01*
X4690500Y-15869614D02*
X4719071Y-15869614D01*
X4747643Y-15883900D01*
X4761928Y-15898186D01*
X4776214Y-15926757D01*
X4790500Y-15983900D01*
X4790500Y-16055329D01*
X4776214Y-16112471D01*
X4761928Y-16141043D01*
X4747643Y-16155329D01*
X4719071Y-16169614D01*
X4690500Y-16169614D01*
X4661928Y-16155329D01*
X4647643Y-16141043D01*
X4633357Y-16112471D01*
X4619071Y-16055329D01*
X4619071Y-15983900D01*
X4633357Y-15926757D01*
X4647643Y-15898186D01*
X4661928Y-15883900D01*
X4690500Y-15869614D01*
X4919071Y-16141043D02*
X4933357Y-16155329D01*
X4919071Y-16169614D01*
X4904786Y-16155329D01*
X4919071Y-16141043D01*
X4919071Y-16169614D01*
X5119071Y-15869614D02*
X5147643Y-15869614D01*
X5176214Y-15883900D01*
X5190500Y-15898186D01*
X5204786Y-15926757D01*
X5219071Y-15983900D01*
X5219071Y-16055329D01*
X5204786Y-16112471D01*
X5190500Y-16141043D01*
X5176214Y-16155329D01*
X5147643Y-16169614D01*
X5119071Y-16169614D01*
X5090500Y-16155329D01*
X5076214Y-16141043D01*
X5061928Y-16112471D01*
X5047643Y-16055329D01*
X5047643Y-15983900D01*
X5061928Y-15926757D01*
X5076214Y-15898186D01*
X5090500Y-15883900D01*
X5119071Y-15869614D01*
X5319071Y-15869614D02*
X5504786Y-15869614D01*
X5404786Y-15983900D01*
X5447643Y-15983900D01*
X5476214Y-15998186D01*
X5490500Y-16012471D01*
X5504786Y-16041043D01*
X5504786Y-16112471D01*
X5490500Y-16141043D01*
X5476214Y-16155329D01*
X5447643Y-16169614D01*
X5361928Y-16169614D01*
X5333357Y-16155329D01*
X5319071Y-16141043D01*
X5604786Y-15869614D02*
X5790500Y-15869614D01*
X5690500Y-15983900D01*
X5733357Y-15983900D01*
X5761928Y-15998186D01*
X5776214Y-16012471D01*
X5790500Y-16041043D01*
X5790500Y-16112471D01*
X5776214Y-16141043D01*
X5761928Y-16155329D01*
X5733357Y-16169614D01*
X5647643Y-16169614D01*
X5619071Y-16155329D01*
X5604786Y-16141043D01*
X5904786Y-15869614D02*
X5904786Y-15926757D01*
X6019071Y-15869614D02*
X6019071Y-15926757D01*
X6461928Y-16283900D02*
X6447643Y-16269614D01*
X6419071Y-16226757D01*
X6404786Y-16198186D01*
X6390500Y-16155329D01*
X6376214Y-16083900D01*
X6376214Y-16026757D01*
X6390500Y-15955329D01*
X6404786Y-15912471D01*
X6419071Y-15883900D01*
X6447643Y-15841043D01*
X6461928Y-15826757D01*
X6561928Y-15898186D02*
X6576214Y-15883900D01*
X6604786Y-15869614D01*
X6676214Y-15869614D01*
X6704786Y-15883900D01*
X6719071Y-15898186D01*
X6733357Y-15926757D01*
X6733357Y-15955329D01*
X6719071Y-15998186D01*
X6547643Y-16169614D01*
X6733357Y-16169614D01*
X7090500Y-16169614D02*
X7090500Y-15869614D01*
X7219071Y-16169614D02*
X7219071Y-16012471D01*
X7204786Y-15983900D01*
X7176214Y-15969614D01*
X7133357Y-15969614D01*
X7104786Y-15983900D01*
X7090500Y-15998186D01*
X7404786Y-16169614D02*
X7376214Y-16155329D01*
X7361928Y-16141043D01*
X7347643Y-16112471D01*
X7347643Y-16026757D01*
X7361928Y-15998186D01*
X7376214Y-15983900D01*
X7404786Y-15969614D01*
X7447643Y-15969614D01*
X7476214Y-15983900D01*
X7490500Y-15998186D01*
X7504786Y-16026757D01*
X7504786Y-16112471D01*
X7490500Y-16141043D01*
X7476214Y-16155329D01*
X7447643Y-16169614D01*
X7404786Y-16169614D01*
X7676214Y-16169614D02*
X7647643Y-16155329D01*
X7633357Y-16126757D01*
X7633357Y-15869614D01*
X7904786Y-16155329D02*
X7876214Y-16169614D01*
X7819071Y-16169614D01*
X7790500Y-16155329D01*
X7776214Y-16126757D01*
X7776214Y-16012471D01*
X7790500Y-15983900D01*
X7819071Y-15969614D01*
X7876214Y-15969614D01*
X7904786Y-15983900D01*
X7919071Y-16012471D01*
X7919071Y-16041043D01*
X7776214Y-16069614D01*
X8033357Y-16155329D02*
X8061928Y-16169614D01*
X8119071Y-16169614D01*
X8147643Y-16155329D01*
X8161928Y-16126757D01*
X8161928Y-16112471D01*
X8147643Y-16083900D01*
X8119071Y-16069614D01*
X8076214Y-16069614D01*
X8047643Y-16055329D01*
X8033357Y-16026757D01*
X8033357Y-16012471D01*
X8047643Y-15983900D01*
X8076214Y-15969614D01*
X8119071Y-15969614D01*
X8147643Y-15983900D01*
X8261928Y-16283900D02*
X8276214Y-16269614D01*
X8304786Y-16226757D01*
X8319071Y-16198186D01*
X8333357Y-16155329D01*
X8347643Y-16083900D01*
X8347643Y-16026757D01*
X8333357Y-15955329D01*
X8319071Y-15912471D01*
X8304786Y-15883900D01*
X8276214Y-15841043D01*
X8261928Y-15826757D01*
X1675500Y-16379900D02*
X1775500Y-16479900D01*
X1775500Y-16379900D02*
X1675500Y-16479900D01*
X1775500Y-16429900D02*
G75*
G03*
X1775500Y-16429900I-50000J0D01*
G01*
X2219071Y-16565614D02*
X2047643Y-16565614D01*
X2133357Y-16565614D02*
X2133357Y-16265614D01*
X2104786Y-16308471D01*
X2076214Y-16337043D01*
X2047643Y-16351329D01*
X2347643Y-16537043D02*
X2361928Y-16551329D01*
X2347643Y-16565614D01*
X2333357Y-16551329D01*
X2347643Y-16537043D01*
X2347643Y-16565614D01*
X2547643Y-16265614D02*
X2576214Y-16265614D01*
X2604786Y-16279900D01*
X2619071Y-16294186D01*
X2633357Y-16322757D01*
X2647643Y-16379900D01*
X2647643Y-16451329D01*
X2633357Y-16508471D01*
X2619071Y-16537043D01*
X2604786Y-16551329D01*
X2576214Y-16565614D01*
X2547643Y-16565614D01*
X2519071Y-16551329D01*
X2504786Y-16537043D01*
X2490500Y-16508471D01*
X2476214Y-16451329D01*
X2476214Y-16379900D01*
X2490500Y-16322757D01*
X2504786Y-16294186D01*
X2519071Y-16279900D01*
X2547643Y-16265614D01*
X2833357Y-16265614D02*
X2861928Y-16265614D01*
X2890500Y-16279900D01*
X2904786Y-16294186D01*
X2919071Y-16322757D01*
X2933357Y-16379900D01*
X2933357Y-16451329D01*
X2919071Y-16508471D01*
X2904786Y-16537043D01*
X2890500Y-16551329D01*
X2861928Y-16565614D01*
X2833357Y-16565614D01*
X2804786Y-16551329D01*
X2790500Y-16537043D01*
X2776214Y-16508471D01*
X2761928Y-16451329D01*
X2761928Y-16379900D01*
X2776214Y-16322757D01*
X2790500Y-16294186D01*
X2804786Y-16279900D01*
X2833357Y-16265614D01*
X3061928Y-16565614D02*
X3061928Y-16365614D01*
X3061928Y-16394186D02*
X3076214Y-16379900D01*
X3104786Y-16365614D01*
X3147643Y-16365614D01*
X3176214Y-16379900D01*
X3190500Y-16408471D01*
X3190500Y-16565614D01*
X3190500Y-16408471D02*
X3204786Y-16379900D01*
X3233357Y-16365614D01*
X3276214Y-16365614D01*
X3304786Y-16379900D01*
X3319071Y-16408471D01*
X3319071Y-16565614D01*
X3461928Y-16565614D02*
X3461928Y-16365614D01*
X3461928Y-16394186D02*
X3476214Y-16379900D01*
X3504786Y-16365614D01*
X3547643Y-16365614D01*
X3576214Y-16379900D01*
X3590500Y-16408471D01*
X3590500Y-16565614D01*
X3590500Y-16408471D02*
X3604786Y-16379900D01*
X3633357Y-16365614D01*
X3676214Y-16365614D01*
X3704786Y-16379900D01*
X3719071Y-16408471D01*
X3719071Y-16565614D01*
X4304786Y-16251329D02*
X4047643Y-16637043D01*
X4690500Y-16265614D02*
X4719071Y-16265614D01*
X4747643Y-16279900D01*
X4761928Y-16294186D01*
X4776214Y-16322757D01*
X4790500Y-16379900D01*
X4790500Y-16451329D01*
X4776214Y-16508471D01*
X4761928Y-16537043D01*
X4747643Y-16551329D01*
X4719071Y-16565614D01*
X4690500Y-16565614D01*
X4661928Y-16551329D01*
X4647643Y-16537043D01*
X4633357Y-16508471D01*
X4619071Y-16451329D01*
X4619071Y-16379900D01*
X4633357Y-16322757D01*
X4647643Y-16294186D01*
X4661928Y-16279900D01*
X4690500Y-16265614D01*
X4919071Y-16537043D02*
X4933357Y-16551329D01*
X4919071Y-16565614D01*
X4904786Y-16551329D01*
X4919071Y-16537043D01*
X4919071Y-16565614D01*
X5119071Y-16265614D02*
X5147643Y-16265614D01*
X5176214Y-16279900D01*
X5190500Y-16294186D01*
X5204786Y-16322757D01*
X5219071Y-16379900D01*
X5219071Y-16451329D01*
X5204786Y-16508471D01*
X5190500Y-16537043D01*
X5176214Y-16551329D01*
X5147643Y-16565614D01*
X5119071Y-16565614D01*
X5090500Y-16551329D01*
X5076214Y-16537043D01*
X5061928Y-16508471D01*
X5047643Y-16451329D01*
X5047643Y-16379900D01*
X5061928Y-16322757D01*
X5076214Y-16294186D01*
X5090500Y-16279900D01*
X5119071Y-16265614D01*
X5319071Y-16265614D02*
X5504786Y-16265614D01*
X5404786Y-16379900D01*
X5447643Y-16379900D01*
X5476214Y-16394186D01*
X5490500Y-16408471D01*
X5504786Y-16437043D01*
X5504786Y-16508471D01*
X5490500Y-16537043D01*
X5476214Y-16551329D01*
X5447643Y-16565614D01*
X5361928Y-16565614D01*
X5333357Y-16551329D01*
X5319071Y-16537043D01*
X5647643Y-16565614D02*
X5704786Y-16565614D01*
X5733357Y-16551329D01*
X5747643Y-16537043D01*
X5776214Y-16494186D01*
X5790500Y-16437043D01*
X5790500Y-16322757D01*
X5776214Y-16294186D01*
X5761928Y-16279900D01*
X5733357Y-16265614D01*
X5676214Y-16265614D01*
X5647643Y-16279900D01*
X5633357Y-16294186D01*
X5619071Y-16322757D01*
X5619071Y-16394186D01*
X5633357Y-16422757D01*
X5647643Y-16437043D01*
X5676214Y-16451329D01*
X5733357Y-16451329D01*
X5761928Y-16437043D01*
X5776214Y-16422757D01*
X5790500Y-16394186D01*
X5904786Y-16265614D02*
X5904786Y-16322757D01*
X6019071Y-16265614D02*
X6019071Y-16322757D01*
X6461928Y-16679900D02*
X6447643Y-16665614D01*
X6419071Y-16622757D01*
X6404786Y-16594186D01*
X6390500Y-16551329D01*
X6376214Y-16479900D01*
X6376214Y-16422757D01*
X6390500Y-16351329D01*
X6404786Y-16308471D01*
X6419071Y-16279900D01*
X6447643Y-16237043D01*
X6461928Y-16222757D01*
X6547643Y-16265614D02*
X6747643Y-16265614D01*
X6619071Y-16565614D01*
X6990500Y-16365614D02*
X6990500Y-16565614D01*
X6919071Y-16251329D02*
X6847643Y-16465614D01*
X7033357Y-16465614D01*
X7376214Y-16565614D02*
X7376214Y-16265614D01*
X7504786Y-16565614D02*
X7504786Y-16408471D01*
X7490500Y-16379900D01*
X7461928Y-16365614D01*
X7419071Y-16365614D01*
X7390500Y-16379900D01*
X7376214Y-16394186D01*
X7690500Y-16565614D02*
X7661928Y-16551329D01*
X7647643Y-16537043D01*
X7633357Y-16508471D01*
X7633357Y-16422757D01*
X7647643Y-16394186D01*
X7661928Y-16379900D01*
X7690500Y-16365614D01*
X7733357Y-16365614D01*
X7761928Y-16379900D01*
X7776214Y-16394186D01*
X7790500Y-16422757D01*
X7790500Y-16508471D01*
X7776214Y-16537043D01*
X7761928Y-16551329D01*
X7733357Y-16565614D01*
X7690500Y-16565614D01*
X7961928Y-16565614D02*
X7933357Y-16551329D01*
X7919071Y-16522757D01*
X7919071Y-16265614D01*
X8190500Y-16551329D02*
X8161928Y-16565614D01*
X8104786Y-16565614D01*
X8076214Y-16551329D01*
X8061928Y-16522757D01*
X8061928Y-16408471D01*
X8076214Y-16379900D01*
X8104786Y-16365614D01*
X8161928Y-16365614D01*
X8190500Y-16379900D01*
X8204786Y-16408471D01*
X8204786Y-16437043D01*
X8061928Y-16465614D01*
X8319071Y-16551329D02*
X8347643Y-16565614D01*
X8404786Y-16565614D01*
X8433357Y-16551329D01*
X8447643Y-16522757D01*
X8447643Y-16508471D01*
X8433357Y-16479900D01*
X8404786Y-16465614D01*
X8361928Y-16465614D01*
X8333357Y-16451329D01*
X8319071Y-16422757D01*
X8319071Y-16408471D01*
X8333357Y-16379900D01*
X8361928Y-16365614D01*
X8404786Y-16365614D01*
X8433357Y-16379900D01*
X8547643Y-16679900D02*
X8561928Y-16665614D01*
X8590500Y-16622757D01*
X8604786Y-16594186D01*
X8619071Y-16551329D01*
X8633357Y-16479900D01*
X8633357Y-16422757D01*
X8619071Y-16351329D01*
X8604786Y-16308471D01*
X8590500Y-16279900D01*
X8561928Y-16237043D01*
X8547643Y-16222757D01*
X1665500Y-16770900D02*
X1775500Y-16880900D01*
X1775500Y-16770900D02*
X1665500Y-16880900D01*
X1720500Y-16770900D02*
X1720500Y-16880900D01*
X1665500Y-16825900D02*
X1775500Y-16825900D01*
X2219071Y-16961614D02*
X2047643Y-16961614D01*
X2133357Y-16961614D02*
X2133357Y-16661614D01*
X2104786Y-16704471D01*
X2076214Y-16733043D01*
X2047643Y-16747329D01*
X2347643Y-16933043D02*
X2361928Y-16947329D01*
X2347643Y-16961614D01*
X2333357Y-16947329D01*
X2347643Y-16933043D01*
X2347643Y-16961614D01*
X2647643Y-16961614D02*
X2476214Y-16961614D01*
X2561928Y-16961614D02*
X2561928Y-16661614D01*
X2533357Y-16704471D01*
X2504786Y-16733043D01*
X2476214Y-16747329D01*
X2833357Y-16661614D02*
X2861928Y-16661614D01*
X2890500Y-16675900D01*
X2904786Y-16690186D01*
X2919071Y-16718757D01*
X2933357Y-16775900D01*
X2933357Y-16847329D01*
X2919071Y-16904472D01*
X2904786Y-16933043D01*
X2890500Y-16947329D01*
X2861928Y-16961614D01*
X2833357Y-16961614D01*
X2804786Y-16947329D01*
X2790500Y-16933043D01*
X2776214Y-16904472D01*
X2761928Y-16847329D01*
X2761928Y-16775900D01*
X2776214Y-16718757D01*
X2790500Y-16690186D01*
X2804786Y-16675900D01*
X2833357Y-16661614D01*
X3061928Y-16961614D02*
X3061928Y-16761614D01*
X3061928Y-16790186D02*
X3076214Y-16775900D01*
X3104786Y-16761614D01*
X3147643Y-16761614D01*
X3176214Y-16775900D01*
X3190500Y-16804472D01*
X3190500Y-16961614D01*
X3190500Y-16804472D02*
X3204786Y-16775900D01*
X3233357Y-16761614D01*
X3276214Y-16761614D01*
X3304786Y-16775900D01*
X3319071Y-16804472D01*
X3319071Y-16961614D01*
X3461928Y-16961614D02*
X3461928Y-16761614D01*
X3461928Y-16790186D02*
X3476214Y-16775900D01*
X3504786Y-16761614D01*
X3547643Y-16761614D01*
X3576214Y-16775900D01*
X3590500Y-16804472D01*
X3590500Y-16961614D01*
X3590500Y-16804472D02*
X3604786Y-16775900D01*
X3633357Y-16761614D01*
X3676214Y-16761614D01*
X3704786Y-16775900D01*
X3719071Y-16804472D01*
X3719071Y-16961614D01*
X4304786Y-16647329D02*
X4047643Y-17033043D01*
X4690500Y-16661614D02*
X4719071Y-16661614D01*
X4747643Y-16675900D01*
X4761928Y-16690186D01*
X4776214Y-16718757D01*
X4790500Y-16775900D01*
X4790500Y-16847329D01*
X4776214Y-16904472D01*
X4761928Y-16933043D01*
X4747643Y-16947329D01*
X4719071Y-16961614D01*
X4690500Y-16961614D01*
X4661928Y-16947329D01*
X4647643Y-16933043D01*
X4633357Y-16904472D01*
X4619071Y-16847329D01*
X4619071Y-16775900D01*
X4633357Y-16718757D01*
X4647643Y-16690186D01*
X4661928Y-16675900D01*
X4690500Y-16661614D01*
X4919071Y-16933043D02*
X4933357Y-16947329D01*
X4919071Y-16961614D01*
X4904786Y-16947329D01*
X4919071Y-16933043D01*
X4919071Y-16961614D01*
X5119071Y-16661614D02*
X5147643Y-16661614D01*
X5176214Y-16675900D01*
X5190500Y-16690186D01*
X5204786Y-16718757D01*
X5219071Y-16775900D01*
X5219071Y-16847329D01*
X5204786Y-16904472D01*
X5190500Y-16933043D01*
X5176214Y-16947329D01*
X5147643Y-16961614D01*
X5119071Y-16961614D01*
X5090500Y-16947329D01*
X5076214Y-16933043D01*
X5061928Y-16904472D01*
X5047643Y-16847329D01*
X5047643Y-16775900D01*
X5061928Y-16718757D01*
X5076214Y-16690186D01*
X5090500Y-16675900D01*
X5119071Y-16661614D01*
X5476214Y-16761614D02*
X5476214Y-16961614D01*
X5404786Y-16647329D02*
X5333357Y-16861614D01*
X5519071Y-16861614D01*
X5604786Y-16661614D02*
X5790500Y-16661614D01*
X5690500Y-16775900D01*
X5733357Y-16775900D01*
X5761928Y-16790186D01*
X5776214Y-16804472D01*
X5790500Y-16833043D01*
X5790500Y-16904472D01*
X5776214Y-16933043D01*
X5761928Y-16947329D01*
X5733357Y-16961614D01*
X5647643Y-16961614D01*
X5619071Y-16947329D01*
X5604786Y-16933043D01*
X5904786Y-16661614D02*
X5904786Y-16718757D01*
X6019071Y-16661614D02*
X6019071Y-16718757D01*
X6461928Y-17075900D02*
X6447643Y-17061614D01*
X6419071Y-17018757D01*
X6404786Y-16990186D01*
X6390500Y-16947329D01*
X6376214Y-16875900D01*
X6376214Y-16818757D01*
X6390500Y-16747329D01*
X6404786Y-16704471D01*
X6419071Y-16675900D01*
X6447643Y-16633043D01*
X6461928Y-16618757D01*
X6547643Y-16661614D02*
X6733357Y-16661614D01*
X6633357Y-16775900D01*
X6676214Y-16775900D01*
X6704786Y-16790186D01*
X6719071Y-16804472D01*
X6733357Y-16833043D01*
X6733357Y-16904472D01*
X6719071Y-16933043D01*
X6704786Y-16947329D01*
X6676214Y-16961614D01*
X6590500Y-16961614D01*
X6561928Y-16947329D01*
X6547643Y-16933043D01*
X7090500Y-16961614D02*
X7090500Y-16661614D01*
X7219071Y-16961614D02*
X7219071Y-16804472D01*
X7204786Y-16775900D01*
X7176214Y-16761614D01*
X7133357Y-16761614D01*
X7104786Y-16775900D01*
X7090500Y-16790186D01*
X7404786Y-16961614D02*
X7376214Y-16947329D01*
X7361928Y-16933043D01*
X7347643Y-16904472D01*
X7347643Y-16818757D01*
X7361928Y-16790186D01*
X7376214Y-16775900D01*
X7404786Y-16761614D01*
X7447643Y-16761614D01*
X7476214Y-16775900D01*
X7490500Y-16790186D01*
X7504786Y-16818757D01*
X7504786Y-16904472D01*
X7490500Y-16933043D01*
X7476214Y-16947329D01*
X7447643Y-16961614D01*
X7404786Y-16961614D01*
X7676214Y-16961614D02*
X7647643Y-16947329D01*
X7633357Y-16918757D01*
X7633357Y-16661614D01*
X7904786Y-16947329D02*
X7876214Y-16961614D01*
X7819071Y-16961614D01*
X7790500Y-16947329D01*
X7776214Y-16918757D01*
X7776214Y-16804472D01*
X7790500Y-16775900D01*
X7819071Y-16761614D01*
X7876214Y-16761614D01*
X7904786Y-16775900D01*
X7919071Y-16804472D01*
X7919071Y-16833043D01*
X7776214Y-16861614D01*
X8033357Y-16947329D02*
X8061928Y-16961614D01*
X8119071Y-16961614D01*
X8147643Y-16947329D01*
X8161928Y-16918757D01*
X8161928Y-16904472D01*
X8147643Y-16875900D01*
X8119071Y-16861614D01*
X8076214Y-16861614D01*
X8047643Y-16847329D01*
X8033357Y-16818757D01*
X8033357Y-16804472D01*
X8047643Y-16775900D01*
X8076214Y-16761614D01*
X8119071Y-16761614D01*
X8147643Y-16775900D01*
X8261928Y-17075900D02*
X8276214Y-17061614D01*
X8304786Y-17018757D01*
X8319071Y-16990186D01*
X8333357Y-16947329D01*
X8347643Y-16875900D01*
X8347643Y-16818757D01*
X8333357Y-16747329D01*
X8319071Y-16704471D01*
X8304786Y-16675900D01*
X8276214Y-16633043D01*
X8261928Y-16618757D01*
X1655500Y-17161900D02*
X1775500Y-17281900D01*
X1775500Y-17161900D02*
X1655500Y-17281900D01*
X1757927Y-17264327D02*
X1757927Y-17179473D01*
X1673073Y-17179473D01*
X1673073Y-17264327D01*
X1757927Y-17264327D01*
X2219071Y-17357614D02*
X2047643Y-17357614D01*
X2133357Y-17357614D02*
X2133357Y-17057614D01*
X2104786Y-17100472D01*
X2076214Y-17129043D01*
X2047643Y-17143329D01*
X2347643Y-17329043D02*
X2361928Y-17343329D01*
X2347643Y-17357614D01*
X2333357Y-17343329D01*
X2347643Y-17329043D01*
X2347643Y-17357614D01*
X2476214Y-17086186D02*
X2490500Y-17071900D01*
X2519071Y-17057614D01*
X2590500Y-17057614D01*
X2619071Y-17071900D01*
X2633357Y-17086186D01*
X2647643Y-17114757D01*
X2647643Y-17143329D01*
X2633357Y-17186186D01*
X2461928Y-17357614D01*
X2647643Y-17357614D01*
X2833357Y-17057614D02*
X2861928Y-17057614D01*
X2890500Y-17071900D01*
X2904786Y-17086186D01*
X2919071Y-17114757D01*
X2933357Y-17171900D01*
X2933357Y-17243329D01*
X2919071Y-17300472D01*
X2904786Y-17329043D01*
X2890500Y-17343329D01*
X2861928Y-17357614D01*
X2833357Y-17357614D01*
X2804786Y-17343329D01*
X2790500Y-17329043D01*
X2776214Y-17300472D01*
X2761928Y-17243329D01*
X2761928Y-17171900D01*
X2776214Y-17114757D01*
X2790500Y-17086186D01*
X2804786Y-17071900D01*
X2833357Y-17057614D01*
X3061928Y-17357614D02*
X3061928Y-17157614D01*
X3061928Y-17186186D02*
X3076214Y-17171900D01*
X3104786Y-17157614D01*
X3147643Y-17157614D01*
X3176214Y-17171900D01*
X3190500Y-17200472D01*
X3190500Y-17357614D01*
X3190500Y-17200472D02*
X3204786Y-17171900D01*
X3233357Y-17157614D01*
X3276214Y-17157614D01*
X3304786Y-17171900D01*
X3319071Y-17200472D01*
X3319071Y-17357614D01*
X3461928Y-17357614D02*
X3461928Y-17157614D01*
X3461928Y-17186186D02*
X3476214Y-17171900D01*
X3504786Y-17157614D01*
X3547643Y-17157614D01*
X3576214Y-17171900D01*
X3590500Y-17200472D01*
X3590500Y-17357614D01*
X3590500Y-17200472D02*
X3604786Y-17171900D01*
X3633357Y-17157614D01*
X3676214Y-17157614D01*
X3704786Y-17171900D01*
X3719071Y-17200472D01*
X3719071Y-17357614D01*
X4304786Y-17043329D02*
X4047643Y-17429043D01*
X4690500Y-17057614D02*
X4719071Y-17057614D01*
X4747643Y-17071900D01*
X4761928Y-17086186D01*
X4776214Y-17114757D01*
X4790500Y-17171900D01*
X4790500Y-17243329D01*
X4776214Y-17300472D01*
X4761928Y-17329043D01*
X4747643Y-17343329D01*
X4719071Y-17357614D01*
X4690500Y-17357614D01*
X4661928Y-17343329D01*
X4647643Y-17329043D01*
X4633357Y-17300472D01*
X4619071Y-17243329D01*
X4619071Y-17171900D01*
X4633357Y-17114757D01*
X4647643Y-17086186D01*
X4661928Y-17071900D01*
X4690500Y-17057614D01*
X4919071Y-17329043D02*
X4933357Y-17343329D01*
X4919071Y-17357614D01*
X4904786Y-17343329D01*
X4919071Y-17329043D01*
X4919071Y-17357614D01*
X5119071Y-17057614D02*
X5147643Y-17057614D01*
X5176214Y-17071900D01*
X5190500Y-17086186D01*
X5204786Y-17114757D01*
X5219071Y-17171900D01*
X5219071Y-17243329D01*
X5204786Y-17300472D01*
X5190500Y-17329043D01*
X5176214Y-17343329D01*
X5147643Y-17357614D01*
X5119071Y-17357614D01*
X5090500Y-17343329D01*
X5076214Y-17329043D01*
X5061928Y-17300472D01*
X5047643Y-17243329D01*
X5047643Y-17171900D01*
X5061928Y-17114757D01*
X5076214Y-17086186D01*
X5090500Y-17071900D01*
X5119071Y-17057614D01*
X5476214Y-17157614D02*
X5476214Y-17357614D01*
X5404786Y-17043329D02*
X5333357Y-17257614D01*
X5519071Y-17257614D01*
X5604786Y-17057614D02*
X5804786Y-17057614D01*
X5676214Y-17357614D01*
X5904786Y-17057614D02*
X5904786Y-17114757D01*
X6019071Y-17057614D02*
X6019071Y-17114757D01*
X6461928Y-17471900D02*
X6447643Y-17457614D01*
X6419071Y-17414757D01*
X6404786Y-17386186D01*
X6390500Y-17343329D01*
X6376214Y-17271900D01*
X6376214Y-17214757D01*
X6390500Y-17143329D01*
X6404786Y-17100472D01*
X6419071Y-17071900D01*
X6447643Y-17029043D01*
X6461928Y-17014757D01*
X6704786Y-17057614D02*
X6647643Y-17057614D01*
X6619071Y-17071900D01*
X6604786Y-17086186D01*
X6576214Y-17129043D01*
X6561928Y-17186186D01*
X6561928Y-17300472D01*
X6576214Y-17329043D01*
X6590500Y-17343329D01*
X6619071Y-17357614D01*
X6676214Y-17357614D01*
X6704786Y-17343329D01*
X6719071Y-17329043D01*
X6733357Y-17300472D01*
X6733357Y-17229043D01*
X6719071Y-17200472D01*
X6704786Y-17186186D01*
X6676214Y-17171900D01*
X6619071Y-17171900D01*
X6590500Y-17186186D01*
X6576214Y-17200472D01*
X6561928Y-17229043D01*
X7090500Y-17357614D02*
X7090500Y-17057614D01*
X7219071Y-17357614D02*
X7219071Y-17200472D01*
X7204786Y-17171900D01*
X7176214Y-17157614D01*
X7133357Y-17157614D01*
X7104786Y-17171900D01*
X7090500Y-17186186D01*
X7404786Y-17357614D02*
X7376214Y-17343329D01*
X7361928Y-17329043D01*
X7347643Y-17300472D01*
X7347643Y-17214757D01*
X7361928Y-17186186D01*
X7376214Y-17171900D01*
X7404786Y-17157614D01*
X7447643Y-17157614D01*
X7476214Y-17171900D01*
X7490500Y-17186186D01*
X7504786Y-17214757D01*
X7504786Y-17300472D01*
X7490500Y-17329043D01*
X7476214Y-17343329D01*
X7447643Y-17357614D01*
X7404786Y-17357614D01*
X7676214Y-17357614D02*
X7647643Y-17343329D01*
X7633357Y-17314757D01*
X7633357Y-17057614D01*
X7904786Y-17343329D02*
X7876214Y-17357614D01*
X7819071Y-17357614D01*
X7790500Y-17343329D01*
X7776214Y-17314757D01*
X7776214Y-17200472D01*
X7790500Y-17171900D01*
X7819071Y-17157614D01*
X7876214Y-17157614D01*
X7904786Y-17171900D01*
X7919071Y-17200472D01*
X7919071Y-17229043D01*
X7776214Y-17257614D01*
X8033357Y-17343329D02*
X8061928Y-17357614D01*
X8119071Y-17357614D01*
X8147643Y-17343329D01*
X8161928Y-17314757D01*
X8161928Y-17300472D01*
X8147643Y-17271900D01*
X8119071Y-17257614D01*
X8076214Y-17257614D01*
X8047643Y-17243329D01*
X8033357Y-17214757D01*
X8033357Y-17200472D01*
X8047643Y-17171900D01*
X8076214Y-17157614D01*
X8119071Y-17157614D01*
X8147643Y-17171900D01*
X8261928Y-17471900D02*
X8276214Y-17457614D01*
X8304786Y-17414757D01*
X8319071Y-17386186D01*
X8333357Y-17343329D01*
X8347643Y-17271900D01*
X8347643Y-17214757D01*
X8333357Y-17143329D01*
X8319071Y-17100472D01*
X8304786Y-17071900D01*
X8276214Y-17029043D01*
X8261928Y-17014757D01*
X1645500Y-17552900D02*
X1775500Y-17682900D01*
X1775500Y-17552900D02*
X1645500Y-17682900D01*
X1710500Y-17682900D02*
X1775500Y-17617900D01*
X1710500Y-17552900D01*
X1645500Y-17617900D01*
X1710500Y-17682900D01*
X2219071Y-17753614D02*
X2047643Y-17753614D01*
X2133357Y-17753614D02*
X2133357Y-17453614D01*
X2104786Y-17496472D01*
X2076214Y-17525043D01*
X2047643Y-17539329D01*
X2347643Y-17725043D02*
X2361928Y-17739329D01*
X2347643Y-17753614D01*
X2333357Y-17739329D01*
X2347643Y-17725043D01*
X2347643Y-17753614D01*
X2461928Y-17453614D02*
X2647643Y-17453614D01*
X2547643Y-17567900D01*
X2590500Y-17567900D01*
X2619071Y-17582186D01*
X2633357Y-17596472D01*
X2647643Y-17625043D01*
X2647643Y-17696472D01*
X2633357Y-17725043D01*
X2619071Y-17739329D01*
X2590500Y-17753614D01*
X2504786Y-17753614D01*
X2476214Y-17739329D01*
X2461928Y-17725043D01*
X2833357Y-17453614D02*
X2861928Y-17453614D01*
X2890500Y-17467900D01*
X2904786Y-17482186D01*
X2919071Y-17510757D01*
X2933357Y-17567900D01*
X2933357Y-17639329D01*
X2919071Y-17696472D01*
X2904786Y-17725043D01*
X2890500Y-17739329D01*
X2861928Y-17753614D01*
X2833357Y-17753614D01*
X2804786Y-17739329D01*
X2790500Y-17725043D01*
X2776214Y-17696472D01*
X2761928Y-17639329D01*
X2761928Y-17567900D01*
X2776214Y-17510757D01*
X2790500Y-17482186D01*
X2804786Y-17467900D01*
X2833357Y-17453614D01*
X3061928Y-17753614D02*
X3061928Y-17553614D01*
X3061928Y-17582186D02*
X3076214Y-17567900D01*
X3104786Y-17553614D01*
X3147643Y-17553614D01*
X3176214Y-17567900D01*
X3190500Y-17596472D01*
X3190500Y-17753614D01*
X3190500Y-17596472D02*
X3204786Y-17567900D01*
X3233357Y-17553614D01*
X3276214Y-17553614D01*
X3304786Y-17567900D01*
X3319071Y-17596472D01*
X3319071Y-17753614D01*
X3461928Y-17753614D02*
X3461928Y-17553614D01*
X3461928Y-17582186D02*
X3476214Y-17567900D01*
X3504786Y-17553614D01*
X3547643Y-17553614D01*
X3576214Y-17567900D01*
X3590500Y-17596472D01*
X3590500Y-17753614D01*
X3590500Y-17596472D02*
X3604786Y-17567900D01*
X3633357Y-17553614D01*
X3676214Y-17553614D01*
X3704786Y-17567900D01*
X3719071Y-17596472D01*
X3719071Y-17753614D01*
X4304786Y-17439329D02*
X4047643Y-17825043D01*
X4690500Y-17453614D02*
X4719071Y-17453614D01*
X4747643Y-17467900D01*
X4761928Y-17482186D01*
X4776214Y-17510757D01*
X4790500Y-17567900D01*
X4790500Y-17639329D01*
X4776214Y-17696472D01*
X4761928Y-17725043D01*
X4747643Y-17739329D01*
X4719071Y-17753614D01*
X4690500Y-17753614D01*
X4661928Y-17739329D01*
X4647643Y-17725043D01*
X4633357Y-17696472D01*
X4619071Y-17639329D01*
X4619071Y-17567900D01*
X4633357Y-17510757D01*
X4647643Y-17482186D01*
X4661928Y-17467900D01*
X4690500Y-17453614D01*
X4919071Y-17725043D02*
X4933357Y-17739329D01*
X4919071Y-17753614D01*
X4904786Y-17739329D01*
X4919071Y-17725043D01*
X4919071Y-17753614D01*
X5119071Y-17453614D02*
X5147643Y-17453614D01*
X5176214Y-17467900D01*
X5190500Y-17482186D01*
X5204786Y-17510757D01*
X5219071Y-17567900D01*
X5219071Y-17639329D01*
X5204786Y-17696472D01*
X5190500Y-17725043D01*
X5176214Y-17739329D01*
X5147643Y-17753614D01*
X5119071Y-17753614D01*
X5090500Y-17739329D01*
X5076214Y-17725043D01*
X5061928Y-17696472D01*
X5047643Y-17639329D01*
X5047643Y-17567900D01*
X5061928Y-17510757D01*
X5076214Y-17482186D01*
X5090500Y-17467900D01*
X5119071Y-17453614D01*
X5490500Y-17453614D02*
X5347643Y-17453614D01*
X5333357Y-17596472D01*
X5347643Y-17582186D01*
X5376214Y-17567900D01*
X5447643Y-17567900D01*
X5476214Y-17582186D01*
X5490500Y-17596472D01*
X5504786Y-17625043D01*
X5504786Y-17696472D01*
X5490500Y-17725043D01*
X5476214Y-17739329D01*
X5447643Y-17753614D01*
X5376214Y-17753614D01*
X5347643Y-17739329D01*
X5333357Y-17725043D01*
X5790500Y-17753614D02*
X5619071Y-17753614D01*
X5704786Y-17753614D02*
X5704786Y-17453614D01*
X5676214Y-17496472D01*
X5647643Y-17525043D01*
X5619071Y-17539329D01*
X5904786Y-17453614D02*
X5904786Y-17510757D01*
X6019071Y-17453614D02*
X6019071Y-17510757D01*
X6461928Y-17867900D02*
X6447643Y-17853614D01*
X6419071Y-17810757D01*
X6404786Y-17782186D01*
X6390500Y-17739329D01*
X6376214Y-17667900D01*
X6376214Y-17610757D01*
X6390500Y-17539329D01*
X6404786Y-17496472D01*
X6419071Y-17467900D01*
X6447643Y-17425043D01*
X6461928Y-17410757D01*
X6704786Y-17553614D02*
X6704786Y-17753614D01*
X6633357Y-17439329D02*
X6561928Y-17653614D01*
X6747643Y-17653614D01*
X7090500Y-17753614D02*
X7090500Y-17453614D01*
X7219071Y-17753614D02*
X7219071Y-17596472D01*
X7204786Y-17567900D01*
X7176214Y-17553614D01*
X7133357Y-17553614D01*
X7104786Y-17567900D01*
X7090500Y-17582186D01*
X7404786Y-17753614D02*
X7376214Y-17739329D01*
X7361928Y-17725043D01*
X7347643Y-17696472D01*
X7347643Y-17610757D01*
X7361928Y-17582186D01*
X7376214Y-17567900D01*
X7404786Y-17553614D01*
X7447643Y-17553614D01*
X7476214Y-17567900D01*
X7490500Y-17582186D01*
X7504786Y-17610757D01*
X7504786Y-17696472D01*
X7490500Y-17725043D01*
X7476214Y-17739329D01*
X7447643Y-17753614D01*
X7404786Y-17753614D01*
X7676214Y-17753614D02*
X7647643Y-17739329D01*
X7633357Y-17710757D01*
X7633357Y-17453614D01*
X7904786Y-17739329D02*
X7876214Y-17753614D01*
X7819071Y-17753614D01*
X7790500Y-17739329D01*
X7776214Y-17710757D01*
X7776214Y-17596472D01*
X7790500Y-17567900D01*
X7819071Y-17553614D01*
X7876214Y-17553614D01*
X7904786Y-17567900D01*
X7919071Y-17596472D01*
X7919071Y-17625043D01*
X7776214Y-17653614D01*
X8033357Y-17739329D02*
X8061928Y-17753614D01*
X8119071Y-17753614D01*
X8147643Y-17739329D01*
X8161928Y-17710757D01*
X8161928Y-17696472D01*
X8147643Y-17667900D01*
X8119071Y-17653614D01*
X8076214Y-17653614D01*
X8047643Y-17639329D01*
X8033357Y-17610757D01*
X8033357Y-17596472D01*
X8047643Y-17567900D01*
X8076214Y-17553614D01*
X8119071Y-17553614D01*
X8147643Y-17567900D01*
X8261928Y-17867900D02*
X8276214Y-17853614D01*
X8304786Y-17810757D01*
X8319071Y-17782186D01*
X8333357Y-17739329D01*
X8347643Y-17667900D01*
X8347643Y-17610757D01*
X8333357Y-17539329D01*
X8319071Y-17496472D01*
X8304786Y-17467900D01*
X8276214Y-17425043D01*
X8261928Y-17410757D01*
X1700500Y-17938900D02*
X1700500Y-18088900D01*
X1625500Y-18013900D02*
X1775500Y-18013900D01*
X1775500Y-18013900D02*
G75*
G03*
X1775500Y-18013900I-75000J0D01*
G01*
X2219071Y-18149614D02*
X2047643Y-18149614D01*
X2133357Y-18149614D02*
X2133357Y-17849614D01*
X2104786Y-17892472D01*
X2076214Y-17921043D01*
X2047643Y-17935329D01*
X2347643Y-18121043D02*
X2361928Y-18135329D01*
X2347643Y-18149614D01*
X2333357Y-18135329D01*
X2347643Y-18121043D01*
X2347643Y-18149614D01*
X2633357Y-17849614D02*
X2490500Y-17849614D01*
X2476214Y-17992472D01*
X2490500Y-17978186D01*
X2519071Y-17963900D01*
X2590500Y-17963900D01*
X2619071Y-17978186D01*
X2633357Y-17992472D01*
X2647643Y-18021043D01*
X2647643Y-18092472D01*
X2633357Y-18121043D01*
X2619071Y-18135329D01*
X2590500Y-18149614D01*
X2519071Y-18149614D01*
X2490500Y-18135329D01*
X2476214Y-18121043D01*
X2833357Y-17849614D02*
X2861928Y-17849614D01*
X2890500Y-17863900D01*
X2904786Y-17878186D01*
X2919071Y-17906757D01*
X2933357Y-17963900D01*
X2933357Y-18035329D01*
X2919071Y-18092472D01*
X2904786Y-18121043D01*
X2890500Y-18135329D01*
X2861928Y-18149614D01*
X2833357Y-18149614D01*
X2804786Y-18135329D01*
X2790500Y-18121043D01*
X2776214Y-18092472D01*
X2761928Y-18035329D01*
X2761928Y-17963900D01*
X2776214Y-17906757D01*
X2790500Y-17878186D01*
X2804786Y-17863900D01*
X2833357Y-17849614D01*
X3061928Y-18149614D02*
X3061928Y-17949614D01*
X3061928Y-17978186D02*
X3076214Y-17963900D01*
X3104786Y-17949614D01*
X3147643Y-17949614D01*
X3176214Y-17963900D01*
X3190500Y-17992472D01*
X3190500Y-18149614D01*
X3190500Y-17992472D02*
X3204786Y-17963900D01*
X3233357Y-17949614D01*
X3276214Y-17949614D01*
X3304786Y-17963900D01*
X3319071Y-17992472D01*
X3319071Y-18149614D01*
X3461928Y-18149614D02*
X3461928Y-17949614D01*
X3461928Y-17978186D02*
X3476214Y-17963900D01*
X3504786Y-17949614D01*
X3547643Y-17949614D01*
X3576214Y-17963900D01*
X3590500Y-17992472D01*
X3590500Y-18149614D01*
X3590500Y-17992472D02*
X3604786Y-17963900D01*
X3633357Y-17949614D01*
X3676214Y-17949614D01*
X3704786Y-17963900D01*
X3719071Y-17992472D01*
X3719071Y-18149614D01*
X4304786Y-17835329D02*
X4047643Y-18221043D01*
X4690500Y-17849614D02*
X4719071Y-17849614D01*
X4747643Y-17863900D01*
X4761928Y-17878186D01*
X4776214Y-17906757D01*
X4790500Y-17963900D01*
X4790500Y-18035329D01*
X4776214Y-18092472D01*
X4761928Y-18121043D01*
X4747643Y-18135329D01*
X4719071Y-18149614D01*
X4690500Y-18149614D01*
X4661928Y-18135329D01*
X4647643Y-18121043D01*
X4633357Y-18092472D01*
X4619071Y-18035329D01*
X4619071Y-17963900D01*
X4633357Y-17906757D01*
X4647643Y-17878186D01*
X4661928Y-17863900D01*
X4690500Y-17849614D01*
X4919071Y-18121043D02*
X4933357Y-18135329D01*
X4919071Y-18149614D01*
X4904786Y-18135329D01*
X4919071Y-18121043D01*
X4919071Y-18149614D01*
X5119071Y-17849614D02*
X5147643Y-17849614D01*
X5176214Y-17863900D01*
X5190500Y-17878186D01*
X5204786Y-17906757D01*
X5219071Y-17963900D01*
X5219071Y-18035329D01*
X5204786Y-18092472D01*
X5190500Y-18121043D01*
X5176214Y-18135329D01*
X5147643Y-18149614D01*
X5119071Y-18149614D01*
X5090500Y-18135329D01*
X5076214Y-18121043D01*
X5061928Y-18092472D01*
X5047643Y-18035329D01*
X5047643Y-17963900D01*
X5061928Y-17906757D01*
X5076214Y-17878186D01*
X5090500Y-17863900D01*
X5119071Y-17849614D01*
X5490500Y-17849614D02*
X5347643Y-17849614D01*
X5333357Y-17992472D01*
X5347643Y-17978186D01*
X5376214Y-17963900D01*
X5447643Y-17963900D01*
X5476214Y-17978186D01*
X5490500Y-17992472D01*
X5504786Y-18021043D01*
X5504786Y-18092472D01*
X5490500Y-18121043D01*
X5476214Y-18135329D01*
X5447643Y-18149614D01*
X5376214Y-18149614D01*
X5347643Y-18135329D01*
X5333357Y-18121043D01*
X5647643Y-18149614D02*
X5704786Y-18149614D01*
X5733357Y-18135329D01*
X5747643Y-18121043D01*
X5776214Y-18078186D01*
X5790500Y-18021043D01*
X5790500Y-17906757D01*
X5776214Y-17878186D01*
X5761928Y-17863900D01*
X5733357Y-17849614D01*
X5676214Y-17849614D01*
X5647643Y-17863900D01*
X5633357Y-17878186D01*
X5619071Y-17906757D01*
X5619071Y-17978186D01*
X5633357Y-18006757D01*
X5647643Y-18021043D01*
X5676214Y-18035329D01*
X5733357Y-18035329D01*
X5761928Y-18021043D01*
X5776214Y-18006757D01*
X5790500Y-17978186D01*
X5904786Y-17849614D02*
X5904786Y-17906757D01*
X6019071Y-17849614D02*
X6019071Y-17906757D01*
X6461928Y-18263900D02*
X6447643Y-18249614D01*
X6419071Y-18206757D01*
X6404786Y-18178186D01*
X6390500Y-18135329D01*
X6376214Y-18063900D01*
X6376214Y-18006757D01*
X6390500Y-17935329D01*
X6404786Y-17892472D01*
X6419071Y-17863900D01*
X6447643Y-17821043D01*
X6461928Y-17806757D01*
X6733357Y-18149614D02*
X6561928Y-18149614D01*
X6647643Y-18149614D02*
X6647643Y-17849614D01*
X6619071Y-17892472D01*
X6590500Y-17921043D01*
X6561928Y-17935329D01*
X6990500Y-17849614D02*
X6933357Y-17849614D01*
X6904786Y-17863900D01*
X6890500Y-17878186D01*
X6861928Y-17921043D01*
X6847643Y-17978186D01*
X6847643Y-18092472D01*
X6861928Y-18121043D01*
X6876214Y-18135329D01*
X6904786Y-18149614D01*
X6961928Y-18149614D01*
X6990500Y-18135329D01*
X7004786Y-18121043D01*
X7019071Y-18092472D01*
X7019071Y-18021043D01*
X7004786Y-17992472D01*
X6990500Y-17978186D01*
X6961928Y-17963900D01*
X6904786Y-17963900D01*
X6876214Y-17978186D01*
X6861928Y-17992472D01*
X6847643Y-18021043D01*
X7376214Y-18149614D02*
X7376214Y-17849614D01*
X7504786Y-18149614D02*
X7504786Y-17992472D01*
X7490500Y-17963900D01*
X7461928Y-17949614D01*
X7419071Y-17949614D01*
X7390500Y-17963900D01*
X7376214Y-17978186D01*
X7690500Y-18149614D02*
X7661928Y-18135329D01*
X7647643Y-18121043D01*
X7633357Y-18092472D01*
X7633357Y-18006757D01*
X7647643Y-17978186D01*
X7661928Y-17963900D01*
X7690500Y-17949614D01*
X7733357Y-17949614D01*
X7761928Y-17963900D01*
X7776214Y-17978186D01*
X7790500Y-18006757D01*
X7790500Y-18092472D01*
X7776214Y-18121043D01*
X7761928Y-18135329D01*
X7733357Y-18149614D01*
X7690500Y-18149614D01*
X7961928Y-18149614D02*
X7933357Y-18135329D01*
X7919071Y-18106757D01*
X7919071Y-17849614D01*
X8190500Y-18135329D02*
X8161928Y-18149614D01*
X8104786Y-18149614D01*
X8076214Y-18135329D01*
X8061928Y-18106757D01*
X8061928Y-17992472D01*
X8076214Y-17963900D01*
X8104786Y-17949614D01*
X8161928Y-17949614D01*
X8190500Y-17963900D01*
X8204786Y-17992472D01*
X8204786Y-18021043D01*
X8061928Y-18049614D01*
X8319071Y-18135329D02*
X8347643Y-18149614D01*
X8404786Y-18149614D01*
X8433357Y-18135329D01*
X8447643Y-18106757D01*
X8447643Y-18092472D01*
X8433357Y-18063900D01*
X8404786Y-18049614D01*
X8361928Y-18049614D01*
X8333357Y-18035329D01*
X8319071Y-18006757D01*
X8319071Y-17992472D01*
X8333357Y-17963900D01*
X8361928Y-17949614D01*
X8404786Y-17949614D01*
X8433357Y-17963900D01*
X8547643Y-18263900D02*
X8561928Y-18249614D01*
X8590500Y-18206757D01*
X8604786Y-18178186D01*
X8619071Y-18135329D01*
X8633357Y-18063900D01*
X8633357Y-18006757D01*
X8619071Y-17935329D01*
X8604786Y-17892472D01*
X8590500Y-17863900D01*
X8561928Y-17821043D01*
X8547643Y-17806757D01*
X1752069Y-18466469D02*
X1752069Y-18353331D01*
X1638931Y-18353331D01*
X1638931Y-18466469D01*
X1752069Y-18466469D01*
X1775500Y-18409900D02*
G75*
G03*
X1775500Y-18409900I-80000J0D01*
G01*
X2219071Y-18545614D02*
X2047643Y-18545614D01*
X2133357Y-18545614D02*
X2133357Y-18245614D01*
X2104786Y-18288472D01*
X2076214Y-18317043D01*
X2047643Y-18331329D01*
X2347643Y-18517043D02*
X2361928Y-18531329D01*
X2347643Y-18545614D01*
X2333357Y-18531329D01*
X2347643Y-18517043D01*
X2347643Y-18545614D01*
X2619071Y-18245614D02*
X2561928Y-18245614D01*
X2533357Y-18259900D01*
X2519071Y-18274186D01*
X2490500Y-18317043D01*
X2476214Y-18374186D01*
X2476214Y-18488472D01*
X2490500Y-18517043D01*
X2504786Y-18531329D01*
X2533357Y-18545614D01*
X2590500Y-18545614D01*
X2619071Y-18531329D01*
X2633357Y-18517043D01*
X2647643Y-18488472D01*
X2647643Y-18417043D01*
X2633357Y-18388472D01*
X2619071Y-18374186D01*
X2590500Y-18359900D01*
X2533357Y-18359900D01*
X2504786Y-18374186D01*
X2490500Y-18388472D01*
X2476214Y-18417043D01*
X2833357Y-18245614D02*
X2861928Y-18245614D01*
X2890500Y-18259900D01*
X2904786Y-18274186D01*
X2919071Y-18302757D01*
X2933357Y-18359900D01*
X2933357Y-18431329D01*
X2919071Y-18488472D01*
X2904786Y-18517043D01*
X2890500Y-18531329D01*
X2861928Y-18545614D01*
X2833357Y-18545614D01*
X2804786Y-18531329D01*
X2790500Y-18517043D01*
X2776214Y-18488472D01*
X2761928Y-18431329D01*
X2761928Y-18359900D01*
X2776214Y-18302757D01*
X2790500Y-18274186D01*
X2804786Y-18259900D01*
X2833357Y-18245614D01*
X3061928Y-18545614D02*
X3061928Y-18345614D01*
X3061928Y-18374186D02*
X3076214Y-18359900D01*
X3104786Y-18345614D01*
X3147643Y-18345614D01*
X3176214Y-18359900D01*
X3190500Y-18388472D01*
X3190500Y-18545614D01*
X3190500Y-18388472D02*
X3204786Y-18359900D01*
X3233357Y-18345614D01*
X3276214Y-18345614D01*
X3304786Y-18359900D01*
X3319071Y-18388472D01*
X3319071Y-18545614D01*
X3461928Y-18545614D02*
X3461928Y-18345614D01*
X3461928Y-18374186D02*
X3476214Y-18359900D01*
X3504786Y-18345614D01*
X3547643Y-18345614D01*
X3576214Y-18359900D01*
X3590500Y-18388472D01*
X3590500Y-18545614D01*
X3590500Y-18388472D02*
X3604786Y-18359900D01*
X3633357Y-18345614D01*
X3676214Y-18345614D01*
X3704786Y-18359900D01*
X3719071Y-18388472D01*
X3719071Y-18545614D01*
X4304786Y-18231329D02*
X4047643Y-18617043D01*
X4690500Y-18245614D02*
X4719071Y-18245614D01*
X4747643Y-18259900D01*
X4761928Y-18274186D01*
X4776214Y-18302757D01*
X4790500Y-18359900D01*
X4790500Y-18431329D01*
X4776214Y-18488472D01*
X4761928Y-18517043D01*
X4747643Y-18531329D01*
X4719071Y-18545614D01*
X4690500Y-18545614D01*
X4661928Y-18531329D01*
X4647643Y-18517043D01*
X4633357Y-18488472D01*
X4619071Y-18431329D01*
X4619071Y-18359900D01*
X4633357Y-18302757D01*
X4647643Y-18274186D01*
X4661928Y-18259900D01*
X4690500Y-18245614D01*
X4919071Y-18517043D02*
X4933357Y-18531329D01*
X4919071Y-18545614D01*
X4904786Y-18531329D01*
X4919071Y-18517043D01*
X4919071Y-18545614D01*
X5119071Y-18245614D02*
X5147643Y-18245614D01*
X5176214Y-18259900D01*
X5190500Y-18274186D01*
X5204786Y-18302757D01*
X5219071Y-18359900D01*
X5219071Y-18431329D01*
X5204786Y-18488472D01*
X5190500Y-18517043D01*
X5176214Y-18531329D01*
X5147643Y-18545614D01*
X5119071Y-18545614D01*
X5090500Y-18531329D01*
X5076214Y-18517043D01*
X5061928Y-18488472D01*
X5047643Y-18431329D01*
X5047643Y-18359900D01*
X5061928Y-18302757D01*
X5076214Y-18274186D01*
X5090500Y-18259900D01*
X5119071Y-18245614D01*
X5476214Y-18245614D02*
X5419071Y-18245614D01*
X5390500Y-18259900D01*
X5376214Y-18274186D01*
X5347643Y-18317043D01*
X5333357Y-18374186D01*
X5333357Y-18488472D01*
X5347643Y-18517043D01*
X5361928Y-18531329D01*
X5390500Y-18545614D01*
X5447643Y-18545614D01*
X5476214Y-18531329D01*
X5490500Y-18517043D01*
X5504786Y-18488472D01*
X5504786Y-18417043D01*
X5490500Y-18388472D01*
X5476214Y-18374186D01*
X5447643Y-18359900D01*
X5390500Y-18359900D01*
X5361928Y-18374186D01*
X5347643Y-18388472D01*
X5333357Y-18417043D01*
X5604786Y-18245614D02*
X5790500Y-18245614D01*
X5690500Y-18359900D01*
X5733357Y-18359900D01*
X5761928Y-18374186D01*
X5776214Y-18388472D01*
X5790500Y-18417043D01*
X5790500Y-18488472D01*
X5776214Y-18517043D01*
X5761928Y-18531329D01*
X5733357Y-18545614D01*
X5647643Y-18545614D01*
X5619071Y-18531329D01*
X5604786Y-18517043D01*
X5904786Y-18245614D02*
X5904786Y-18302757D01*
X6019071Y-18245614D02*
X6019071Y-18302757D01*
X6461928Y-18659900D02*
X6447643Y-18645614D01*
X6419071Y-18602757D01*
X6404786Y-18574186D01*
X6390500Y-18531329D01*
X6376214Y-18459900D01*
X6376214Y-18402757D01*
X6390500Y-18331329D01*
X6404786Y-18288472D01*
X6419071Y-18259900D01*
X6447643Y-18217043D01*
X6461928Y-18202757D01*
X6619071Y-18374186D02*
X6590500Y-18359900D01*
X6576214Y-18345614D01*
X6561928Y-18317043D01*
X6561928Y-18302757D01*
X6576214Y-18274186D01*
X6590500Y-18259900D01*
X6619071Y-18245614D01*
X6676214Y-18245614D01*
X6704786Y-18259900D01*
X6719071Y-18274186D01*
X6733357Y-18302757D01*
X6733357Y-18317043D01*
X6719071Y-18345614D01*
X6704786Y-18359900D01*
X6676214Y-18374186D01*
X6619071Y-18374186D01*
X6590500Y-18388472D01*
X6576214Y-18402757D01*
X6561928Y-18431329D01*
X6561928Y-18488472D01*
X6576214Y-18517043D01*
X6590500Y-18531329D01*
X6619071Y-18545614D01*
X6676214Y-18545614D01*
X6704786Y-18531329D01*
X6719071Y-18517043D01*
X6733357Y-18488472D01*
X6733357Y-18431329D01*
X6719071Y-18402757D01*
X6704786Y-18388472D01*
X6676214Y-18374186D01*
X7090500Y-18545614D02*
X7090500Y-18245614D01*
X7219071Y-18545614D02*
X7219071Y-18388472D01*
X7204786Y-18359900D01*
X7176214Y-18345614D01*
X7133357Y-18345614D01*
X7104786Y-18359900D01*
X7090500Y-18374186D01*
X7404786Y-18545614D02*
X7376214Y-18531329D01*
X7361928Y-18517043D01*
X7347643Y-18488472D01*
X7347643Y-18402757D01*
X7361928Y-18374186D01*
X7376214Y-18359900D01*
X7404786Y-18345614D01*
X7447643Y-18345614D01*
X7476214Y-18359900D01*
X7490500Y-18374186D01*
X7504786Y-18402757D01*
X7504786Y-18488472D01*
X7490500Y-18517043D01*
X7476214Y-18531329D01*
X7447643Y-18545614D01*
X7404786Y-18545614D01*
X7676214Y-18545614D02*
X7647643Y-18531329D01*
X7633357Y-18502757D01*
X7633357Y-18245614D01*
X7904786Y-18531329D02*
X7876214Y-18545614D01*
X7819071Y-18545614D01*
X7790500Y-18531329D01*
X7776214Y-18502757D01*
X7776214Y-18388472D01*
X7790500Y-18359900D01*
X7819071Y-18345614D01*
X7876214Y-18345614D01*
X7904786Y-18359900D01*
X7919071Y-18388472D01*
X7919071Y-18417043D01*
X7776214Y-18445614D01*
X8033357Y-18531329D02*
X8061928Y-18545614D01*
X8119071Y-18545614D01*
X8147643Y-18531329D01*
X8161928Y-18502757D01*
X8161928Y-18488472D01*
X8147643Y-18459900D01*
X8119071Y-18445614D01*
X8076214Y-18445614D01*
X8047643Y-18431329D01*
X8033357Y-18402757D01*
X8033357Y-18388472D01*
X8047643Y-18359900D01*
X8076214Y-18345614D01*
X8119071Y-18345614D01*
X8147643Y-18359900D01*
X8261928Y-18659900D02*
X8276214Y-18645614D01*
X8304786Y-18602757D01*
X8319071Y-18574186D01*
X8333357Y-18531329D01*
X8347643Y-18459900D01*
X8347643Y-18402757D01*
X8333357Y-18331329D01*
X8319071Y-18288472D01*
X8304786Y-18259900D01*
X8276214Y-18217043D01*
X8261928Y-18202757D01*
X1675500Y-18905900D02*
X1775500Y-18805900D01*
X1675500Y-18705900D01*
X1575500Y-18805900D01*
X1675500Y-18905900D01*
X1775500Y-18805900D02*
G75*
G03*
X1775500Y-18805900I-100000J0D01*
G01*
X2047643Y-18670186D02*
X2061928Y-18655900D01*
X2090500Y-18641614D01*
X2161928Y-18641614D01*
X2190500Y-18655900D01*
X2204786Y-18670186D01*
X2219071Y-18698757D01*
X2219071Y-18727329D01*
X2204786Y-18770186D01*
X2033357Y-18941614D01*
X2219071Y-18941614D01*
X2347643Y-18913043D02*
X2361928Y-18927329D01*
X2347643Y-18941614D01*
X2333357Y-18927329D01*
X2347643Y-18913043D01*
X2347643Y-18941614D01*
X2547643Y-18641614D02*
X2576214Y-18641614D01*
X2604786Y-18655900D01*
X2619071Y-18670186D01*
X2633357Y-18698757D01*
X2647643Y-18755900D01*
X2647643Y-18827329D01*
X2633357Y-18884472D01*
X2619071Y-18913043D01*
X2604786Y-18927329D01*
X2576214Y-18941614D01*
X2547643Y-18941614D01*
X2519071Y-18927329D01*
X2504786Y-18913043D01*
X2490500Y-18884472D01*
X2476214Y-18827329D01*
X2476214Y-18755900D01*
X2490500Y-18698757D01*
X2504786Y-18670186D01*
X2519071Y-18655900D01*
X2547643Y-18641614D01*
X2833357Y-18641614D02*
X2861928Y-18641614D01*
X2890500Y-18655900D01*
X2904786Y-18670186D01*
X2919071Y-18698757D01*
X2933357Y-18755900D01*
X2933357Y-18827329D01*
X2919071Y-18884472D01*
X2904786Y-18913043D01*
X2890500Y-18927329D01*
X2861928Y-18941614D01*
X2833357Y-18941614D01*
X2804786Y-18927329D01*
X2790500Y-18913043D01*
X2776214Y-18884472D01*
X2761928Y-18827329D01*
X2761928Y-18755900D01*
X2776214Y-18698757D01*
X2790500Y-18670186D01*
X2804786Y-18655900D01*
X2833357Y-18641614D01*
X3061928Y-18941614D02*
X3061928Y-18741614D01*
X3061928Y-18770186D02*
X3076214Y-18755900D01*
X3104786Y-18741614D01*
X3147643Y-18741614D01*
X3176214Y-18755900D01*
X3190500Y-18784472D01*
X3190500Y-18941614D01*
X3190500Y-18784472D02*
X3204786Y-18755900D01*
X3233357Y-18741614D01*
X3276214Y-18741614D01*
X3304786Y-18755900D01*
X3319071Y-18784472D01*
X3319071Y-18941614D01*
X3461928Y-18941614D02*
X3461928Y-18741614D01*
X3461928Y-18770186D02*
X3476214Y-18755900D01*
X3504786Y-18741614D01*
X3547643Y-18741614D01*
X3576214Y-18755900D01*
X3590500Y-18784472D01*
X3590500Y-18941614D01*
X3590500Y-18784472D02*
X3604786Y-18755900D01*
X3633357Y-18741614D01*
X3676214Y-18741614D01*
X3704786Y-18755900D01*
X3719071Y-18784472D01*
X3719071Y-18941614D01*
X4304786Y-18627329D02*
X4047643Y-19013043D01*
X4690500Y-18641614D02*
X4719071Y-18641614D01*
X4747643Y-18655900D01*
X4761928Y-18670186D01*
X4776214Y-18698757D01*
X4790500Y-18755900D01*
X4790500Y-18827329D01*
X4776214Y-18884472D01*
X4761928Y-18913043D01*
X4747643Y-18927329D01*
X4719071Y-18941614D01*
X4690500Y-18941614D01*
X4661928Y-18927329D01*
X4647643Y-18913043D01*
X4633357Y-18884472D01*
X4619071Y-18827329D01*
X4619071Y-18755900D01*
X4633357Y-18698757D01*
X4647643Y-18670186D01*
X4661928Y-18655900D01*
X4690500Y-18641614D01*
X4919071Y-18913043D02*
X4933357Y-18927329D01*
X4919071Y-18941614D01*
X4904786Y-18927329D01*
X4919071Y-18913043D01*
X4919071Y-18941614D01*
X5119071Y-18641614D02*
X5147643Y-18641614D01*
X5176214Y-18655900D01*
X5190500Y-18670186D01*
X5204786Y-18698757D01*
X5219071Y-18755900D01*
X5219071Y-18827329D01*
X5204786Y-18884472D01*
X5190500Y-18913043D01*
X5176214Y-18927329D01*
X5147643Y-18941614D01*
X5119071Y-18941614D01*
X5090500Y-18927329D01*
X5076214Y-18913043D01*
X5061928Y-18884472D01*
X5047643Y-18827329D01*
X5047643Y-18755900D01*
X5061928Y-18698757D01*
X5076214Y-18670186D01*
X5090500Y-18655900D01*
X5119071Y-18641614D01*
X5319071Y-18641614D02*
X5519071Y-18641614D01*
X5390500Y-18941614D01*
X5647643Y-18941614D02*
X5704786Y-18941614D01*
X5733357Y-18927329D01*
X5747643Y-18913043D01*
X5776214Y-18870186D01*
X5790500Y-18813043D01*
X5790500Y-18698757D01*
X5776214Y-18670186D01*
X5761928Y-18655900D01*
X5733357Y-18641614D01*
X5676214Y-18641614D01*
X5647643Y-18655900D01*
X5633357Y-18670186D01*
X5619071Y-18698757D01*
X5619071Y-18770186D01*
X5633357Y-18798757D01*
X5647643Y-18813043D01*
X5676214Y-18827329D01*
X5733357Y-18827329D01*
X5761928Y-18813043D01*
X5776214Y-18798757D01*
X5790500Y-18770186D01*
X5904786Y-18641614D02*
X5904786Y-18698757D01*
X6019071Y-18641614D02*
X6019071Y-18698757D01*
X6461928Y-19055900D02*
X6447643Y-19041614D01*
X6419071Y-18998757D01*
X6404786Y-18970186D01*
X6390500Y-18927329D01*
X6376214Y-18855900D01*
X6376214Y-18798757D01*
X6390500Y-18727329D01*
X6404786Y-18684472D01*
X6419071Y-18655900D01*
X6447643Y-18613043D01*
X6461928Y-18598757D01*
X6561928Y-18670186D02*
X6576214Y-18655900D01*
X6604786Y-18641614D01*
X6676214Y-18641614D01*
X6704786Y-18655900D01*
X6719071Y-18670186D01*
X6733357Y-18698757D01*
X6733357Y-18727329D01*
X6719071Y-18770186D01*
X6547643Y-18941614D01*
X6733357Y-18941614D01*
X7090500Y-18941614D02*
X7090500Y-18641614D01*
X7219071Y-18941614D02*
X7219071Y-18784472D01*
X7204786Y-18755900D01*
X7176214Y-18741614D01*
X7133357Y-18741614D01*
X7104786Y-18755900D01*
X7090500Y-18770186D01*
X7404786Y-18941614D02*
X7376214Y-18927329D01*
X7361928Y-18913043D01*
X7347643Y-18884472D01*
X7347643Y-18798757D01*
X7361928Y-18770186D01*
X7376214Y-18755900D01*
X7404786Y-18741614D01*
X7447643Y-18741614D01*
X7476214Y-18755900D01*
X7490500Y-18770186D01*
X7504786Y-18798757D01*
X7504786Y-18884472D01*
X7490500Y-18913043D01*
X7476214Y-18927329D01*
X7447643Y-18941614D01*
X7404786Y-18941614D01*
X7676214Y-18941614D02*
X7647643Y-18927329D01*
X7633357Y-18898757D01*
X7633357Y-18641614D01*
X7904786Y-18927329D02*
X7876214Y-18941614D01*
X7819071Y-18941614D01*
X7790500Y-18927329D01*
X7776214Y-18898757D01*
X7776214Y-18784472D01*
X7790500Y-18755900D01*
X7819071Y-18741614D01*
X7876214Y-18741614D01*
X7904786Y-18755900D01*
X7919071Y-18784472D01*
X7919071Y-18813043D01*
X7776214Y-18841614D01*
X8033357Y-18927329D02*
X8061928Y-18941614D01*
X8119071Y-18941614D01*
X8147643Y-18927329D01*
X8161928Y-18898757D01*
X8161928Y-18884472D01*
X8147643Y-18855900D01*
X8119071Y-18841614D01*
X8076214Y-18841614D01*
X8047643Y-18827329D01*
X8033357Y-18798757D01*
X8033357Y-18784472D01*
X8047643Y-18755900D01*
X8076214Y-18741614D01*
X8119071Y-18741614D01*
X8147643Y-18755900D01*
X8261928Y-19055900D02*
X8276214Y-19041614D01*
X8304786Y-18998757D01*
X8319071Y-18970186D01*
X8333357Y-18927329D01*
X8347643Y-18855900D01*
X8347643Y-18798757D01*
X8333357Y-18727329D01*
X8319071Y-18684472D01*
X8304786Y-18655900D01*
X8276214Y-18613043D01*
X8261928Y-18598757D01*
X1625500Y-19051900D02*
X1625500Y-19351900D01*
X1475500Y-19201900D02*
X1775500Y-19201900D01*
X1731567Y-19307967D02*
X1731567Y-19095833D01*
X1519433Y-19095833D01*
X1519433Y-19307967D01*
X1731567Y-19307967D01*
X2033357Y-19037614D02*
X2219071Y-19037614D01*
X2119071Y-19151900D01*
X2161928Y-19151900D01*
X2190500Y-19166186D01*
X2204786Y-19180472D01*
X2219071Y-19209043D01*
X2219071Y-19280472D01*
X2204786Y-19309043D01*
X2190500Y-19323329D01*
X2161928Y-19337614D01*
X2076214Y-19337614D01*
X2047643Y-19323329D01*
X2033357Y-19309043D01*
X2347643Y-19309043D02*
X2361928Y-19323329D01*
X2347643Y-19337614D01*
X2333357Y-19323329D01*
X2347643Y-19309043D01*
X2347643Y-19337614D01*
X2547643Y-19037614D02*
X2576214Y-19037614D01*
X2604786Y-19051900D01*
X2619071Y-19066186D01*
X2633357Y-19094757D01*
X2647643Y-19151900D01*
X2647643Y-19223329D01*
X2633357Y-19280472D01*
X2619071Y-19309043D01*
X2604786Y-19323329D01*
X2576214Y-19337614D01*
X2547643Y-19337614D01*
X2519071Y-19323329D01*
X2504786Y-19309043D01*
X2490500Y-19280472D01*
X2476214Y-19223329D01*
X2476214Y-19151900D01*
X2490500Y-19094757D01*
X2504786Y-19066186D01*
X2519071Y-19051900D01*
X2547643Y-19037614D01*
X2833357Y-19037614D02*
X2861928Y-19037614D01*
X2890500Y-19051900D01*
X2904786Y-19066186D01*
X2919071Y-19094757D01*
X2933357Y-19151900D01*
X2933357Y-19223329D01*
X2919071Y-19280472D01*
X2904786Y-19309043D01*
X2890500Y-19323329D01*
X2861928Y-19337614D01*
X2833357Y-19337614D01*
X2804786Y-19323329D01*
X2790500Y-19309043D01*
X2776214Y-19280472D01*
X2761928Y-19223329D01*
X2761928Y-19151900D01*
X2776214Y-19094757D01*
X2790500Y-19066186D01*
X2804786Y-19051900D01*
X2833357Y-19037614D01*
X3061928Y-19337614D02*
X3061928Y-19137614D01*
X3061928Y-19166186D02*
X3076214Y-19151900D01*
X3104786Y-19137614D01*
X3147643Y-19137614D01*
X3176214Y-19151900D01*
X3190500Y-19180472D01*
X3190500Y-19337614D01*
X3190500Y-19180472D02*
X3204786Y-19151900D01*
X3233357Y-19137614D01*
X3276214Y-19137614D01*
X3304786Y-19151900D01*
X3319071Y-19180472D01*
X3319071Y-19337614D01*
X3461928Y-19337614D02*
X3461928Y-19137614D01*
X3461928Y-19166186D02*
X3476214Y-19151900D01*
X3504786Y-19137614D01*
X3547643Y-19137614D01*
X3576214Y-19151900D01*
X3590500Y-19180472D01*
X3590500Y-19337614D01*
X3590500Y-19180472D02*
X3604786Y-19151900D01*
X3633357Y-19137614D01*
X3676214Y-19137614D01*
X3704786Y-19151900D01*
X3719071Y-19180472D01*
X3719071Y-19337614D01*
X4304786Y-19023329D02*
X4047643Y-19409043D01*
X4690500Y-19037614D02*
X4719071Y-19037614D01*
X4747643Y-19051900D01*
X4761928Y-19066186D01*
X4776214Y-19094757D01*
X4790500Y-19151900D01*
X4790500Y-19223329D01*
X4776214Y-19280472D01*
X4761928Y-19309043D01*
X4747643Y-19323329D01*
X4719071Y-19337614D01*
X4690500Y-19337614D01*
X4661928Y-19323329D01*
X4647643Y-19309043D01*
X4633357Y-19280472D01*
X4619071Y-19223329D01*
X4619071Y-19151900D01*
X4633357Y-19094757D01*
X4647643Y-19066186D01*
X4661928Y-19051900D01*
X4690500Y-19037614D01*
X4919071Y-19309043D02*
X4933357Y-19323329D01*
X4919071Y-19337614D01*
X4904786Y-19323329D01*
X4919071Y-19309043D01*
X4919071Y-19337614D01*
X5219071Y-19337614D02*
X5047643Y-19337614D01*
X5133357Y-19337614D02*
X5133357Y-19037614D01*
X5104786Y-19080472D01*
X5076214Y-19109043D01*
X5047643Y-19123329D01*
X5504786Y-19337614D02*
X5333357Y-19337614D01*
X5419071Y-19337614D02*
X5419071Y-19037614D01*
X5390500Y-19080472D01*
X5361928Y-19109043D01*
X5333357Y-19123329D01*
X5676214Y-19166186D02*
X5647643Y-19151900D01*
X5633357Y-19137614D01*
X5619071Y-19109043D01*
X5619071Y-19094757D01*
X5633357Y-19066186D01*
X5647643Y-19051900D01*
X5676214Y-19037614D01*
X5733357Y-19037614D01*
X5761928Y-19051900D01*
X5776214Y-19066186D01*
X5790500Y-19094757D01*
X5790500Y-19109043D01*
X5776214Y-19137614D01*
X5761928Y-19151900D01*
X5733357Y-19166186D01*
X5676214Y-19166186D01*
X5647643Y-19180472D01*
X5633357Y-19194757D01*
X5619071Y-19223329D01*
X5619071Y-19280472D01*
X5633357Y-19309043D01*
X5647643Y-19323329D01*
X5676214Y-19337614D01*
X5733357Y-19337614D01*
X5761928Y-19323329D01*
X5776214Y-19309043D01*
X5790500Y-19280472D01*
X5790500Y-19223329D01*
X5776214Y-19194757D01*
X5761928Y-19180472D01*
X5733357Y-19166186D01*
X5904786Y-19037614D02*
X5904786Y-19094757D01*
X6019071Y-19037614D02*
X6019071Y-19094757D01*
X6461928Y-19451900D02*
X6447643Y-19437614D01*
X6419071Y-19394757D01*
X6404786Y-19366186D01*
X6390500Y-19323329D01*
X6376214Y-19251900D01*
X6376214Y-19194757D01*
X6390500Y-19123329D01*
X6404786Y-19080472D01*
X6419071Y-19051900D01*
X6447643Y-19009043D01*
X6461928Y-18994757D01*
X6719071Y-19037614D02*
X6576214Y-19037614D01*
X6561928Y-19180472D01*
X6576214Y-19166186D01*
X6604786Y-19151900D01*
X6676214Y-19151900D01*
X6704786Y-19166186D01*
X6719071Y-19180472D01*
X6733357Y-19209043D01*
X6733357Y-19280472D01*
X6719071Y-19309043D01*
X6704786Y-19323329D01*
X6676214Y-19337614D01*
X6604786Y-19337614D01*
X6576214Y-19323329D01*
X6561928Y-19309043D01*
X7090500Y-19337614D02*
X7090500Y-19037614D01*
X7219071Y-19337614D02*
X7219071Y-19180472D01*
X7204786Y-19151900D01*
X7176214Y-19137614D01*
X7133357Y-19137614D01*
X7104786Y-19151900D01*
X7090500Y-19166186D01*
X7404786Y-19337614D02*
X7376214Y-19323329D01*
X7361928Y-19309043D01*
X7347643Y-19280472D01*
X7347643Y-19194757D01*
X7361928Y-19166186D01*
X7376214Y-19151900D01*
X7404786Y-19137614D01*
X7447643Y-19137614D01*
X7476214Y-19151900D01*
X7490500Y-19166186D01*
X7504786Y-19194757D01*
X7504786Y-19280472D01*
X7490500Y-19309043D01*
X7476214Y-19323329D01*
X7447643Y-19337614D01*
X7404786Y-19337614D01*
X7676214Y-19337614D02*
X7647643Y-19323329D01*
X7633357Y-19294757D01*
X7633357Y-19037614D01*
X7904786Y-19323329D02*
X7876214Y-19337614D01*
X7819071Y-19337614D01*
X7790500Y-19323329D01*
X7776214Y-19294757D01*
X7776214Y-19180472D01*
X7790500Y-19151900D01*
X7819071Y-19137614D01*
X7876214Y-19137614D01*
X7904786Y-19151900D01*
X7919071Y-19180472D01*
X7919071Y-19209043D01*
X7776214Y-19237614D01*
X8033357Y-19323329D02*
X8061928Y-19337614D01*
X8119071Y-19337614D01*
X8147643Y-19323329D01*
X8161928Y-19294757D01*
X8161928Y-19280472D01*
X8147643Y-19251900D01*
X8119071Y-19237614D01*
X8076214Y-19237614D01*
X8047643Y-19223329D01*
X8033357Y-19194757D01*
X8033357Y-19180472D01*
X8047643Y-19151900D01*
X8076214Y-19137614D01*
X8119071Y-19137614D01*
X8147643Y-19151900D01*
X8261928Y-19451900D02*
X8276214Y-19437614D01*
X8304786Y-19394757D01*
X8319071Y-19366186D01*
X8333357Y-19323329D01*
X8347643Y-19251900D01*
X8347643Y-19194757D01*
X8333357Y-19123329D01*
X8319071Y-19080472D01*
X8304786Y-19051900D01*
X8276214Y-19009043D01*
X8261928Y-18994757D01*
M02*
