M48
; DRILL file {KiCad 5.1.7-a382d34a8~88~ubuntu18.04.1} date Tue Jun  1 18:59:50 2021
; FORMAT={-:-/ absolute / metric / decimal}
; #@! TF.CreationDate,2021-06-01T18:59:50+03:00
; #@! TF.GenerationSoftware,Kicad,Pcbnew,5.1.7-a382d34a8~88~ubuntu18.04.1
; #@! TF.FileFunction,Plated,1,2,PTH
FMAT,2
METRIC
T1C0.400
T2C0.600
T3C0.650
T4C0.800
T5C1.000
T6C1.200
T7C1.300
T8C1.500
T9C1.600
T10C2.000
T11C3.000
T12C4.000
%
G90
G05
T1
X80.899Y-46.355
X116.586Y-45.72
X124.968Y-45.72
X132.08Y-45.72
X137.922Y-45.72
X145.034Y-22.86
X159.004Y-31.75
X159.004Y-36.83
X159.004Y-49.53
X160.274Y-49.53
X161.544Y-49.53
X162.46Y-29.564
X162.46Y-32.104
X162.46Y-34.644
X162.46Y-37.184
X162.814Y-49.53
X164.084Y-49.53
X165.354Y-29.21
X165.354Y-31.75
X165.354Y-34.29
X165.354Y-36.83
X165.354Y-49.53
X166.624Y-49.53
T2
X56.134Y-25.146
X56.134Y-26.67
X56.134Y-28.194
X59.944Y-40.64
X61.468Y-25.654
X62.484Y-33.02
X62.484Y-35.56
X62.484Y-38.1
X62.484Y-40.64
X65.024Y-33.02
X65.024Y-35.56
X65.024Y-38.1
X65.024Y-40.64
X67.564Y-33.02
X67.564Y-35.56
X67.564Y-38.1
X67.564Y-40.64
X72.39Y-45.466
X73.914Y-33.02
X73.914Y-37.084
X74.168Y-26.67
X76.2Y-28.956
X78.486Y-25.654
X78.664Y-31.166
X78.994Y-22.352
X79.916Y-37.686
X82.867Y-36.449
X85.09Y-25.654
X86.868Y-36.322
X87.376Y-39.878
X87.651Y-78.254
X87.947Y-46.672
X90.678Y-34.036
X90.932Y-40.386
X92.71Y-43.688
X95.019Y-32.234
X97.536Y-43.18
X98.044Y-39.751
X98.044Y-44.958
X99.314Y-68.326
X99.822Y-24.892
X99.888Y-36.388
X100.584Y-44.704
X100.647Y-28.829
X103.695Y-45.974
X106.68Y-41.402
X107.378Y-33.655
X107.966Y-26.4
X108.204Y-101.6
X108.204Y-107.95
X109.474Y-102.87
X109.474Y-105.41
X110.744Y-101.6
X110.744Y-107.95
X113.284Y-101.6
X113.284Y-107.95
X115.824Y-101.6
X115.824Y-107.95
X117.856Y-30.988
X118.364Y-101.6
X118.364Y-107.95
X121.158Y-39.624
X121.666Y-34.798
X130.81Y-34.544
X130.81Y-39.116
X133.604Y-36.83
X133.604Y-41.593
X136.106Y-34.582
X136.144Y-39.116
T3
X71.564Y-107.823
X72.834Y-107.823
X74.105Y-107.823
X75.374Y-107.823
T4
X123.19Y-28.194
X125.73Y-25.654
X125.73Y-30.734
T5
X143.764Y-25.4
X143.764Y-27.94
X145.034Y-30.48
X147.574Y-29.21
X150.114Y-22.86
X150.114Y-30.48
X152.654Y-29.21
X155.194Y-22.86
X155.194Y-30.48
X132.334Y-128.27
X132.334Y-143.27
X132.588Y-156.21
X132.588Y-171.21
X37.084Y-123.19
X37.084Y-130.69
X37.084Y-138.19
X37.084Y-145.69
X37.084Y-154.94
X37.084Y-162.44
X37.084Y-169.94
X37.084Y-177.44
T6
X89.154Y-158.75
X89.154Y-171.45
X30.734Y-89.408
X71.374Y-89.408
X58.674Y-128.27
X58.674Y-140.97
X125.476Y-102.87
X166.116Y-102.87
X76.708Y-89.408
X117.348Y-89.408
X115.824Y-158.75
X115.824Y-171.45
X30.734Y-102.87
X71.374Y-102.87
X58.674Y-184.15
X89.154Y-184.15
X115.824Y-128.27
X115.824Y-140.97
X58.674Y-158.75
X58.674Y-171.45
X125.476Y-89.408
X166.116Y-89.408
X89.154Y-128.27
X89.154Y-140.97
X58.674Y-116.84
X89.154Y-116.84
T7
X145.288Y-66.548
X153.01Y-58.826
X79.248Y-66.548
X86.97Y-58.826
X112.268Y-66.548
X119.99Y-58.826
X45.822Y-66.548
X53.543Y-58.826
T8
X137.674Y-128.27
X160.274Y-128.27
X167.894Y-171.45
X167.894Y-176.53
X147.574Y-26.67
X152.654Y-26.67
X112.268Y-97.028
X117.348Y-97.028
X79.248Y-97.148
X79.248Y-104.648
X94.248Y-97.148
X94.248Y-104.648
X99.248Y-97.148
X99.248Y-104.648
X104.248Y-97.148
X104.248Y-104.648
X26.924Y-156.21
X26.924Y-161.29
X35.814Y-26.67
X40.894Y-26.67
X53.594Y-26.67
X58.674Y-26.67
X26.924Y-139.7
X26.924Y-144.78
X137.674Y-171.45
X160.274Y-171.45
X167.894Y-147.32
X167.894Y-152.4
X112.268Y-104.648
X117.348Y-104.648
X26.924Y-171.45
X26.924Y-176.53
X26.924Y-124.46
X26.924Y-129.54
X167.894Y-123.19
X167.894Y-128.27
T9
X70.612Y-21.178
T10
X34.544Y-36.322
X34.544Y-96.52
X150.114Y-96.52
X151.384Y-36.322
T11
X73.914Y-125.73
X73.914Y-175.26
X151.384Y-116.84
X151.384Y-184.15
T12
X139.737Y-53.29
X161.092Y-74.644
X73.697Y-53.29
X95.052Y-74.644
X106.717Y-53.29
X128.072Y-74.644
X40.271Y-53.29
X61.625Y-74.644
T0
M30
