G04 #@! TF.GenerationSoftware,KiCad,Pcbnew,5.1.7-a382d34a8~88~ubuntu18.04.1*
G04 #@! TF.CreationDate,2021-06-01T18:59:40+03:00*
G04 #@! TF.ProjectId,amplifier,616d706c-6966-4696-9572-2e6b69636164,rev?*
G04 #@! TF.SameCoordinates,Original*
G04 #@! TF.FileFunction,Legend,Bot*
G04 #@! TF.FilePolarity,Positive*
%FSLAX46Y46*%
G04 Gerber Fmt 4.6, Leading zero omitted, Abs format (unit mm)*
G04 Created by KiCad (PCBNEW 5.1.7-a382d34a8~88~ubuntu18.04.1) date 2021-06-01 18:59:40*
%MOMM*%
%LPD*%
G01*
G04 APERTURE LIST*
%ADD10C,0.120000*%
%ADD11C,0.150000*%
%ADD12C,2.000000*%
%ADD13R,2.000000X2.000000*%
%ADD14R,2.500000X2.500000*%
%ADD15O,2.400000X2.400000*%
%ADD16C,2.400000*%
%ADD17C,3.000000*%
%ADD18O,2.000000X2.000000*%
%ADD19C,6.350000*%
%ADD20C,2.600000*%
%ADD21C,0.100000*%
%ADD22C,1.440000*%
%ADD23O,2.500000X2.500000*%
%ADD24R,1.000000X1.000000*%
%ADD25O,1.000000X1.000000*%
G04 APERTURE END LIST*
D10*
X130511355Y-59759775D02*
X133198361Y-73760489D01*
X113187239Y-77083891D02*
X127187953Y-79770897D01*
X121813942Y-50920940D02*
X107601095Y-48163224D01*
X104348404Y-68386478D02*
X101590688Y-54315053D01*
X133163738Y-73578988D02*
G75*
G02*
X127187953Y-79770897I-5091901J-1065385D01*
G01*
X107651107Y-48145787D02*
G75*
G03*
X101590688Y-54315053I-933895J-5143961D01*
G01*
X130546725Y-59874127D02*
G75*
G03*
X121813942Y-50920940I-13152201J-4092933D01*
G01*
X113301591Y-77119261D02*
G75*
G02*
X104348404Y-68386478I4092933J13152201D01*
G01*
X163531355Y-59759775D02*
X166218361Y-73760489D01*
X146207239Y-77083891D02*
X160207953Y-79770897D01*
X154833942Y-50920940D02*
X140621095Y-48163224D01*
X137368404Y-68386478D02*
X134610688Y-54315053D01*
X166183738Y-73578988D02*
G75*
G02*
X160207953Y-79770897I-5091901J-1065385D01*
G01*
X140671107Y-48145787D02*
G75*
G03*
X134610688Y-54315053I-933895J-5143961D01*
G01*
X163566725Y-59874127D02*
G75*
G03*
X154833942Y-50920940I-13152201J-4092933D01*
G01*
X146321591Y-77119261D02*
G75*
G02*
X137368404Y-68386478I4092933J13152201D01*
G01*
X71328404Y-68386478D02*
X68570688Y-54315053D01*
X88793942Y-50920940D02*
X74581095Y-48163224D01*
X80167239Y-77083891D02*
X94167953Y-79770897D01*
X97491355Y-59759775D02*
X100178361Y-73760489D01*
X80281591Y-77119261D02*
G75*
G02*
X71328404Y-68386478I4092933J13152201D01*
G01*
X97526725Y-59874127D02*
G75*
G03*
X88793942Y-50920940I-13152201J-4092933D01*
G01*
X74631107Y-48145787D02*
G75*
G03*
X68570688Y-54315053I-933895J-5143961D01*
G01*
X100143738Y-73578988D02*
G75*
G02*
X94167953Y-79770897I-5091901J-1065385D01*
G01*
X37902004Y-68386478D02*
X35144288Y-54315053D01*
X55367542Y-50920940D02*
X41154695Y-48163224D01*
X46740839Y-77083891D02*
X60741553Y-79770897D01*
X64064955Y-59759775D02*
X66751961Y-73760489D01*
X46855191Y-77119261D02*
G75*
G02*
X37902004Y-68386478I4092933J13152201D01*
G01*
X64100325Y-59874127D02*
G75*
G03*
X55367542Y-50920940I-13152201J-4092933D01*
G01*
X41204707Y-48145787D02*
G75*
G03*
X35144288Y-54315053I-933895J-5143961D01*
G01*
X66717338Y-73578988D02*
G75*
G02*
X60741553Y-79770897I-5091901J-1065385D01*
G01*
D11*
X107016889Y-75152816D02*
X107117905Y-75186487D01*
X107252592Y-75186487D01*
X107454622Y-75186487D01*
X107555637Y-75220159D01*
X107622981Y-75287503D01*
X107420950Y-75422190D02*
X107521966Y-75455861D01*
X107656653Y-75455861D01*
X107825011Y-75354846D01*
X108060714Y-75119144D01*
X108161729Y-74950785D01*
X108161729Y-74816098D01*
X108128057Y-74715083D01*
X107993370Y-74580396D01*
X107892355Y-74546724D01*
X107757668Y-74546724D01*
X107589309Y-74647739D01*
X107353607Y-74883442D01*
X107252592Y-75051800D01*
X107252592Y-75186487D01*
X107286263Y-75287503D01*
X107420950Y-75422190D01*
X106444470Y-74445709D02*
X106848531Y-74849770D01*
X106646500Y-74647739D02*
X107353607Y-73940633D01*
X107319935Y-74108991D01*
X107319935Y-74243678D01*
X107353607Y-74344694D01*
X106814859Y-73536572D02*
X106814859Y-73469228D01*
X106781187Y-73368213D01*
X106612828Y-73199854D01*
X106511813Y-73166182D01*
X106444470Y-73166182D01*
X106343454Y-73199854D01*
X106276111Y-73267198D01*
X106208767Y-73401885D01*
X106208767Y-74210007D01*
X105771035Y-73772274D01*
X140036889Y-75152816D02*
X140137905Y-75186487D01*
X140272592Y-75186487D01*
X140474622Y-75186487D01*
X140575637Y-75220159D01*
X140642981Y-75287503D01*
X140440950Y-75422190D02*
X140541966Y-75455861D01*
X140676653Y-75455861D01*
X140845011Y-75354846D01*
X141080714Y-75119144D01*
X141181729Y-74950785D01*
X141181729Y-74816098D01*
X141148057Y-74715083D01*
X141013370Y-74580396D01*
X140912355Y-74546724D01*
X140777668Y-74546724D01*
X140609309Y-74647739D01*
X140373607Y-74883442D01*
X140272592Y-75051800D01*
X140272592Y-75186487D01*
X140306263Y-75287503D01*
X140440950Y-75422190D01*
X139464470Y-74445709D02*
X139868531Y-74849770D01*
X139666500Y-74647739D02*
X140373607Y-73940633D01*
X140339935Y-74108991D01*
X140339935Y-74243678D01*
X140373607Y-74344694D01*
X139329783Y-73368213D02*
X138858378Y-73839617D01*
X139767515Y-73267198D02*
X139430798Y-73940633D01*
X138993065Y-73502900D01*
X73996889Y-75152816D02*
X74097905Y-75186487D01*
X74232592Y-75186487D01*
X74434622Y-75186487D01*
X74535637Y-75220159D01*
X74602981Y-75287503D01*
X74400950Y-75422190D02*
X74501966Y-75455861D01*
X74636653Y-75455861D01*
X74805011Y-75354846D01*
X75040714Y-75119144D01*
X75141729Y-74950785D01*
X75141729Y-74816098D01*
X75108057Y-74715083D01*
X74973370Y-74580396D01*
X74872355Y-74546724D01*
X74737668Y-74546724D01*
X74569309Y-74647739D01*
X74333607Y-74883442D01*
X74232592Y-75051800D01*
X74232592Y-75186487D01*
X74266263Y-75287503D01*
X74400950Y-75422190D01*
X73424470Y-74445709D02*
X73828531Y-74849770D01*
X73626500Y-74647739D02*
X74333607Y-73940633D01*
X74299935Y-74108991D01*
X74299935Y-74243678D01*
X74333607Y-74344694D01*
X73895874Y-73502900D02*
X73458141Y-73065167D01*
X73424470Y-73570243D01*
X73323454Y-73469228D01*
X73222439Y-73435556D01*
X73155096Y-73435556D01*
X73054080Y-73469228D01*
X72885722Y-73637587D01*
X72852050Y-73738602D01*
X72852050Y-73805946D01*
X72885722Y-73906961D01*
X73087752Y-74108991D01*
X73188767Y-74142663D01*
X73256111Y-74142663D01*
X40570489Y-75721286D02*
X40671505Y-75754957D01*
X40806192Y-75754957D01*
X41008222Y-75754957D01*
X41109237Y-75788629D01*
X41176581Y-75855973D01*
X40974550Y-75990660D02*
X41075566Y-76024331D01*
X41210253Y-76024331D01*
X41378611Y-75923316D01*
X41614314Y-75687614D01*
X41715329Y-75519255D01*
X41715329Y-75384568D01*
X41681657Y-75283553D01*
X41546970Y-75148866D01*
X41445955Y-75115194D01*
X41311268Y-75115194D01*
X41142909Y-75216209D01*
X40907207Y-75451912D01*
X40806192Y-75620270D01*
X40806192Y-75754957D01*
X40839863Y-75855973D01*
X40974550Y-75990660D01*
X39998070Y-75014179D02*
X40402131Y-75418240D01*
X40200100Y-75216209D02*
X40907207Y-74509103D01*
X40873535Y-74677461D01*
X40873535Y-74812148D01*
X40907207Y-74913164D01*
X39324635Y-74340744D02*
X39728696Y-74744805D01*
X39526665Y-74542774D02*
X40233772Y-73835668D01*
X40200100Y-74004026D01*
X40200100Y-74138713D01*
X40233772Y-74239729D01*
%LPC*%
D12*
X58674000Y-171450000D03*
D13*
X58674000Y-158750000D03*
D14*
X167894000Y-152400000D03*
X167894000Y-147320000D03*
D15*
X89154000Y-184150000D03*
D16*
X58674000Y-184150000D03*
D12*
X115824000Y-171450000D03*
D13*
X115824000Y-158750000D03*
D12*
X115824000Y-140970000D03*
D13*
X115824000Y-128270000D03*
D14*
X167894000Y-123190000D03*
X167894000Y-128270000D03*
X26924000Y-129540000D03*
X26924000Y-124460000D03*
X26924000Y-171450000D03*
X26924000Y-176530000D03*
D17*
X160274000Y-128270000D03*
X137674000Y-128270000D03*
D14*
X167894000Y-171450000D03*
X167894000Y-176530000D03*
D13*
X89154000Y-128270000D03*
D12*
X89154000Y-140970000D03*
D13*
X58674000Y-128270000D03*
D12*
X58674000Y-140970000D03*
X37084000Y-162440000D03*
D13*
X37084000Y-154940000D03*
D12*
X37084000Y-169940000D03*
X37084000Y-177440000D03*
D14*
X26924000Y-144780000D03*
X26924000Y-139700000D03*
X26924000Y-161290000D03*
X26924000Y-156210000D03*
D13*
X132334000Y-128270000D03*
D18*
X132334000Y-143270000D03*
D17*
X137674000Y-171450000D03*
X160274000Y-171450000D03*
D12*
X37084000Y-145690000D03*
X37084000Y-138190000D03*
D13*
X37084000Y-123190000D03*
D12*
X37084000Y-130690000D03*
D16*
X58674000Y-116840000D03*
D15*
X89154000Y-116840000D03*
D18*
X132588000Y-171210000D03*
D13*
X132588000Y-156210000D03*
X89154000Y-158750000D03*
D12*
X89154000Y-171450000D03*
D19*
X128071837Y-74644373D03*
X106717212Y-53289748D03*
D20*
X119989606Y-58826394D03*
D21*
G36*
X110429522Y-66548000D02*
G01*
X112268000Y-64709522D01*
X114106478Y-66548000D01*
X112268000Y-68386478D01*
X110429522Y-66548000D01*
G37*
D19*
X161091837Y-74644373D03*
X139737212Y-53289748D03*
D20*
X153009606Y-58826394D03*
D21*
G36*
X143449522Y-66548000D02*
G01*
X145288000Y-64709522D01*
X147126478Y-66548000D01*
X145288000Y-68386478D01*
X143449522Y-66548000D01*
G37*
G36*
X77409522Y-66548000D02*
G01*
X79248000Y-64709522D01*
X81086478Y-66548000D01*
X79248000Y-68386478D01*
X77409522Y-66548000D01*
G37*
D20*
X86969606Y-58826394D03*
D19*
X73697212Y-53289748D03*
X95051837Y-74644373D03*
D22*
X125730000Y-30734000D03*
X123190000Y-28194000D03*
X125730000Y-25654000D03*
D16*
X125476000Y-102870000D03*
D15*
X166116000Y-102870000D03*
D14*
X79248000Y-104648000D03*
D23*
X94248000Y-104648000D03*
X99248000Y-104648000D03*
X104248000Y-104648000D03*
X104248000Y-97148000D03*
X99248000Y-97148000D03*
X94248000Y-97148000D03*
X79248000Y-97148000D03*
D16*
X30734000Y-89408000D03*
D15*
X71374000Y-89408000D03*
X71374000Y-102870000D03*
D16*
X30734000Y-102870000D03*
D15*
X166116000Y-89408000D03*
D16*
X125476000Y-89408000D03*
D21*
G36*
X43983122Y-66548000D02*
G01*
X45821600Y-64709522D01*
X47660078Y-66548000D01*
X45821600Y-68386478D01*
X43983122Y-66548000D01*
G37*
D20*
X53543206Y-58826394D03*
D19*
X40270812Y-53289748D03*
X61625437Y-74644373D03*
D16*
X76708000Y-89408000D03*
D15*
X117348000Y-89408000D03*
D14*
X112268000Y-97028000D03*
X117348000Y-97028000D03*
X117348000Y-104648000D03*
X112268000Y-104648000D03*
X35814000Y-26670000D03*
X40894000Y-26670000D03*
X53594000Y-26670000D03*
X58674000Y-26670000D03*
X152654000Y-26670000D03*
X147574000Y-26670000D03*
X70612000Y-21178000D03*
D24*
X71564500Y-107823000D03*
D25*
X72834500Y-107823000D03*
X74104500Y-107823000D03*
X75374500Y-107823000D03*
M02*
