G04 #@! TF.GenerationSoftware,KiCad,Pcbnew,5.1.7-a382d34a8~88~ubuntu18.04.1*
G04 #@! TF.CreationDate,2021-06-01T18:59:40+03:00*
G04 #@! TF.ProjectId,amplifier,616d706c-6966-4696-9572-2e6b69636164,rev?*
G04 #@! TF.SameCoordinates,Original*
G04 #@! TF.FileFunction,Soldermask,Top*
G04 #@! TF.FilePolarity,Negative*
%FSLAX46Y46*%
G04 Gerber Fmt 4.6, Leading zero omitted, Abs format (unit mm)*
G04 Created by KiCad (PCBNEW 5.1.7-a382d34a8~88~ubuntu18.04.1) date 2021-06-01 18:59:40*
%MOMM*%
%LPD*%
G01*
G04 APERTURE LIST*
%ADD10C,2.000000*%
%ADD11R,2.000000X2.000000*%
%ADD12R,2.500000X2.500000*%
%ADD13O,2.400000X2.400000*%
%ADD14C,2.400000*%
%ADD15C,3.000000*%
%ADD16O,2.000000X2.000000*%
%ADD17C,6.350000*%
%ADD18C,2.600000*%
%ADD19C,0.100000*%
%ADD20R,0.900000X0.800000*%
%ADD21R,0.800000X0.900000*%
%ADD22R,0.900000X1.200000*%
%ADD23R,0.900000X2.300000*%
%ADD24R,0.500000X0.500000*%
%ADD25C,1.440000*%
%ADD26O,2.500000X2.500000*%
%ADD27R,1.000000X1.000000*%
%ADD28O,1.000000X1.000000*%
%ADD29C,0.254000*%
G04 APERTURE END LIST*
D10*
X58674000Y-171450000D03*
D11*
X58674000Y-158750000D03*
G36*
G01*
X162969001Y-159448000D02*
X160118999Y-159448000D01*
G75*
G02*
X159869000Y-159198001I0J249999D01*
G01*
X159869000Y-158297999D01*
G75*
G02*
X160118999Y-158048000I249999J0D01*
G01*
X162969001Y-158048000D01*
G75*
G02*
X163219000Y-158297999I0J-249999D01*
G01*
X163219000Y-159198001D01*
G75*
G02*
X162969001Y-159448000I-249999J0D01*
G01*
G37*
G36*
G01*
X162969001Y-165548000D02*
X160118999Y-165548000D01*
G75*
G02*
X159869000Y-165298001I0J249999D01*
G01*
X159869000Y-164397999D01*
G75*
G02*
X160118999Y-164148000I249999J0D01*
G01*
X162969001Y-164148000D01*
G75*
G02*
X163219000Y-164397999I0J-249999D01*
G01*
X163219000Y-165298001D01*
G75*
G02*
X162969001Y-165548000I-249999J0D01*
G01*
G37*
D12*
X167894000Y-152400000D03*
X167894000Y-147320000D03*
D13*
X89154000Y-184150000D03*
D14*
X58674000Y-184150000D03*
G36*
G01*
X168131500Y-158005000D02*
X167656500Y-158005000D01*
G75*
G02*
X167419000Y-157767500I0J237500D01*
G01*
X167419000Y-157192500D01*
G75*
G02*
X167656500Y-156955000I237500J0D01*
G01*
X168131500Y-156955000D01*
G75*
G02*
X168369000Y-157192500I0J-237500D01*
G01*
X168369000Y-157767500D01*
G75*
G02*
X168131500Y-158005000I-237500J0D01*
G01*
G37*
G36*
G01*
X168131500Y-159755000D02*
X167656500Y-159755000D01*
G75*
G02*
X167419000Y-159517500I0J237500D01*
G01*
X167419000Y-158942500D01*
G75*
G02*
X167656500Y-158705000I237500J0D01*
G01*
X168131500Y-158705000D01*
G75*
G02*
X168369000Y-158942500I0J-237500D01*
G01*
X168369000Y-159517500D01*
G75*
G02*
X168131500Y-159755000I-237500J0D01*
G01*
G37*
G36*
G01*
X167656500Y-163342500D02*
X168131500Y-163342500D01*
G75*
G02*
X168369000Y-163580000I0J-237500D01*
G01*
X168369000Y-164080000D01*
G75*
G02*
X168131500Y-164317500I-237500J0D01*
G01*
X167656500Y-164317500D01*
G75*
G02*
X167419000Y-164080000I0J237500D01*
G01*
X167419000Y-163580000D01*
G75*
G02*
X167656500Y-163342500I237500J0D01*
G01*
G37*
G36*
G01*
X167656500Y-161517500D02*
X168131500Y-161517500D01*
G75*
G02*
X168369000Y-161755000I0J-237500D01*
G01*
X168369000Y-162255000D01*
G75*
G02*
X168131500Y-162492500I-237500J0D01*
G01*
X167656500Y-162492500D01*
G75*
G02*
X167419000Y-162255000I0J237500D01*
G01*
X167419000Y-161755000D01*
G75*
G02*
X167656500Y-161517500I237500J0D01*
G01*
G37*
D10*
X115824000Y-171450000D03*
D11*
X115824000Y-158750000D03*
D10*
X115824000Y-140970000D03*
D11*
X115824000Y-128270000D03*
D12*
X167894000Y-123190000D03*
X167894000Y-128270000D03*
X26924000Y-129540000D03*
X26924000Y-124460000D03*
X26924000Y-171450000D03*
X26924000Y-176530000D03*
G36*
G01*
X167656500Y-139927500D02*
X168131500Y-139927500D01*
G75*
G02*
X168369000Y-140165000I0J-237500D01*
G01*
X168369000Y-140665000D01*
G75*
G02*
X168131500Y-140902500I-237500J0D01*
G01*
X167656500Y-140902500D01*
G75*
G02*
X167419000Y-140665000I0J237500D01*
G01*
X167419000Y-140165000D01*
G75*
G02*
X167656500Y-139927500I237500J0D01*
G01*
G37*
G36*
G01*
X167656500Y-141752500D02*
X168131500Y-141752500D01*
G75*
G02*
X168369000Y-141990000I0J-237500D01*
G01*
X168369000Y-142490000D01*
G75*
G02*
X168131500Y-142727500I-237500J0D01*
G01*
X167656500Y-142727500D01*
G75*
G02*
X167419000Y-142490000I0J237500D01*
G01*
X167419000Y-141990000D01*
G75*
G02*
X167656500Y-141752500I237500J0D01*
G01*
G37*
G36*
G01*
X136431000Y-137821000D02*
X137381000Y-137821000D01*
G75*
G02*
X137631000Y-138071000I0J-250000D01*
G01*
X137631000Y-138746000D01*
G75*
G02*
X137381000Y-138996000I-250000J0D01*
G01*
X136431000Y-138996000D01*
G75*
G02*
X136181000Y-138746000I0J250000D01*
G01*
X136181000Y-138071000D01*
G75*
G02*
X136431000Y-137821000I250000J0D01*
G01*
G37*
G36*
G01*
X136431000Y-139896000D02*
X137381000Y-139896000D01*
G75*
G02*
X137631000Y-140146000I0J-250000D01*
G01*
X137631000Y-140821000D01*
G75*
G02*
X137381000Y-141071000I-250000J0D01*
G01*
X136431000Y-141071000D01*
G75*
G02*
X136181000Y-140821000I0J250000D01*
G01*
X136181000Y-140146000D01*
G75*
G02*
X136431000Y-139896000I250000J0D01*
G01*
G37*
G36*
G01*
X168131500Y-138560000D02*
X167656500Y-138560000D01*
G75*
G02*
X167419000Y-138322500I0J237500D01*
G01*
X167419000Y-137747500D01*
G75*
G02*
X167656500Y-137510000I237500J0D01*
G01*
X168131500Y-137510000D01*
G75*
G02*
X168369000Y-137747500I0J-237500D01*
G01*
X168369000Y-138322500D01*
G75*
G02*
X168131500Y-138560000I-237500J0D01*
G01*
G37*
G36*
G01*
X168131500Y-136810000D02*
X167656500Y-136810000D01*
G75*
G02*
X167419000Y-136572500I0J237500D01*
G01*
X167419000Y-135997500D01*
G75*
G02*
X167656500Y-135760000I237500J0D01*
G01*
X168131500Y-135760000D01*
G75*
G02*
X168369000Y-135997500I0J-237500D01*
G01*
X168369000Y-136572500D01*
G75*
G02*
X168131500Y-136810000I-237500J0D01*
G01*
G37*
G36*
G01*
X154719000Y-161740000D02*
X155669000Y-161740000D01*
G75*
G02*
X155919000Y-161990000I0J-250000D01*
G01*
X155919000Y-162665000D01*
G75*
G02*
X155669000Y-162915000I-250000J0D01*
G01*
X154719000Y-162915000D01*
G75*
G02*
X154469000Y-162665000I0J250000D01*
G01*
X154469000Y-161990000D01*
G75*
G02*
X154719000Y-161740000I250000J0D01*
G01*
G37*
G36*
G01*
X154719000Y-159665000D02*
X155669000Y-159665000D01*
G75*
G02*
X155919000Y-159915000I0J-250000D01*
G01*
X155919000Y-160590000D01*
G75*
G02*
X155669000Y-160840000I-250000J0D01*
G01*
X154719000Y-160840000D01*
G75*
G02*
X154469000Y-160590000I0J250000D01*
G01*
X154469000Y-159915000D01*
G75*
G02*
X154719000Y-159665000I250000J0D01*
G01*
G37*
D15*
X160274000Y-128270000D03*
X137674000Y-128270000D03*
D12*
X167894000Y-171450000D03*
X167894000Y-176530000D03*
G36*
G01*
X158851000Y-163863000D02*
X158851000Y-164813000D01*
G75*
G02*
X158601000Y-165063000I-250000J0D01*
G01*
X157926000Y-165063000D01*
G75*
G02*
X157676000Y-164813000I0J250000D01*
G01*
X157676000Y-163863000D01*
G75*
G02*
X157926000Y-163613000I250000J0D01*
G01*
X158601000Y-163613000D01*
G75*
G02*
X158851000Y-163863000I0J-250000D01*
G01*
G37*
G36*
G01*
X156776000Y-163863000D02*
X156776000Y-164813000D01*
G75*
G02*
X156526000Y-165063000I-250000J0D01*
G01*
X155851000Y-165063000D01*
G75*
G02*
X155601000Y-164813000I0J250000D01*
G01*
X155601000Y-163863000D01*
G75*
G02*
X155851000Y-163613000I250000J0D01*
G01*
X156526000Y-163613000D01*
G75*
G02*
X156776000Y-163863000I0J-250000D01*
G01*
G37*
D11*
X89154000Y-128270000D03*
D10*
X89154000Y-140970000D03*
D11*
X58674000Y-128270000D03*
D10*
X58674000Y-140970000D03*
G36*
G01*
X42959000Y-135302500D02*
X43909000Y-135302500D01*
G75*
G02*
X44159000Y-135552500I0J-250000D01*
G01*
X44159000Y-136227500D01*
G75*
G02*
X43909000Y-136477500I-250000J0D01*
G01*
X42959000Y-136477500D01*
G75*
G02*
X42709000Y-136227500I0J250000D01*
G01*
X42709000Y-135552500D01*
G75*
G02*
X42959000Y-135302500I250000J0D01*
G01*
G37*
G36*
G01*
X42959000Y-133227500D02*
X43909000Y-133227500D01*
G75*
G02*
X44159000Y-133477500I0J-250000D01*
G01*
X44159000Y-134152500D01*
G75*
G02*
X43909000Y-134402500I-250000J0D01*
G01*
X42959000Y-134402500D01*
G75*
G02*
X42709000Y-134152500I0J250000D01*
G01*
X42709000Y-133477500D01*
G75*
G02*
X42959000Y-133227500I250000J0D01*
G01*
G37*
X37084000Y-162440000D03*
D11*
X37084000Y-154940000D03*
D10*
X37084000Y-169940000D03*
X37084000Y-177440000D03*
G36*
G01*
X154719000Y-138880000D02*
X155669000Y-138880000D01*
G75*
G02*
X155919000Y-139130000I0J-250000D01*
G01*
X155919000Y-139805000D01*
G75*
G02*
X155669000Y-140055000I-250000J0D01*
G01*
X154719000Y-140055000D01*
G75*
G02*
X154469000Y-139805000I0J250000D01*
G01*
X154469000Y-139130000D01*
G75*
G02*
X154719000Y-138880000I250000J0D01*
G01*
G37*
G36*
G01*
X154719000Y-136805000D02*
X155669000Y-136805000D01*
G75*
G02*
X155919000Y-137055000I0J-250000D01*
G01*
X155919000Y-137730000D01*
G75*
G02*
X155669000Y-137980000I-250000J0D01*
G01*
X154719000Y-137980000D01*
G75*
G02*
X154469000Y-137730000I0J250000D01*
G01*
X154469000Y-137055000D01*
G75*
G02*
X154719000Y-136805000I250000J0D01*
G01*
G37*
D12*
X26924000Y-144780000D03*
X26924000Y-139700000D03*
X26924000Y-161290000D03*
X26924000Y-156210000D03*
D11*
X132334000Y-128270000D03*
D16*
X132334000Y-143270000D03*
D15*
X137674000Y-171450000D03*
X160274000Y-171450000D03*
G36*
G01*
X136204000Y-136807001D02*
X136204000Y-133956999D01*
G75*
G02*
X136453999Y-133707000I249999J0D01*
G01*
X137354001Y-133707000D01*
G75*
G02*
X137604000Y-133956999I0J-249999D01*
G01*
X137604000Y-136807001D01*
G75*
G02*
X137354001Y-137057000I-249999J0D01*
G01*
X136453999Y-137057000D01*
G75*
G02*
X136204000Y-136807001I0J249999D01*
G01*
G37*
G36*
G01*
X142304000Y-136807001D02*
X142304000Y-133956999D01*
G75*
G02*
X142553999Y-133707000I249999J0D01*
G01*
X143454001Y-133707000D01*
G75*
G02*
X143704000Y-133956999I0J-249999D01*
G01*
X143704000Y-136807001D01*
G75*
G02*
X143454001Y-137057000I-249999J0D01*
G01*
X142553999Y-137057000D01*
G75*
G02*
X142304000Y-136807001I0J249999D01*
G01*
G37*
D10*
X37084000Y-145690000D03*
X37084000Y-138190000D03*
D11*
X37084000Y-123190000D03*
D10*
X37084000Y-130690000D03*
D14*
X58674000Y-116840000D03*
D13*
X89154000Y-116840000D03*
D16*
X132588000Y-171210000D03*
D11*
X132588000Y-156210000D03*
X89154000Y-158750000D03*
D10*
X89154000Y-171450000D03*
G36*
G01*
X42959000Y-164512500D02*
X43909000Y-164512500D01*
G75*
G02*
X44159000Y-164762500I0J-250000D01*
G01*
X44159000Y-165437500D01*
G75*
G02*
X43909000Y-165687500I-250000J0D01*
G01*
X42959000Y-165687500D01*
G75*
G02*
X42709000Y-165437500I0J250000D01*
G01*
X42709000Y-164762500D01*
G75*
G02*
X42959000Y-164512500I250000J0D01*
G01*
G37*
G36*
G01*
X42959000Y-166587500D02*
X43909000Y-166587500D01*
G75*
G02*
X44159000Y-166837500I0J-250000D01*
G01*
X44159000Y-167512500D01*
G75*
G02*
X43909000Y-167762500I-250000J0D01*
G01*
X42959000Y-167762500D01*
G75*
G02*
X42709000Y-167512500I0J250000D01*
G01*
X42709000Y-166837500D01*
G75*
G02*
X42959000Y-166587500I250000J0D01*
G01*
G37*
D17*
X128071837Y-74644373D03*
X106717212Y-53289748D03*
D18*
X119989606Y-58826394D03*
D19*
G36*
X110429522Y-66548000D02*
G01*
X112268000Y-64709522D01*
X114106478Y-66548000D01*
X112268000Y-68386478D01*
X110429522Y-66548000D01*
G37*
G36*
G01*
X94217500Y-34547000D02*
X93742500Y-34547000D01*
G75*
G02*
X93505000Y-34309500I0J237500D01*
G01*
X93505000Y-33809500D01*
G75*
G02*
X93742500Y-33572000I237500J0D01*
G01*
X94217500Y-33572000D01*
G75*
G02*
X94455000Y-33809500I0J-237500D01*
G01*
X94455000Y-34309500D01*
G75*
G02*
X94217500Y-34547000I-237500J0D01*
G01*
G37*
G36*
G01*
X94217500Y-32722000D02*
X93742500Y-32722000D01*
G75*
G02*
X93505000Y-32484500I0J237500D01*
G01*
X93505000Y-31984500D01*
G75*
G02*
X93742500Y-31747000I237500J0D01*
G01*
X94217500Y-31747000D01*
G75*
G02*
X94455000Y-31984500I0J-237500D01*
G01*
X94455000Y-32484500D01*
G75*
G02*
X94217500Y-32722000I-237500J0D01*
G01*
G37*
G36*
G01*
X113416000Y-39074000D02*
X113416000Y-40174000D01*
G75*
G02*
X113166000Y-40424000I-250000J0D01*
G01*
X110166000Y-40424000D01*
G75*
G02*
X109916000Y-40174000I0J250000D01*
G01*
X109916000Y-39074000D01*
G75*
G02*
X110166000Y-38824000I250000J0D01*
G01*
X113166000Y-38824000D01*
G75*
G02*
X113416000Y-39074000I0J-250000D01*
G01*
G37*
G36*
G01*
X108016000Y-39074000D02*
X108016000Y-40174000D01*
G75*
G02*
X107766000Y-40424000I-250000J0D01*
G01*
X104766000Y-40424000D01*
G75*
G02*
X104516000Y-40174000I0J250000D01*
G01*
X104516000Y-39074000D01*
G75*
G02*
X104766000Y-38824000I250000J0D01*
G01*
X107766000Y-38824000D01*
G75*
G02*
X108016000Y-39074000I0J-250000D01*
G01*
G37*
D17*
X161091837Y-74644373D03*
X139737212Y-53289748D03*
D18*
X153009606Y-58826394D03*
D19*
G36*
X143449522Y-66548000D02*
G01*
X145288000Y-64709522D01*
X147126478Y-66548000D01*
X145288000Y-68386478D01*
X143449522Y-66548000D01*
G37*
G36*
G01*
X153860000Y-39391997D02*
X153860000Y-48492003D01*
G75*
G02*
X153610003Y-48742000I-249997J0D01*
G01*
X146309997Y-48742000D01*
G75*
G02*
X146060000Y-48492003I0J249997D01*
G01*
X146060000Y-39391997D01*
G75*
G02*
X146309997Y-39142000I249997J0D01*
G01*
X153610003Y-39142000D01*
G75*
G02*
X153860000Y-39391997I0J-249997D01*
G01*
G37*
G36*
G01*
X166360000Y-39391997D02*
X166360000Y-48492003D01*
G75*
G02*
X166110003Y-48742000I-249997J0D01*
G01*
X158809997Y-48742000D01*
G75*
G02*
X158560000Y-48492003I0J249997D01*
G01*
X158560000Y-39391997D01*
G75*
G02*
X158809997Y-39142000I249997J0D01*
G01*
X166110003Y-39142000D01*
G75*
G02*
X166360000Y-39391997I0J-249997D01*
G01*
G37*
G36*
G01*
X108187500Y-23451000D02*
X107712500Y-23451000D01*
G75*
G02*
X107475000Y-23213500I0J237500D01*
G01*
X107475000Y-22713500D01*
G75*
G02*
X107712500Y-22476000I237500J0D01*
G01*
X108187500Y-22476000D01*
G75*
G02*
X108425000Y-22713500I0J-237500D01*
G01*
X108425000Y-23213500D01*
G75*
G02*
X108187500Y-23451000I-237500J0D01*
G01*
G37*
G36*
G01*
X108187500Y-25276000D02*
X107712500Y-25276000D01*
G75*
G02*
X107475000Y-25038500I0J237500D01*
G01*
X107475000Y-24538500D01*
G75*
G02*
X107712500Y-24301000I237500J0D01*
G01*
X108187500Y-24301000D01*
G75*
G02*
X108425000Y-24538500I0J-237500D01*
G01*
X108425000Y-25038500D01*
G75*
G02*
X108187500Y-25276000I-237500J0D01*
G01*
G37*
G36*
G01*
X82084000Y-24704000D02*
X80984000Y-24704000D01*
G75*
G02*
X80734000Y-24454000I0J250000D01*
G01*
X80734000Y-21454000D01*
G75*
G02*
X80984000Y-21204000I250000J0D01*
G01*
X82084000Y-21204000D01*
G75*
G02*
X82334000Y-21454000I0J-250000D01*
G01*
X82334000Y-24454000D01*
G75*
G02*
X82084000Y-24704000I-250000J0D01*
G01*
G37*
G36*
G01*
X82084000Y-30104000D02*
X80984000Y-30104000D01*
G75*
G02*
X80734000Y-29854000I0J250000D01*
G01*
X80734000Y-26854000D01*
G75*
G02*
X80984000Y-26604000I250000J0D01*
G01*
X82084000Y-26604000D01*
G75*
G02*
X82334000Y-26854000I0J-250000D01*
G01*
X82334000Y-29854000D01*
G75*
G02*
X82084000Y-30104000I-250000J0D01*
G01*
G37*
G36*
G01*
X80602900Y-34230300D02*
X80602900Y-34705300D01*
G75*
G02*
X80365400Y-34942800I-237500J0D01*
G01*
X79865400Y-34942800D01*
G75*
G02*
X79627900Y-34705300I0J237500D01*
G01*
X79627900Y-34230300D01*
G75*
G02*
X79865400Y-33992800I237500J0D01*
G01*
X80365400Y-33992800D01*
G75*
G02*
X80602900Y-34230300I0J-237500D01*
G01*
G37*
G36*
G01*
X82427900Y-34230300D02*
X82427900Y-34705300D01*
G75*
G02*
X82190400Y-34942800I-237500J0D01*
G01*
X81690400Y-34942800D01*
G75*
G02*
X81452900Y-34705300I0J237500D01*
G01*
X81452900Y-34230300D01*
G75*
G02*
X81690400Y-33992800I237500J0D01*
G01*
X82190400Y-33992800D01*
G75*
G02*
X82427900Y-34230300I0J-237500D01*
G01*
G37*
G36*
G01*
X79524400Y-32927300D02*
X79524400Y-32452300D01*
G75*
G02*
X79761900Y-32214800I237500J0D01*
G01*
X80261900Y-32214800D01*
G75*
G02*
X80499400Y-32452300I0J-237500D01*
G01*
X80499400Y-32927300D01*
G75*
G02*
X80261900Y-33164800I-237500J0D01*
G01*
X79761900Y-33164800D01*
G75*
G02*
X79524400Y-32927300I0J237500D01*
G01*
G37*
G36*
G01*
X81349400Y-32927300D02*
X81349400Y-32452300D01*
G75*
G02*
X81586900Y-32214800I237500J0D01*
G01*
X82086900Y-32214800D01*
G75*
G02*
X82324400Y-32452300I0J-237500D01*
G01*
X82324400Y-32927300D01*
G75*
G02*
X82086900Y-33164800I-237500J0D01*
G01*
X81586900Y-33164800D01*
G75*
G02*
X81349400Y-32927300I0J237500D01*
G01*
G37*
G36*
G01*
X82324400Y-30928300D02*
X82324400Y-31403300D01*
G75*
G02*
X82086900Y-31640800I-237500J0D01*
G01*
X81586900Y-31640800D01*
G75*
G02*
X81349400Y-31403300I0J237500D01*
G01*
X81349400Y-30928300D01*
G75*
G02*
X81586900Y-30690800I237500J0D01*
G01*
X82086900Y-30690800D01*
G75*
G02*
X82324400Y-30928300I0J-237500D01*
G01*
G37*
G36*
G01*
X80499400Y-30928300D02*
X80499400Y-31403300D01*
G75*
G02*
X80261900Y-31640800I-237500J0D01*
G01*
X79761900Y-31640800D01*
G75*
G02*
X79524400Y-31403300I0J237500D01*
G01*
X79524400Y-30928300D01*
G75*
G02*
X79761900Y-30690800I237500J0D01*
G01*
X80261900Y-30690800D01*
G75*
G02*
X80499400Y-30928300I0J-237500D01*
G01*
G37*
G36*
G01*
X89450000Y-30104000D02*
X88350000Y-30104000D01*
G75*
G02*
X88100000Y-29854000I0J250000D01*
G01*
X88100000Y-26854000D01*
G75*
G02*
X88350000Y-26604000I250000J0D01*
G01*
X89450000Y-26604000D01*
G75*
G02*
X89700000Y-26854000I0J-250000D01*
G01*
X89700000Y-29854000D01*
G75*
G02*
X89450000Y-30104000I-250000J0D01*
G01*
G37*
G36*
G01*
X89450000Y-24704000D02*
X88350000Y-24704000D01*
G75*
G02*
X88100000Y-24454000I0J250000D01*
G01*
X88100000Y-21454000D01*
G75*
G02*
X88350000Y-21204000I250000J0D01*
G01*
X89450000Y-21204000D01*
G75*
G02*
X89700000Y-21454000I0J-250000D01*
G01*
X89700000Y-24454000D01*
G75*
G02*
X89450000Y-24704000I-250000J0D01*
G01*
G37*
D20*
X87106000Y-38608000D03*
X85106000Y-39558000D03*
X85106000Y-37658000D03*
G36*
G01*
X98041000Y-38464500D02*
X98041000Y-37989500D01*
G75*
G02*
X98278500Y-37752000I237500J0D01*
G01*
X98778500Y-37752000D01*
G75*
G02*
X99016000Y-37989500I0J-237500D01*
G01*
X99016000Y-38464500D01*
G75*
G02*
X98778500Y-38702000I-237500J0D01*
G01*
X98278500Y-38702000D01*
G75*
G02*
X98041000Y-38464500I0J237500D01*
G01*
G37*
G36*
G01*
X99866000Y-38464500D02*
X99866000Y-37989500D01*
G75*
G02*
X100103500Y-37752000I237500J0D01*
G01*
X100603500Y-37752000D01*
G75*
G02*
X100841000Y-37989500I0J-237500D01*
G01*
X100841000Y-38464500D01*
G75*
G02*
X100603500Y-38702000I-237500J0D01*
G01*
X100103500Y-38702000D01*
G75*
G02*
X99866000Y-38464500I0J237500D01*
G01*
G37*
X101870000Y-36388000D03*
X101870000Y-38288000D03*
X103870000Y-37338000D03*
G36*
G01*
X92326000Y-42147500D02*
X92326000Y-41672500D01*
G75*
G02*
X92563500Y-41435000I237500J0D01*
G01*
X93063500Y-41435000D01*
G75*
G02*
X93301000Y-41672500I0J-237500D01*
G01*
X93301000Y-42147500D01*
G75*
G02*
X93063500Y-42385000I-237500J0D01*
G01*
X92563500Y-42385000D01*
G75*
G02*
X92326000Y-42147500I0J237500D01*
G01*
G37*
G36*
G01*
X94151000Y-42147500D02*
X94151000Y-41672500D01*
G75*
G02*
X94388500Y-41435000I237500J0D01*
G01*
X94888500Y-41435000D01*
G75*
G02*
X95126000Y-41672500I0J-237500D01*
G01*
X95126000Y-42147500D01*
G75*
G02*
X94888500Y-42385000I-237500J0D01*
G01*
X94388500Y-42385000D01*
G75*
G02*
X94151000Y-42147500I0J237500D01*
G01*
G37*
G36*
G01*
X91964500Y-32382000D02*
X92439500Y-32382000D01*
G75*
G02*
X92677000Y-32619500I0J-237500D01*
G01*
X92677000Y-33119500D01*
G75*
G02*
X92439500Y-33357000I-237500J0D01*
G01*
X91964500Y-33357000D01*
G75*
G02*
X91727000Y-33119500I0J237500D01*
G01*
X91727000Y-32619500D01*
G75*
G02*
X91964500Y-32382000I237500J0D01*
G01*
G37*
G36*
G01*
X91964500Y-34207000D02*
X92439500Y-34207000D01*
G75*
G02*
X92677000Y-34444500I0J-237500D01*
G01*
X92677000Y-34944500D01*
G75*
G02*
X92439500Y-35182000I-237500J0D01*
G01*
X91964500Y-35182000D01*
G75*
G02*
X91727000Y-34944500I0J237500D01*
G01*
X91727000Y-34444500D01*
G75*
G02*
X91964500Y-34207000I237500J0D01*
G01*
G37*
G36*
G01*
X85962500Y-33126500D02*
X85487500Y-33126500D01*
G75*
G02*
X85250000Y-32889000I0J237500D01*
G01*
X85250000Y-32389000D01*
G75*
G02*
X85487500Y-32151500I237500J0D01*
G01*
X85962500Y-32151500D01*
G75*
G02*
X86200000Y-32389000I0J-237500D01*
G01*
X86200000Y-32889000D01*
G75*
G02*
X85962500Y-33126500I-237500J0D01*
G01*
G37*
G36*
G01*
X85962500Y-34951500D02*
X85487500Y-34951500D01*
G75*
G02*
X85250000Y-34714000I0J237500D01*
G01*
X85250000Y-34214000D01*
G75*
G02*
X85487500Y-33976500I237500J0D01*
G01*
X85962500Y-33976500D01*
G75*
G02*
X86200000Y-34214000I0J-237500D01*
G01*
X86200000Y-34714000D01*
G75*
G02*
X85962500Y-34951500I-237500J0D01*
G01*
G37*
G36*
G01*
X88789500Y-34080000D02*
X89264500Y-34080000D01*
G75*
G02*
X89502000Y-34317500I0J-237500D01*
G01*
X89502000Y-34817500D01*
G75*
G02*
X89264500Y-35055000I-237500J0D01*
G01*
X88789500Y-35055000D01*
G75*
G02*
X88552000Y-34817500I0J237500D01*
G01*
X88552000Y-34317500D01*
G75*
G02*
X88789500Y-34080000I237500J0D01*
G01*
G37*
G36*
G01*
X88789500Y-32255000D02*
X89264500Y-32255000D01*
G75*
G02*
X89502000Y-32492500I0J-237500D01*
G01*
X89502000Y-32992500D01*
G75*
G02*
X89264500Y-33230000I-237500J0D01*
G01*
X88789500Y-33230000D01*
G75*
G02*
X88552000Y-32992500I0J237500D01*
G01*
X88552000Y-32492500D01*
G75*
G02*
X88789500Y-32255000I237500J0D01*
G01*
G37*
G36*
G01*
X87011500Y-32255000D02*
X87486500Y-32255000D01*
G75*
G02*
X87724000Y-32492500I0J-237500D01*
G01*
X87724000Y-32992500D01*
G75*
G02*
X87486500Y-33230000I-237500J0D01*
G01*
X87011500Y-33230000D01*
G75*
G02*
X86774000Y-32992500I0J237500D01*
G01*
X86774000Y-32492500D01*
G75*
G02*
X87011500Y-32255000I237500J0D01*
G01*
G37*
G36*
G01*
X87011500Y-34080000D02*
X87486500Y-34080000D01*
G75*
G02*
X87724000Y-34317500I0J-237500D01*
G01*
X87724000Y-34817500D01*
G75*
G02*
X87486500Y-35055000I-237500J0D01*
G01*
X87011500Y-35055000D01*
G75*
G02*
X86774000Y-34817500I0J237500D01*
G01*
X86774000Y-34317500D01*
G75*
G02*
X87011500Y-34080000I237500J0D01*
G01*
G37*
D21*
X98359000Y-34179000D03*
X96459000Y-34179000D03*
X97409000Y-36179000D03*
D20*
X90916000Y-41910000D03*
X88916000Y-42860000D03*
X88916000Y-40960000D03*
X92186000Y-37338000D03*
X90186000Y-38288000D03*
X90186000Y-36388000D03*
G36*
G01*
X100727500Y-33572000D02*
X101202500Y-33572000D01*
G75*
G02*
X101440000Y-33809500I0J-237500D01*
G01*
X101440000Y-34309500D01*
G75*
G02*
X101202500Y-34547000I-237500J0D01*
G01*
X100727500Y-34547000D01*
G75*
G02*
X100490000Y-34309500I0J237500D01*
G01*
X100490000Y-33809500D01*
G75*
G02*
X100727500Y-33572000I237500J0D01*
G01*
G37*
G36*
G01*
X100727500Y-31747000D02*
X101202500Y-31747000D01*
G75*
G02*
X101440000Y-31984500I0J-237500D01*
G01*
X101440000Y-32484500D01*
G75*
G02*
X101202500Y-32722000I-237500J0D01*
G01*
X100727500Y-32722000D01*
G75*
G02*
X100490000Y-32484500I0J237500D01*
G01*
X100490000Y-31984500D01*
G75*
G02*
X100727500Y-31747000I237500J0D01*
G01*
G37*
G36*
G01*
X96310000Y-38464500D02*
X96310000Y-37989500D01*
G75*
G02*
X96547500Y-37752000I237500J0D01*
G01*
X97047500Y-37752000D01*
G75*
G02*
X97285000Y-37989500I0J-237500D01*
G01*
X97285000Y-38464500D01*
G75*
G02*
X97047500Y-38702000I-237500J0D01*
G01*
X96547500Y-38702000D01*
G75*
G02*
X96310000Y-38464500I0J237500D01*
G01*
G37*
G36*
G01*
X94485000Y-38464500D02*
X94485000Y-37989500D01*
G75*
G02*
X94722500Y-37752000I237500J0D01*
G01*
X95222500Y-37752000D01*
G75*
G02*
X95460000Y-37989500I0J-237500D01*
G01*
X95460000Y-38464500D01*
G75*
G02*
X95222500Y-38702000I-237500J0D01*
G01*
X94722500Y-38702000D01*
G75*
G02*
X94485000Y-38464500I0J237500D01*
G01*
G37*
X81296000Y-37658000D03*
X81296000Y-39558000D03*
X83296000Y-38608000D03*
G36*
G01*
X84198000Y-41893500D02*
X84198000Y-41418500D01*
G75*
G02*
X84435500Y-41181000I237500J0D01*
G01*
X84935500Y-41181000D01*
G75*
G02*
X85173000Y-41418500I0J-237500D01*
G01*
X85173000Y-41893500D01*
G75*
G02*
X84935500Y-42131000I-237500J0D01*
G01*
X84435500Y-42131000D01*
G75*
G02*
X84198000Y-41893500I0J237500D01*
G01*
G37*
G36*
G01*
X86023000Y-41893500D02*
X86023000Y-41418500D01*
G75*
G02*
X86260500Y-41181000I237500J0D01*
G01*
X86760500Y-41181000D01*
G75*
G02*
X86998000Y-41418500I0J-237500D01*
G01*
X86998000Y-41893500D01*
G75*
G02*
X86760500Y-42131000I-237500J0D01*
G01*
X86260500Y-42131000D01*
G75*
G02*
X86023000Y-41893500I0J237500D01*
G01*
G37*
G36*
G01*
X83295500Y-41993000D02*
X82820500Y-41993000D01*
G75*
G02*
X82583000Y-41755500I0J237500D01*
G01*
X82583000Y-41255500D01*
G75*
G02*
X82820500Y-41018000I237500J0D01*
G01*
X83295500Y-41018000D01*
G75*
G02*
X83533000Y-41255500I0J-237500D01*
G01*
X83533000Y-41755500D01*
G75*
G02*
X83295500Y-41993000I-237500J0D01*
G01*
G37*
G36*
G01*
X83295500Y-43818000D02*
X82820500Y-43818000D01*
G75*
G02*
X82583000Y-43580500I0J237500D01*
G01*
X82583000Y-43080500D01*
G75*
G02*
X82820500Y-42843000I237500J0D01*
G01*
X83295500Y-42843000D01*
G75*
G02*
X83533000Y-43080500I0J-237500D01*
G01*
X83533000Y-43580500D01*
G75*
G02*
X83295500Y-43818000I-237500J0D01*
G01*
G37*
D22*
X99313000Y-32131000D03*
X96013000Y-32131000D03*
G36*
G01*
X96816000Y-24704000D02*
X95716000Y-24704000D01*
G75*
G02*
X95466000Y-24454000I0J250000D01*
G01*
X95466000Y-21454000D01*
G75*
G02*
X95716000Y-21204000I250000J0D01*
G01*
X96816000Y-21204000D01*
G75*
G02*
X97066000Y-21454000I0J-250000D01*
G01*
X97066000Y-24454000D01*
G75*
G02*
X96816000Y-24704000I-250000J0D01*
G01*
G37*
G36*
G01*
X96816000Y-30104000D02*
X95716000Y-30104000D01*
G75*
G02*
X95466000Y-29854000I0J250000D01*
G01*
X95466000Y-26854000D01*
G75*
G02*
X95716000Y-26604000I250000J0D01*
G01*
X96816000Y-26604000D01*
G75*
G02*
X97066000Y-26854000I0J-250000D01*
G01*
X97066000Y-29854000D01*
G75*
G02*
X96816000Y-30104000I-250000J0D01*
G01*
G37*
D19*
G36*
X77409522Y-66548000D02*
G01*
X79248000Y-64709522D01*
X81086478Y-66548000D01*
X79248000Y-68386478D01*
X77409522Y-66548000D01*
G37*
D18*
X86969606Y-58826394D03*
D17*
X73697212Y-53289748D03*
X95051837Y-74644373D03*
D19*
G36*
X114658500Y-23339500D02*
G01*
X114658500Y-27464500D01*
X114242000Y-27464500D01*
X114242000Y-29939500D01*
X113342000Y-29939500D01*
X113342000Y-27464500D01*
X112925500Y-27464500D01*
X112925500Y-23339500D01*
X114658500Y-23339500D01*
G37*
D23*
X115292000Y-28789500D03*
X112292000Y-28789500D03*
D20*
X109966000Y-28956000D03*
X107966000Y-29906000D03*
X107966000Y-28006000D03*
D22*
X91566000Y-66548000D03*
X88266000Y-66548000D03*
G36*
G01*
X116061500Y-39246000D02*
X115586500Y-39246000D01*
G75*
G02*
X115349000Y-39008500I0J237500D01*
G01*
X115349000Y-38508500D01*
G75*
G02*
X115586500Y-38271000I237500J0D01*
G01*
X116061500Y-38271000D01*
G75*
G02*
X116299000Y-38508500I0J-237500D01*
G01*
X116299000Y-39008500D01*
G75*
G02*
X116061500Y-39246000I-237500J0D01*
G01*
G37*
G36*
G01*
X116061500Y-37421000D02*
X115586500Y-37421000D01*
G75*
G02*
X115349000Y-37183500I0J237500D01*
G01*
X115349000Y-36683500D01*
G75*
G02*
X115586500Y-36446000I237500J0D01*
G01*
X116061500Y-36446000D01*
G75*
G02*
X116299000Y-36683500I0J-237500D01*
G01*
X116299000Y-37183500D01*
G75*
G02*
X116061500Y-37421000I-237500J0D01*
G01*
G37*
G36*
G01*
X81517500Y-41993000D02*
X81042500Y-41993000D01*
G75*
G02*
X80805000Y-41755500I0J237500D01*
G01*
X80805000Y-41255500D01*
G75*
G02*
X81042500Y-41018000I237500J0D01*
G01*
X81517500Y-41018000D01*
G75*
G02*
X81755000Y-41255500I0J-237500D01*
G01*
X81755000Y-41755500D01*
G75*
G02*
X81517500Y-41993000I-237500J0D01*
G01*
G37*
G36*
G01*
X81517500Y-43818000D02*
X81042500Y-43818000D01*
G75*
G02*
X80805000Y-43580500I0J237500D01*
G01*
X80805000Y-43080500D01*
G75*
G02*
X81042500Y-42843000I237500J0D01*
G01*
X81517500Y-42843000D01*
G75*
G02*
X81755000Y-43080500I0J-237500D01*
G01*
X81755000Y-43580500D01*
G75*
G02*
X81517500Y-43818000I-237500J0D01*
G01*
G37*
D23*
X131088000Y-28820000D03*
X134088000Y-28820000D03*
D19*
G36*
X133454500Y-23370000D02*
G01*
X133454500Y-27495000D01*
X133038000Y-27495000D01*
X133038000Y-29970000D01*
X132138000Y-29970000D01*
X132138000Y-27495000D01*
X131721500Y-27495000D01*
X131721500Y-23370000D01*
X133454500Y-23370000D01*
G37*
D21*
X122494000Y-36306000D03*
X124394000Y-36306000D03*
X123444000Y-34306000D03*
G36*
G01*
X137258999Y-28000000D02*
X140109001Y-28000000D01*
G75*
G02*
X140359000Y-28249999I0J-249999D01*
G01*
X140359000Y-29150001D01*
G75*
G02*
X140109001Y-29400000I-249999J0D01*
G01*
X137258999Y-29400000D01*
G75*
G02*
X137009000Y-29150001I0J249999D01*
G01*
X137009000Y-28249999D01*
G75*
G02*
X137258999Y-28000000I249999J0D01*
G01*
G37*
G36*
G01*
X137258999Y-34100000D02*
X140109001Y-34100000D01*
G75*
G02*
X140359000Y-34349999I0J-249999D01*
G01*
X140359000Y-35250001D01*
G75*
G02*
X140109001Y-35500000I-249999J0D01*
G01*
X137258999Y-35500000D01*
G75*
G02*
X137009000Y-35250001I0J249999D01*
G01*
X137009000Y-34349999D01*
G75*
G02*
X137258999Y-34100000I249999J0D01*
G01*
G37*
G36*
G01*
X117408000Y-41049001D02*
X117408000Y-38198999D01*
G75*
G02*
X117657999Y-37949000I249999J0D01*
G01*
X118558001Y-37949000D01*
G75*
G02*
X118808000Y-38198999I0J-249999D01*
G01*
X118808000Y-41049001D01*
G75*
G02*
X118558001Y-41299000I-249999J0D01*
G01*
X117657999Y-41299000D01*
G75*
G02*
X117408000Y-41049001I0J249999D01*
G01*
G37*
G36*
G01*
X123508000Y-41049001D02*
X123508000Y-38198999D01*
G75*
G02*
X123757999Y-37949000I249999J0D01*
G01*
X124658001Y-37949000D01*
G75*
G02*
X124908000Y-38198999I0J-249999D01*
G01*
X124908000Y-41049001D01*
G75*
G02*
X124658001Y-41299000I-249999J0D01*
G01*
X123757999Y-41299000D01*
G75*
G02*
X123508000Y-41049001I0J249999D01*
G01*
G37*
G36*
G01*
X120551001Y-29400000D02*
X117700999Y-29400000D01*
G75*
G02*
X117451000Y-29150001I0J249999D01*
G01*
X117451000Y-28249999D01*
G75*
G02*
X117700999Y-28000000I249999J0D01*
G01*
X120551001Y-28000000D01*
G75*
G02*
X120801000Y-28249999I0J-249999D01*
G01*
X120801000Y-29150001D01*
G75*
G02*
X120551001Y-29400000I-249999J0D01*
G01*
G37*
G36*
G01*
X120551001Y-35500000D02*
X117700999Y-35500000D01*
G75*
G02*
X117451000Y-35250001I0J249999D01*
G01*
X117451000Y-34349999D01*
G75*
G02*
X117700999Y-34100000I249999J0D01*
G01*
X120551001Y-34100000D01*
G75*
G02*
X120801000Y-34349999I0J-249999D01*
G01*
X120801000Y-35250001D01*
G75*
G02*
X120551001Y-35500000I-249999J0D01*
G01*
G37*
G36*
G01*
X105219000Y-31721999D02*
X105219000Y-34572001D01*
G75*
G02*
X104969001Y-34822000I-249999J0D01*
G01*
X104068999Y-34822000D01*
G75*
G02*
X103819000Y-34572001I0J249999D01*
G01*
X103819000Y-31721999D01*
G75*
G02*
X104068999Y-31472000I249999J0D01*
G01*
X104969001Y-31472000D01*
G75*
G02*
X105219000Y-31721999I0J-249999D01*
G01*
G37*
G36*
G01*
X111319000Y-31721999D02*
X111319000Y-34572001D01*
G75*
G02*
X111069001Y-34822000I-249999J0D01*
G01*
X110168999Y-34822000D01*
G75*
G02*
X109919000Y-34572001I0J249999D01*
G01*
X109919000Y-31721999D01*
G75*
G02*
X110168999Y-31472000I249999J0D01*
G01*
X111069001Y-31472000D01*
G75*
G02*
X111319000Y-31721999I0J-249999D01*
G01*
G37*
D24*
X95588000Y-66548000D03*
X93388000Y-66548000D03*
G36*
G01*
X133461998Y-33920000D02*
X134762002Y-33920000D01*
G75*
G02*
X135012000Y-34169998I0J-249998D01*
G01*
X135012000Y-34995002D01*
G75*
G02*
X134762002Y-35245000I-249998J0D01*
G01*
X133461998Y-35245000D01*
G75*
G02*
X133212000Y-34995002I0J249998D01*
G01*
X133212000Y-34169998D01*
G75*
G02*
X133461998Y-33920000I249998J0D01*
G01*
G37*
G36*
G01*
X133461998Y-30795000D02*
X134762002Y-30795000D01*
G75*
G02*
X135012000Y-31044998I0J-249998D01*
G01*
X135012000Y-31870002D01*
G75*
G02*
X134762002Y-32120000I-249998J0D01*
G01*
X133461998Y-32120000D01*
G75*
G02*
X133212000Y-31870002I0J249998D01*
G01*
X133212000Y-31044998D01*
G75*
G02*
X133461998Y-30795000I249998J0D01*
G01*
G37*
D22*
X101220000Y-66548000D03*
X104520000Y-66548000D03*
D24*
X97198000Y-66548000D03*
X99398000Y-66548000D03*
G36*
G01*
X77258000Y-44836000D02*
X76158000Y-44836000D01*
G75*
G02*
X75908000Y-44586000I0J250000D01*
G01*
X75908000Y-41586000D01*
G75*
G02*
X76158000Y-41336000I250000J0D01*
G01*
X77258000Y-41336000D01*
G75*
G02*
X77508000Y-41586000I0J-250000D01*
G01*
X77508000Y-44586000D01*
G75*
G02*
X77258000Y-44836000I-250000J0D01*
G01*
G37*
G36*
G01*
X77258000Y-39436000D02*
X76158000Y-39436000D01*
G75*
G02*
X75908000Y-39186000I0J250000D01*
G01*
X75908000Y-36186000D01*
G75*
G02*
X76158000Y-35936000I250000J0D01*
G01*
X77258000Y-35936000D01*
G75*
G02*
X77508000Y-36186000I0J-250000D01*
G01*
X77508000Y-39186000D01*
G75*
G02*
X77258000Y-39436000I-250000J0D01*
G01*
G37*
D22*
X99950000Y-41402000D03*
X103250000Y-41402000D03*
G36*
G01*
X115966002Y-35499000D02*
X114665998Y-35499000D01*
G75*
G02*
X114416000Y-35249002I0J249998D01*
G01*
X114416000Y-34423998D01*
G75*
G02*
X114665998Y-34174000I249998J0D01*
G01*
X115966002Y-34174000D01*
G75*
G02*
X116216000Y-34423998I0J-249998D01*
G01*
X116216000Y-35249002D01*
G75*
G02*
X115966002Y-35499000I-249998J0D01*
G01*
G37*
G36*
G01*
X115966002Y-32374000D02*
X114665998Y-32374000D01*
G75*
G02*
X114416000Y-32124002I0J249998D01*
G01*
X114416000Y-31298998D01*
G75*
G02*
X114665998Y-31049000I249998J0D01*
G01*
X115966002Y-31049000D01*
G75*
G02*
X116216000Y-31298998I0J-249998D01*
G01*
X116216000Y-32124002D01*
G75*
G02*
X115966002Y-32374000I-249998J0D01*
G01*
G37*
G36*
G01*
X104182000Y-24704000D02*
X103082000Y-24704000D01*
G75*
G02*
X102832000Y-24454000I0J250000D01*
G01*
X102832000Y-21454000D01*
G75*
G02*
X103082000Y-21204000I250000J0D01*
G01*
X104182000Y-21204000D01*
G75*
G02*
X104432000Y-21454000I0J-250000D01*
G01*
X104432000Y-24454000D01*
G75*
G02*
X104182000Y-24704000I-250000J0D01*
G01*
G37*
G36*
G01*
X104182000Y-30104000D02*
X103082000Y-30104000D01*
G75*
G02*
X102832000Y-29854000I0J250000D01*
G01*
X102832000Y-26854000D01*
G75*
G02*
X103082000Y-26604000I250000J0D01*
G01*
X104182000Y-26604000D01*
G75*
G02*
X104432000Y-26854000I0J-250000D01*
G01*
X104432000Y-29854000D01*
G75*
G02*
X104182000Y-30104000I-250000J0D01*
G01*
G37*
G36*
G01*
X98682000Y-41164500D02*
X98682000Y-41639500D01*
G75*
G02*
X98444500Y-41877000I-237500J0D01*
G01*
X97944500Y-41877000D01*
G75*
G02*
X97707000Y-41639500I0J237500D01*
G01*
X97707000Y-41164500D01*
G75*
G02*
X97944500Y-40927000I237500J0D01*
G01*
X98444500Y-40927000D01*
G75*
G02*
X98682000Y-41164500I0J-237500D01*
G01*
G37*
G36*
G01*
X96857000Y-41164500D02*
X96857000Y-41639500D01*
G75*
G02*
X96619500Y-41877000I-237500J0D01*
G01*
X96119500Y-41877000D01*
G75*
G02*
X95882000Y-41639500I0J237500D01*
G01*
X95882000Y-41164500D01*
G75*
G02*
X96119500Y-40927000I237500J0D01*
G01*
X96619500Y-40927000D01*
G75*
G02*
X96857000Y-41164500I0J-237500D01*
G01*
G37*
D25*
X125730000Y-30734000D03*
X123190000Y-28194000D03*
X125730000Y-25654000D03*
D14*
X125476000Y-102870000D03*
D13*
X166116000Y-102870000D03*
G36*
G01*
X76006000Y-82451001D02*
X76006000Y-79600999D01*
G75*
G02*
X76255999Y-79351000I249999J0D01*
G01*
X77156001Y-79351000D01*
G75*
G02*
X77406000Y-79600999I0J-249999D01*
G01*
X77406000Y-82451001D01*
G75*
G02*
X77156001Y-82701000I-249999J0D01*
G01*
X76255999Y-82701000D01*
G75*
G02*
X76006000Y-82451001I0J249999D01*
G01*
G37*
G36*
G01*
X82106000Y-82451001D02*
X82106000Y-79600999D01*
G75*
G02*
X82355999Y-79351000I249999J0D01*
G01*
X83256001Y-79351000D01*
G75*
G02*
X83506000Y-79600999I0J-249999D01*
G01*
X83506000Y-82451001D01*
G75*
G02*
X83256001Y-82701000I-249999J0D01*
G01*
X82355999Y-82701000D01*
G75*
G02*
X82106000Y-82451001I0J249999D01*
G01*
G37*
G36*
G01*
X122583001Y-83883000D02*
X119732999Y-83883000D01*
G75*
G02*
X119483000Y-83633001I0J249999D01*
G01*
X119483000Y-82732999D01*
G75*
G02*
X119732999Y-82483000I249999J0D01*
G01*
X122583001Y-82483000D01*
G75*
G02*
X122833000Y-82732999I0J-249999D01*
G01*
X122833000Y-83633001D01*
G75*
G02*
X122583001Y-83883000I-249999J0D01*
G01*
G37*
G36*
G01*
X122583001Y-89983000D02*
X119732999Y-89983000D01*
G75*
G02*
X119483000Y-89733001I0J249999D01*
G01*
X119483000Y-88832999D01*
G75*
G02*
X119732999Y-88583000I249999J0D01*
G01*
X122583001Y-88583000D01*
G75*
G02*
X122833000Y-88832999I0J-249999D01*
G01*
X122833000Y-89733001D01*
G75*
G02*
X122583001Y-89983000I-249999J0D01*
G01*
G37*
D12*
X79248000Y-104648000D03*
D26*
X94248000Y-104648000D03*
X99248000Y-104648000D03*
X104248000Y-104648000D03*
X104248000Y-97148000D03*
X99248000Y-97148000D03*
X94248000Y-97148000D03*
X79248000Y-97148000D03*
G36*
G01*
X83944000Y-66785500D02*
X83944000Y-66310500D01*
G75*
G02*
X84181500Y-66073000I237500J0D01*
G01*
X84681500Y-66073000D01*
G75*
G02*
X84919000Y-66310500I0J-237500D01*
G01*
X84919000Y-66785500D01*
G75*
G02*
X84681500Y-67023000I-237500J0D01*
G01*
X84181500Y-67023000D01*
G75*
G02*
X83944000Y-66785500I0J237500D01*
G01*
G37*
G36*
G01*
X85769000Y-66785500D02*
X85769000Y-66310500D01*
G75*
G02*
X86006500Y-66073000I237500J0D01*
G01*
X86506500Y-66073000D01*
G75*
G02*
X86744000Y-66310500I0J-237500D01*
G01*
X86744000Y-66785500D01*
G75*
G02*
X86506500Y-67023000I-237500J0D01*
G01*
X86006500Y-67023000D01*
G75*
G02*
X85769000Y-66785500I0J237500D01*
G01*
G37*
G36*
G01*
X85769000Y-70087500D02*
X85769000Y-69612500D01*
G75*
G02*
X86006500Y-69375000I237500J0D01*
G01*
X86506500Y-69375000D01*
G75*
G02*
X86744000Y-69612500I0J-237500D01*
G01*
X86744000Y-70087500D01*
G75*
G02*
X86506500Y-70325000I-237500J0D01*
G01*
X86006500Y-70325000D01*
G75*
G02*
X85769000Y-70087500I0J237500D01*
G01*
G37*
G36*
G01*
X83944000Y-70087500D02*
X83944000Y-69612500D01*
G75*
G02*
X84181500Y-69375000I237500J0D01*
G01*
X84681500Y-69375000D01*
G75*
G02*
X84919000Y-69612500I0J-237500D01*
G01*
X84919000Y-70087500D01*
G75*
G02*
X84681500Y-70325000I-237500J0D01*
G01*
X84181500Y-70325000D01*
G75*
G02*
X83944000Y-70087500I0J237500D01*
G01*
G37*
G36*
G01*
X108588000Y-66310500D02*
X108588000Y-66785500D01*
G75*
G02*
X108350500Y-67023000I-237500J0D01*
G01*
X107850500Y-67023000D01*
G75*
G02*
X107613000Y-66785500I0J237500D01*
G01*
X107613000Y-66310500D01*
G75*
G02*
X107850500Y-66073000I237500J0D01*
G01*
X108350500Y-66073000D01*
G75*
G02*
X108588000Y-66310500I0J-237500D01*
G01*
G37*
G36*
G01*
X106763000Y-66310500D02*
X106763000Y-66785500D01*
G75*
G02*
X106525500Y-67023000I-237500J0D01*
G01*
X106025500Y-67023000D01*
G75*
G02*
X105788000Y-66785500I0J237500D01*
G01*
X105788000Y-66310500D01*
G75*
G02*
X106025500Y-66073000I237500J0D01*
G01*
X106525500Y-66073000D01*
G75*
G02*
X106763000Y-66310500I0J-237500D01*
G01*
G37*
G36*
G01*
X106763000Y-69104500D02*
X106763000Y-69579500D01*
G75*
G02*
X106525500Y-69817000I-237500J0D01*
G01*
X106025500Y-69817000D01*
G75*
G02*
X105788000Y-69579500I0J237500D01*
G01*
X105788000Y-69104500D01*
G75*
G02*
X106025500Y-68867000I237500J0D01*
G01*
X106525500Y-68867000D01*
G75*
G02*
X106763000Y-69104500I0J-237500D01*
G01*
G37*
G36*
G01*
X108588000Y-69104500D02*
X108588000Y-69579500D01*
G75*
G02*
X108350500Y-69817000I-237500J0D01*
G01*
X107850500Y-69817000D01*
G75*
G02*
X107613000Y-69579500I0J237500D01*
G01*
X107613000Y-69104500D01*
G75*
G02*
X107850500Y-68867000I237500J0D01*
G01*
X108350500Y-68867000D01*
G75*
G02*
X108588000Y-69104500I0J-237500D01*
G01*
G37*
D14*
X30734000Y-89408000D03*
D13*
X71374000Y-89408000D03*
X71374000Y-102870000D03*
D14*
X30734000Y-102870000D03*
D13*
X166116000Y-89408000D03*
D14*
X125476000Y-89408000D03*
D19*
G36*
X43983122Y-66548000D02*
G01*
X45821600Y-64709522D01*
X47660078Y-66548000D01*
X45821600Y-68386478D01*
X43983122Y-66548000D01*
G37*
D18*
X53543206Y-58826394D03*
D17*
X40270812Y-53289748D03*
X61625437Y-74644373D03*
D24*
X75641200Y-99839600D03*
X75641200Y-102039600D03*
D14*
X76708000Y-89408000D03*
D13*
X117348000Y-89408000D03*
G36*
G01*
X84989000Y-81501000D02*
X84989000Y-80551000D01*
G75*
G02*
X85239000Y-80301000I250000J0D01*
G01*
X85914000Y-80301000D01*
G75*
G02*
X86164000Y-80551000I0J-250000D01*
G01*
X86164000Y-81501000D01*
G75*
G02*
X85914000Y-81751000I-250000J0D01*
G01*
X85239000Y-81751000D01*
G75*
G02*
X84989000Y-81501000I0J250000D01*
G01*
G37*
G36*
G01*
X87064000Y-81501000D02*
X87064000Y-80551000D01*
G75*
G02*
X87314000Y-80301000I250000J0D01*
G01*
X87989000Y-80301000D01*
G75*
G02*
X88239000Y-80551000I0J-250000D01*
G01*
X88239000Y-81501000D01*
G75*
G02*
X87989000Y-81751000I-250000J0D01*
G01*
X87314000Y-81751000D01*
G75*
G02*
X87064000Y-81501000I0J250000D01*
G01*
G37*
D12*
X112268000Y-97028000D03*
X117348000Y-97028000D03*
X117348000Y-104648000D03*
X112268000Y-104648000D03*
G36*
G01*
X46846000Y-51286003D02*
X46846000Y-42185997D01*
G75*
G02*
X47095997Y-41936000I249997J0D01*
G01*
X54396003Y-41936000D01*
G75*
G02*
X54646000Y-42185997I0J-249997D01*
G01*
X54646000Y-51286003D01*
G75*
G02*
X54396003Y-51536000I-249997J0D01*
G01*
X47095997Y-51536000D01*
G75*
G02*
X46846000Y-51286003I0J249997D01*
G01*
G37*
G36*
G01*
X59346000Y-51286003D02*
X59346000Y-42185997D01*
G75*
G02*
X59595997Y-41936000I249997J0D01*
G01*
X66896003Y-41936000D01*
G75*
G02*
X67146000Y-42185997I0J-249997D01*
G01*
X67146000Y-51286003D01*
G75*
G02*
X66896003Y-51536000I-249997J0D01*
G01*
X59595997Y-51536000D01*
G75*
G02*
X59346000Y-51286003I0J249997D01*
G01*
G37*
G36*
G01*
X58558000Y-34940002D02*
X58558000Y-33639998D01*
G75*
G02*
X58807998Y-33390000I249998J0D01*
G01*
X59633002Y-33390000D01*
G75*
G02*
X59883000Y-33639998I0J-249998D01*
G01*
X59883000Y-34940002D01*
G75*
G02*
X59633002Y-35190000I-249998J0D01*
G01*
X58807998Y-35190000D01*
G75*
G02*
X58558000Y-34940002I0J249998D01*
G01*
G37*
G36*
G01*
X55433000Y-34940002D02*
X55433000Y-33639998D01*
G75*
G02*
X55682998Y-33390000I249998J0D01*
G01*
X56508002Y-33390000D01*
G75*
G02*
X56758000Y-33639998I0J-249998D01*
G01*
X56758000Y-34940002D01*
G75*
G02*
X56508002Y-35190000I-249998J0D01*
G01*
X55682998Y-35190000D01*
G75*
G02*
X55433000Y-34940002I0J249998D01*
G01*
G37*
G36*
G01*
X159959000Y-31099998D02*
X159959000Y-32400002D01*
G75*
G02*
X159709002Y-32650000I-249998J0D01*
G01*
X158883998Y-32650000D01*
G75*
G02*
X158634000Y-32400002I0J249998D01*
G01*
X158634000Y-31099998D01*
G75*
G02*
X158883998Y-30850000I249998J0D01*
G01*
X159709002Y-30850000D01*
G75*
G02*
X159959000Y-31099998I0J-249998D01*
G01*
G37*
G36*
G01*
X156834000Y-31099998D02*
X156834000Y-32400002D01*
G75*
G02*
X156584002Y-32650000I-249998J0D01*
G01*
X155758998Y-32650000D01*
G75*
G02*
X155509000Y-32400002I0J249998D01*
G01*
X155509000Y-31099998D01*
G75*
G02*
X155758998Y-30850000I249998J0D01*
G01*
X156584002Y-30850000D01*
G75*
G02*
X156834000Y-31099998I0J-249998D01*
G01*
G37*
G36*
G01*
X57854000Y-37559000D02*
X57854000Y-36609000D01*
G75*
G02*
X58104000Y-36359000I250000J0D01*
G01*
X58779000Y-36359000D01*
G75*
G02*
X59029000Y-36609000I0J-250000D01*
G01*
X59029000Y-37559000D01*
G75*
G02*
X58779000Y-37809000I-250000J0D01*
G01*
X58104000Y-37809000D01*
G75*
G02*
X57854000Y-37559000I0J250000D01*
G01*
G37*
G36*
G01*
X55779000Y-37559000D02*
X55779000Y-36609000D01*
G75*
G02*
X56029000Y-36359000I250000J0D01*
G01*
X56704000Y-36359000D01*
G75*
G02*
X56954000Y-36609000I0J-250000D01*
G01*
X56954000Y-37559000D01*
G75*
G02*
X56704000Y-37809000I-250000J0D01*
G01*
X56029000Y-37809000D01*
G75*
G02*
X55779000Y-37559000I0J250000D01*
G01*
G37*
G36*
G01*
X161645000Y-26195000D02*
X161645000Y-27145000D01*
G75*
G02*
X161395000Y-27395000I-250000J0D01*
G01*
X160720000Y-27395000D01*
G75*
G02*
X160470000Y-27145000I0J250000D01*
G01*
X160470000Y-26195000D01*
G75*
G02*
X160720000Y-25945000I250000J0D01*
G01*
X161395000Y-25945000D01*
G75*
G02*
X161645000Y-26195000I0J-250000D01*
G01*
G37*
G36*
G01*
X159570000Y-26195000D02*
X159570000Y-27145000D01*
G75*
G02*
X159320000Y-27395000I-250000J0D01*
G01*
X158645000Y-27395000D01*
G75*
G02*
X158395000Y-27145000I0J250000D01*
G01*
X158395000Y-26195000D01*
G75*
G02*
X158645000Y-25945000I250000J0D01*
G01*
X159320000Y-25945000D01*
G75*
G02*
X159570000Y-26195000I0J-250000D01*
G01*
G37*
X35814000Y-26670000D03*
X40894000Y-26670000D03*
X53594000Y-26670000D03*
X58674000Y-26670000D03*
X152654000Y-26670000D03*
X147574000Y-26670000D03*
X76612000Y-27178000D03*
X70612000Y-27178000D03*
X70612000Y-21178000D03*
X64612000Y-27178000D03*
D27*
X71564500Y-107823000D03*
D28*
X72834500Y-107823000D03*
X74104500Y-107823000D03*
X75374500Y-107823000D03*
G36*
G01*
X76917600Y-32315999D02*
X76917600Y-33216001D01*
G75*
G02*
X76667601Y-33466000I-249999J0D01*
G01*
X75967599Y-33466000D01*
G75*
G02*
X75717600Y-33216001I0J249999D01*
G01*
X75717600Y-32315999D01*
G75*
G02*
X75967599Y-32066000I249999J0D01*
G01*
X76667601Y-32066000D01*
G75*
G02*
X76917600Y-32315999I0J-249999D01*
G01*
G37*
G36*
G01*
X78917600Y-32315999D02*
X78917600Y-33216001D01*
G75*
G02*
X78667601Y-33466000I-249999J0D01*
G01*
X77967599Y-33466000D01*
G75*
G02*
X77717600Y-33216001I0J249999D01*
G01*
X77717600Y-32315999D01*
G75*
G02*
X77967599Y-32066000I249999J0D01*
G01*
X78667601Y-32066000D01*
G75*
G02*
X78917600Y-32315999I0J-249999D01*
G01*
G37*
G36*
G01*
X78866800Y-34195599D02*
X78866800Y-35095601D01*
G75*
G02*
X78616801Y-35345600I-249999J0D01*
G01*
X77916799Y-35345600D01*
G75*
G02*
X77666800Y-35095601I0J249999D01*
G01*
X77666800Y-34195599D01*
G75*
G02*
X77916799Y-33945600I249999J0D01*
G01*
X78616801Y-33945600D01*
G75*
G02*
X78866800Y-34195599I0J-249999D01*
G01*
G37*
G36*
G01*
X76866800Y-34195599D02*
X76866800Y-35095601D01*
G75*
G02*
X76616801Y-35345600I-249999J0D01*
G01*
X75916799Y-35345600D01*
G75*
G02*
X75666800Y-35095601I0J249999D01*
G01*
X75666800Y-34195599D01*
G75*
G02*
X75916799Y-33945600I249999J0D01*
G01*
X76616801Y-33945600D01*
G75*
G02*
X76866800Y-34195599I0J-249999D01*
G01*
G37*
G36*
G01*
X84270001Y-35144000D02*
X83369999Y-35144000D01*
G75*
G02*
X83120000Y-34894001I0J249999D01*
G01*
X83120000Y-34193999D01*
G75*
G02*
X83369999Y-33944000I249999J0D01*
G01*
X84270001Y-33944000D01*
G75*
G02*
X84520000Y-34193999I0J-249999D01*
G01*
X84520000Y-34894001D01*
G75*
G02*
X84270001Y-35144000I-249999J0D01*
G01*
G37*
G36*
G01*
X84270001Y-33144000D02*
X83369999Y-33144000D01*
G75*
G02*
X83120000Y-32894001I0J249999D01*
G01*
X83120000Y-32193999D01*
G75*
G02*
X83369999Y-31944000I249999J0D01*
G01*
X84270001Y-31944000D01*
G75*
G02*
X84520000Y-32193999I0J-249999D01*
G01*
X84520000Y-32894001D01*
G75*
G02*
X84270001Y-33144000I-249999J0D01*
G01*
G37*
D29*
X140843000Y-27051000D02*
X127635000Y-27051000D01*
X127635000Y-22987000D01*
X140843000Y-22987000D01*
X140843000Y-27051000D01*
D19*
G36*
X140843000Y-27051000D02*
G01*
X127635000Y-27051000D01*
X127635000Y-22987000D01*
X140843000Y-22987000D01*
X140843000Y-27051000D01*
G37*
D29*
X126111000Y-27051000D02*
X124512606Y-27051000D01*
X123787803Y-26326197D01*
X123768557Y-26310403D01*
X123746601Y-26298667D01*
X123722776Y-26291440D01*
X123698000Y-26289000D01*
X122428000Y-26289000D01*
X122403224Y-26291440D01*
X122379399Y-26298667D01*
X122357443Y-26310403D01*
X122338197Y-26326197D01*
X121613394Y-27051000D01*
X109601000Y-27051000D01*
X109601000Y-22987000D01*
X126111000Y-22987000D01*
X126111000Y-27051000D01*
D19*
G36*
X126111000Y-27051000D02*
G01*
X124512606Y-27051000D01*
X123787803Y-26326197D01*
X123768557Y-26310403D01*
X123746601Y-26298667D01*
X123722776Y-26291440D01*
X123698000Y-26289000D01*
X122428000Y-26289000D01*
X122403224Y-26291440D01*
X122379399Y-26298667D01*
X122357443Y-26310403D01*
X122338197Y-26326197D01*
X121613394Y-27051000D01*
X109601000Y-27051000D01*
X109601000Y-22987000D01*
X126111000Y-22987000D01*
X126111000Y-27051000D01*
G37*
D29*
X132207000Y-71934606D02*
X132207000Y-77163394D01*
X130503394Y-78867000D01*
X125280413Y-78867000D01*
X123825000Y-77169019D01*
X123825000Y-72183718D01*
X125533628Y-70231000D01*
X130503394Y-70231000D01*
X132207000Y-71934606D01*
D19*
G36*
X132207000Y-71934606D02*
G01*
X132207000Y-77163394D01*
X130503394Y-78867000D01*
X125280413Y-78867000D01*
X123825000Y-77169019D01*
X123825000Y-72183718D01*
X125533628Y-70231000D01*
X130503394Y-70231000D01*
X132207000Y-71934606D01*
G37*
D29*
X165735000Y-71939628D02*
X165735000Y-77158969D01*
X163527715Y-79121000D01*
X158300413Y-79121000D01*
X156845000Y-77423019D01*
X156845000Y-71934606D01*
X158548606Y-70231000D01*
X163782282Y-70231000D01*
X165735000Y-71939628D01*
D19*
G36*
X165735000Y-71939628D02*
G01*
X165735000Y-77158969D01*
X163527715Y-79121000D01*
X158300413Y-79121000D01*
X156845000Y-77423019D01*
X156845000Y-71934606D01*
X158548606Y-70231000D01*
X163782282Y-70231000D01*
X165735000Y-71939628D01*
G37*
D29*
X99949000Y-71934606D02*
X99949000Y-77423019D01*
X98493587Y-79121000D01*
X92259628Y-79121000D01*
X90551000Y-77168282D01*
X90551000Y-71685628D01*
X92503718Y-69977000D01*
X97991394Y-69977000D01*
X99949000Y-71934606D01*
D19*
G36*
X99949000Y-71934606D02*
G01*
X99949000Y-77423019D01*
X98493587Y-79121000D01*
X92259628Y-79121000D01*
X90551000Y-77168282D01*
X90551000Y-71685628D01*
X92503718Y-69977000D01*
X97991394Y-69977000D01*
X99949000Y-71934606D01*
G37*
D29*
X65913000Y-71172606D02*
X65913000Y-76655394D01*
X63447394Y-79121000D01*
X58980606Y-79121000D01*
X57023000Y-77163394D01*
X57023000Y-71172606D01*
X58726606Y-69469000D01*
X64209394Y-69469000D01*
X65913000Y-71172606D01*
D19*
G36*
X65913000Y-71172606D02*
G01*
X65913000Y-76655394D01*
X63447394Y-79121000D01*
X58980606Y-79121000D01*
X57023000Y-77163394D01*
X57023000Y-71172606D01*
X58726606Y-69469000D01*
X64209394Y-69469000D01*
X65913000Y-71172606D01*
G37*
M02*
