%FSLAX45Y45*%
G04 Gerber Fmt 4.5, Leading zero omitted, Abs format (unit mm)*
G04 Created by KiCad (PCBNEW 5.1.7-a382d34a8~88~ubuntu18.04.1) date 2021-06-01 18:59:51*
%MOMM*%
%LPD*%
G01*
G04 APERTURE LIST*
%TA.AperFunction,Profile*%
%ADD10C,0.050000*%
%TD*%
%ADD11C,0.200000*%
%ADD12C,0.300000*%
G04 APERTURE END LIST*
D10*
X2311400Y-11049000D02*
X17170400Y-11049000D01*
X2311400Y-1905000D02*
X17170400Y-1905000D01*
X2311400Y-19050000D02*
X2311400Y-1905000D01*
X17170400Y-19050000D02*
X2311400Y-19050000D01*
X17170400Y-1905000D02*
X17170400Y-19050000D01*
D11*
X8069900Y-4615500D02*
X8109900Y-4655500D01*
X8109900Y-4615500D02*
X8069900Y-4655500D01*
X11638600Y-4552000D02*
X11678600Y-4592000D01*
X11678600Y-4552000D02*
X11638600Y-4592000D01*
X12476800Y-4552000D02*
X12516800Y-4592000D01*
X12516800Y-4552000D02*
X12476800Y-4592000D01*
X13188000Y-4552000D02*
X13228000Y-4592000D01*
X13228000Y-4552000D02*
X13188000Y-4592000D01*
X13772200Y-4552000D02*
X13812200Y-4592000D01*
X13812200Y-4552000D02*
X13772200Y-4592000D01*
X14483400Y-2266000D02*
X14523400Y-2306000D01*
X14523400Y-2266000D02*
X14483400Y-2306000D01*
X15880400Y-3155000D02*
X15920400Y-3195000D01*
X15920400Y-3155000D02*
X15880400Y-3195000D01*
X15880400Y-3663000D02*
X15920400Y-3703000D01*
X15920400Y-3663000D02*
X15880400Y-3703000D01*
X15880400Y-4933000D02*
X15920400Y-4973000D01*
X15920400Y-4933000D02*
X15880400Y-4973000D01*
X16007400Y-4933000D02*
X16047400Y-4973000D01*
X16047400Y-4933000D02*
X16007400Y-4973000D01*
X16134400Y-4933000D02*
X16174400Y-4973000D01*
X16174400Y-4933000D02*
X16134400Y-4973000D01*
X16226000Y-2936400D02*
X16266000Y-2976400D01*
X16266000Y-2936400D02*
X16226000Y-2976400D01*
X16226000Y-3190400D02*
X16266000Y-3230400D01*
X16266000Y-3190400D02*
X16226000Y-3230400D01*
X16226000Y-3444400D02*
X16266000Y-3484400D01*
X16266000Y-3444400D02*
X16226000Y-3484400D01*
X16226000Y-3698400D02*
X16266000Y-3738400D01*
X16266000Y-3698400D02*
X16226000Y-3738400D01*
X16261400Y-4933000D02*
X16301400Y-4973000D01*
X16301400Y-4933000D02*
X16261400Y-4973000D01*
X16388400Y-4933000D02*
X16428400Y-4973000D01*
X16428400Y-4933000D02*
X16388400Y-4973000D01*
X16515400Y-2901000D02*
X16555400Y-2941000D01*
X16555400Y-2901000D02*
X16515400Y-2941000D01*
X16515400Y-3155000D02*
X16555400Y-3195000D01*
X16555400Y-3155000D02*
X16515400Y-3195000D01*
X16515400Y-3409000D02*
X16555400Y-3449000D01*
X16555400Y-3409000D02*
X16515400Y-3449000D01*
X16515400Y-3663000D02*
X16555400Y-3703000D01*
X16555400Y-3663000D02*
X16515400Y-3703000D01*
X16515400Y-4933000D02*
X16555400Y-4973000D01*
X16555400Y-4933000D02*
X16515400Y-4973000D01*
X16642400Y-4933000D02*
X16682400Y-4973000D01*
X16682400Y-4933000D02*
X16642400Y-4973000D01*
X5643400Y-2514600D02*
G75*
G03*
X5643400Y-2514600I-30000J0D01*
G01*
X5643400Y-2667000D02*
G75*
G03*
X5643400Y-2667000I-30000J0D01*
G01*
X5643400Y-2819400D02*
G75*
G03*
X5643400Y-2819400I-30000J0D01*
G01*
X6024400Y-4064000D02*
G75*
G03*
X6024400Y-4064000I-30000J0D01*
G01*
X6176800Y-2565400D02*
G75*
G03*
X6176800Y-2565400I-30000J0D01*
G01*
X6278400Y-3302000D02*
G75*
G03*
X6278400Y-3302000I-30000J0D01*
G01*
X6278400Y-3556000D02*
G75*
G03*
X6278400Y-3556000I-30000J0D01*
G01*
X6278400Y-3810000D02*
G75*
G03*
X6278400Y-3810000I-30000J0D01*
G01*
X6278400Y-4064000D02*
G75*
G03*
X6278400Y-4064000I-30000J0D01*
G01*
X6532400Y-3302000D02*
G75*
G03*
X6532400Y-3302000I-30000J0D01*
G01*
X6532400Y-3556000D02*
G75*
G03*
X6532400Y-3556000I-30000J0D01*
G01*
X6532400Y-3810000D02*
G75*
G03*
X6532400Y-3810000I-30000J0D01*
G01*
X6532400Y-4064000D02*
G75*
G03*
X6532400Y-4064000I-30000J0D01*
G01*
X6786400Y-3302000D02*
G75*
G03*
X6786400Y-3302000I-30000J0D01*
G01*
X6786400Y-3556000D02*
G75*
G03*
X6786400Y-3556000I-30000J0D01*
G01*
X6786400Y-3810000D02*
G75*
G03*
X6786400Y-3810000I-30000J0D01*
G01*
X6786400Y-4064000D02*
G75*
G03*
X6786400Y-4064000I-30000J0D01*
G01*
X7269000Y-4546600D02*
G75*
G03*
X7269000Y-4546600I-30000J0D01*
G01*
X7421400Y-3302000D02*
G75*
G03*
X7421400Y-3302000I-30000J0D01*
G01*
X7421400Y-3708400D02*
G75*
G03*
X7421400Y-3708400I-30000J0D01*
G01*
X7446800Y-2667000D02*
G75*
G03*
X7446800Y-2667000I-30000J0D01*
G01*
X7650000Y-2895600D02*
G75*
G03*
X7650000Y-2895600I-30000J0D01*
G01*
X7878600Y-2565400D02*
G75*
G03*
X7878600Y-2565400I-30000J0D01*
G01*
X7896380Y-3116580D02*
G75*
G03*
X7896380Y-3116580I-30000J0D01*
G01*
X7929400Y-2235200D02*
G75*
G03*
X7929400Y-2235200I-30000J0D01*
G01*
X8021600Y-3768600D02*
G75*
G03*
X8021600Y-3768600I-30000J0D01*
G01*
X8316750Y-3644900D02*
G75*
G03*
X8316750Y-3644900I-30000J0D01*
G01*
X8539000Y-2565400D02*
G75*
G03*
X8539000Y-2565400I-30000J0D01*
G01*
X8716800Y-3632200D02*
G75*
G03*
X8716800Y-3632200I-30000J0D01*
G01*
X8767600Y-3987800D02*
G75*
G03*
X8767600Y-3987800I-30000J0D01*
G01*
X8795150Y-7825350D02*
G75*
G03*
X8795150Y-7825350I-30000J0D01*
G01*
X8824750Y-4667250D02*
G75*
G03*
X8824750Y-4667250I-30000J0D01*
G01*
X9097800Y-3403600D02*
G75*
G03*
X9097800Y-3403600I-30000J0D01*
G01*
X9123200Y-4038600D02*
G75*
G03*
X9123200Y-4038600I-30000J0D01*
G01*
X9301000Y-4368800D02*
G75*
G03*
X9301000Y-4368800I-30000J0D01*
G01*
X9531950Y-3223450D02*
G75*
G03*
X9531950Y-3223450I-30000J0D01*
G01*
X9783600Y-4318000D02*
G75*
G03*
X9783600Y-4318000I-30000J0D01*
G01*
X9834400Y-3975100D02*
G75*
G03*
X9834400Y-3975100I-30000J0D01*
G01*
X9834400Y-4495800D02*
G75*
G03*
X9834400Y-4495800I-30000J0D01*
G01*
X9961400Y-6832600D02*
G75*
G03*
X9961400Y-6832600I-30000J0D01*
G01*
X10012200Y-2489200D02*
G75*
G03*
X10012200Y-2489200I-30000J0D01*
G01*
X10018800Y-3638800D02*
G75*
G03*
X10018800Y-3638800I-30000J0D01*
G01*
X10088400Y-4470400D02*
G75*
G03*
X10088400Y-4470400I-30000J0D01*
G01*
X10094750Y-2882900D02*
G75*
G03*
X10094750Y-2882900I-30000J0D01*
G01*
X10399550Y-4597400D02*
G75*
G03*
X10399550Y-4597400I-30000J0D01*
G01*
X10698000Y-4140200D02*
G75*
G03*
X10698000Y-4140200I-30000J0D01*
G01*
X10767850Y-3365500D02*
G75*
G03*
X10767850Y-3365500I-30000J0D01*
G01*
X10826600Y-2640000D02*
G75*
G03*
X10826600Y-2640000I-30000J0D01*
G01*
X10850400Y-10160000D02*
G75*
G03*
X10850400Y-10160000I-30000J0D01*
G01*
X10850400Y-10795000D02*
G75*
G03*
X10850400Y-10795000I-30000J0D01*
G01*
X10977400Y-10287000D02*
G75*
G03*
X10977400Y-10287000I-30000J0D01*
G01*
X10977400Y-10541000D02*
G75*
G03*
X10977400Y-10541000I-30000J0D01*
G01*
X11104400Y-10160000D02*
G75*
G03*
X11104400Y-10160000I-30000J0D01*
G01*
X11104400Y-10795000D02*
G75*
G03*
X11104400Y-10795000I-30000J0D01*
G01*
X11358400Y-10160000D02*
G75*
G03*
X11358400Y-10160000I-30000J0D01*
G01*
X11358400Y-10795000D02*
G75*
G03*
X11358400Y-10795000I-30000J0D01*
G01*
X11612400Y-10160000D02*
G75*
G03*
X11612400Y-10160000I-30000J0D01*
G01*
X11612400Y-10795000D02*
G75*
G03*
X11612400Y-10795000I-30000J0D01*
G01*
X11815600Y-3098800D02*
G75*
G03*
X11815600Y-3098800I-30000J0D01*
G01*
X11866400Y-10160000D02*
G75*
G03*
X11866400Y-10160000I-30000J0D01*
G01*
X11866400Y-10795000D02*
G75*
G03*
X11866400Y-10795000I-30000J0D01*
G01*
X12145800Y-3962400D02*
G75*
G03*
X12145800Y-3962400I-30000J0D01*
G01*
X12196600Y-3479800D02*
G75*
G03*
X12196600Y-3479800I-30000J0D01*
G01*
X13111000Y-3454400D02*
G75*
G03*
X13111000Y-3454400I-30000J0D01*
G01*
X13111000Y-3911600D02*
G75*
G03*
X13111000Y-3911600I-30000J0D01*
G01*
X13390400Y-3683000D02*
G75*
G03*
X13390400Y-3683000I-30000J0D01*
G01*
X13390400Y-4159250D02*
G75*
G03*
X13390400Y-4159250I-30000J0D01*
G01*
X13640550Y-3458250D02*
G75*
G03*
X13640550Y-3458250I-30000J0D01*
G01*
X13644400Y-3911600D02*
G75*
G03*
X13644400Y-3911600I-30000J0D01*
G01*
X7156450Y-10749800D02*
X7156450Y-10814800D01*
X7123950Y-10782300D02*
X7188950Y-10782300D01*
X7283450Y-10749800D02*
X7283450Y-10814800D01*
X7250950Y-10782300D02*
X7315950Y-10782300D01*
X7410450Y-10749800D02*
X7410450Y-10814800D01*
X7377950Y-10782300D02*
X7442950Y-10782300D01*
X7537450Y-10749800D02*
X7537450Y-10814800D01*
X7504950Y-10782300D02*
X7569950Y-10782300D01*
X12347284Y-2847684D02*
X12347284Y-2791116D01*
X12290715Y-2791116D01*
X12290715Y-2847684D01*
X12347284Y-2847684D01*
X12601284Y-2593685D02*
X12601284Y-2537116D01*
X12544715Y-2537116D01*
X12544715Y-2593685D01*
X12601284Y-2593685D01*
X12601284Y-3101684D02*
X12601284Y-3045115D01*
X12544715Y-3045115D01*
X12544715Y-3101684D01*
X12601284Y-3101684D01*
X14376400Y-2590000D02*
X14426400Y-2540000D01*
X14376400Y-2490000D01*
X14326400Y-2540000D01*
X14376400Y-2590000D01*
X14376400Y-2844000D02*
X14426400Y-2794000D01*
X14376400Y-2744000D01*
X14326400Y-2794000D01*
X14376400Y-2844000D01*
X14503400Y-3098000D02*
X14553400Y-3048000D01*
X14503400Y-2998000D01*
X14453400Y-3048000D01*
X14503400Y-3098000D01*
X14757400Y-2971000D02*
X14807400Y-2921000D01*
X14757400Y-2871000D01*
X14707400Y-2921000D01*
X14757400Y-2971000D01*
X15011400Y-2336000D02*
X15061400Y-2286000D01*
X15011400Y-2236000D01*
X14961400Y-2286000D01*
X15011400Y-2336000D01*
X15011400Y-3098000D02*
X15061400Y-3048000D01*
X15011400Y-2998000D01*
X14961400Y-3048000D01*
X15011400Y-3098000D01*
X15265400Y-2971000D02*
X15315400Y-2921000D01*
X15265400Y-2871000D01*
X15215400Y-2921000D01*
X15265400Y-2971000D01*
X15519400Y-2336000D02*
X15569400Y-2286000D01*
X15519400Y-2236000D01*
X15469400Y-2286000D01*
X15519400Y-2336000D01*
X15519400Y-3098000D02*
X15569400Y-3048000D01*
X15519400Y-2998000D01*
X15469400Y-3048000D01*
X15519400Y-3098000D01*
X13233400Y-12877000D02*
X13283400Y-12827000D01*
X13233400Y-12777000D01*
X13183400Y-12827000D01*
X13233400Y-12877000D01*
X13233400Y-14377000D02*
X13283400Y-14327000D01*
X13233400Y-14277000D01*
X13183400Y-14327000D01*
X13233400Y-14377000D01*
X13258800Y-15671000D02*
X13308800Y-15621000D01*
X13258800Y-15571000D01*
X13208800Y-15621000D01*
X13258800Y-15671000D01*
X13258800Y-17171000D02*
X13308800Y-17121000D01*
X13258800Y-17071000D01*
X13208800Y-17121000D01*
X13258800Y-17171000D01*
X3708400Y-12369000D02*
X3758400Y-12319000D01*
X3708400Y-12269000D01*
X3658400Y-12319000D01*
X3708400Y-12369000D01*
X3708400Y-13119000D02*
X3758400Y-13069000D01*
X3708400Y-13019000D01*
X3658400Y-13069000D01*
X3708400Y-13119000D01*
X3708400Y-13869000D02*
X3758400Y-13819000D01*
X3708400Y-13769000D01*
X3658400Y-13819000D01*
X3708400Y-13869000D01*
X3708400Y-14619000D02*
X3758400Y-14569000D01*
X3708400Y-14519000D01*
X3658400Y-14569000D01*
X3708400Y-14619000D01*
X3708400Y-15544000D02*
X3758400Y-15494000D01*
X3708400Y-15444000D01*
X3658400Y-15494000D01*
X3708400Y-15544000D01*
X3708400Y-16294000D02*
X3758400Y-16244000D01*
X3708400Y-16194000D01*
X3658400Y-16244000D01*
X3708400Y-16294000D01*
X3708400Y-17044000D02*
X3758400Y-16994000D01*
X3708400Y-16944000D01*
X3658400Y-16994000D01*
X3708400Y-17044000D01*
X3708400Y-17794000D02*
X3758400Y-17744000D01*
X3708400Y-17694000D01*
X3658400Y-17744000D01*
X3708400Y-17794000D01*
X8855400Y-15815000D02*
X8975400Y-15935000D01*
X8975400Y-15815000D02*
X8855400Y-15935000D01*
X8975400Y-15875000D02*
G75*
G03*
X8975400Y-15875000I-60000J0D01*
G01*
X8855400Y-17085000D02*
X8975400Y-17205000D01*
X8975400Y-17085000D02*
X8855400Y-17205000D01*
X8975400Y-17145000D02*
G75*
G03*
X8975400Y-17145000I-60000J0D01*
G01*
X3013400Y-8880800D02*
X3133400Y-9000800D01*
X3133400Y-8880800D02*
X3013400Y-9000800D01*
X3133400Y-8940800D02*
G75*
G03*
X3133400Y-8940800I-60000J0D01*
G01*
X7077400Y-8880800D02*
X7197400Y-9000800D01*
X7197400Y-8880800D02*
X7077400Y-9000800D01*
X7197400Y-8940800D02*
G75*
G03*
X7197400Y-8940800I-60000J0D01*
G01*
X5807400Y-12767000D02*
X5927400Y-12887000D01*
X5927400Y-12767000D02*
X5807400Y-12887000D01*
X5927400Y-12827000D02*
G75*
G03*
X5927400Y-12827000I-60000J0D01*
G01*
X5807400Y-14037000D02*
X5927400Y-14157000D01*
X5927400Y-14037000D02*
X5807400Y-14157000D01*
X5927400Y-14097000D02*
G75*
G03*
X5927400Y-14097000I-60000J0D01*
G01*
X12487600Y-10227000D02*
X12607600Y-10347000D01*
X12607600Y-10227000D02*
X12487600Y-10347000D01*
X12607600Y-10287000D02*
G75*
G03*
X12607600Y-10287000I-60000J0D01*
G01*
X16551600Y-10227000D02*
X16671600Y-10347000D01*
X16671600Y-10227000D02*
X16551600Y-10347000D01*
X16671600Y-10287000D02*
G75*
G03*
X16671600Y-10287000I-60000J0D01*
G01*
X7610800Y-8880800D02*
X7730800Y-9000800D01*
X7730800Y-8880800D02*
X7610800Y-9000800D01*
X7730800Y-8940800D02*
G75*
G03*
X7730800Y-8940800I-60000J0D01*
G01*
X11674800Y-8880800D02*
X11794800Y-9000800D01*
X11794800Y-8880800D02*
X11674800Y-9000800D01*
X11794800Y-8940800D02*
G75*
G03*
X11794800Y-8940800I-60000J0D01*
G01*
X11522400Y-15815000D02*
X11642400Y-15935000D01*
X11642400Y-15815000D02*
X11522400Y-15935000D01*
X11642400Y-15875000D02*
G75*
G03*
X11642400Y-15875000I-60000J0D01*
G01*
X11522400Y-17085000D02*
X11642400Y-17205000D01*
X11642400Y-17085000D02*
X11522400Y-17205000D01*
X11642400Y-17145000D02*
G75*
G03*
X11642400Y-17145000I-60000J0D01*
G01*
X3013400Y-10227000D02*
X3133400Y-10347000D01*
X3133400Y-10227000D02*
X3013400Y-10347000D01*
X3133400Y-10287000D02*
G75*
G03*
X3133400Y-10287000I-60000J0D01*
G01*
X7077400Y-10227000D02*
X7197400Y-10347000D01*
X7197400Y-10227000D02*
X7077400Y-10347000D01*
X7197400Y-10287000D02*
G75*
G03*
X7197400Y-10287000I-60000J0D01*
G01*
X5807400Y-18355000D02*
X5927400Y-18475000D01*
X5927400Y-18355000D02*
X5807400Y-18475000D01*
X5927400Y-18415000D02*
G75*
G03*
X5927400Y-18415000I-60000J0D01*
G01*
X8855400Y-18355000D02*
X8975400Y-18475000D01*
X8975400Y-18355000D02*
X8855400Y-18475000D01*
X8975400Y-18415000D02*
G75*
G03*
X8975400Y-18415000I-60000J0D01*
G01*
X11522400Y-12767000D02*
X11642400Y-12887000D01*
X11642400Y-12767000D02*
X11522400Y-12887000D01*
X11642400Y-12827000D02*
G75*
G03*
X11642400Y-12827000I-60000J0D01*
G01*
X11522400Y-14037000D02*
X11642400Y-14157000D01*
X11642400Y-14037000D02*
X11522400Y-14157000D01*
X11642400Y-14097000D02*
G75*
G03*
X11642400Y-14097000I-60000J0D01*
G01*
X5807400Y-15815000D02*
X5927400Y-15935000D01*
X5927400Y-15815000D02*
X5807400Y-15935000D01*
X5927400Y-15875000D02*
G75*
G03*
X5927400Y-15875000I-60000J0D01*
G01*
X5807400Y-17085000D02*
X5927400Y-17205000D01*
X5927400Y-17085000D02*
X5807400Y-17205000D01*
X5927400Y-17145000D02*
G75*
G03*
X5927400Y-17145000I-60000J0D01*
G01*
X12487600Y-8880800D02*
X12607600Y-9000800D01*
X12607600Y-8880800D02*
X12487600Y-9000800D01*
X12607600Y-8940800D02*
G75*
G03*
X12607600Y-8940800I-60000J0D01*
G01*
X16551600Y-8880800D02*
X16671600Y-9000800D01*
X16671600Y-8880800D02*
X16551600Y-9000800D01*
X16671600Y-8940800D02*
G75*
G03*
X16671600Y-8940800I-60000J0D01*
G01*
X8855400Y-12767000D02*
X8975400Y-12887000D01*
X8975400Y-12767000D02*
X8855400Y-12887000D01*
X8975400Y-12827000D02*
G75*
G03*
X8975400Y-12827000I-60000J0D01*
G01*
X8855400Y-14037000D02*
X8975400Y-14157000D01*
X8975400Y-14037000D02*
X8855400Y-14157000D01*
X8975400Y-14097000D02*
G75*
G03*
X8975400Y-14097000I-60000J0D01*
G01*
X5807400Y-11624000D02*
X5927400Y-11744000D01*
X5927400Y-11624000D02*
X5807400Y-11744000D01*
X5927400Y-11684000D02*
G75*
G03*
X5927400Y-11684000I-60000J0D01*
G01*
X8855400Y-11624000D02*
X8975400Y-11744000D01*
X8975400Y-11624000D02*
X8855400Y-11744000D01*
X8975400Y-11684000D02*
G75*
G03*
X8975400Y-11684000I-60000J0D01*
G01*
X14463800Y-6589800D02*
X14593800Y-6719800D01*
X14593800Y-6589800D02*
X14463800Y-6719800D01*
X14528800Y-6589800D02*
X14528800Y-6719800D01*
X14463800Y-6654800D02*
X14593800Y-6654800D01*
X15235961Y-5817639D02*
X15365961Y-5947639D01*
X15365961Y-5817639D02*
X15235961Y-5947639D01*
X15300961Y-5817639D02*
X15300961Y-5947639D01*
X15235961Y-5882639D02*
X15365961Y-5882639D01*
X7859800Y-6589800D02*
X7989800Y-6719800D01*
X7989800Y-6589800D02*
X7859800Y-6719800D01*
X7924800Y-6589800D02*
X7924800Y-6719800D01*
X7859800Y-6654800D02*
X7989800Y-6654800D01*
X8631961Y-5817639D02*
X8761961Y-5947639D01*
X8761961Y-5817639D02*
X8631961Y-5947639D01*
X8696961Y-5817639D02*
X8696961Y-5947639D01*
X8631961Y-5882639D02*
X8761961Y-5882639D01*
X11161800Y-6589800D02*
X11291800Y-6719800D01*
X11291800Y-6589800D02*
X11161800Y-6719800D01*
X11226800Y-6589800D02*
X11226800Y-6719800D01*
X11161800Y-6654800D02*
X11291800Y-6654800D01*
X11933961Y-5817639D02*
X12063961Y-5947639D01*
X12063961Y-5817639D02*
X11933961Y-5947639D01*
X11998961Y-5817639D02*
X11998961Y-5947639D01*
X11933961Y-5882639D02*
X12063961Y-5882639D01*
X4517160Y-6589800D02*
X4647160Y-6719800D01*
X4647160Y-6589800D02*
X4517160Y-6719800D01*
X4582160Y-6589800D02*
X4582160Y-6719800D01*
X4517160Y-6654800D02*
X4647160Y-6654800D01*
X5289321Y-5817639D02*
X5419321Y-5947639D01*
X5419321Y-5817639D02*
X5289321Y-5947639D01*
X5354321Y-5817639D02*
X5354321Y-5947639D01*
X5289321Y-5882639D02*
X5419321Y-5882639D01*
X13692400Y-12752000D02*
X13842400Y-12902000D01*
X13842400Y-12752000D02*
X13692400Y-12902000D01*
X13820433Y-12880033D02*
X13820433Y-12773966D01*
X13714366Y-12773966D01*
X13714366Y-12880033D01*
X13820433Y-12880033D01*
X15952400Y-12752000D02*
X16102400Y-12902000D01*
X16102400Y-12752000D02*
X15952400Y-12902000D01*
X16080433Y-12880033D02*
X16080433Y-12773966D01*
X15974366Y-12773966D01*
X15974366Y-12880033D01*
X16080433Y-12880033D01*
X16714400Y-17070000D02*
X16864400Y-17220000D01*
X16864400Y-17070000D02*
X16714400Y-17220000D01*
X16842434Y-17198034D02*
X16842434Y-17091967D01*
X16736366Y-17091967D01*
X16736366Y-17198034D01*
X16842434Y-17198034D01*
X16714400Y-17578000D02*
X16864400Y-17728000D01*
X16864400Y-17578000D02*
X16714400Y-17728000D01*
X16842434Y-17706034D02*
X16842434Y-17599967D01*
X16736366Y-17599967D01*
X16736366Y-17706034D01*
X16842434Y-17706034D01*
X14682400Y-2592000D02*
X14832400Y-2742000D01*
X14832400Y-2592000D02*
X14682400Y-2742000D01*
X14810433Y-2720034D02*
X14810433Y-2613967D01*
X14704366Y-2613967D01*
X14704366Y-2720034D01*
X14810433Y-2720034D01*
X15190400Y-2592000D02*
X15340400Y-2742000D01*
X15340400Y-2592000D02*
X15190400Y-2742000D01*
X15318433Y-2720034D02*
X15318433Y-2613967D01*
X15212366Y-2613967D01*
X15212366Y-2720034D01*
X15318433Y-2720034D01*
X11151800Y-9627800D02*
X11301800Y-9777800D01*
X11301800Y-9627800D02*
X11151800Y-9777800D01*
X11279833Y-9755834D02*
X11279833Y-9649767D01*
X11173767Y-9649767D01*
X11173767Y-9755834D01*
X11279833Y-9755834D01*
X11659800Y-9627800D02*
X11809800Y-9777800D01*
X11809800Y-9627800D02*
X11659800Y-9777800D01*
X11787833Y-9755834D02*
X11787833Y-9649767D01*
X11681766Y-9649767D01*
X11681766Y-9755834D01*
X11787833Y-9755834D01*
X7849800Y-9639800D02*
X7999800Y-9789800D01*
X7999800Y-9639800D02*
X7849800Y-9789800D01*
X7977833Y-9767834D02*
X7977833Y-9661767D01*
X7871766Y-9661767D01*
X7871766Y-9767834D01*
X7977833Y-9767834D01*
X7849800Y-10389800D02*
X7999800Y-10539800D01*
X7999800Y-10389800D02*
X7849800Y-10539800D01*
X7977833Y-10517834D02*
X7977833Y-10411767D01*
X7871766Y-10411767D01*
X7871766Y-10517834D01*
X7977833Y-10517834D01*
X9349800Y-9639800D02*
X9499800Y-9789800D01*
X9499800Y-9639800D02*
X9349800Y-9789800D01*
X9477834Y-9767834D02*
X9477834Y-9661767D01*
X9371767Y-9661767D01*
X9371767Y-9767834D01*
X9477834Y-9767834D01*
X9349800Y-10389800D02*
X9499800Y-10539800D01*
X9499800Y-10389800D02*
X9349800Y-10539800D01*
X9477834Y-10517834D02*
X9477834Y-10411767D01*
X9371767Y-10411767D01*
X9371767Y-10517834D01*
X9477834Y-10517834D01*
X9849800Y-9639800D02*
X9999800Y-9789800D01*
X9999800Y-9639800D02*
X9849800Y-9789800D01*
X9977834Y-9767834D02*
X9977834Y-9661767D01*
X9871767Y-9661767D01*
X9871767Y-9767834D01*
X9977834Y-9767834D01*
X9849800Y-10389800D02*
X9999800Y-10539800D01*
X9999800Y-10389800D02*
X9849800Y-10539800D01*
X9977834Y-10517834D02*
X9977834Y-10411767D01*
X9871767Y-10411767D01*
X9871767Y-10517834D01*
X9977834Y-10517834D01*
X10349800Y-9639800D02*
X10499800Y-9789800D01*
X10499800Y-9639800D02*
X10349800Y-9789800D01*
X10477834Y-9767834D02*
X10477834Y-9661767D01*
X10371767Y-9661767D01*
X10371767Y-9767834D01*
X10477834Y-9767834D01*
X10349800Y-10389800D02*
X10499800Y-10539800D01*
X10499800Y-10389800D02*
X10349800Y-10539800D01*
X10477834Y-10517834D02*
X10477834Y-10411767D01*
X10371767Y-10411767D01*
X10371767Y-10517834D01*
X10477834Y-10517834D01*
X2617400Y-15546000D02*
X2767400Y-15696000D01*
X2767400Y-15546000D02*
X2617400Y-15696000D01*
X2745434Y-15674033D02*
X2745434Y-15567966D01*
X2639367Y-15567966D01*
X2639367Y-15674033D01*
X2745434Y-15674033D01*
X2617400Y-16054000D02*
X2767400Y-16204000D01*
X2767400Y-16054000D02*
X2617400Y-16204000D01*
X2745434Y-16182033D02*
X2745434Y-16075966D01*
X2639367Y-16075966D01*
X2639367Y-16182033D01*
X2745434Y-16182033D01*
X3506400Y-2592000D02*
X3656400Y-2742000D01*
X3656400Y-2592000D02*
X3506400Y-2742000D01*
X3634433Y-2720034D02*
X3634433Y-2613967D01*
X3528366Y-2613967D01*
X3528366Y-2720034D01*
X3634433Y-2720034D01*
X4014400Y-2592000D02*
X4164400Y-2742000D01*
X4164400Y-2592000D02*
X4014400Y-2742000D01*
X4142433Y-2720034D02*
X4142433Y-2613967D01*
X4036366Y-2613967D01*
X4036366Y-2720034D01*
X4142433Y-2720034D01*
X5284400Y-2592000D02*
X5434400Y-2742000D01*
X5434400Y-2592000D02*
X5284400Y-2742000D01*
X5412434Y-2720034D02*
X5412434Y-2613967D01*
X5306367Y-2613967D01*
X5306367Y-2720034D01*
X5412434Y-2720034D01*
X5792400Y-2592000D02*
X5942400Y-2742000D01*
X5942400Y-2592000D02*
X5792400Y-2742000D01*
X5920433Y-2720034D02*
X5920433Y-2613967D01*
X5814366Y-2613967D01*
X5814366Y-2720034D01*
X5920433Y-2720034D01*
X2617400Y-13895000D02*
X2767400Y-14045000D01*
X2767400Y-13895000D02*
X2617400Y-14045000D01*
X2745434Y-14023033D02*
X2745434Y-13916966D01*
X2639367Y-13916966D01*
X2639367Y-14023033D01*
X2745434Y-14023033D01*
X2617400Y-14403000D02*
X2767400Y-14553000D01*
X2767400Y-14403000D02*
X2617400Y-14553000D01*
X2745434Y-14531033D02*
X2745434Y-14424966D01*
X2639367Y-14424966D01*
X2639367Y-14531033D01*
X2745434Y-14531033D01*
X13692400Y-17070000D02*
X13842400Y-17220000D01*
X13842400Y-17070000D02*
X13692400Y-17220000D01*
X13820433Y-17198034D02*
X13820433Y-17091967D01*
X13714366Y-17091967D01*
X13714366Y-17198034D01*
X13820433Y-17198034D01*
X15952400Y-17070000D02*
X16102400Y-17220000D01*
X16102400Y-17070000D02*
X15952400Y-17220000D01*
X16080433Y-17198034D02*
X16080433Y-17091967D01*
X15974366Y-17091967D01*
X15974366Y-17198034D01*
X16080433Y-17198034D01*
X16714400Y-14657000D02*
X16864400Y-14807000D01*
X16864400Y-14657000D02*
X16714400Y-14807000D01*
X16842434Y-14785033D02*
X16842434Y-14678966D01*
X16736366Y-14678966D01*
X16736366Y-14785033D01*
X16842434Y-14785033D01*
X16714400Y-15165000D02*
X16864400Y-15315000D01*
X16864400Y-15165000D02*
X16714400Y-15315000D01*
X16842434Y-15293033D02*
X16842434Y-15186966D01*
X16736366Y-15186966D01*
X16736366Y-15293033D01*
X16842434Y-15293033D01*
X11151800Y-10389800D02*
X11301800Y-10539800D01*
X11301800Y-10389800D02*
X11151800Y-10539800D01*
X11279833Y-10517834D02*
X11279833Y-10411767D01*
X11173767Y-10411767D01*
X11173767Y-10517834D01*
X11279833Y-10517834D01*
X11659800Y-10389800D02*
X11809800Y-10539800D01*
X11809800Y-10389800D02*
X11659800Y-10539800D01*
X11787833Y-10517834D02*
X11787833Y-10411767D01*
X11681766Y-10411767D01*
X11681766Y-10517834D01*
X11787833Y-10517834D01*
X2617400Y-17070000D02*
X2767400Y-17220000D01*
X2767400Y-17070000D02*
X2617400Y-17220000D01*
X2745434Y-17198034D02*
X2745434Y-17091967D01*
X2639367Y-17091967D01*
X2639367Y-17198034D01*
X2745434Y-17198034D01*
X2617400Y-17578000D02*
X2767400Y-17728000D01*
X2767400Y-17578000D02*
X2617400Y-17728000D01*
X2745434Y-17706034D02*
X2745434Y-17599967D01*
X2639367Y-17599967D01*
X2639367Y-17706034D01*
X2745434Y-17706034D01*
X2617400Y-12371000D02*
X2767400Y-12521000D01*
X2767400Y-12371000D02*
X2617400Y-12521000D01*
X2745434Y-12499033D02*
X2745434Y-12392966D01*
X2639367Y-12392966D01*
X2639367Y-12499033D01*
X2745434Y-12499033D01*
X2617400Y-12879000D02*
X2767400Y-13029000D01*
X2767400Y-12879000D02*
X2617400Y-13029000D01*
X2745434Y-13007033D02*
X2745434Y-12900966D01*
X2639367Y-12900966D01*
X2639367Y-13007033D01*
X2745434Y-13007033D01*
X16714400Y-12244000D02*
X16864400Y-12394000D01*
X16864400Y-12244000D02*
X16714400Y-12394000D01*
X16842434Y-12372033D02*
X16842434Y-12265966D01*
X16736366Y-12265966D01*
X16736366Y-12372033D01*
X16842434Y-12372033D01*
X16714400Y-12752000D02*
X16864400Y-12902000D01*
X16864400Y-12752000D02*
X16714400Y-12902000D01*
X16842434Y-12880033D02*
X16842434Y-12773966D01*
X16736366Y-12773966D01*
X16736366Y-12880033D01*
X16842434Y-12880033D01*
X6981200Y-2037800D02*
X7141200Y-2197800D01*
X7141200Y-2037800D02*
X6981200Y-2197800D01*
X7061200Y-2197800D02*
X7141200Y-2117800D01*
X7061200Y-2037800D01*
X6981200Y-2117800D01*
X7061200Y-2197800D01*
X3454400Y-3532200D02*
X3454400Y-3732200D01*
X3354400Y-3632200D02*
X3554400Y-3632200D01*
X3554400Y-3632200D02*
G75*
G03*
X3554400Y-3632200I-100000J0D01*
G01*
X3454400Y-9552000D02*
X3454400Y-9752000D01*
X3354400Y-9652000D02*
X3554400Y-9652000D01*
X3554400Y-9652000D02*
G75*
G03*
X3554400Y-9652000I-100000J0D01*
G01*
X15011400Y-9552000D02*
X15011400Y-9752000D01*
X14911400Y-9652000D02*
X15111400Y-9652000D01*
X15111400Y-9652000D02*
G75*
G03*
X15111400Y-9652000I-100000J0D01*
G01*
X15138400Y-3532200D02*
X15138400Y-3732200D01*
X15038400Y-3632200D02*
X15238400Y-3632200D01*
X15238400Y-3632200D02*
G75*
G03*
X15238400Y-3632200I-100000J0D01*
G01*
X7497467Y-12679067D02*
X7497467Y-12466933D01*
X7285333Y-12466933D01*
X7285333Y-12679067D01*
X7497467Y-12679067D01*
X7541400Y-12573000D02*
G75*
G03*
X7541400Y-12573000I-150000J0D01*
G01*
X7497467Y-17632067D02*
X7497467Y-17419933D01*
X7285333Y-17419933D01*
X7285333Y-17632067D01*
X7497467Y-17632067D01*
X7541400Y-17526000D02*
G75*
G03*
X7541400Y-17526000I-150000J0D01*
G01*
X15244467Y-11790067D02*
X15244467Y-11577933D01*
X15032333Y-11577933D01*
X15032333Y-11790067D01*
X15244467Y-11790067D01*
X15288400Y-11684000D02*
G75*
G03*
X15288400Y-11684000I-150000J0D01*
G01*
X15244467Y-18521067D02*
X15244467Y-18308933D01*
X15032333Y-18308933D01*
X15032333Y-18521067D01*
X15244467Y-18521067D01*
X15288400Y-18415000D02*
G75*
G03*
X15288400Y-18415000I-150000J0D01*
G01*
X13973721Y-5528975D02*
X14173721Y-5328975D01*
X13973721Y-5128975D01*
X13773721Y-5328975D01*
X13973721Y-5528975D01*
X14173721Y-5328975D02*
G75*
G03*
X14173721Y-5328975I-200000J0D01*
G01*
X16109184Y-7664437D02*
X16309184Y-7464437D01*
X16109184Y-7264437D01*
X15909184Y-7464437D01*
X16109184Y-7664437D01*
X16309184Y-7464437D02*
G75*
G03*
X16309184Y-7464437I-200000J0D01*
G01*
X7369721Y-5528975D02*
X7569721Y-5328975D01*
X7369721Y-5128975D01*
X7169721Y-5328975D01*
X7369721Y-5528975D01*
X7569721Y-5328975D02*
G75*
G03*
X7569721Y-5328975I-200000J0D01*
G01*
X9505184Y-7664437D02*
X9705184Y-7464437D01*
X9505184Y-7264437D01*
X9305184Y-7464437D01*
X9505184Y-7664437D01*
X9705184Y-7464437D02*
G75*
G03*
X9705184Y-7464437I-200000J0D01*
G01*
X10671721Y-5528975D02*
X10871721Y-5328975D01*
X10671721Y-5128975D01*
X10471721Y-5328975D01*
X10671721Y-5528975D01*
X10871721Y-5328975D02*
G75*
G03*
X10871721Y-5328975I-200000J0D01*
G01*
X12807184Y-7664437D02*
X13007184Y-7464437D01*
X12807184Y-7264437D01*
X12607184Y-7464437D01*
X12807184Y-7664437D01*
X13007184Y-7464437D02*
G75*
G03*
X13007184Y-7464437I-200000J0D01*
G01*
X4027081Y-5528975D02*
X4227081Y-5328975D01*
X4027081Y-5128975D01*
X3827081Y-5328975D01*
X4027081Y-5528975D01*
X4227081Y-5328975D02*
G75*
G03*
X4227081Y-5328975I-200000J0D01*
G01*
X6162544Y-7664437D02*
X6362544Y-7464437D01*
X6162544Y-7264437D01*
X5962544Y-7464437D01*
X6162544Y-7664437D01*
X6362544Y-7464437D02*
G75*
G03*
X6362544Y-7464437I-200000J0D01*
G01*
D12*
X2595328Y-19518214D02*
X2595328Y-19218214D01*
X2666757Y-19218214D01*
X2709614Y-19232500D01*
X2738186Y-19261072D01*
X2752471Y-19289643D01*
X2766757Y-19346786D01*
X2766757Y-19389643D01*
X2752471Y-19446786D01*
X2738186Y-19475357D01*
X2709614Y-19503929D01*
X2666757Y-19518214D01*
X2595328Y-19518214D01*
X2895328Y-19518214D02*
X2895328Y-19318214D01*
X2895328Y-19375357D02*
X2909614Y-19346786D01*
X2923900Y-19332500D01*
X2952471Y-19318214D01*
X2981043Y-19318214D01*
X3081043Y-19518214D02*
X3081043Y-19318214D01*
X3081043Y-19218214D02*
X3066757Y-19232500D01*
X3081043Y-19246786D01*
X3095328Y-19232500D01*
X3081043Y-19218214D01*
X3081043Y-19246786D01*
X3266757Y-19518214D02*
X3238186Y-19503929D01*
X3223900Y-19475357D01*
X3223900Y-19218214D01*
X3423900Y-19518214D02*
X3395328Y-19503929D01*
X3381043Y-19475357D01*
X3381043Y-19218214D01*
X3766757Y-19518214D02*
X3766757Y-19218214D01*
X3866757Y-19432500D01*
X3966757Y-19218214D01*
X3966757Y-19518214D01*
X4238186Y-19518214D02*
X4238186Y-19361072D01*
X4223900Y-19332500D01*
X4195328Y-19318214D01*
X4138186Y-19318214D01*
X4109614Y-19332500D01*
X4238186Y-19503929D02*
X4209614Y-19518214D01*
X4138186Y-19518214D01*
X4109614Y-19503929D01*
X4095328Y-19475357D01*
X4095328Y-19446786D01*
X4109614Y-19418214D01*
X4138186Y-19403929D01*
X4209614Y-19403929D01*
X4238186Y-19389643D01*
X4381043Y-19318214D02*
X4381043Y-19618214D01*
X4381043Y-19332500D02*
X4409614Y-19318214D01*
X4466757Y-19318214D01*
X4495328Y-19332500D01*
X4509614Y-19346786D01*
X4523900Y-19375357D01*
X4523900Y-19461072D01*
X4509614Y-19489643D01*
X4495328Y-19503929D01*
X4466757Y-19518214D01*
X4409614Y-19518214D01*
X4381043Y-19503929D01*
X4652471Y-19489643D02*
X4666757Y-19503929D01*
X4652471Y-19518214D01*
X4638186Y-19503929D01*
X4652471Y-19489643D01*
X4652471Y-19518214D01*
X4652471Y-19332500D02*
X4666757Y-19346786D01*
X4652471Y-19361072D01*
X4638186Y-19346786D01*
X4652471Y-19332500D01*
X4652471Y-19361072D01*
X2268900Y-19992500D02*
X2308900Y-20032500D01*
X2308900Y-19992500D02*
X2268900Y-20032500D01*
X2652471Y-19848214D02*
X2681043Y-19848214D01*
X2709614Y-19862500D01*
X2723900Y-19876786D01*
X2738186Y-19905357D01*
X2752471Y-19962500D01*
X2752471Y-20033929D01*
X2738186Y-20091072D01*
X2723900Y-20119643D01*
X2709614Y-20133929D01*
X2681043Y-20148214D01*
X2652471Y-20148214D01*
X2623900Y-20133929D01*
X2609614Y-20119643D01*
X2595328Y-20091072D01*
X2581043Y-20033929D01*
X2581043Y-19962500D01*
X2595328Y-19905357D01*
X2609614Y-19876786D01*
X2623900Y-19862500D01*
X2652471Y-19848214D01*
X2881043Y-20119643D02*
X2895328Y-20133929D01*
X2881043Y-20148214D01*
X2866757Y-20133929D01*
X2881043Y-20119643D01*
X2881043Y-20148214D01*
X3152471Y-19948214D02*
X3152471Y-20148214D01*
X3081043Y-19833929D02*
X3009614Y-20048214D01*
X3195328Y-20048214D01*
X3366757Y-19848214D02*
X3395328Y-19848214D01*
X3423900Y-19862500D01*
X3438186Y-19876786D01*
X3452471Y-19905357D01*
X3466757Y-19962500D01*
X3466757Y-20033929D01*
X3452471Y-20091072D01*
X3438186Y-20119643D01*
X3423900Y-20133929D01*
X3395328Y-20148214D01*
X3366757Y-20148214D01*
X3338186Y-20133929D01*
X3323900Y-20119643D01*
X3309614Y-20091072D01*
X3295328Y-20033929D01*
X3295328Y-19962500D01*
X3309614Y-19905357D01*
X3323900Y-19876786D01*
X3338186Y-19862500D01*
X3366757Y-19848214D01*
X3595328Y-20148214D02*
X3595328Y-19948214D01*
X3595328Y-19976786D02*
X3609614Y-19962500D01*
X3638186Y-19948214D01*
X3681043Y-19948214D01*
X3709614Y-19962500D01*
X3723900Y-19991072D01*
X3723900Y-20148214D01*
X3723900Y-19991072D02*
X3738186Y-19962500D01*
X3766757Y-19948214D01*
X3809614Y-19948214D01*
X3838186Y-19962500D01*
X3852471Y-19991072D01*
X3852471Y-20148214D01*
X3995328Y-20148214D02*
X3995328Y-19948214D01*
X3995328Y-19976786D02*
X4009614Y-19962500D01*
X4038186Y-19948214D01*
X4081043Y-19948214D01*
X4109614Y-19962500D01*
X4123900Y-19991072D01*
X4123900Y-20148214D01*
X4123900Y-19991072D02*
X4138186Y-19962500D01*
X4166757Y-19948214D01*
X4209614Y-19948214D01*
X4238186Y-19962500D01*
X4252471Y-19991072D01*
X4252471Y-20148214D01*
X4838186Y-19833929D02*
X4581043Y-20219643D01*
X5223900Y-19848214D02*
X5252471Y-19848214D01*
X5281043Y-19862500D01*
X5295328Y-19876786D01*
X5309614Y-19905357D01*
X5323900Y-19962500D01*
X5323900Y-20033929D01*
X5309614Y-20091072D01*
X5295328Y-20119643D01*
X5281043Y-20133929D01*
X5252471Y-20148214D01*
X5223900Y-20148214D01*
X5195328Y-20133929D01*
X5181043Y-20119643D01*
X5166757Y-20091072D01*
X5152471Y-20033929D01*
X5152471Y-19962500D01*
X5166757Y-19905357D01*
X5181043Y-19876786D01*
X5195328Y-19862500D01*
X5223900Y-19848214D01*
X5452471Y-20119643D02*
X5466757Y-20133929D01*
X5452471Y-20148214D01*
X5438186Y-20133929D01*
X5452471Y-20119643D01*
X5452471Y-20148214D01*
X5652471Y-19848214D02*
X5681043Y-19848214D01*
X5709614Y-19862500D01*
X5723900Y-19876786D01*
X5738186Y-19905357D01*
X5752471Y-19962500D01*
X5752471Y-20033929D01*
X5738186Y-20091072D01*
X5723900Y-20119643D01*
X5709614Y-20133929D01*
X5681043Y-20148214D01*
X5652471Y-20148214D01*
X5623900Y-20133929D01*
X5609614Y-20119643D01*
X5595328Y-20091072D01*
X5581043Y-20033929D01*
X5581043Y-19962500D01*
X5595328Y-19905357D01*
X5609614Y-19876786D01*
X5623900Y-19862500D01*
X5652471Y-19848214D01*
X6038186Y-20148214D02*
X5866757Y-20148214D01*
X5952471Y-20148214D02*
X5952471Y-19848214D01*
X5923900Y-19891072D01*
X5895328Y-19919643D01*
X5866757Y-19933929D01*
X6295328Y-19848214D02*
X6238186Y-19848214D01*
X6209614Y-19862500D01*
X6195328Y-19876786D01*
X6166757Y-19919643D01*
X6152471Y-19976786D01*
X6152471Y-20091072D01*
X6166757Y-20119643D01*
X6181043Y-20133929D01*
X6209614Y-20148214D01*
X6266757Y-20148214D01*
X6295328Y-20133929D01*
X6309614Y-20119643D01*
X6323900Y-20091072D01*
X6323900Y-20019643D01*
X6309614Y-19991072D01*
X6295328Y-19976786D01*
X6266757Y-19962500D01*
X6209614Y-19962500D01*
X6181043Y-19976786D01*
X6166757Y-19991072D01*
X6152471Y-20019643D01*
X6438186Y-19848214D02*
X6438186Y-19905357D01*
X6552471Y-19848214D02*
X6552471Y-19905357D01*
X6995328Y-20262500D02*
X6981043Y-20248214D01*
X6952471Y-20205357D01*
X6938186Y-20176786D01*
X6923900Y-20133929D01*
X6909614Y-20062500D01*
X6909614Y-20005357D01*
X6923900Y-19933929D01*
X6938186Y-19891072D01*
X6952471Y-19862500D01*
X6981043Y-19819643D01*
X6995328Y-19805357D01*
X7095328Y-19876786D02*
X7109614Y-19862500D01*
X7138186Y-19848214D01*
X7209614Y-19848214D01*
X7238186Y-19862500D01*
X7252471Y-19876786D01*
X7266757Y-19905357D01*
X7266757Y-19933929D01*
X7252471Y-19976786D01*
X7081043Y-20148214D01*
X7266757Y-20148214D01*
X7366757Y-19848214D02*
X7552471Y-19848214D01*
X7452471Y-19962500D01*
X7495328Y-19962500D01*
X7523900Y-19976786D01*
X7538186Y-19991072D01*
X7552471Y-20019643D01*
X7552471Y-20091072D01*
X7538186Y-20119643D01*
X7523900Y-20133929D01*
X7495328Y-20148214D01*
X7409614Y-20148214D01*
X7381043Y-20133929D01*
X7366757Y-20119643D01*
X7909614Y-20148214D02*
X7909614Y-19848214D01*
X8038186Y-20148214D02*
X8038186Y-19991072D01*
X8023900Y-19962500D01*
X7995328Y-19948214D01*
X7952471Y-19948214D01*
X7923900Y-19962500D01*
X7909614Y-19976786D01*
X8223900Y-20148214D02*
X8195328Y-20133929D01*
X8181043Y-20119643D01*
X8166757Y-20091072D01*
X8166757Y-20005357D01*
X8181043Y-19976786D01*
X8195328Y-19962500D01*
X8223900Y-19948214D01*
X8266757Y-19948214D01*
X8295328Y-19962500D01*
X8309614Y-19976786D01*
X8323900Y-20005357D01*
X8323900Y-20091072D01*
X8309614Y-20119643D01*
X8295328Y-20133929D01*
X8266757Y-20148214D01*
X8223900Y-20148214D01*
X8495328Y-20148214D02*
X8466757Y-20133929D01*
X8452471Y-20105357D01*
X8452471Y-19848214D01*
X8723900Y-20133929D02*
X8695328Y-20148214D01*
X8638186Y-20148214D01*
X8609614Y-20133929D01*
X8595328Y-20105357D01*
X8595328Y-19991072D01*
X8609614Y-19962500D01*
X8638186Y-19948214D01*
X8695328Y-19948214D01*
X8723900Y-19962500D01*
X8738186Y-19991072D01*
X8738186Y-20019643D01*
X8595328Y-20048214D01*
X8852471Y-20133929D02*
X8881043Y-20148214D01*
X8938186Y-20148214D01*
X8966757Y-20133929D01*
X8981043Y-20105357D01*
X8981043Y-20091072D01*
X8966757Y-20062500D01*
X8938186Y-20048214D01*
X8895328Y-20048214D01*
X8866757Y-20033929D01*
X8852471Y-20005357D01*
X8852471Y-19991072D01*
X8866757Y-19962500D01*
X8895328Y-19948214D01*
X8938186Y-19948214D01*
X8966757Y-19962500D01*
X9081043Y-20262500D02*
X9095328Y-20248214D01*
X9123900Y-20205357D01*
X9138186Y-20176786D01*
X9152471Y-20133929D01*
X9166757Y-20062500D01*
X9166757Y-20005357D01*
X9152471Y-19933929D01*
X9138186Y-19891072D01*
X9123900Y-19862500D01*
X9095328Y-19819643D01*
X9081043Y-19805357D01*
X2308900Y-20408500D02*
G75*
G03*
X2308900Y-20408500I-30000J0D01*
G01*
X2652471Y-20244214D02*
X2681043Y-20244214D01*
X2709614Y-20258500D01*
X2723900Y-20272786D01*
X2738186Y-20301357D01*
X2752471Y-20358500D01*
X2752471Y-20429929D01*
X2738186Y-20487072D01*
X2723900Y-20515643D01*
X2709614Y-20529929D01*
X2681043Y-20544214D01*
X2652471Y-20544214D01*
X2623900Y-20529929D01*
X2609614Y-20515643D01*
X2595328Y-20487072D01*
X2581043Y-20429929D01*
X2581043Y-20358500D01*
X2595328Y-20301357D01*
X2609614Y-20272786D01*
X2623900Y-20258500D01*
X2652471Y-20244214D01*
X2881043Y-20515643D02*
X2895328Y-20529929D01*
X2881043Y-20544214D01*
X2866757Y-20529929D01*
X2881043Y-20515643D01*
X2881043Y-20544214D01*
X3152471Y-20244214D02*
X3095328Y-20244214D01*
X3066757Y-20258500D01*
X3052471Y-20272786D01*
X3023900Y-20315643D01*
X3009614Y-20372786D01*
X3009614Y-20487072D01*
X3023900Y-20515643D01*
X3038186Y-20529929D01*
X3066757Y-20544214D01*
X3123900Y-20544214D01*
X3152471Y-20529929D01*
X3166757Y-20515643D01*
X3181043Y-20487072D01*
X3181043Y-20415643D01*
X3166757Y-20387072D01*
X3152471Y-20372786D01*
X3123900Y-20358500D01*
X3066757Y-20358500D01*
X3038186Y-20372786D01*
X3023900Y-20387072D01*
X3009614Y-20415643D01*
X3366757Y-20244214D02*
X3395328Y-20244214D01*
X3423900Y-20258500D01*
X3438186Y-20272786D01*
X3452471Y-20301357D01*
X3466757Y-20358500D01*
X3466757Y-20429929D01*
X3452471Y-20487072D01*
X3438186Y-20515643D01*
X3423900Y-20529929D01*
X3395328Y-20544214D01*
X3366757Y-20544214D01*
X3338186Y-20529929D01*
X3323900Y-20515643D01*
X3309614Y-20487072D01*
X3295328Y-20429929D01*
X3295328Y-20358500D01*
X3309614Y-20301357D01*
X3323900Y-20272786D01*
X3338186Y-20258500D01*
X3366757Y-20244214D01*
X3595328Y-20544214D02*
X3595328Y-20344214D01*
X3595328Y-20372786D02*
X3609614Y-20358500D01*
X3638186Y-20344214D01*
X3681043Y-20344214D01*
X3709614Y-20358500D01*
X3723900Y-20387072D01*
X3723900Y-20544214D01*
X3723900Y-20387072D02*
X3738186Y-20358500D01*
X3766757Y-20344214D01*
X3809614Y-20344214D01*
X3838186Y-20358500D01*
X3852471Y-20387072D01*
X3852471Y-20544214D01*
X3995328Y-20544214D02*
X3995328Y-20344214D01*
X3995328Y-20372786D02*
X4009614Y-20358500D01*
X4038186Y-20344214D01*
X4081043Y-20344214D01*
X4109614Y-20358500D01*
X4123900Y-20387072D01*
X4123900Y-20544214D01*
X4123900Y-20387072D02*
X4138186Y-20358500D01*
X4166757Y-20344214D01*
X4209614Y-20344214D01*
X4238186Y-20358500D01*
X4252471Y-20387072D01*
X4252471Y-20544214D01*
X4838186Y-20229929D02*
X4581043Y-20615643D01*
X5223900Y-20244214D02*
X5252471Y-20244214D01*
X5281043Y-20258500D01*
X5295328Y-20272786D01*
X5309614Y-20301357D01*
X5323900Y-20358500D01*
X5323900Y-20429929D01*
X5309614Y-20487072D01*
X5295328Y-20515643D01*
X5281043Y-20529929D01*
X5252471Y-20544214D01*
X5223900Y-20544214D01*
X5195328Y-20529929D01*
X5181043Y-20515643D01*
X5166757Y-20487072D01*
X5152471Y-20429929D01*
X5152471Y-20358500D01*
X5166757Y-20301357D01*
X5181043Y-20272786D01*
X5195328Y-20258500D01*
X5223900Y-20244214D01*
X5452471Y-20515643D02*
X5466757Y-20529929D01*
X5452471Y-20544214D01*
X5438186Y-20529929D01*
X5452471Y-20515643D01*
X5452471Y-20544214D01*
X5652471Y-20244214D02*
X5681043Y-20244214D01*
X5709614Y-20258500D01*
X5723900Y-20272786D01*
X5738186Y-20301357D01*
X5752471Y-20358500D01*
X5752471Y-20429929D01*
X5738186Y-20487072D01*
X5723900Y-20515643D01*
X5709614Y-20529929D01*
X5681043Y-20544214D01*
X5652471Y-20544214D01*
X5623900Y-20529929D01*
X5609614Y-20515643D01*
X5595328Y-20487072D01*
X5581043Y-20429929D01*
X5581043Y-20358500D01*
X5595328Y-20301357D01*
X5609614Y-20272786D01*
X5623900Y-20258500D01*
X5652471Y-20244214D01*
X5866757Y-20272786D02*
X5881043Y-20258500D01*
X5909614Y-20244214D01*
X5981043Y-20244214D01*
X6009614Y-20258500D01*
X6023900Y-20272786D01*
X6038186Y-20301357D01*
X6038186Y-20329929D01*
X6023900Y-20372786D01*
X5852471Y-20544214D01*
X6038186Y-20544214D01*
X6295328Y-20344214D02*
X6295328Y-20544214D01*
X6223900Y-20229929D02*
X6152471Y-20444214D01*
X6338186Y-20444214D01*
X6438186Y-20244214D02*
X6438186Y-20301357D01*
X6552471Y-20244214D02*
X6552471Y-20301357D01*
X6995328Y-20658500D02*
X6981043Y-20644214D01*
X6952471Y-20601357D01*
X6938186Y-20572786D01*
X6923900Y-20529929D01*
X6909614Y-20458500D01*
X6909614Y-20401357D01*
X6923900Y-20329929D01*
X6938186Y-20287072D01*
X6952471Y-20258500D01*
X6981043Y-20215643D01*
X6995328Y-20201357D01*
X7238186Y-20244214D02*
X7181043Y-20244214D01*
X7152471Y-20258500D01*
X7138186Y-20272786D01*
X7109614Y-20315643D01*
X7095328Y-20372786D01*
X7095328Y-20487072D01*
X7109614Y-20515643D01*
X7123900Y-20529929D01*
X7152471Y-20544214D01*
X7209614Y-20544214D01*
X7238186Y-20529929D01*
X7252471Y-20515643D01*
X7266757Y-20487072D01*
X7266757Y-20415643D01*
X7252471Y-20387072D01*
X7238186Y-20372786D01*
X7209614Y-20358500D01*
X7152471Y-20358500D01*
X7123900Y-20372786D01*
X7109614Y-20387072D01*
X7095328Y-20415643D01*
X7409614Y-20544214D02*
X7466757Y-20544214D01*
X7495328Y-20529929D01*
X7509614Y-20515643D01*
X7538186Y-20472786D01*
X7552471Y-20415643D01*
X7552471Y-20301357D01*
X7538186Y-20272786D01*
X7523900Y-20258500D01*
X7495328Y-20244214D01*
X7438186Y-20244214D01*
X7409614Y-20258500D01*
X7395328Y-20272786D01*
X7381043Y-20301357D01*
X7381043Y-20372786D01*
X7395328Y-20401357D01*
X7409614Y-20415643D01*
X7438186Y-20429929D01*
X7495328Y-20429929D01*
X7523900Y-20415643D01*
X7538186Y-20401357D01*
X7552471Y-20372786D01*
X7909614Y-20544214D02*
X7909614Y-20244214D01*
X8038186Y-20544214D02*
X8038186Y-20387072D01*
X8023900Y-20358500D01*
X7995328Y-20344214D01*
X7952471Y-20344214D01*
X7923900Y-20358500D01*
X7909614Y-20372786D01*
X8223900Y-20544214D02*
X8195328Y-20529929D01*
X8181043Y-20515643D01*
X8166757Y-20487072D01*
X8166757Y-20401357D01*
X8181043Y-20372786D01*
X8195328Y-20358500D01*
X8223900Y-20344214D01*
X8266757Y-20344214D01*
X8295328Y-20358500D01*
X8309614Y-20372786D01*
X8323900Y-20401357D01*
X8323900Y-20487072D01*
X8309614Y-20515643D01*
X8295328Y-20529929D01*
X8266757Y-20544214D01*
X8223900Y-20544214D01*
X8495328Y-20544214D02*
X8466757Y-20529929D01*
X8452471Y-20501357D01*
X8452471Y-20244214D01*
X8723900Y-20529929D02*
X8695328Y-20544214D01*
X8638186Y-20544214D01*
X8609614Y-20529929D01*
X8595328Y-20501357D01*
X8595328Y-20387072D01*
X8609614Y-20358500D01*
X8638186Y-20344214D01*
X8695328Y-20344214D01*
X8723900Y-20358500D01*
X8738186Y-20387072D01*
X8738186Y-20415643D01*
X8595328Y-20444214D01*
X8852471Y-20529929D02*
X8881043Y-20544214D01*
X8938186Y-20544214D01*
X8966757Y-20529929D01*
X8981043Y-20501357D01*
X8981043Y-20487072D01*
X8966757Y-20458500D01*
X8938186Y-20444214D01*
X8895328Y-20444214D01*
X8866757Y-20429929D01*
X8852471Y-20401357D01*
X8852471Y-20387072D01*
X8866757Y-20358500D01*
X8895328Y-20344214D01*
X8938186Y-20344214D01*
X8966757Y-20358500D01*
X9081043Y-20658500D02*
X9095328Y-20644214D01*
X9123900Y-20601357D01*
X9138186Y-20572786D01*
X9152471Y-20529929D01*
X9166757Y-20458500D01*
X9166757Y-20401357D01*
X9152471Y-20329929D01*
X9138186Y-20287072D01*
X9123900Y-20258500D01*
X9095328Y-20215643D01*
X9081043Y-20201357D01*
X2276400Y-20772000D02*
X2276400Y-20837000D01*
X2243900Y-20804500D02*
X2308900Y-20804500D01*
X2652471Y-20640214D02*
X2681043Y-20640214D01*
X2709614Y-20654500D01*
X2723900Y-20668786D01*
X2738186Y-20697357D01*
X2752471Y-20754500D01*
X2752471Y-20825929D01*
X2738186Y-20883072D01*
X2723900Y-20911643D01*
X2709614Y-20925929D01*
X2681043Y-20940214D01*
X2652471Y-20940214D01*
X2623900Y-20925929D01*
X2609614Y-20911643D01*
X2595328Y-20883072D01*
X2581043Y-20825929D01*
X2581043Y-20754500D01*
X2595328Y-20697357D01*
X2609614Y-20668786D01*
X2623900Y-20654500D01*
X2652471Y-20640214D01*
X2881043Y-20911643D02*
X2895328Y-20925929D01*
X2881043Y-20940214D01*
X2866757Y-20925929D01*
X2881043Y-20911643D01*
X2881043Y-20940214D01*
X3152471Y-20640214D02*
X3095328Y-20640214D01*
X3066757Y-20654500D01*
X3052471Y-20668786D01*
X3023900Y-20711643D01*
X3009614Y-20768786D01*
X3009614Y-20883072D01*
X3023900Y-20911643D01*
X3038186Y-20925929D01*
X3066757Y-20940214D01*
X3123900Y-20940214D01*
X3152471Y-20925929D01*
X3166757Y-20911643D01*
X3181043Y-20883072D01*
X3181043Y-20811643D01*
X3166757Y-20783072D01*
X3152471Y-20768786D01*
X3123900Y-20754500D01*
X3066757Y-20754500D01*
X3038186Y-20768786D01*
X3023900Y-20783072D01*
X3009614Y-20811643D01*
X3452471Y-20640214D02*
X3309614Y-20640214D01*
X3295328Y-20783072D01*
X3309614Y-20768786D01*
X3338186Y-20754500D01*
X3409614Y-20754500D01*
X3438186Y-20768786D01*
X3452471Y-20783072D01*
X3466757Y-20811643D01*
X3466757Y-20883072D01*
X3452471Y-20911643D01*
X3438186Y-20925929D01*
X3409614Y-20940214D01*
X3338186Y-20940214D01*
X3309614Y-20925929D01*
X3295328Y-20911643D01*
X3595328Y-20940214D02*
X3595328Y-20740214D01*
X3595328Y-20768786D02*
X3609614Y-20754500D01*
X3638186Y-20740214D01*
X3681043Y-20740214D01*
X3709614Y-20754500D01*
X3723900Y-20783072D01*
X3723900Y-20940214D01*
X3723900Y-20783072D02*
X3738186Y-20754500D01*
X3766757Y-20740214D01*
X3809614Y-20740214D01*
X3838186Y-20754500D01*
X3852471Y-20783072D01*
X3852471Y-20940214D01*
X3995328Y-20940214D02*
X3995328Y-20740214D01*
X3995328Y-20768786D02*
X4009614Y-20754500D01*
X4038186Y-20740214D01*
X4081043Y-20740214D01*
X4109614Y-20754500D01*
X4123900Y-20783072D01*
X4123900Y-20940214D01*
X4123900Y-20783072D02*
X4138186Y-20754500D01*
X4166757Y-20740214D01*
X4209614Y-20740214D01*
X4238186Y-20754500D01*
X4252471Y-20783072D01*
X4252471Y-20940214D01*
X4838186Y-20625929D02*
X4581043Y-21011643D01*
X5223900Y-20640214D02*
X5252471Y-20640214D01*
X5281043Y-20654500D01*
X5295328Y-20668786D01*
X5309614Y-20697357D01*
X5323900Y-20754500D01*
X5323900Y-20825929D01*
X5309614Y-20883072D01*
X5295328Y-20911643D01*
X5281043Y-20925929D01*
X5252471Y-20940214D01*
X5223900Y-20940214D01*
X5195328Y-20925929D01*
X5181043Y-20911643D01*
X5166757Y-20883072D01*
X5152471Y-20825929D01*
X5152471Y-20754500D01*
X5166757Y-20697357D01*
X5181043Y-20668786D01*
X5195328Y-20654500D01*
X5223900Y-20640214D01*
X5452471Y-20911643D02*
X5466757Y-20925929D01*
X5452471Y-20940214D01*
X5438186Y-20925929D01*
X5452471Y-20911643D01*
X5452471Y-20940214D01*
X5652471Y-20640214D02*
X5681043Y-20640214D01*
X5709614Y-20654500D01*
X5723900Y-20668786D01*
X5738186Y-20697357D01*
X5752471Y-20754500D01*
X5752471Y-20825929D01*
X5738186Y-20883072D01*
X5723900Y-20911643D01*
X5709614Y-20925929D01*
X5681043Y-20940214D01*
X5652471Y-20940214D01*
X5623900Y-20925929D01*
X5609614Y-20911643D01*
X5595328Y-20883072D01*
X5581043Y-20825929D01*
X5581043Y-20754500D01*
X5595328Y-20697357D01*
X5609614Y-20668786D01*
X5623900Y-20654500D01*
X5652471Y-20640214D01*
X5866757Y-20668786D02*
X5881043Y-20654500D01*
X5909614Y-20640214D01*
X5981043Y-20640214D01*
X6009614Y-20654500D01*
X6023900Y-20668786D01*
X6038186Y-20697357D01*
X6038186Y-20725929D01*
X6023900Y-20768786D01*
X5852471Y-20940214D01*
X6038186Y-20940214D01*
X6295328Y-20640214D02*
X6238186Y-20640214D01*
X6209614Y-20654500D01*
X6195328Y-20668786D01*
X6166757Y-20711643D01*
X6152471Y-20768786D01*
X6152471Y-20883072D01*
X6166757Y-20911643D01*
X6181043Y-20925929D01*
X6209614Y-20940214D01*
X6266757Y-20940214D01*
X6295328Y-20925929D01*
X6309614Y-20911643D01*
X6323900Y-20883072D01*
X6323900Y-20811643D01*
X6309614Y-20783072D01*
X6295328Y-20768786D01*
X6266757Y-20754500D01*
X6209614Y-20754500D01*
X6181043Y-20768786D01*
X6166757Y-20783072D01*
X6152471Y-20811643D01*
X6438186Y-20640214D02*
X6438186Y-20697357D01*
X6552471Y-20640214D02*
X6552471Y-20697357D01*
X6995328Y-21054500D02*
X6981043Y-21040214D01*
X6952471Y-20997357D01*
X6938186Y-20968786D01*
X6923900Y-20925929D01*
X6909614Y-20854500D01*
X6909614Y-20797357D01*
X6923900Y-20725929D01*
X6938186Y-20683072D01*
X6952471Y-20654500D01*
X6981043Y-20611643D01*
X6995328Y-20597357D01*
X7238186Y-20740214D02*
X7238186Y-20940214D01*
X7166757Y-20625929D02*
X7095328Y-20840214D01*
X7281043Y-20840214D01*
X7623900Y-20940214D02*
X7623900Y-20640214D01*
X7752471Y-20940214D02*
X7752471Y-20783072D01*
X7738186Y-20754500D01*
X7709614Y-20740214D01*
X7666757Y-20740214D01*
X7638186Y-20754500D01*
X7623900Y-20768786D01*
X7938186Y-20940214D02*
X7909614Y-20925929D01*
X7895328Y-20911643D01*
X7881043Y-20883072D01*
X7881043Y-20797357D01*
X7895328Y-20768786D01*
X7909614Y-20754500D01*
X7938186Y-20740214D01*
X7981043Y-20740214D01*
X8009614Y-20754500D01*
X8023900Y-20768786D01*
X8038186Y-20797357D01*
X8038186Y-20883072D01*
X8023900Y-20911643D01*
X8009614Y-20925929D01*
X7981043Y-20940214D01*
X7938186Y-20940214D01*
X8209614Y-20940214D02*
X8181043Y-20925929D01*
X8166757Y-20897357D01*
X8166757Y-20640214D01*
X8438186Y-20925929D02*
X8409614Y-20940214D01*
X8352471Y-20940214D01*
X8323900Y-20925929D01*
X8309614Y-20897357D01*
X8309614Y-20783072D01*
X8323900Y-20754500D01*
X8352471Y-20740214D01*
X8409614Y-20740214D01*
X8438186Y-20754500D01*
X8452471Y-20783072D01*
X8452471Y-20811643D01*
X8309614Y-20840214D01*
X8566757Y-20925929D02*
X8595328Y-20940214D01*
X8652471Y-20940214D01*
X8681043Y-20925929D01*
X8695328Y-20897357D01*
X8695328Y-20883072D01*
X8681043Y-20854500D01*
X8652471Y-20840214D01*
X8609614Y-20840214D01*
X8581043Y-20825929D01*
X8566757Y-20797357D01*
X8566757Y-20783072D01*
X8581043Y-20754500D01*
X8609614Y-20740214D01*
X8652471Y-20740214D01*
X8681043Y-20754500D01*
X8795328Y-21054500D02*
X8809614Y-21040214D01*
X8838186Y-20997357D01*
X8852471Y-20968786D01*
X8866757Y-20925929D01*
X8881043Y-20854500D01*
X8881043Y-20797357D01*
X8866757Y-20725929D01*
X8852471Y-20683072D01*
X8838186Y-20654500D01*
X8809614Y-20611643D01*
X8795328Y-20597357D01*
X2297184Y-21228785D02*
X2297184Y-21172216D01*
X2240615Y-21172216D01*
X2240615Y-21228785D01*
X2297184Y-21228785D01*
X2652471Y-21036214D02*
X2681043Y-21036214D01*
X2709614Y-21050500D01*
X2723900Y-21064786D01*
X2738186Y-21093357D01*
X2752471Y-21150500D01*
X2752471Y-21221929D01*
X2738186Y-21279072D01*
X2723900Y-21307643D01*
X2709614Y-21321929D01*
X2681043Y-21336214D01*
X2652471Y-21336214D01*
X2623900Y-21321929D01*
X2609614Y-21307643D01*
X2595328Y-21279072D01*
X2581043Y-21221929D01*
X2581043Y-21150500D01*
X2595328Y-21093357D01*
X2609614Y-21064786D01*
X2623900Y-21050500D01*
X2652471Y-21036214D01*
X2881043Y-21307643D02*
X2895328Y-21321929D01*
X2881043Y-21336214D01*
X2866757Y-21321929D01*
X2881043Y-21307643D01*
X2881043Y-21336214D01*
X3066757Y-21164786D02*
X3038186Y-21150500D01*
X3023900Y-21136214D01*
X3009614Y-21107643D01*
X3009614Y-21093357D01*
X3023900Y-21064786D01*
X3038186Y-21050500D01*
X3066757Y-21036214D01*
X3123900Y-21036214D01*
X3152471Y-21050500D01*
X3166757Y-21064786D01*
X3181043Y-21093357D01*
X3181043Y-21107643D01*
X3166757Y-21136214D01*
X3152471Y-21150500D01*
X3123900Y-21164786D01*
X3066757Y-21164786D01*
X3038186Y-21179072D01*
X3023900Y-21193357D01*
X3009614Y-21221929D01*
X3009614Y-21279072D01*
X3023900Y-21307643D01*
X3038186Y-21321929D01*
X3066757Y-21336214D01*
X3123900Y-21336214D01*
X3152471Y-21321929D01*
X3166757Y-21307643D01*
X3181043Y-21279072D01*
X3181043Y-21221929D01*
X3166757Y-21193357D01*
X3152471Y-21179072D01*
X3123900Y-21164786D01*
X3366757Y-21036214D02*
X3395328Y-21036214D01*
X3423900Y-21050500D01*
X3438186Y-21064786D01*
X3452471Y-21093357D01*
X3466757Y-21150500D01*
X3466757Y-21221929D01*
X3452471Y-21279072D01*
X3438186Y-21307643D01*
X3423900Y-21321929D01*
X3395328Y-21336214D01*
X3366757Y-21336214D01*
X3338186Y-21321929D01*
X3323900Y-21307643D01*
X3309614Y-21279072D01*
X3295328Y-21221929D01*
X3295328Y-21150500D01*
X3309614Y-21093357D01*
X3323900Y-21064786D01*
X3338186Y-21050500D01*
X3366757Y-21036214D01*
X3595328Y-21336214D02*
X3595328Y-21136214D01*
X3595328Y-21164786D02*
X3609614Y-21150500D01*
X3638186Y-21136214D01*
X3681043Y-21136214D01*
X3709614Y-21150500D01*
X3723900Y-21179072D01*
X3723900Y-21336214D01*
X3723900Y-21179072D02*
X3738186Y-21150500D01*
X3766757Y-21136214D01*
X3809614Y-21136214D01*
X3838186Y-21150500D01*
X3852471Y-21179072D01*
X3852471Y-21336214D01*
X3995328Y-21336214D02*
X3995328Y-21136214D01*
X3995328Y-21164786D02*
X4009614Y-21150500D01*
X4038186Y-21136214D01*
X4081043Y-21136214D01*
X4109614Y-21150500D01*
X4123900Y-21179072D01*
X4123900Y-21336214D01*
X4123900Y-21179072D02*
X4138186Y-21150500D01*
X4166757Y-21136214D01*
X4209614Y-21136214D01*
X4238186Y-21150500D01*
X4252471Y-21179072D01*
X4252471Y-21336214D01*
X4838186Y-21021929D02*
X4581043Y-21407643D01*
X5223900Y-21036214D02*
X5252471Y-21036214D01*
X5281043Y-21050500D01*
X5295328Y-21064786D01*
X5309614Y-21093357D01*
X5323900Y-21150500D01*
X5323900Y-21221929D01*
X5309614Y-21279072D01*
X5295328Y-21307643D01*
X5281043Y-21321929D01*
X5252471Y-21336214D01*
X5223900Y-21336214D01*
X5195328Y-21321929D01*
X5181043Y-21307643D01*
X5166757Y-21279072D01*
X5152471Y-21221929D01*
X5152471Y-21150500D01*
X5166757Y-21093357D01*
X5181043Y-21064786D01*
X5195328Y-21050500D01*
X5223900Y-21036214D01*
X5452471Y-21307643D02*
X5466757Y-21321929D01*
X5452471Y-21336214D01*
X5438186Y-21321929D01*
X5452471Y-21307643D01*
X5452471Y-21336214D01*
X5652471Y-21036214D02*
X5681043Y-21036214D01*
X5709614Y-21050500D01*
X5723900Y-21064786D01*
X5738186Y-21093357D01*
X5752471Y-21150500D01*
X5752471Y-21221929D01*
X5738186Y-21279072D01*
X5723900Y-21307643D01*
X5709614Y-21321929D01*
X5681043Y-21336214D01*
X5652471Y-21336214D01*
X5623900Y-21321929D01*
X5609614Y-21307643D01*
X5595328Y-21279072D01*
X5581043Y-21221929D01*
X5581043Y-21150500D01*
X5595328Y-21093357D01*
X5609614Y-21064786D01*
X5623900Y-21050500D01*
X5652471Y-21036214D01*
X5852471Y-21036214D02*
X6038186Y-21036214D01*
X5938186Y-21150500D01*
X5981043Y-21150500D01*
X6009614Y-21164786D01*
X6023900Y-21179072D01*
X6038186Y-21207643D01*
X6038186Y-21279072D01*
X6023900Y-21307643D01*
X6009614Y-21321929D01*
X5981043Y-21336214D01*
X5895328Y-21336214D01*
X5866757Y-21321929D01*
X5852471Y-21307643D01*
X6323900Y-21336214D02*
X6152471Y-21336214D01*
X6238186Y-21336214D02*
X6238186Y-21036214D01*
X6209614Y-21079072D01*
X6181043Y-21107643D01*
X6152471Y-21121929D01*
X6438186Y-21036214D02*
X6438186Y-21093357D01*
X6552471Y-21036214D02*
X6552471Y-21093357D01*
X6995328Y-21450500D02*
X6981043Y-21436214D01*
X6952471Y-21393357D01*
X6938186Y-21364786D01*
X6923900Y-21321929D01*
X6909614Y-21250500D01*
X6909614Y-21193357D01*
X6923900Y-21121929D01*
X6938186Y-21079072D01*
X6952471Y-21050500D01*
X6981043Y-21007643D01*
X6995328Y-20993357D01*
X7081043Y-21036214D02*
X7266757Y-21036214D01*
X7166757Y-21150500D01*
X7209614Y-21150500D01*
X7238186Y-21164786D01*
X7252471Y-21179072D01*
X7266757Y-21207643D01*
X7266757Y-21279072D01*
X7252471Y-21307643D01*
X7238186Y-21321929D01*
X7209614Y-21336214D01*
X7123900Y-21336214D01*
X7095328Y-21321929D01*
X7081043Y-21307643D01*
X7623900Y-21336214D02*
X7623900Y-21036214D01*
X7752471Y-21336214D02*
X7752471Y-21179072D01*
X7738186Y-21150500D01*
X7709614Y-21136214D01*
X7666757Y-21136214D01*
X7638186Y-21150500D01*
X7623900Y-21164786D01*
X7938186Y-21336214D02*
X7909614Y-21321929D01*
X7895328Y-21307643D01*
X7881043Y-21279072D01*
X7881043Y-21193357D01*
X7895328Y-21164786D01*
X7909614Y-21150500D01*
X7938186Y-21136214D01*
X7981043Y-21136214D01*
X8009614Y-21150500D01*
X8023900Y-21164786D01*
X8038186Y-21193357D01*
X8038186Y-21279072D01*
X8023900Y-21307643D01*
X8009614Y-21321929D01*
X7981043Y-21336214D01*
X7938186Y-21336214D01*
X8209614Y-21336214D02*
X8181043Y-21321929D01*
X8166757Y-21293357D01*
X8166757Y-21036214D01*
X8438186Y-21321929D02*
X8409614Y-21336214D01*
X8352471Y-21336214D01*
X8323900Y-21321929D01*
X8309614Y-21293357D01*
X8309614Y-21179072D01*
X8323900Y-21150500D01*
X8352471Y-21136214D01*
X8409614Y-21136214D01*
X8438186Y-21150500D01*
X8452471Y-21179072D01*
X8452471Y-21207643D01*
X8309614Y-21236214D01*
X8566757Y-21321929D02*
X8595328Y-21336214D01*
X8652471Y-21336214D01*
X8681043Y-21321929D01*
X8695328Y-21293357D01*
X8695328Y-21279072D01*
X8681043Y-21250500D01*
X8652471Y-21236214D01*
X8609614Y-21236214D01*
X8581043Y-21221929D01*
X8566757Y-21193357D01*
X8566757Y-21179072D01*
X8581043Y-21150500D01*
X8609614Y-21136214D01*
X8652471Y-21136214D01*
X8681043Y-21150500D01*
X8795328Y-21450500D02*
X8809614Y-21436214D01*
X8838186Y-21393357D01*
X8852471Y-21364786D01*
X8866757Y-21321929D01*
X8881043Y-21250500D01*
X8881043Y-21193357D01*
X8866757Y-21121929D01*
X8852471Y-21079072D01*
X8838186Y-21050500D01*
X8809614Y-21007643D01*
X8795328Y-20993357D01*
X2258900Y-21646500D02*
X2308900Y-21596500D01*
X2258900Y-21546500D01*
X2208900Y-21596500D01*
X2258900Y-21646500D01*
X2752471Y-21732214D02*
X2581043Y-21732214D01*
X2666757Y-21732214D02*
X2666757Y-21432214D01*
X2638186Y-21475072D01*
X2609614Y-21503643D01*
X2581043Y-21517929D01*
X2881043Y-21703643D02*
X2895328Y-21717929D01*
X2881043Y-21732214D01*
X2866757Y-21717929D01*
X2881043Y-21703643D01*
X2881043Y-21732214D01*
X3081043Y-21432214D02*
X3109614Y-21432214D01*
X3138186Y-21446500D01*
X3152471Y-21460786D01*
X3166757Y-21489357D01*
X3181043Y-21546500D01*
X3181043Y-21617929D01*
X3166757Y-21675072D01*
X3152471Y-21703643D01*
X3138186Y-21717929D01*
X3109614Y-21732214D01*
X3081043Y-21732214D01*
X3052471Y-21717929D01*
X3038186Y-21703643D01*
X3023900Y-21675072D01*
X3009614Y-21617929D01*
X3009614Y-21546500D01*
X3023900Y-21489357D01*
X3038186Y-21460786D01*
X3052471Y-21446500D01*
X3081043Y-21432214D01*
X3366757Y-21432214D02*
X3395328Y-21432214D01*
X3423900Y-21446500D01*
X3438186Y-21460786D01*
X3452471Y-21489357D01*
X3466757Y-21546500D01*
X3466757Y-21617929D01*
X3452471Y-21675072D01*
X3438186Y-21703643D01*
X3423900Y-21717929D01*
X3395328Y-21732214D01*
X3366757Y-21732214D01*
X3338186Y-21717929D01*
X3323900Y-21703643D01*
X3309614Y-21675072D01*
X3295328Y-21617929D01*
X3295328Y-21546500D01*
X3309614Y-21489357D01*
X3323900Y-21460786D01*
X3338186Y-21446500D01*
X3366757Y-21432214D01*
X3595328Y-21732214D02*
X3595328Y-21532214D01*
X3595328Y-21560786D02*
X3609614Y-21546500D01*
X3638186Y-21532214D01*
X3681043Y-21532214D01*
X3709614Y-21546500D01*
X3723900Y-21575072D01*
X3723900Y-21732214D01*
X3723900Y-21575072D02*
X3738186Y-21546500D01*
X3766757Y-21532214D01*
X3809614Y-21532214D01*
X3838186Y-21546500D01*
X3852471Y-21575072D01*
X3852471Y-21732214D01*
X3995328Y-21732214D02*
X3995328Y-21532214D01*
X3995328Y-21560786D02*
X4009614Y-21546500D01*
X4038186Y-21532214D01*
X4081043Y-21532214D01*
X4109614Y-21546500D01*
X4123900Y-21575072D01*
X4123900Y-21732214D01*
X4123900Y-21575072D02*
X4138186Y-21546500D01*
X4166757Y-21532214D01*
X4209614Y-21532214D01*
X4238186Y-21546500D01*
X4252471Y-21575072D01*
X4252471Y-21732214D01*
X4838186Y-21417929D02*
X4581043Y-21803643D01*
X5223900Y-21432214D02*
X5252471Y-21432214D01*
X5281043Y-21446500D01*
X5295328Y-21460786D01*
X5309614Y-21489357D01*
X5323900Y-21546500D01*
X5323900Y-21617929D01*
X5309614Y-21675072D01*
X5295328Y-21703643D01*
X5281043Y-21717929D01*
X5252471Y-21732214D01*
X5223900Y-21732214D01*
X5195328Y-21717929D01*
X5181043Y-21703643D01*
X5166757Y-21675072D01*
X5152471Y-21617929D01*
X5152471Y-21546500D01*
X5166757Y-21489357D01*
X5181043Y-21460786D01*
X5195328Y-21446500D01*
X5223900Y-21432214D01*
X5452471Y-21703643D02*
X5466757Y-21717929D01*
X5452471Y-21732214D01*
X5438186Y-21717929D01*
X5452471Y-21703643D01*
X5452471Y-21732214D01*
X5652471Y-21432214D02*
X5681043Y-21432214D01*
X5709614Y-21446500D01*
X5723900Y-21460786D01*
X5738186Y-21489357D01*
X5752471Y-21546500D01*
X5752471Y-21617929D01*
X5738186Y-21675072D01*
X5723900Y-21703643D01*
X5709614Y-21717929D01*
X5681043Y-21732214D01*
X5652471Y-21732214D01*
X5623900Y-21717929D01*
X5609614Y-21703643D01*
X5595328Y-21675072D01*
X5581043Y-21617929D01*
X5581043Y-21546500D01*
X5595328Y-21489357D01*
X5609614Y-21460786D01*
X5623900Y-21446500D01*
X5652471Y-21432214D01*
X5852471Y-21432214D02*
X6038186Y-21432214D01*
X5938186Y-21546500D01*
X5981043Y-21546500D01*
X6009614Y-21560786D01*
X6023900Y-21575072D01*
X6038186Y-21603643D01*
X6038186Y-21675072D01*
X6023900Y-21703643D01*
X6009614Y-21717929D01*
X5981043Y-21732214D01*
X5895328Y-21732214D01*
X5866757Y-21717929D01*
X5852471Y-21703643D01*
X6181043Y-21732214D02*
X6238186Y-21732214D01*
X6266757Y-21717929D01*
X6281043Y-21703643D01*
X6309614Y-21660786D01*
X6323900Y-21603643D01*
X6323900Y-21489357D01*
X6309614Y-21460786D01*
X6295328Y-21446500D01*
X6266757Y-21432214D01*
X6209614Y-21432214D01*
X6181043Y-21446500D01*
X6166757Y-21460786D01*
X6152471Y-21489357D01*
X6152471Y-21560786D01*
X6166757Y-21589357D01*
X6181043Y-21603643D01*
X6209614Y-21617929D01*
X6266757Y-21617929D01*
X6295328Y-21603643D01*
X6309614Y-21589357D01*
X6323900Y-21560786D01*
X6438186Y-21432214D02*
X6438186Y-21489357D01*
X6552471Y-21432214D02*
X6552471Y-21489357D01*
X6995328Y-21846500D02*
X6981043Y-21832214D01*
X6952471Y-21789357D01*
X6938186Y-21760786D01*
X6923900Y-21717929D01*
X6909614Y-21646500D01*
X6909614Y-21589357D01*
X6923900Y-21517929D01*
X6938186Y-21475072D01*
X6952471Y-21446500D01*
X6981043Y-21403643D01*
X6995328Y-21389357D01*
X7095328Y-21460786D02*
X7109614Y-21446500D01*
X7138186Y-21432214D01*
X7209614Y-21432214D01*
X7238186Y-21446500D01*
X7252471Y-21460786D01*
X7266757Y-21489357D01*
X7266757Y-21517929D01*
X7252471Y-21560786D01*
X7081043Y-21732214D01*
X7266757Y-21732214D01*
X7552471Y-21732214D02*
X7381043Y-21732214D01*
X7466757Y-21732214D02*
X7466757Y-21432214D01*
X7438186Y-21475072D01*
X7409614Y-21503643D01*
X7381043Y-21517929D01*
X7909614Y-21732214D02*
X7909614Y-21432214D01*
X8038186Y-21732214D02*
X8038186Y-21575072D01*
X8023900Y-21546500D01*
X7995328Y-21532214D01*
X7952471Y-21532214D01*
X7923900Y-21546500D01*
X7909614Y-21560786D01*
X8223900Y-21732214D02*
X8195328Y-21717929D01*
X8181043Y-21703643D01*
X8166757Y-21675072D01*
X8166757Y-21589357D01*
X8181043Y-21560786D01*
X8195328Y-21546500D01*
X8223900Y-21532214D01*
X8266757Y-21532214D01*
X8295328Y-21546500D01*
X8309614Y-21560786D01*
X8323900Y-21589357D01*
X8323900Y-21675072D01*
X8309614Y-21703643D01*
X8295328Y-21717929D01*
X8266757Y-21732214D01*
X8223900Y-21732214D01*
X8495328Y-21732214D02*
X8466757Y-21717929D01*
X8452471Y-21689357D01*
X8452471Y-21432214D01*
X8723900Y-21717929D02*
X8695328Y-21732214D01*
X8638186Y-21732214D01*
X8609614Y-21717929D01*
X8595328Y-21689357D01*
X8595328Y-21575072D01*
X8609614Y-21546500D01*
X8638186Y-21532214D01*
X8695328Y-21532214D01*
X8723900Y-21546500D01*
X8738186Y-21575072D01*
X8738186Y-21603643D01*
X8595328Y-21632214D01*
X8852471Y-21717929D02*
X8881043Y-21732214D01*
X8938186Y-21732214D01*
X8966757Y-21717929D01*
X8981043Y-21689357D01*
X8981043Y-21675072D01*
X8966757Y-21646500D01*
X8938186Y-21632214D01*
X8895328Y-21632214D01*
X8866757Y-21617929D01*
X8852471Y-21589357D01*
X8852471Y-21575072D01*
X8866757Y-21546500D01*
X8895328Y-21532214D01*
X8938186Y-21532214D01*
X8966757Y-21546500D01*
X9081043Y-21846500D02*
X9095328Y-21832214D01*
X9123900Y-21789357D01*
X9138186Y-21760786D01*
X9152471Y-21717929D01*
X9166757Y-21646500D01*
X9166757Y-21589357D01*
X9152471Y-21517929D01*
X9138186Y-21475072D01*
X9123900Y-21446500D01*
X9095328Y-21403643D01*
X9081043Y-21389357D01*
X2188900Y-21932500D02*
X2308900Y-22052500D01*
X2308900Y-21932500D02*
X2188900Y-22052500D01*
X2308900Y-21992500D02*
G75*
G03*
X2308900Y-21992500I-60000J0D01*
G01*
X2752471Y-22128214D02*
X2581043Y-22128214D01*
X2666757Y-22128214D02*
X2666757Y-21828214D01*
X2638186Y-21871072D01*
X2609614Y-21899643D01*
X2581043Y-21913929D01*
X2881043Y-22099643D02*
X2895328Y-22113929D01*
X2881043Y-22128214D01*
X2866757Y-22113929D01*
X2881043Y-22099643D01*
X2881043Y-22128214D01*
X3009614Y-21856786D02*
X3023900Y-21842500D01*
X3052471Y-21828214D01*
X3123900Y-21828214D01*
X3152471Y-21842500D01*
X3166757Y-21856786D01*
X3181043Y-21885357D01*
X3181043Y-21913929D01*
X3166757Y-21956786D01*
X2995328Y-22128214D01*
X3181043Y-22128214D01*
X3366757Y-21828214D02*
X3395328Y-21828214D01*
X3423900Y-21842500D01*
X3438186Y-21856786D01*
X3452471Y-21885357D01*
X3466757Y-21942500D01*
X3466757Y-22013929D01*
X3452471Y-22071072D01*
X3438186Y-22099643D01*
X3423900Y-22113929D01*
X3395328Y-22128214D01*
X3366757Y-22128214D01*
X3338186Y-22113929D01*
X3323900Y-22099643D01*
X3309614Y-22071072D01*
X3295328Y-22013929D01*
X3295328Y-21942500D01*
X3309614Y-21885357D01*
X3323900Y-21856786D01*
X3338186Y-21842500D01*
X3366757Y-21828214D01*
X3595328Y-22128214D02*
X3595328Y-21928214D01*
X3595328Y-21956786D02*
X3609614Y-21942500D01*
X3638186Y-21928214D01*
X3681043Y-21928214D01*
X3709614Y-21942500D01*
X3723900Y-21971072D01*
X3723900Y-22128214D01*
X3723900Y-21971072D02*
X3738186Y-21942500D01*
X3766757Y-21928214D01*
X3809614Y-21928214D01*
X3838186Y-21942500D01*
X3852471Y-21971072D01*
X3852471Y-22128214D01*
X3995328Y-22128214D02*
X3995328Y-21928214D01*
X3995328Y-21956786D02*
X4009614Y-21942500D01*
X4038186Y-21928214D01*
X4081043Y-21928214D01*
X4109614Y-21942500D01*
X4123900Y-21971072D01*
X4123900Y-22128214D01*
X4123900Y-21971072D02*
X4138186Y-21942500D01*
X4166757Y-21928214D01*
X4209614Y-21928214D01*
X4238186Y-21942500D01*
X4252471Y-21971072D01*
X4252471Y-22128214D01*
X4838186Y-21813929D02*
X4581043Y-22199643D01*
X5223900Y-21828214D02*
X5252471Y-21828214D01*
X5281043Y-21842500D01*
X5295328Y-21856786D01*
X5309614Y-21885357D01*
X5323900Y-21942500D01*
X5323900Y-22013929D01*
X5309614Y-22071072D01*
X5295328Y-22099643D01*
X5281043Y-22113929D01*
X5252471Y-22128214D01*
X5223900Y-22128214D01*
X5195328Y-22113929D01*
X5181043Y-22099643D01*
X5166757Y-22071072D01*
X5152471Y-22013929D01*
X5152471Y-21942500D01*
X5166757Y-21885357D01*
X5181043Y-21856786D01*
X5195328Y-21842500D01*
X5223900Y-21828214D01*
X5452471Y-22099643D02*
X5466757Y-22113929D01*
X5452471Y-22128214D01*
X5438186Y-22113929D01*
X5452471Y-22099643D01*
X5452471Y-22128214D01*
X5652471Y-21828214D02*
X5681043Y-21828214D01*
X5709614Y-21842500D01*
X5723900Y-21856786D01*
X5738186Y-21885357D01*
X5752471Y-21942500D01*
X5752471Y-22013929D01*
X5738186Y-22071072D01*
X5723900Y-22099643D01*
X5709614Y-22113929D01*
X5681043Y-22128214D01*
X5652471Y-22128214D01*
X5623900Y-22113929D01*
X5609614Y-22099643D01*
X5595328Y-22071072D01*
X5581043Y-22013929D01*
X5581043Y-21942500D01*
X5595328Y-21885357D01*
X5609614Y-21856786D01*
X5623900Y-21842500D01*
X5652471Y-21828214D01*
X6009614Y-21928214D02*
X6009614Y-22128214D01*
X5938186Y-21813929D02*
X5866757Y-22028214D01*
X6052471Y-22028214D01*
X6138186Y-21828214D02*
X6338186Y-21828214D01*
X6209614Y-22128214D01*
X6438186Y-21828214D02*
X6438186Y-21885357D01*
X6552471Y-21828214D02*
X6552471Y-21885357D01*
X6995328Y-22242500D02*
X6981043Y-22228214D01*
X6952471Y-22185357D01*
X6938186Y-22156786D01*
X6923900Y-22113929D01*
X6909614Y-22042500D01*
X6909614Y-21985357D01*
X6923900Y-21913929D01*
X6938186Y-21871072D01*
X6952471Y-21842500D01*
X6981043Y-21799643D01*
X6995328Y-21785357D01*
X7095328Y-21856786D02*
X7109614Y-21842500D01*
X7138186Y-21828214D01*
X7209614Y-21828214D01*
X7238186Y-21842500D01*
X7252471Y-21856786D01*
X7266757Y-21885357D01*
X7266757Y-21913929D01*
X7252471Y-21956786D01*
X7081043Y-22128214D01*
X7266757Y-22128214D01*
X7523900Y-21828214D02*
X7466757Y-21828214D01*
X7438186Y-21842500D01*
X7423900Y-21856786D01*
X7395328Y-21899643D01*
X7381043Y-21956786D01*
X7381043Y-22071072D01*
X7395328Y-22099643D01*
X7409614Y-22113929D01*
X7438186Y-22128214D01*
X7495328Y-22128214D01*
X7523900Y-22113929D01*
X7538186Y-22099643D01*
X7552471Y-22071072D01*
X7552471Y-21999643D01*
X7538186Y-21971072D01*
X7523900Y-21956786D01*
X7495328Y-21942500D01*
X7438186Y-21942500D01*
X7409614Y-21956786D01*
X7395328Y-21971072D01*
X7381043Y-21999643D01*
X7909614Y-22128214D02*
X7909614Y-21828214D01*
X8038186Y-22128214D02*
X8038186Y-21971072D01*
X8023900Y-21942500D01*
X7995328Y-21928214D01*
X7952471Y-21928214D01*
X7923900Y-21942500D01*
X7909614Y-21956786D01*
X8223900Y-22128214D02*
X8195328Y-22113929D01*
X8181043Y-22099643D01*
X8166757Y-22071072D01*
X8166757Y-21985357D01*
X8181043Y-21956786D01*
X8195328Y-21942500D01*
X8223900Y-21928214D01*
X8266757Y-21928214D01*
X8295328Y-21942500D01*
X8309614Y-21956786D01*
X8323900Y-21985357D01*
X8323900Y-22071072D01*
X8309614Y-22099643D01*
X8295328Y-22113929D01*
X8266757Y-22128214D01*
X8223900Y-22128214D01*
X8495328Y-22128214D02*
X8466757Y-22113929D01*
X8452471Y-22085357D01*
X8452471Y-21828214D01*
X8723900Y-22113929D02*
X8695328Y-22128214D01*
X8638186Y-22128214D01*
X8609614Y-22113929D01*
X8595328Y-22085357D01*
X8595328Y-21971072D01*
X8609614Y-21942500D01*
X8638186Y-21928214D01*
X8695328Y-21928214D01*
X8723900Y-21942500D01*
X8738186Y-21971072D01*
X8738186Y-21999643D01*
X8595328Y-22028214D01*
X8852471Y-22113929D02*
X8881043Y-22128214D01*
X8938186Y-22128214D01*
X8966757Y-22113929D01*
X8981043Y-22085357D01*
X8981043Y-22071072D01*
X8966757Y-22042500D01*
X8938186Y-22028214D01*
X8895328Y-22028214D01*
X8866757Y-22013929D01*
X8852471Y-21985357D01*
X8852471Y-21971072D01*
X8866757Y-21942500D01*
X8895328Y-21928214D01*
X8938186Y-21928214D01*
X8966757Y-21942500D01*
X9081043Y-22242500D02*
X9095328Y-22228214D01*
X9123900Y-22185357D01*
X9138186Y-22156786D01*
X9152471Y-22113929D01*
X9166757Y-22042500D01*
X9166757Y-21985357D01*
X9152471Y-21913929D01*
X9138186Y-21871072D01*
X9123900Y-21842500D01*
X9095328Y-21799643D01*
X9081043Y-21785357D01*
X2178900Y-22323500D02*
X2308900Y-22453500D01*
X2308900Y-22323500D02*
X2178900Y-22453500D01*
X2243900Y-22323500D02*
X2243900Y-22453500D01*
X2178900Y-22388500D02*
X2308900Y-22388500D01*
X2752471Y-22524214D02*
X2581043Y-22524214D01*
X2666757Y-22524214D02*
X2666757Y-22224214D01*
X2638186Y-22267072D01*
X2609614Y-22295643D01*
X2581043Y-22309929D01*
X2881043Y-22495643D02*
X2895328Y-22509929D01*
X2881043Y-22524214D01*
X2866757Y-22509929D01*
X2881043Y-22495643D01*
X2881043Y-22524214D01*
X2995328Y-22224214D02*
X3181043Y-22224214D01*
X3081043Y-22338500D01*
X3123900Y-22338500D01*
X3152471Y-22352786D01*
X3166757Y-22367072D01*
X3181043Y-22395643D01*
X3181043Y-22467071D01*
X3166757Y-22495643D01*
X3152471Y-22509929D01*
X3123900Y-22524214D01*
X3038186Y-22524214D01*
X3009614Y-22509929D01*
X2995328Y-22495643D01*
X3366757Y-22224214D02*
X3395328Y-22224214D01*
X3423900Y-22238500D01*
X3438186Y-22252786D01*
X3452471Y-22281357D01*
X3466757Y-22338500D01*
X3466757Y-22409929D01*
X3452471Y-22467071D01*
X3438186Y-22495643D01*
X3423900Y-22509929D01*
X3395328Y-22524214D01*
X3366757Y-22524214D01*
X3338186Y-22509929D01*
X3323900Y-22495643D01*
X3309614Y-22467071D01*
X3295328Y-22409929D01*
X3295328Y-22338500D01*
X3309614Y-22281357D01*
X3323900Y-22252786D01*
X3338186Y-22238500D01*
X3366757Y-22224214D01*
X3595328Y-22524214D02*
X3595328Y-22324214D01*
X3595328Y-22352786D02*
X3609614Y-22338500D01*
X3638186Y-22324214D01*
X3681043Y-22324214D01*
X3709614Y-22338500D01*
X3723900Y-22367072D01*
X3723900Y-22524214D01*
X3723900Y-22367072D02*
X3738186Y-22338500D01*
X3766757Y-22324214D01*
X3809614Y-22324214D01*
X3838186Y-22338500D01*
X3852471Y-22367072D01*
X3852471Y-22524214D01*
X3995328Y-22524214D02*
X3995328Y-22324214D01*
X3995328Y-22352786D02*
X4009614Y-22338500D01*
X4038186Y-22324214D01*
X4081043Y-22324214D01*
X4109614Y-22338500D01*
X4123900Y-22367072D01*
X4123900Y-22524214D01*
X4123900Y-22367072D02*
X4138186Y-22338500D01*
X4166757Y-22324214D01*
X4209614Y-22324214D01*
X4238186Y-22338500D01*
X4252471Y-22367072D01*
X4252471Y-22524214D01*
X4838186Y-22209929D02*
X4581043Y-22595643D01*
X5223900Y-22224214D02*
X5252471Y-22224214D01*
X5281043Y-22238500D01*
X5295328Y-22252786D01*
X5309614Y-22281357D01*
X5323900Y-22338500D01*
X5323900Y-22409929D01*
X5309614Y-22467071D01*
X5295328Y-22495643D01*
X5281043Y-22509929D01*
X5252471Y-22524214D01*
X5223900Y-22524214D01*
X5195328Y-22509929D01*
X5181043Y-22495643D01*
X5166757Y-22467071D01*
X5152471Y-22409929D01*
X5152471Y-22338500D01*
X5166757Y-22281357D01*
X5181043Y-22252786D01*
X5195328Y-22238500D01*
X5223900Y-22224214D01*
X5452471Y-22495643D02*
X5466757Y-22509929D01*
X5452471Y-22524214D01*
X5438186Y-22509929D01*
X5452471Y-22495643D01*
X5452471Y-22524214D01*
X5652471Y-22224214D02*
X5681043Y-22224214D01*
X5709614Y-22238500D01*
X5723900Y-22252786D01*
X5738186Y-22281357D01*
X5752471Y-22338500D01*
X5752471Y-22409929D01*
X5738186Y-22467071D01*
X5723900Y-22495643D01*
X5709614Y-22509929D01*
X5681043Y-22524214D01*
X5652471Y-22524214D01*
X5623900Y-22509929D01*
X5609614Y-22495643D01*
X5595328Y-22467071D01*
X5581043Y-22409929D01*
X5581043Y-22338500D01*
X5595328Y-22281357D01*
X5609614Y-22252786D01*
X5623900Y-22238500D01*
X5652471Y-22224214D01*
X6023900Y-22224214D02*
X5881043Y-22224214D01*
X5866757Y-22367072D01*
X5881043Y-22352786D01*
X5909614Y-22338500D01*
X5981043Y-22338500D01*
X6009614Y-22352786D01*
X6023900Y-22367072D01*
X6038186Y-22395643D01*
X6038186Y-22467071D01*
X6023900Y-22495643D01*
X6009614Y-22509929D01*
X5981043Y-22524214D01*
X5909614Y-22524214D01*
X5881043Y-22509929D01*
X5866757Y-22495643D01*
X6323900Y-22524214D02*
X6152471Y-22524214D01*
X6238186Y-22524214D02*
X6238186Y-22224214D01*
X6209614Y-22267072D01*
X6181043Y-22295643D01*
X6152471Y-22309929D01*
X6438186Y-22224214D02*
X6438186Y-22281357D01*
X6552471Y-22224214D02*
X6552471Y-22281357D01*
X6995328Y-22638500D02*
X6981043Y-22624214D01*
X6952471Y-22581357D01*
X6938186Y-22552786D01*
X6923900Y-22509929D01*
X6909614Y-22438500D01*
X6909614Y-22381357D01*
X6923900Y-22309929D01*
X6938186Y-22267072D01*
X6952471Y-22238500D01*
X6981043Y-22195643D01*
X6995328Y-22181357D01*
X7152471Y-22352786D02*
X7123900Y-22338500D01*
X7109614Y-22324214D01*
X7095328Y-22295643D01*
X7095328Y-22281357D01*
X7109614Y-22252786D01*
X7123900Y-22238500D01*
X7152471Y-22224214D01*
X7209614Y-22224214D01*
X7238186Y-22238500D01*
X7252471Y-22252786D01*
X7266757Y-22281357D01*
X7266757Y-22295643D01*
X7252471Y-22324214D01*
X7238186Y-22338500D01*
X7209614Y-22352786D01*
X7152471Y-22352786D01*
X7123900Y-22367072D01*
X7109614Y-22381357D01*
X7095328Y-22409929D01*
X7095328Y-22467071D01*
X7109614Y-22495643D01*
X7123900Y-22509929D01*
X7152471Y-22524214D01*
X7209614Y-22524214D01*
X7238186Y-22509929D01*
X7252471Y-22495643D01*
X7266757Y-22467071D01*
X7266757Y-22409929D01*
X7252471Y-22381357D01*
X7238186Y-22367072D01*
X7209614Y-22352786D01*
X7623900Y-22524214D02*
X7623900Y-22224214D01*
X7752471Y-22524214D02*
X7752471Y-22367072D01*
X7738186Y-22338500D01*
X7709614Y-22324214D01*
X7666757Y-22324214D01*
X7638186Y-22338500D01*
X7623900Y-22352786D01*
X7938186Y-22524214D02*
X7909614Y-22509929D01*
X7895328Y-22495643D01*
X7881043Y-22467071D01*
X7881043Y-22381357D01*
X7895328Y-22352786D01*
X7909614Y-22338500D01*
X7938186Y-22324214D01*
X7981043Y-22324214D01*
X8009614Y-22338500D01*
X8023900Y-22352786D01*
X8038186Y-22381357D01*
X8038186Y-22467071D01*
X8023900Y-22495643D01*
X8009614Y-22509929D01*
X7981043Y-22524214D01*
X7938186Y-22524214D01*
X8209614Y-22524214D02*
X8181043Y-22509929D01*
X8166757Y-22481357D01*
X8166757Y-22224214D01*
X8438186Y-22509929D02*
X8409614Y-22524214D01*
X8352471Y-22524214D01*
X8323900Y-22509929D01*
X8309614Y-22481357D01*
X8309614Y-22367072D01*
X8323900Y-22338500D01*
X8352471Y-22324214D01*
X8409614Y-22324214D01*
X8438186Y-22338500D01*
X8452471Y-22367072D01*
X8452471Y-22395643D01*
X8309614Y-22424214D01*
X8566757Y-22509929D02*
X8595328Y-22524214D01*
X8652471Y-22524214D01*
X8681043Y-22509929D01*
X8695328Y-22481357D01*
X8695328Y-22467071D01*
X8681043Y-22438500D01*
X8652471Y-22424214D01*
X8609614Y-22424214D01*
X8581043Y-22409929D01*
X8566757Y-22381357D01*
X8566757Y-22367072D01*
X8581043Y-22338500D01*
X8609614Y-22324214D01*
X8652471Y-22324214D01*
X8681043Y-22338500D01*
X8795328Y-22638500D02*
X8809614Y-22624214D01*
X8838186Y-22581357D01*
X8852471Y-22552786D01*
X8866757Y-22509929D01*
X8881043Y-22438500D01*
X8881043Y-22381357D01*
X8866757Y-22309929D01*
X8852471Y-22267072D01*
X8838186Y-22238500D01*
X8809614Y-22195643D01*
X8795328Y-22181357D01*
X2158900Y-22709500D02*
X2308900Y-22859500D01*
X2308900Y-22709500D02*
X2158900Y-22859500D01*
X2286933Y-22837534D02*
X2286933Y-22731467D01*
X2180866Y-22731467D01*
X2180866Y-22837534D01*
X2286933Y-22837534D01*
X2752471Y-22920214D02*
X2581043Y-22920214D01*
X2666757Y-22920214D02*
X2666757Y-22620214D01*
X2638186Y-22663071D01*
X2609614Y-22691643D01*
X2581043Y-22705929D01*
X2881043Y-22891643D02*
X2895328Y-22905929D01*
X2881043Y-22920214D01*
X2866757Y-22905929D01*
X2881043Y-22891643D01*
X2881043Y-22920214D01*
X3166757Y-22620214D02*
X3023900Y-22620214D01*
X3009614Y-22763071D01*
X3023900Y-22748786D01*
X3052471Y-22734500D01*
X3123900Y-22734500D01*
X3152471Y-22748786D01*
X3166757Y-22763071D01*
X3181043Y-22791643D01*
X3181043Y-22863071D01*
X3166757Y-22891643D01*
X3152471Y-22905929D01*
X3123900Y-22920214D01*
X3052471Y-22920214D01*
X3023900Y-22905929D01*
X3009614Y-22891643D01*
X3366757Y-22620214D02*
X3395328Y-22620214D01*
X3423900Y-22634500D01*
X3438186Y-22648786D01*
X3452471Y-22677357D01*
X3466757Y-22734500D01*
X3466757Y-22805929D01*
X3452471Y-22863071D01*
X3438186Y-22891643D01*
X3423900Y-22905929D01*
X3395328Y-22920214D01*
X3366757Y-22920214D01*
X3338186Y-22905929D01*
X3323900Y-22891643D01*
X3309614Y-22863071D01*
X3295328Y-22805929D01*
X3295328Y-22734500D01*
X3309614Y-22677357D01*
X3323900Y-22648786D01*
X3338186Y-22634500D01*
X3366757Y-22620214D01*
X3595328Y-22920214D02*
X3595328Y-22720214D01*
X3595328Y-22748786D02*
X3609614Y-22734500D01*
X3638186Y-22720214D01*
X3681043Y-22720214D01*
X3709614Y-22734500D01*
X3723900Y-22763071D01*
X3723900Y-22920214D01*
X3723900Y-22763071D02*
X3738186Y-22734500D01*
X3766757Y-22720214D01*
X3809614Y-22720214D01*
X3838186Y-22734500D01*
X3852471Y-22763071D01*
X3852471Y-22920214D01*
X3995328Y-22920214D02*
X3995328Y-22720214D01*
X3995328Y-22748786D02*
X4009614Y-22734500D01*
X4038186Y-22720214D01*
X4081043Y-22720214D01*
X4109614Y-22734500D01*
X4123900Y-22763071D01*
X4123900Y-22920214D01*
X4123900Y-22763071D02*
X4138186Y-22734500D01*
X4166757Y-22720214D01*
X4209614Y-22720214D01*
X4238186Y-22734500D01*
X4252471Y-22763071D01*
X4252471Y-22920214D01*
X4838186Y-22605929D02*
X4581043Y-22991643D01*
X5223900Y-22620214D02*
X5252471Y-22620214D01*
X5281043Y-22634500D01*
X5295328Y-22648786D01*
X5309614Y-22677357D01*
X5323900Y-22734500D01*
X5323900Y-22805929D01*
X5309614Y-22863071D01*
X5295328Y-22891643D01*
X5281043Y-22905929D01*
X5252471Y-22920214D01*
X5223900Y-22920214D01*
X5195328Y-22905929D01*
X5181043Y-22891643D01*
X5166757Y-22863071D01*
X5152471Y-22805929D01*
X5152471Y-22734500D01*
X5166757Y-22677357D01*
X5181043Y-22648786D01*
X5195328Y-22634500D01*
X5223900Y-22620214D01*
X5452471Y-22891643D02*
X5466757Y-22905929D01*
X5452471Y-22920214D01*
X5438186Y-22905929D01*
X5452471Y-22891643D01*
X5452471Y-22920214D01*
X5652471Y-22620214D02*
X5681043Y-22620214D01*
X5709614Y-22634500D01*
X5723900Y-22648786D01*
X5738186Y-22677357D01*
X5752471Y-22734500D01*
X5752471Y-22805929D01*
X5738186Y-22863071D01*
X5723900Y-22891643D01*
X5709614Y-22905929D01*
X5681043Y-22920214D01*
X5652471Y-22920214D01*
X5623900Y-22905929D01*
X5609614Y-22891643D01*
X5595328Y-22863071D01*
X5581043Y-22805929D01*
X5581043Y-22734500D01*
X5595328Y-22677357D01*
X5609614Y-22648786D01*
X5623900Y-22634500D01*
X5652471Y-22620214D01*
X6023900Y-22620214D02*
X5881043Y-22620214D01*
X5866757Y-22763071D01*
X5881043Y-22748786D01*
X5909614Y-22734500D01*
X5981043Y-22734500D01*
X6009614Y-22748786D01*
X6023900Y-22763071D01*
X6038186Y-22791643D01*
X6038186Y-22863071D01*
X6023900Y-22891643D01*
X6009614Y-22905929D01*
X5981043Y-22920214D01*
X5909614Y-22920214D01*
X5881043Y-22905929D01*
X5866757Y-22891643D01*
X6181043Y-22920214D02*
X6238186Y-22920214D01*
X6266757Y-22905929D01*
X6281043Y-22891643D01*
X6309614Y-22848786D01*
X6323900Y-22791643D01*
X6323900Y-22677357D01*
X6309614Y-22648786D01*
X6295328Y-22634500D01*
X6266757Y-22620214D01*
X6209614Y-22620214D01*
X6181043Y-22634500D01*
X6166757Y-22648786D01*
X6152471Y-22677357D01*
X6152471Y-22748786D01*
X6166757Y-22777357D01*
X6181043Y-22791643D01*
X6209614Y-22805929D01*
X6266757Y-22805929D01*
X6295328Y-22791643D01*
X6309614Y-22777357D01*
X6323900Y-22748786D01*
X6438186Y-22620214D02*
X6438186Y-22677357D01*
X6552471Y-22620214D02*
X6552471Y-22677357D01*
X6995328Y-23034500D02*
X6981043Y-23020214D01*
X6952471Y-22977357D01*
X6938186Y-22948786D01*
X6923900Y-22905929D01*
X6909614Y-22834500D01*
X6909614Y-22777357D01*
X6923900Y-22705929D01*
X6938186Y-22663071D01*
X6952471Y-22634500D01*
X6981043Y-22591643D01*
X6995328Y-22577357D01*
X7081043Y-22620214D02*
X7266757Y-22620214D01*
X7166757Y-22734500D01*
X7209614Y-22734500D01*
X7238186Y-22748786D01*
X7252471Y-22763071D01*
X7266757Y-22791643D01*
X7266757Y-22863071D01*
X7252471Y-22891643D01*
X7238186Y-22905929D01*
X7209614Y-22920214D01*
X7123900Y-22920214D01*
X7095328Y-22905929D01*
X7081043Y-22891643D01*
X7523900Y-22620214D02*
X7466757Y-22620214D01*
X7438186Y-22634500D01*
X7423900Y-22648786D01*
X7395328Y-22691643D01*
X7381043Y-22748786D01*
X7381043Y-22863071D01*
X7395328Y-22891643D01*
X7409614Y-22905929D01*
X7438186Y-22920214D01*
X7495328Y-22920214D01*
X7523900Y-22905929D01*
X7538186Y-22891643D01*
X7552471Y-22863071D01*
X7552471Y-22791643D01*
X7538186Y-22763071D01*
X7523900Y-22748786D01*
X7495328Y-22734500D01*
X7438186Y-22734500D01*
X7409614Y-22748786D01*
X7395328Y-22763071D01*
X7381043Y-22791643D01*
X7909614Y-22920214D02*
X7909614Y-22620214D01*
X8038186Y-22920214D02*
X8038186Y-22763071D01*
X8023900Y-22734500D01*
X7995328Y-22720214D01*
X7952471Y-22720214D01*
X7923900Y-22734500D01*
X7909614Y-22748786D01*
X8223900Y-22920214D02*
X8195328Y-22905929D01*
X8181043Y-22891643D01*
X8166757Y-22863071D01*
X8166757Y-22777357D01*
X8181043Y-22748786D01*
X8195328Y-22734500D01*
X8223900Y-22720214D01*
X8266757Y-22720214D01*
X8295328Y-22734500D01*
X8309614Y-22748786D01*
X8323900Y-22777357D01*
X8323900Y-22863071D01*
X8309614Y-22891643D01*
X8295328Y-22905929D01*
X8266757Y-22920214D01*
X8223900Y-22920214D01*
X8495328Y-22920214D02*
X8466757Y-22905929D01*
X8452471Y-22877357D01*
X8452471Y-22620214D01*
X8723900Y-22905929D02*
X8695328Y-22920214D01*
X8638186Y-22920214D01*
X8609614Y-22905929D01*
X8595328Y-22877357D01*
X8595328Y-22763071D01*
X8609614Y-22734500D01*
X8638186Y-22720214D01*
X8695328Y-22720214D01*
X8723900Y-22734500D01*
X8738186Y-22763071D01*
X8738186Y-22791643D01*
X8595328Y-22820214D01*
X8852471Y-22905929D02*
X8881043Y-22920214D01*
X8938186Y-22920214D01*
X8966757Y-22905929D01*
X8981043Y-22877357D01*
X8981043Y-22863071D01*
X8966757Y-22834500D01*
X8938186Y-22820214D01*
X8895328Y-22820214D01*
X8866757Y-22805929D01*
X8852471Y-22777357D01*
X8852471Y-22763071D01*
X8866757Y-22734500D01*
X8895328Y-22720214D01*
X8938186Y-22720214D01*
X8966757Y-22734500D01*
X9081043Y-23034500D02*
X9095328Y-23020214D01*
X9123900Y-22977357D01*
X9138186Y-22948786D01*
X9152471Y-22905929D01*
X9166757Y-22834500D01*
X9166757Y-22777357D01*
X9152471Y-22705929D01*
X9138186Y-22663071D01*
X9123900Y-22634500D01*
X9095328Y-22591643D01*
X9081043Y-22577357D01*
X2148900Y-23100500D02*
X2308900Y-23260500D01*
X2308900Y-23100500D02*
X2148900Y-23260500D01*
X2228900Y-23260500D02*
X2308900Y-23180500D01*
X2228900Y-23100500D01*
X2148900Y-23180500D01*
X2228900Y-23260500D01*
X2752471Y-23316214D02*
X2581043Y-23316214D01*
X2666757Y-23316214D02*
X2666757Y-23016214D01*
X2638186Y-23059071D01*
X2609614Y-23087643D01*
X2581043Y-23101929D01*
X2881043Y-23287643D02*
X2895328Y-23301929D01*
X2881043Y-23316214D01*
X2866757Y-23301929D01*
X2881043Y-23287643D01*
X2881043Y-23316214D01*
X3152471Y-23016214D02*
X3095328Y-23016214D01*
X3066757Y-23030500D01*
X3052471Y-23044786D01*
X3023900Y-23087643D01*
X3009614Y-23144786D01*
X3009614Y-23259071D01*
X3023900Y-23287643D01*
X3038186Y-23301929D01*
X3066757Y-23316214D01*
X3123900Y-23316214D01*
X3152471Y-23301929D01*
X3166757Y-23287643D01*
X3181043Y-23259071D01*
X3181043Y-23187643D01*
X3166757Y-23159071D01*
X3152471Y-23144786D01*
X3123900Y-23130500D01*
X3066757Y-23130500D01*
X3038186Y-23144786D01*
X3023900Y-23159071D01*
X3009614Y-23187643D01*
X3366757Y-23016214D02*
X3395328Y-23016214D01*
X3423900Y-23030500D01*
X3438186Y-23044786D01*
X3452471Y-23073357D01*
X3466757Y-23130500D01*
X3466757Y-23201929D01*
X3452471Y-23259071D01*
X3438186Y-23287643D01*
X3423900Y-23301929D01*
X3395328Y-23316214D01*
X3366757Y-23316214D01*
X3338186Y-23301929D01*
X3323900Y-23287643D01*
X3309614Y-23259071D01*
X3295328Y-23201929D01*
X3295328Y-23130500D01*
X3309614Y-23073357D01*
X3323900Y-23044786D01*
X3338186Y-23030500D01*
X3366757Y-23016214D01*
X3595328Y-23316214D02*
X3595328Y-23116214D01*
X3595328Y-23144786D02*
X3609614Y-23130500D01*
X3638186Y-23116214D01*
X3681043Y-23116214D01*
X3709614Y-23130500D01*
X3723900Y-23159071D01*
X3723900Y-23316214D01*
X3723900Y-23159071D02*
X3738186Y-23130500D01*
X3766757Y-23116214D01*
X3809614Y-23116214D01*
X3838186Y-23130500D01*
X3852471Y-23159071D01*
X3852471Y-23316214D01*
X3995328Y-23316214D02*
X3995328Y-23116214D01*
X3995328Y-23144786D02*
X4009614Y-23130500D01*
X4038186Y-23116214D01*
X4081043Y-23116214D01*
X4109614Y-23130500D01*
X4123900Y-23159071D01*
X4123900Y-23316214D01*
X4123900Y-23159071D02*
X4138186Y-23130500D01*
X4166757Y-23116214D01*
X4209614Y-23116214D01*
X4238186Y-23130500D01*
X4252471Y-23159071D01*
X4252471Y-23316214D01*
X4838186Y-23001929D02*
X4581043Y-23387643D01*
X5223900Y-23016214D02*
X5252471Y-23016214D01*
X5281043Y-23030500D01*
X5295328Y-23044786D01*
X5309614Y-23073357D01*
X5323900Y-23130500D01*
X5323900Y-23201929D01*
X5309614Y-23259071D01*
X5295328Y-23287643D01*
X5281043Y-23301929D01*
X5252471Y-23316214D01*
X5223900Y-23316214D01*
X5195328Y-23301929D01*
X5181043Y-23287643D01*
X5166757Y-23259071D01*
X5152471Y-23201929D01*
X5152471Y-23130500D01*
X5166757Y-23073357D01*
X5181043Y-23044786D01*
X5195328Y-23030500D01*
X5223900Y-23016214D01*
X5452471Y-23287643D02*
X5466757Y-23301929D01*
X5452471Y-23316214D01*
X5438186Y-23301929D01*
X5452471Y-23287643D01*
X5452471Y-23316214D01*
X5652471Y-23016214D02*
X5681043Y-23016214D01*
X5709614Y-23030500D01*
X5723900Y-23044786D01*
X5738186Y-23073357D01*
X5752471Y-23130500D01*
X5752471Y-23201929D01*
X5738186Y-23259071D01*
X5723900Y-23287643D01*
X5709614Y-23301929D01*
X5681043Y-23316214D01*
X5652471Y-23316214D01*
X5623900Y-23301929D01*
X5609614Y-23287643D01*
X5595328Y-23259071D01*
X5581043Y-23201929D01*
X5581043Y-23130500D01*
X5595328Y-23073357D01*
X5609614Y-23044786D01*
X5623900Y-23030500D01*
X5652471Y-23016214D01*
X6009614Y-23016214D02*
X5952471Y-23016214D01*
X5923900Y-23030500D01*
X5909614Y-23044786D01*
X5881043Y-23087643D01*
X5866757Y-23144786D01*
X5866757Y-23259071D01*
X5881043Y-23287643D01*
X5895328Y-23301929D01*
X5923900Y-23316214D01*
X5981043Y-23316214D01*
X6009614Y-23301929D01*
X6023900Y-23287643D01*
X6038186Y-23259071D01*
X6038186Y-23187643D01*
X6023900Y-23159071D01*
X6009614Y-23144786D01*
X5981043Y-23130500D01*
X5923900Y-23130500D01*
X5895328Y-23144786D01*
X5881043Y-23159071D01*
X5866757Y-23187643D01*
X6138186Y-23016214D02*
X6323900Y-23016214D01*
X6223900Y-23130500D01*
X6266757Y-23130500D01*
X6295328Y-23144786D01*
X6309614Y-23159071D01*
X6323900Y-23187643D01*
X6323900Y-23259071D01*
X6309614Y-23287643D01*
X6295328Y-23301929D01*
X6266757Y-23316214D01*
X6181043Y-23316214D01*
X6152471Y-23301929D01*
X6138186Y-23287643D01*
X6438186Y-23016214D02*
X6438186Y-23073357D01*
X6552471Y-23016214D02*
X6552471Y-23073357D01*
X6995328Y-23430500D02*
X6981043Y-23416214D01*
X6952471Y-23373357D01*
X6938186Y-23344786D01*
X6923900Y-23301929D01*
X6909614Y-23230500D01*
X6909614Y-23173357D01*
X6923900Y-23101929D01*
X6938186Y-23059071D01*
X6952471Y-23030500D01*
X6981043Y-22987643D01*
X6995328Y-22973357D01*
X7266757Y-23316214D02*
X7095328Y-23316214D01*
X7181043Y-23316214D02*
X7181043Y-23016214D01*
X7152471Y-23059071D01*
X7123900Y-23087643D01*
X7095328Y-23101929D01*
X7623900Y-23316214D02*
X7623900Y-23016214D01*
X7752471Y-23316214D02*
X7752471Y-23159071D01*
X7738186Y-23130500D01*
X7709614Y-23116214D01*
X7666757Y-23116214D01*
X7638186Y-23130500D01*
X7623900Y-23144786D01*
X7938186Y-23316214D02*
X7909614Y-23301929D01*
X7895328Y-23287643D01*
X7881043Y-23259071D01*
X7881043Y-23173357D01*
X7895328Y-23144786D01*
X7909614Y-23130500D01*
X7938186Y-23116214D01*
X7981043Y-23116214D01*
X8009614Y-23130500D01*
X8023900Y-23144786D01*
X8038186Y-23173357D01*
X8038186Y-23259071D01*
X8023900Y-23287643D01*
X8009614Y-23301929D01*
X7981043Y-23316214D01*
X7938186Y-23316214D01*
X8209614Y-23316214D02*
X8181043Y-23301929D01*
X8166757Y-23273357D01*
X8166757Y-23016214D01*
X8438186Y-23301929D02*
X8409614Y-23316214D01*
X8352471Y-23316214D01*
X8323900Y-23301929D01*
X8309614Y-23273357D01*
X8309614Y-23159071D01*
X8323900Y-23130500D01*
X8352471Y-23116214D01*
X8409614Y-23116214D01*
X8438186Y-23130500D01*
X8452471Y-23159071D01*
X8452471Y-23187643D01*
X8309614Y-23216214D01*
X8552471Y-23430500D02*
X8566757Y-23416214D01*
X8595328Y-23373357D01*
X8609614Y-23344786D01*
X8623900Y-23301929D01*
X8638186Y-23230500D01*
X8638186Y-23173357D01*
X8623900Y-23101929D01*
X8609614Y-23059071D01*
X8595328Y-23030500D01*
X8566757Y-22987643D01*
X8552471Y-22973357D01*
X2208900Y-23476500D02*
X2208900Y-23676500D01*
X2108900Y-23576500D02*
X2308900Y-23576500D01*
X2308900Y-23576500D02*
G75*
G03*
X2308900Y-23576500I-100000J0D01*
G01*
X2581043Y-23440786D02*
X2595328Y-23426500D01*
X2623900Y-23412214D01*
X2695328Y-23412214D01*
X2723900Y-23426500D01*
X2738186Y-23440786D01*
X2752471Y-23469357D01*
X2752471Y-23497929D01*
X2738186Y-23540786D01*
X2566757Y-23712214D01*
X2752471Y-23712214D01*
X2881043Y-23683643D02*
X2895328Y-23697929D01*
X2881043Y-23712214D01*
X2866757Y-23697929D01*
X2881043Y-23683643D01*
X2881043Y-23712214D01*
X3081043Y-23412214D02*
X3109614Y-23412214D01*
X3138186Y-23426500D01*
X3152471Y-23440786D01*
X3166757Y-23469357D01*
X3181043Y-23526500D01*
X3181043Y-23597929D01*
X3166757Y-23655071D01*
X3152471Y-23683643D01*
X3138186Y-23697929D01*
X3109614Y-23712214D01*
X3081043Y-23712214D01*
X3052471Y-23697929D01*
X3038186Y-23683643D01*
X3023900Y-23655071D01*
X3009614Y-23597929D01*
X3009614Y-23526500D01*
X3023900Y-23469357D01*
X3038186Y-23440786D01*
X3052471Y-23426500D01*
X3081043Y-23412214D01*
X3366757Y-23412214D02*
X3395328Y-23412214D01*
X3423900Y-23426500D01*
X3438186Y-23440786D01*
X3452471Y-23469357D01*
X3466757Y-23526500D01*
X3466757Y-23597929D01*
X3452471Y-23655071D01*
X3438186Y-23683643D01*
X3423900Y-23697929D01*
X3395328Y-23712214D01*
X3366757Y-23712214D01*
X3338186Y-23697929D01*
X3323900Y-23683643D01*
X3309614Y-23655071D01*
X3295328Y-23597929D01*
X3295328Y-23526500D01*
X3309614Y-23469357D01*
X3323900Y-23440786D01*
X3338186Y-23426500D01*
X3366757Y-23412214D01*
X3595328Y-23712214D02*
X3595328Y-23512214D01*
X3595328Y-23540786D02*
X3609614Y-23526500D01*
X3638186Y-23512214D01*
X3681043Y-23512214D01*
X3709614Y-23526500D01*
X3723900Y-23555071D01*
X3723900Y-23712214D01*
X3723900Y-23555071D02*
X3738186Y-23526500D01*
X3766757Y-23512214D01*
X3809614Y-23512214D01*
X3838186Y-23526500D01*
X3852471Y-23555071D01*
X3852471Y-23712214D01*
X3995328Y-23712214D02*
X3995328Y-23512214D01*
X3995328Y-23540786D02*
X4009614Y-23526500D01*
X4038186Y-23512214D01*
X4081043Y-23512214D01*
X4109614Y-23526500D01*
X4123900Y-23555071D01*
X4123900Y-23712214D01*
X4123900Y-23555071D02*
X4138186Y-23526500D01*
X4166757Y-23512214D01*
X4209614Y-23512214D01*
X4238186Y-23526500D01*
X4252471Y-23555071D01*
X4252471Y-23712214D01*
X4838186Y-23397929D02*
X4581043Y-23783643D01*
X5223900Y-23412214D02*
X5252471Y-23412214D01*
X5281043Y-23426500D01*
X5295328Y-23440786D01*
X5309614Y-23469357D01*
X5323900Y-23526500D01*
X5323900Y-23597929D01*
X5309614Y-23655071D01*
X5295328Y-23683643D01*
X5281043Y-23697929D01*
X5252471Y-23712214D01*
X5223900Y-23712214D01*
X5195328Y-23697929D01*
X5181043Y-23683643D01*
X5166757Y-23655071D01*
X5152471Y-23597929D01*
X5152471Y-23526500D01*
X5166757Y-23469357D01*
X5181043Y-23440786D01*
X5195328Y-23426500D01*
X5223900Y-23412214D01*
X5452471Y-23683643D02*
X5466757Y-23697929D01*
X5452471Y-23712214D01*
X5438186Y-23697929D01*
X5452471Y-23683643D01*
X5452471Y-23712214D01*
X5652471Y-23412214D02*
X5681043Y-23412214D01*
X5709614Y-23426500D01*
X5723900Y-23440786D01*
X5738186Y-23469357D01*
X5752471Y-23526500D01*
X5752471Y-23597929D01*
X5738186Y-23655071D01*
X5723900Y-23683643D01*
X5709614Y-23697929D01*
X5681043Y-23712214D01*
X5652471Y-23712214D01*
X5623900Y-23697929D01*
X5609614Y-23683643D01*
X5595328Y-23655071D01*
X5581043Y-23597929D01*
X5581043Y-23526500D01*
X5595328Y-23469357D01*
X5609614Y-23440786D01*
X5623900Y-23426500D01*
X5652471Y-23412214D01*
X5852471Y-23412214D02*
X6052471Y-23412214D01*
X5923900Y-23712214D01*
X6181043Y-23712214D02*
X6238186Y-23712214D01*
X6266757Y-23697929D01*
X6281043Y-23683643D01*
X6309614Y-23640786D01*
X6323900Y-23583643D01*
X6323900Y-23469357D01*
X6309614Y-23440786D01*
X6295328Y-23426500D01*
X6266757Y-23412214D01*
X6209614Y-23412214D01*
X6181043Y-23426500D01*
X6166757Y-23440786D01*
X6152471Y-23469357D01*
X6152471Y-23540786D01*
X6166757Y-23569357D01*
X6181043Y-23583643D01*
X6209614Y-23597929D01*
X6266757Y-23597929D01*
X6295328Y-23583643D01*
X6309614Y-23569357D01*
X6323900Y-23540786D01*
X6438186Y-23412214D02*
X6438186Y-23469357D01*
X6552471Y-23412214D02*
X6552471Y-23469357D01*
X6995328Y-23826500D02*
X6981043Y-23812214D01*
X6952471Y-23769357D01*
X6938186Y-23740786D01*
X6923900Y-23697929D01*
X6909614Y-23626500D01*
X6909614Y-23569357D01*
X6923900Y-23497929D01*
X6938186Y-23455071D01*
X6952471Y-23426500D01*
X6981043Y-23383643D01*
X6995328Y-23369357D01*
X7238186Y-23512214D02*
X7238186Y-23712214D01*
X7166757Y-23397929D02*
X7095328Y-23612214D01*
X7281043Y-23612214D01*
X7623900Y-23712214D02*
X7623900Y-23412214D01*
X7752471Y-23712214D02*
X7752471Y-23555071D01*
X7738186Y-23526500D01*
X7709614Y-23512214D01*
X7666757Y-23512214D01*
X7638186Y-23526500D01*
X7623900Y-23540786D01*
X7938186Y-23712214D02*
X7909614Y-23697929D01*
X7895328Y-23683643D01*
X7881043Y-23655071D01*
X7881043Y-23569357D01*
X7895328Y-23540786D01*
X7909614Y-23526500D01*
X7938186Y-23512214D01*
X7981043Y-23512214D01*
X8009614Y-23526500D01*
X8023900Y-23540786D01*
X8038186Y-23569357D01*
X8038186Y-23655071D01*
X8023900Y-23683643D01*
X8009614Y-23697929D01*
X7981043Y-23712214D01*
X7938186Y-23712214D01*
X8209614Y-23712214D02*
X8181043Y-23697929D01*
X8166757Y-23669357D01*
X8166757Y-23412214D01*
X8438186Y-23697929D02*
X8409614Y-23712214D01*
X8352471Y-23712214D01*
X8323900Y-23697929D01*
X8309614Y-23669357D01*
X8309614Y-23555071D01*
X8323900Y-23526500D01*
X8352471Y-23512214D01*
X8409614Y-23512214D01*
X8438186Y-23526500D01*
X8452471Y-23555071D01*
X8452471Y-23583643D01*
X8309614Y-23612214D01*
X8566757Y-23697929D02*
X8595328Y-23712214D01*
X8652471Y-23712214D01*
X8681043Y-23697929D01*
X8695328Y-23669357D01*
X8695328Y-23655071D01*
X8681043Y-23626500D01*
X8652471Y-23612214D01*
X8609614Y-23612214D01*
X8581043Y-23597929D01*
X8566757Y-23569357D01*
X8566757Y-23555071D01*
X8581043Y-23526500D01*
X8609614Y-23512214D01*
X8652471Y-23512214D01*
X8681043Y-23526500D01*
X8795328Y-23826500D02*
X8809614Y-23812214D01*
X8838186Y-23769357D01*
X8852471Y-23740786D01*
X8866757Y-23697929D01*
X8881043Y-23626500D01*
X8881043Y-23569357D01*
X8866757Y-23497929D01*
X8852471Y-23455071D01*
X8838186Y-23426500D01*
X8809614Y-23383643D01*
X8795328Y-23369357D01*
X2264967Y-24078567D02*
X2264967Y-23866433D01*
X2052833Y-23866433D01*
X2052833Y-24078567D01*
X2264967Y-24078567D01*
X2308900Y-23972500D02*
G75*
G03*
X2308900Y-23972500I-150000J0D01*
G01*
X2566757Y-23808214D02*
X2752471Y-23808214D01*
X2652471Y-23922500D01*
X2695328Y-23922500D01*
X2723900Y-23936786D01*
X2738186Y-23951071D01*
X2752471Y-23979643D01*
X2752471Y-24051071D01*
X2738186Y-24079643D01*
X2723900Y-24093929D01*
X2695328Y-24108214D01*
X2609614Y-24108214D01*
X2581043Y-24093929D01*
X2566757Y-24079643D01*
X2881043Y-24079643D02*
X2895328Y-24093929D01*
X2881043Y-24108214D01*
X2866757Y-24093929D01*
X2881043Y-24079643D01*
X2881043Y-24108214D01*
X3081043Y-23808214D02*
X3109614Y-23808214D01*
X3138186Y-23822500D01*
X3152471Y-23836786D01*
X3166757Y-23865357D01*
X3181043Y-23922500D01*
X3181043Y-23993929D01*
X3166757Y-24051071D01*
X3152471Y-24079643D01*
X3138186Y-24093929D01*
X3109614Y-24108214D01*
X3081043Y-24108214D01*
X3052471Y-24093929D01*
X3038186Y-24079643D01*
X3023900Y-24051071D01*
X3009614Y-23993929D01*
X3009614Y-23922500D01*
X3023900Y-23865357D01*
X3038186Y-23836786D01*
X3052471Y-23822500D01*
X3081043Y-23808214D01*
X3366757Y-23808214D02*
X3395328Y-23808214D01*
X3423900Y-23822500D01*
X3438186Y-23836786D01*
X3452471Y-23865357D01*
X3466757Y-23922500D01*
X3466757Y-23993929D01*
X3452471Y-24051071D01*
X3438186Y-24079643D01*
X3423900Y-24093929D01*
X3395328Y-24108214D01*
X3366757Y-24108214D01*
X3338186Y-24093929D01*
X3323900Y-24079643D01*
X3309614Y-24051071D01*
X3295328Y-23993929D01*
X3295328Y-23922500D01*
X3309614Y-23865357D01*
X3323900Y-23836786D01*
X3338186Y-23822500D01*
X3366757Y-23808214D01*
X3595328Y-24108214D02*
X3595328Y-23908214D01*
X3595328Y-23936786D02*
X3609614Y-23922500D01*
X3638186Y-23908214D01*
X3681043Y-23908214D01*
X3709614Y-23922500D01*
X3723900Y-23951071D01*
X3723900Y-24108214D01*
X3723900Y-23951071D02*
X3738186Y-23922500D01*
X3766757Y-23908214D01*
X3809614Y-23908214D01*
X3838186Y-23922500D01*
X3852471Y-23951071D01*
X3852471Y-24108214D01*
X3995328Y-24108214D02*
X3995328Y-23908214D01*
X3995328Y-23936786D02*
X4009614Y-23922500D01*
X4038186Y-23908214D01*
X4081043Y-23908214D01*
X4109614Y-23922500D01*
X4123900Y-23951071D01*
X4123900Y-24108214D01*
X4123900Y-23951071D02*
X4138186Y-23922500D01*
X4166757Y-23908214D01*
X4209614Y-23908214D01*
X4238186Y-23922500D01*
X4252471Y-23951071D01*
X4252471Y-24108214D01*
X4838186Y-23793929D02*
X4581043Y-24179643D01*
X5223900Y-23808214D02*
X5252471Y-23808214D01*
X5281043Y-23822500D01*
X5295328Y-23836786D01*
X5309614Y-23865357D01*
X5323900Y-23922500D01*
X5323900Y-23993929D01*
X5309614Y-24051071D01*
X5295328Y-24079643D01*
X5281043Y-24093929D01*
X5252471Y-24108214D01*
X5223900Y-24108214D01*
X5195328Y-24093929D01*
X5181043Y-24079643D01*
X5166757Y-24051071D01*
X5152471Y-23993929D01*
X5152471Y-23922500D01*
X5166757Y-23865357D01*
X5181043Y-23836786D01*
X5195328Y-23822500D01*
X5223900Y-23808214D01*
X5452471Y-24079643D02*
X5466757Y-24093929D01*
X5452471Y-24108214D01*
X5438186Y-24093929D01*
X5452471Y-24079643D01*
X5452471Y-24108214D01*
X5752471Y-24108214D02*
X5581043Y-24108214D01*
X5666757Y-24108214D02*
X5666757Y-23808214D01*
X5638186Y-23851071D01*
X5609614Y-23879643D01*
X5581043Y-23893929D01*
X6038186Y-24108214D02*
X5866757Y-24108214D01*
X5952471Y-24108214D02*
X5952471Y-23808214D01*
X5923900Y-23851071D01*
X5895328Y-23879643D01*
X5866757Y-23893929D01*
X6209614Y-23936786D02*
X6181043Y-23922500D01*
X6166757Y-23908214D01*
X6152471Y-23879643D01*
X6152471Y-23865357D01*
X6166757Y-23836786D01*
X6181043Y-23822500D01*
X6209614Y-23808214D01*
X6266757Y-23808214D01*
X6295328Y-23822500D01*
X6309614Y-23836786D01*
X6323900Y-23865357D01*
X6323900Y-23879643D01*
X6309614Y-23908214D01*
X6295328Y-23922500D01*
X6266757Y-23936786D01*
X6209614Y-23936786D01*
X6181043Y-23951071D01*
X6166757Y-23965357D01*
X6152471Y-23993929D01*
X6152471Y-24051071D01*
X6166757Y-24079643D01*
X6181043Y-24093929D01*
X6209614Y-24108214D01*
X6266757Y-24108214D01*
X6295328Y-24093929D01*
X6309614Y-24079643D01*
X6323900Y-24051071D01*
X6323900Y-23993929D01*
X6309614Y-23965357D01*
X6295328Y-23951071D01*
X6266757Y-23936786D01*
X6438186Y-23808214D02*
X6438186Y-23865357D01*
X6552471Y-23808214D02*
X6552471Y-23865357D01*
X6995328Y-24222500D02*
X6981043Y-24208214D01*
X6952471Y-24165357D01*
X6938186Y-24136786D01*
X6923900Y-24093929D01*
X6909614Y-24022500D01*
X6909614Y-23965357D01*
X6923900Y-23893929D01*
X6938186Y-23851071D01*
X6952471Y-23822500D01*
X6981043Y-23779643D01*
X6995328Y-23765357D01*
X7238186Y-23908214D02*
X7238186Y-24108214D01*
X7166757Y-23793929D02*
X7095328Y-24008214D01*
X7281043Y-24008214D01*
X7623900Y-24108214D02*
X7623900Y-23808214D01*
X7752471Y-24108214D02*
X7752471Y-23951071D01*
X7738186Y-23922500D01*
X7709614Y-23908214D01*
X7666757Y-23908214D01*
X7638186Y-23922500D01*
X7623900Y-23936786D01*
X7938186Y-24108214D02*
X7909614Y-24093929D01*
X7895328Y-24079643D01*
X7881043Y-24051071D01*
X7881043Y-23965357D01*
X7895328Y-23936786D01*
X7909614Y-23922500D01*
X7938186Y-23908214D01*
X7981043Y-23908214D01*
X8009614Y-23922500D01*
X8023900Y-23936786D01*
X8038186Y-23965357D01*
X8038186Y-24051071D01*
X8023900Y-24079643D01*
X8009614Y-24093929D01*
X7981043Y-24108214D01*
X7938186Y-24108214D01*
X8209614Y-24108214D02*
X8181043Y-24093929D01*
X8166757Y-24065357D01*
X8166757Y-23808214D01*
X8438186Y-24093929D02*
X8409614Y-24108214D01*
X8352471Y-24108214D01*
X8323900Y-24093929D01*
X8309614Y-24065357D01*
X8309614Y-23951071D01*
X8323900Y-23922500D01*
X8352471Y-23908214D01*
X8409614Y-23908214D01*
X8438186Y-23922500D01*
X8452471Y-23951071D01*
X8452471Y-23979643D01*
X8309614Y-24008214D01*
X8566757Y-24093929D02*
X8595328Y-24108214D01*
X8652471Y-24108214D01*
X8681043Y-24093929D01*
X8695328Y-24065357D01*
X8695328Y-24051071D01*
X8681043Y-24022500D01*
X8652471Y-24008214D01*
X8609614Y-24008214D01*
X8581043Y-23993929D01*
X8566757Y-23965357D01*
X8566757Y-23951071D01*
X8581043Y-23922500D01*
X8609614Y-23908214D01*
X8652471Y-23908214D01*
X8681043Y-23922500D01*
X8795328Y-24222500D02*
X8809614Y-24208214D01*
X8838186Y-24165357D01*
X8852471Y-24136786D01*
X8866757Y-24093929D01*
X8881043Y-24022500D01*
X8881043Y-23965357D01*
X8866757Y-23893929D01*
X8852471Y-23851071D01*
X8838186Y-23822500D01*
X8809614Y-23779643D01*
X8795328Y-23765357D01*
X2108900Y-24602500D02*
X2308900Y-24402500D01*
X2108900Y-24202500D01*
X1908900Y-24402500D01*
X2108900Y-24602500D01*
X2308900Y-24402500D02*
G75*
G03*
X2308900Y-24402500I-200000J0D01*
G01*
X2723900Y-24338214D02*
X2723900Y-24538214D01*
X2652471Y-24223929D02*
X2581043Y-24438214D01*
X2766757Y-24438214D01*
X2881043Y-24509643D02*
X2895328Y-24523929D01*
X2881043Y-24538214D01*
X2866757Y-24523929D01*
X2881043Y-24509643D01*
X2881043Y-24538214D01*
X3081043Y-24238214D02*
X3109614Y-24238214D01*
X3138186Y-24252500D01*
X3152471Y-24266786D01*
X3166757Y-24295357D01*
X3181043Y-24352500D01*
X3181043Y-24423929D01*
X3166757Y-24481071D01*
X3152471Y-24509643D01*
X3138186Y-24523929D01*
X3109614Y-24538214D01*
X3081043Y-24538214D01*
X3052471Y-24523929D01*
X3038186Y-24509643D01*
X3023900Y-24481071D01*
X3009614Y-24423929D01*
X3009614Y-24352500D01*
X3023900Y-24295357D01*
X3038186Y-24266786D01*
X3052471Y-24252500D01*
X3081043Y-24238214D01*
X3366757Y-24238214D02*
X3395328Y-24238214D01*
X3423900Y-24252500D01*
X3438186Y-24266786D01*
X3452471Y-24295357D01*
X3466757Y-24352500D01*
X3466757Y-24423929D01*
X3452471Y-24481071D01*
X3438186Y-24509643D01*
X3423900Y-24523929D01*
X3395328Y-24538214D01*
X3366757Y-24538214D01*
X3338186Y-24523929D01*
X3323900Y-24509643D01*
X3309614Y-24481071D01*
X3295328Y-24423929D01*
X3295328Y-24352500D01*
X3309614Y-24295357D01*
X3323900Y-24266786D01*
X3338186Y-24252500D01*
X3366757Y-24238214D01*
X3595328Y-24538214D02*
X3595328Y-24338214D01*
X3595328Y-24366786D02*
X3609614Y-24352500D01*
X3638186Y-24338214D01*
X3681043Y-24338214D01*
X3709614Y-24352500D01*
X3723900Y-24381071D01*
X3723900Y-24538214D01*
X3723900Y-24381071D02*
X3738186Y-24352500D01*
X3766757Y-24338214D01*
X3809614Y-24338214D01*
X3838186Y-24352500D01*
X3852471Y-24381071D01*
X3852471Y-24538214D01*
X3995328Y-24538214D02*
X3995328Y-24338214D01*
X3995328Y-24366786D02*
X4009614Y-24352500D01*
X4038186Y-24338214D01*
X4081043Y-24338214D01*
X4109614Y-24352500D01*
X4123900Y-24381071D01*
X4123900Y-24538214D01*
X4123900Y-24381071D02*
X4138186Y-24352500D01*
X4166757Y-24338214D01*
X4209614Y-24338214D01*
X4238186Y-24352500D01*
X4252471Y-24381071D01*
X4252471Y-24538214D01*
X4838186Y-24223929D02*
X4581043Y-24609643D01*
X5223900Y-24238214D02*
X5252471Y-24238214D01*
X5281043Y-24252500D01*
X5295328Y-24266786D01*
X5309614Y-24295357D01*
X5323900Y-24352500D01*
X5323900Y-24423929D01*
X5309614Y-24481071D01*
X5295328Y-24509643D01*
X5281043Y-24523929D01*
X5252471Y-24538214D01*
X5223900Y-24538214D01*
X5195328Y-24523929D01*
X5181043Y-24509643D01*
X5166757Y-24481071D01*
X5152471Y-24423929D01*
X5152471Y-24352500D01*
X5166757Y-24295357D01*
X5181043Y-24266786D01*
X5195328Y-24252500D01*
X5223900Y-24238214D01*
X5452471Y-24509643D02*
X5466757Y-24523929D01*
X5452471Y-24538214D01*
X5438186Y-24523929D01*
X5452471Y-24509643D01*
X5452471Y-24538214D01*
X5752471Y-24538214D02*
X5581043Y-24538214D01*
X5666757Y-24538214D02*
X5666757Y-24238214D01*
X5638186Y-24281071D01*
X5609614Y-24309643D01*
X5581043Y-24323929D01*
X6023900Y-24238214D02*
X5881043Y-24238214D01*
X5866757Y-24381071D01*
X5881043Y-24366786D01*
X5909614Y-24352500D01*
X5981043Y-24352500D01*
X6009614Y-24366786D01*
X6023900Y-24381071D01*
X6038186Y-24409643D01*
X6038186Y-24481071D01*
X6023900Y-24509643D01*
X6009614Y-24523929D01*
X5981043Y-24538214D01*
X5909614Y-24538214D01*
X5881043Y-24523929D01*
X5866757Y-24509643D01*
X6138186Y-24238214D02*
X6338186Y-24238214D01*
X6209614Y-24538214D01*
X6438186Y-24238214D02*
X6438186Y-24295357D01*
X6552471Y-24238214D02*
X6552471Y-24295357D01*
X6995328Y-24652500D02*
X6981043Y-24638214D01*
X6952471Y-24595357D01*
X6938186Y-24566786D01*
X6923900Y-24523929D01*
X6909614Y-24452500D01*
X6909614Y-24395357D01*
X6923900Y-24323929D01*
X6938186Y-24281071D01*
X6952471Y-24252500D01*
X6981043Y-24209643D01*
X6995328Y-24195357D01*
X7152471Y-24366786D02*
X7123900Y-24352500D01*
X7109614Y-24338214D01*
X7095328Y-24309643D01*
X7095328Y-24295357D01*
X7109614Y-24266786D01*
X7123900Y-24252500D01*
X7152471Y-24238214D01*
X7209614Y-24238214D01*
X7238186Y-24252500D01*
X7252471Y-24266786D01*
X7266757Y-24295357D01*
X7266757Y-24309643D01*
X7252471Y-24338214D01*
X7238186Y-24352500D01*
X7209614Y-24366786D01*
X7152471Y-24366786D01*
X7123900Y-24381071D01*
X7109614Y-24395357D01*
X7095328Y-24423929D01*
X7095328Y-24481071D01*
X7109614Y-24509643D01*
X7123900Y-24523929D01*
X7152471Y-24538214D01*
X7209614Y-24538214D01*
X7238186Y-24523929D01*
X7252471Y-24509643D01*
X7266757Y-24481071D01*
X7266757Y-24423929D01*
X7252471Y-24395357D01*
X7238186Y-24381071D01*
X7209614Y-24366786D01*
X7623900Y-24538214D02*
X7623900Y-24238214D01*
X7752471Y-24538214D02*
X7752471Y-24381071D01*
X7738186Y-24352500D01*
X7709614Y-24338214D01*
X7666757Y-24338214D01*
X7638186Y-24352500D01*
X7623900Y-24366786D01*
X7938186Y-24538214D02*
X7909614Y-24523929D01*
X7895328Y-24509643D01*
X7881043Y-24481071D01*
X7881043Y-24395357D01*
X7895328Y-24366786D01*
X7909614Y-24352500D01*
X7938186Y-24338214D01*
X7981043Y-24338214D01*
X8009614Y-24352500D01*
X8023900Y-24366786D01*
X8038186Y-24395357D01*
X8038186Y-24481071D01*
X8023900Y-24509643D01*
X8009614Y-24523929D01*
X7981043Y-24538214D01*
X7938186Y-24538214D01*
X8209614Y-24538214D02*
X8181043Y-24523929D01*
X8166757Y-24495357D01*
X8166757Y-24238214D01*
X8438186Y-24523929D02*
X8409614Y-24538214D01*
X8352471Y-24538214D01*
X8323900Y-24523929D01*
X8309614Y-24495357D01*
X8309614Y-24381071D01*
X8323900Y-24352500D01*
X8352471Y-24338214D01*
X8409614Y-24338214D01*
X8438186Y-24352500D01*
X8452471Y-24381071D01*
X8452471Y-24409643D01*
X8309614Y-24438214D01*
X8566757Y-24523929D02*
X8595328Y-24538214D01*
X8652471Y-24538214D01*
X8681043Y-24523929D01*
X8695328Y-24495357D01*
X8695328Y-24481071D01*
X8681043Y-24452500D01*
X8652471Y-24438214D01*
X8609614Y-24438214D01*
X8581043Y-24423929D01*
X8566757Y-24395357D01*
X8566757Y-24381071D01*
X8581043Y-24352500D01*
X8609614Y-24338214D01*
X8652471Y-24338214D01*
X8681043Y-24352500D01*
X8795328Y-24652500D02*
X8809614Y-24638214D01*
X8838186Y-24595357D01*
X8852471Y-24566786D01*
X8866757Y-24523929D01*
X8881043Y-24452500D01*
X8881043Y-24395357D01*
X8866757Y-24323929D01*
X8852471Y-24281071D01*
X8838186Y-24252500D01*
X8809614Y-24209643D01*
X8795328Y-24195357D01*
M02*
